<svg xmlns="http://www.w3.org/2000/svg" viewBox="0 0 120 120" fill="none">
  <path d="M60 8L104 28V64C104 88 84 108 60 114C36 108 16 88 16 64V28L60 8Z" fill="#1A1A2E"/>
  <path d="M60 14L98 32V64C98 85 80 102 60 108C40 102 22 85 22 64V32L60 14Z" fill="#1A1A2E" stroke="#B8860B" stroke-opacity="0.4" stroke-width="1.5"/>
  <path d="M60 20L92 36V64C92 82 76 96 60 102C44 96 28 82 28 64V36L60 20Z" fill="#2D2D4E"/>
  <!-- Gold crescent (Dubai/Islamic finance) -->
  <path d="M54 22C50 22 48 26 48 28C48 32 52 34 56 34C52 34 50 30 50 28C50 24 52 22 54 22Z" fill="#B8860B" opacity="0.9"/>
  <polygon points="66,24 67,27 70,27 68,29 69,31 66,29 63,31 64,29 62,27 65,27" fill="#B8860B" opacity="0.9"/>
  <text x="60" y="66" font-family="system-ui,sans-serif" font-weight="800" font-size="24" fill="#FFD700" text-anchor="middle" dominant-baseline="middle">DFSA</text>
  <line x1="36" y1="78" x2="84" y2="78" stroke="#B8860B" stroke-opacity="0.4" stroke-width="1.5" stroke-linecap="round"/>
  <text x="60" y="90" font-family="system-ui,sans-serif" font-weight="600" font-size="9" fill="#FFD700" opacity="0.7" text-anchor="middle">DUBAI / UAE</text>
</svg>