<svg xmlns="http://www.w3.org/2000/svg" viewBox="0 0 120 120" fill="none">
  <!-- Shield shape -->
  <path d="M60 8L104 28V64C104 88 84 108 60 114C36 108 16 88 16 64V28L60 8Z" fill="#003087"/>
  <path d="M60 14L98 32V64C98 85 80 102 60 108C40 102 22 85 22 64V32L60 14Z" fill="#003087" stroke="white" stroke-opacity="0.2" stroke-width="1.5"/>
  <!-- Inner highlight -->
  <path d="M60 20L92 36V64C92 82 76 96 60 102C44 96 28 82 28 64V36L60 20Z" fill="#0047AB"/>
  <!-- FCA text -->
  <text x="60" y="68" font-family="system-ui,sans-serif" font-weight="800" font-size="30" fill="white" text-anchor="middle" dominant-baseline="middle">FCA</text>
  <!-- Crown accent (UK authority) -->
  <path d="M44 32L48 26L52 30L56 24L60 30L64 24L68 30L72 26L76 32" stroke="#FFD700" stroke-width="2" stroke-linecap="round" stroke-linejoin="round" fill="none"/>
  <!-- Underline -->
  <line x1="38" y1="78" x2="82" y2="78" stroke="white" stroke-opacity="0.4" stroke-width="1.5" stroke-linecap="round"/>
  <text x="60" y="90" font-family="system-ui,sans-serif" font-weight="600" font-size="9" fill="white" opacity="0.7" text-anchor="middle">UK</text>
</svg>