<svg xmlns="http://www.w3.org/2000/svg" viewBox="0 0 120 120" fill="none">
  <path d="M60 8L104 28V64C104 88 84 108 60 114C36 108 16 88 16 64V28L60 8Z" fill="#D32F2F"/>
  <path d="M60 14L98 32V64C98 85 80 102 60 108C40 102 22 85 22 64V32L60 14Z" fill="#D32F2F" stroke="white" stroke-opacity="0.2" stroke-width="1.5"/>
  <path d="M60 20L92 36V64C92 82 76 96 60 102C44 96 28 82 28 64V36L60 20Z" fill="#E53935"/>
  <!-- Swiss cross -->
  <rect x="54" y="24" width="12" height="4" rx="1" fill="white"/>
  <rect x="58" y="20" width="4" height="12" rx="1" fill="white"/>
  <text x="60" y="66" font-family="system-ui,sans-serif" font-weight="800" font-size="22" fill="white" text-anchor="middle" dominant-baseline="middle">FINMA</text>
  <line x1="34" y1="78" x2="86" y2="78" stroke="white" stroke-opacity="0.4" stroke-width="1.5" stroke-linecap="round"/>
  <text x="60" y="90" font-family="system-ui,sans-serif" font-weight="600" font-size="9" fill="white" opacity="0.7" text-anchor="middle">SWITZERLAND</text>
</svg>