<svg xmlns="http://www.w3.org/2000/svg" viewBox="0 0 120 120" fill="none">
  <path d="M60 8L104 28V64C104 88 84 108 60 114C36 108 16 88 16 64V28L60 8Z" fill="#0047AB"/>
  <path d="M60 14L98 32V64C98 85 80 102 60 108C40 102 22 85 22 64V32L60 14Z" fill="#0047AB" stroke="white" stroke-opacity="0.2" stroke-width="1.5"/>
  <path d="M60 20L92 36V64C92 82 76 96 60 102C44 96 28 82 28 64V36L60 20Z" fill="#1565C0"/>
  <!-- Waves (Caribbean) -->
  <path d="M44 28C48 24 52 32 56 28C60 24 64 32 68 28C72 24 76 32 76 28" stroke="white" stroke-opacity="0.5" stroke-width="1.5" fill="none"/>
  <text x="60" y="66" font-family="system-ui,sans-serif" font-weight="800" font-size="24" fill="white" text-anchor="middle" dominant-baseline="middle">IFSC</text>
  <line x1="36" y1="78" x2="84" y2="78" stroke="white" stroke-opacity="0.4" stroke-width="1.5" stroke-linecap="round"/>
  <text x="60" y="90" font-family="system-ui,sans-serif" font-weight="600" font-size="9" fill="white" opacity="0.7" text-anchor="middle">BELIZE</text>
</svg>