<?xml version="1.0" encoding="UTF-8"?>
<svg id="Layer_2" data-name="Layer 2" xmlns="http://www.w3.org/2000/svg" version="1.1" viewBox="0 0 204 70">
  <defs>
    <style>
      .cls-1 {
        fill: none;
      }

      .cls-1, .cls-2 {
        stroke-width: 0px;
      }

      .cls-2 {
        fill: #002857;
      }
    </style>
  </defs>
  <g id="Layer_2-2" data-name="Layer 2-2">
    <g id="Layer_1-2" data-name="Layer 1-2">
      <g id="Layer_2-2-2" data-name="Layer 2-2">
        <g id="Layer_1-2-2" data-name="Layer 1-2-2">
          <path class="cls-2" d="M111.034,32.035h-4.061c-.734,0-1.101.195-1.101.562v11.598h-6.826v-11.598c0-.367-.367-.562-1.101-.562h-5.529l1.296-2.57h17.322v2.57Z"/>
          <path class="cls-2" d="M129.262,44.195h-6.998l-5.162-4.061v4.061h-6.264v-11.793h7.732c1.835,0,3.866.195,5.701.734,2.203.562,3.132,1.468,3.132,2.765,0,.929-.562,1.663-1.468,2.203-1.101.562-2.203.929-3.304,1.101l6.631,4.967h0v.023ZM122.448,35.706c0-1.296-2.398-1.468-3.304-1.468h-1.835v2.57h1.835c.929.195,3.304.195,3.304-1.101"/>
          <path class="cls-2" d="M146.206,44.195h-5.896l-.734-1.663h-6.631l-.734,1.663h-3.694l5.529-11.793h6.436l5.701,11.793h.023ZM138.841,40.134l-2.398-5.701-2.398,5.701s4.795,0,4.795,0Z"/>
          <path class="cls-2" d="M163.7,38.103c0,1.663-.929,2.937-2.57,4.233-1.835,1.101-4.061,1.835-6.264,1.663h-7.732v-11.793h7.732c2.203,0,4.428.562,6.264,1.663,1.663,1.296,2.57,2.765,2.57,4.233M158.549,38.103c0-2.203-2.57-3.866-3.694-3.866h-2.203v7.732h2.203c1.101,0,3.694-1.468,3.694-3.866"/>
          <path class="cls-2" d="M177.696,44.195h-13.261v-11.793h13.261v2.03h-6.826c-.562,0-.929.195-.929.367v2.398h7.732v2.03h-7.56v2.398c0,.367.367.367.929.367h6.826v2.203h-.195.023Z"/>
          <path class="cls-2" d="M190.957,40.684c-.195,2.203-2.203,3.499-4.061,3.499h-7.927v-2.03h5.701c.195,0,.929-.195.929-.734,0-2.203-6.631-2.203-6.631-5.529,0-2.57,2.398-3.499,3.694-3.499h8.294v2.03h-5.701c-.195,0-.929.195-.929.734,0,1.296,6.826,1.296,6.631,5.529"/>
          <path class="cls-2" d="M85.246,42.336l11.047-21.727h-2.398l-10.129,19.697-4.967-8.294h-5.896l5.334,10.324c.367.562.734.929,1.296,1.101.367.195.929.367,1.296.367h1.663c.367,0,.929-.195,1.296-.367.562-.195,1.101-.734,1.468-1.101"/>
          <rect class="cls-2" x="66.639" y="32.035" width="5.529" height="11.793"/>
          <path class="cls-2" d="M65.354,34.237h-4.061c-.562,0-.929.195-.929.367v9.2h-5.529v-9.2c0-.367-.367-.367-.929-.367h-4.428l1.101-2.203h14.73v2.203h.046Z"/>
          <path class="cls-2" d="M49.144,43.816h-6.631c-2.203,0-4.428-.562-6.264-1.663-1.663-1.101-2.57-2.57-2.57-4.233s.929-2.937,2.57-4.233c1.835-1.101,4.061-1.835,6.264-1.663h6.631l-1.101,2.03h-5.529c-.929,0-2.03.562-2.398,1.468-.367,1.468-.367,3.132,0,4.795.367.929,1.296,1.663,2.398,1.468h6.631v2.03Z"/>
          <path class="cls-2" d="M34.598,43.816h-7.193l-.929-2.03h-8.099l-.929,2.03h-4.417l6.826-14.546h8.099l6.631,14.557h0l.011-.011ZM25.375,39.032l-2.937-7.193-2.765,7.193h5.701Z"/>
        </g>
      </g>
    </g>
    <rect class="cls-1" y="13.015" width="204" height="43.971"/>
  </g>
</svg>