<?xml version="1.0" encoding="UTF-8"?>
<svg id="Layer_1" data-name="Layer 1" xmlns="http://www.w3.org/2000/svg" xmlns:xlink="http://www.w3.org/1999/xlink" version="1.1" viewBox="0 0 204 70">
  <defs>
    <clipPath id="clippath">
      <rect x="41.307" width="121.386" height="70" fill="none" stroke-width="0"/>
    </clipPath>
  </defs>
  <g clip-path="url(#clippath)">
    <g>
      <path d="M157.04,70c3.148,0,5.413-1.554,5.413-4.326,0-3.266-2.561-3.993-5.374-4.55-2.188-.465-3.778-.924-3.778-2.513,0-1.453,1.249-2.24,3.166-2.24,2.052,0,3.321.963,3.575,2.733h1.955c-.348-2.499-1.952-4.308-5.53-4.308-2.987,0-5.04,1.456-5.04,3.916,0,2.8,2.209,3.559,4.807,4.109,2.539.571,4.223,1.022,4.223,2.93,0,1.771-1.391,2.635-3.343,2.635-2.639,0-4.086-1.218-4.32-3.419h-1.975c.143,2.789,2.156,5.033,6.222,5.033Z" fill="#000" stroke-width="0"/>
      <path d="M134.395,56.843h4.769v12.863h2.013v-12.863h4.789v-1.771h-11.571v1.771Z" fill="#000" stroke-width="0"/>
      <path d="M118.371,69.706h10.553v-1.831h-8.56v-4.935h7.547v-1.673h-7.547v-4.424h8.347v-1.771h-10.34v14.634Z" fill="#000" stroke-width="0"/>
      <path d="M101.064,69.706h1.993v-5.306l2.209-2.184,5.374,7.476h2.316l-6.302-8.757,5.843-5.884h-2.501l-7.019,7.249c.042-.7.08-1.708.08-2.695v-4.533h-1.993v14.634Z" fill="#000" stroke-width="0"/>
      <path d="M83.468,69.706h2.01v-6.097h3.868c1.896,0,2.755.746,2.894,2.8.157,2.342.195,3.01.525,3.287h2.104v-.098c-.292-.2-.49-.907-.664-3.206-.136-2.1-.605-3.087-2.247-3.581v-.06c1.934-.609,2.657-1.869,2.657-3.657,0-2.419-1.76-4.032-4.358-4.032h-6.789v14.644ZM85.479,56.805h4.261c2.049,0,2.852.882,2.852,2.594,0,1.593-.977,2.597-2.953,2.597h-4.16v-5.191Z" fill="#000" stroke-width="0"/>
      <path d="M64.781,69.706h2.052l1.485-4.256h5.728l1.443,4.27h2.191l-5.356-14.634h-2.226l-5.318,14.62ZM70.294,59.773c.47-1.358.897-3.108.897-3.108h.059s.393,1.694.88,3.108l1.391,4.092h-4.654l1.426-4.092Z" fill="#000" stroke-width="0"/>
      <path d="M44.785,69.706h1.798v-8.852c0-1.298-.118-3.755-.118-3.755h.059s.605,2.202,1.016,3.342l3.537,9.265h1.565l3.537-9.265c.431-1.141,1.016-3.342,1.016-3.342h.038s-.115,2.45-.115,3.755v8.852h1.913v-14.634h-2.671l-2.97,7.945c-.584,1.613-1.485,4.585-1.485,4.585h-.038s-.88-2.993-1.468-4.585l-3.029-7.945h-2.584v14.634Z" fill="#000" stroke-width="0"/>
      <path d="M90.167,44.254c.326.001.649-.062.951-.186.302-.124.576-.307.808-.538.231-.231.416-.506.542-.808.126-.303.192-.627.193-.956V12.32c0-3.85-1.934-5.694-5.544-6.863-1.43-.445-2.783-.802-4.115-1.088v39.9l7.165-.014ZM104.428,44.254c.326.001.649-.062.951-.186.302-.124.576-.307.808-.538.231-.231.416-.506.542-.808.126-.303.192-.627.193-.956V12.32c0-3.85-1.934-5.694-5.544-6.863-1.43-.445-2.782-.802-4.115-1.088v39.9l7.165-.014ZM121.241,41.766V.105c-1.329.283-2.685.64-4.111,1.085-3.617,1.173-5.565,3.01-5.565,6.86v36.204h7.165c.327.003.652-.06.955-.183.303-.124.579-.306.813-.537.233-.231.419-.506.546-.81.127-.303.194-.629.196-.959ZM161.761,33.775l-3.288.966c-4.256,1.204-7.711,2.009-10.368,2.009-7.715,0-11.645-4.644-11.645-14.329,0-9.762,3.93-14.413,11.645-14.413,2.657,0,6.111.889,10.368,2.002l3.288.97V2.744l-2.087-.585c-4.734-1.358-8.834-2.16-12.445-2.16-12.135,0-20.406,7.7-20.406,22.4,0,15.288,8.271,22.4,20.406,22.4,3.611,0,7.711-.882,12.449-2.236l2.086-.592-.003-8.197ZM76.244,33.775l-3.287.966c-4.254,1.204-7.711,2.009-10.365,2.009-7.721,0-11.645-4.651-11.645-14.35,0-9.761,3.93-14.413,11.645-14.413,2.654,0,6.111.889,10.368,2.002l3.283.97V2.744l-2.087-.585c-4.734-1.358-8.834-2.16-12.445-2.16-12.135,0-20.406,7.7-20.406,22.4,0,15.288,8.271,22.4,20.406,22.4,3.61,0,7.711-.882,12.452-2.236l2.087-.592-.007-8.197Z" fill="#000" fill-rule="evenodd" stroke-width="0"/>
    </g>
  </g>
</svg>