<?xml version="1.0" encoding="utf-8"?>
<!-- Generator: Adobe Illustrator 22.0.1, SVG Export Plug-In . SVG Version: 6.00 Build 0)  -->
<svg version="1.1" id="logo" xmlns="http://www.w3.org/2000/svg" xmlns:xlink="http://www.w3.org/1999/xlink" x="0px" y="0px"
	 width="228px" height="49px" viewBox="0 0 228 49" style="enable-background:new 0 0 228 49;" xml:space="preserve">
<style type="text/css">
	.st0{fill:#ED1C24;enable-background:new    ;}
	.st1{fill:#FFFFFF;}
	.st2{fill:#838383;}
</style>
<path class="st0" d="M46,46H0V0h46V46z"/>
<path id="krest" class="st1" d="M18,38h10V28h10V18H28V8H18v10H8v10h10V38z"/>
<path d="M221.1,5l-4.6,6.9L212.1,5h-7.3l0.7,1c-1.1-0.4-2.8-1-4-1h-10.4l0,6.6c-0.4-1.5-1.2-2.8-2.4-3.9c-1.9-1.7-4.1-2.8-8.1-2.8
	h-0.1c-3.9,0-6,1.1-7.9,2.8c-1.1,1-1.9,2.3-2.4,3.8c-0.2-0.5-0.5-1.4-0.6-1.8c-0.6-1.3-1.6-2.4-2.8-3.2c-1.1-0.7-2.2-1.1-3.5-1.3
	c0,0-0.9-0.3-2.8-0.3c-4.1-0.1-6,1-7.8,2.7s-2.7,4.2-2.8,7.4v0.3c-0.7-0.8-1.5-1.5-2.5-1.9c-2-0.8-4-1.4-6.1-1.7
	c-0.8-0.1-1.5-0.3-2.2-0.7c-0.3-0.2-0.4-0.5-0.4-0.8c0-0.4,0.2-0.8,0.6-1.1c0.5-0.3,1.1-0.5,1.7-0.4c0.8,0,1.5,0.2,2.2,0.6
	c0.6,0.4,0.9,1.1,1,1.8h6.2c-0.1-1.8-1.1-3.5-2.6-4.6c-1.9-1.1-4-1.6-6.1-1.6c-2.6,0-3.5,0.4-5.2,1c-1.1,0.4-2.1,1.1-2.8,2.1
	c-0.6,0.8-0.9,1.8-0.9,2.8c0,1.5,0.7,2.9,1.8,3.8c1.8,1.2,3.9,2,6.1,2.3c1.2,0.2,2.3,0.5,3.3,1.2c0.4,0.3,0.7,0.8,0.7,1.3
	c0,0.6-0.3,1.1-0.8,1.4c-0.6,0.4-1.4,0.7-2.2,0.6c-1.1,0.1-2.1-0.4-2.9-1.2c-0.5-0.5-0.7-1.2-0.8-1.9h-5.9L126.6,5h-6.7L113,22.3
	l-6.3-9.6l8.1-7.7h-8.5l-7.1,7.6V5l-6.6,0l0,13.2c-0.1,0.6-0.4,1.1-0.9,1.5c-0.7,0.6-1.7,0.9-2.6,0.9c-1,0.1-1.9-0.3-2.6-0.9
	c-0.7-0.7-1-1.6-0.9-2.5V5h-6.5l0,4.7c-0.1-0.7-0.2-1.4-0.5-2c-0.4-1.5-1.1-2.8-2.1-3.9s-2.3-2-3.7-2.6C71,0.4,69,0,67,0H55v25h11
	c2-0.2,4-0.4,6-1c1.4-0.3,2.6-1,3.7-1.9c1.2-1,2.1-2.2,2.7-3.6c0.4-0.9,0.6-1.9,0.8-2.9V17c0,1.1,0.2,2.2,0.6,3.3
	c0.3,0.8,0.8,1.6,1.4,2.3c0.6,0.7,1.4,1.3,2.2,1.7c0.9,0.4,2,0.7,3,0.8c1.2,0.1,2.3,0.2,3.3,0.2c1.2,0,2.2,0,3.4-0.3l5.9,0v-4.4
	l3.5-3.7l4.4,8.1l11.9,0l1-3.3h7.4l1,3.3l6.8,0l-0.6-1.7c1.4,1.3,3.8,1.9,7.4,1.9c1.7,0.1,3.5-0.2,5.1-0.8c1.3-0.5,2.3-1.3,3.1-2.4
	c0.5-0.6,0.8-1.4,1-2.2c0.2,0.4,0.4,0.8,0.7,1.2c0.9,1.4,2.2,2.6,3.7,3.3c1.8,0.7,3.7,1,5.6,0.9c0.8,0,1.6-0.1,2.5-0.2
	c0.8-0.1,1.5-0.3,2.2-0.6c1.2-0.5,2.2-1.3,3-2.3c0.6-0.7,1.1-1.5,1.4-2.4c0.1-0.2,0.2-0.7,0.2-1.1c0.2,0.7,0.6,1.5,1,2.1
	c0.9,1.5,2.2,2.6,3.8,3.3c1.8,0.7,2.5,1.1,4.7,1.1h1.6c1.6,0,3.6-0.4,5.5-1.3c2.1-1.1,3.7-3,4.4-5.3V25h6.5v-7.5h3.6
	c2.6,0,4.6-0.5,5.8-1.6c1.3-1.2,2-2.9,1.9-4.6c0-0.2,0-0.5,0-0.7l4.4,6.1v8.2h6.5v-8.2l8-11.3L226.7,5L221.1,5z M70.5,16.8
	c-0.3,0.8-0.9,1.4-1.7,1.9C68.2,19,67.6,18.9,67,19h-1h-3V6h4c1,0,4.1,0.7,4.1,6.5C71.2,14,71,15.4,70.5,16.8z M121.3,17.4l2.2-6.7
	l0.1-0.3l0,0l2.3,7H121.3z M170.1,17.8h-5.7c-0.1,0.7-0.5,1.4-0.9,1.9l0,0c-0.8,0.7-1.8,1-2.8,1c-1.1,0.1-2.2-0.4-3-1.2
	c-0.7-0.8-1.1-2.3-1.1-4.4c-0.1-1.3,0.2-2.7,0.9-3.8c0.8-1.1,2-1.7,3.4-1.7c0.6,0,1.2,0.1,1.8,0.4c0.3,0.1,0.6,0.3,0.8,0.5
	c0.4,0.3,0.7,0.8,0.9,1.3h5.9c-0.3,1.1-0.5,2.3-0.5,3.4C169.8,16,169.9,16.9,170.1,17.8z M184,19.4c-0.8,0.9-2,1.3-3.3,1.3
	c-1.2,0.1-2.4-0.4-3.2-1.3c-0.9-1.2-1.3-2.7-1.2-4.2c-0.1-1.5,0.3-3,1.2-4.3c0.8-0.9,2-1.4,3.1-1.3h0.1c1.2,0,2.4,0.4,3.2,1.3
	c0.9,1.1,1.3,2.6,1.2,4C185.1,17,184.7,18.6,184,19.4z M201.9,13.1c-0.8,0.4-1.7,0.7-2.6,0.6h-1.6V9.3h1.9c0.9-0.1,1.7,0.2,2.5,0.6
	c0.4,0.4,0.7,1,0.7,1.6C202.7,12.1,202.4,12.7,201.9,13.1z"/>
<path d="M180.7,20.7L180.7,20.7z"/>
<path id="Swiss_Banking_Group" class="st2" d="M55.8,43.3c0.4,0.7,1,1.2,1.8,1.5c0.9,0.4,1.8,0.5,2.8,0.5c0.8,0,1.6-0.2,2.4-0.5
	c0.7-0.3,1.2-0.8,1.6-1.4c0.4-0.5,0.6-1.2,0.6-1.7c0-0.6-0.2-1.2-0.5-1.7c-0.4-0.6-1-1-1.6-1.3c-0.9-0.3-1.8-0.6-2.7-0.8
	c-0.9-0.1-1.7-0.4-2.5-0.9c-0.3-0.3-0.5-0.7-0.5-1.1c0-0.5,0.3-1,0.7-1.3c0.6-0.4,1.4-0.6,2.2-0.6c0.8-0.1,1.5,0.2,2.1,0.6
	c0.5,0.4,0.8,1.1,0.9,1.7l1.6-0.1c0-0.7-0.2-1.4-0.6-1.8c-0.4-0.6-1-1-1.6-1.3c-0.8-0.3-1.6-0.5-2.4-0.4c-0.8,0-1.5,0.1-2.3,0.4
	c-0.6,0.2-1.2,0.7-1.6,1.2c-0.3,0.5-0.5,1.1-0.5,1.6c0,0.5,0.1,1.1,0.4,1.5c0.3,0.5,0.8,0.9,1.3,1.2c0.8,0.3,1.6,0.6,2.4,0.8
	c0.7,0.2,1.5,0.4,2.2,0.6c0.4,0.1,0.8,0.4,1.1,0.7c0.2,0.3,0.3,0.6,0.3,1s-0.1,0.8-0.4,1.1c-0.3,0.4-0.6,0.6-1.1,0.8
	c-0.5,0.2-1.1,0.3-1.6,0.3c-0.6,0-1.3-0.1-1.9-0.4c-0.5-0.2-0.9-0.5-1.2-1s-0.5-1-0.5-1.5L55.2,41C55.1,41.9,55.4,42.6,55.8,43.3z
	 M70.4,44.9l1.8-6.7l0.4,1.5l1.4,5.1h1.6l2.8-8.6h-1.5l-1.5,5l-0.5,1.6l-0.4-1.6L73,36.3h-1.6l-1.4,5c-0.3,1.1-0.4,1.7-0.5,1.7
	L69,41.3l-1.4-5H66l2.7,8.6H70.4L70.4,44.9z M81.3,34.6v-1.7h-1.5v1.7H81.3z M81.3,44.9v-8.6h-1.5v8.6H81.3z M84.3,44.4
	c0.8,0.5,1.7,0.8,2.7,0.7c0.6,0,1.3-0.1,1.9-0.4c0.5-0.2,1-0.6,1.3-1s0.4-0.9,0.4-1.4s-0.1-0.9-0.4-1.3c-0.3-0.4-0.6-0.6-1-0.8
	c-0.7-0.3-1.5-0.5-2.2-0.7c-0.7-0.2-1.2-0.3-1.3-0.4c-0.2-0.1-0.4-0.2-0.6-0.4c-0.1-0.1-0.2-0.3-0.2-0.5c0-0.3,0.2-0.6,0.4-0.8
	c0.4-0.3,1-0.4,1.5-0.3c0.5,0,1,0.1,1.4,0.4c0.3,0.3,0.5,0.7,0.6,1.1l1.5-0.2c-0.1-0.5-0.2-1-0.5-1.4s-0.7-0.7-1.2-0.8
	c-0.6-0.3-1.3-0.4-1.9-0.4c-0.4,0-0.9,0.1-1.3,0.2c-0.3,0.1-0.7,0.2-1,0.4c-0.3,0.2-0.6,0.5-0.8,0.8c-0.2,0.3-0.3,0.7-0.3,1.1
	c0,0.9,0.5,1.6,1.3,2c0.7,0.3,1.5,0.5,2.3,0.7c0.5,0.1,1.1,0.3,1.6,0.5c0.3,0.2,0.4,0.5,0.4,0.8c0,0.4-0.2,0.8-0.5,1
	c-0.4,0.3-1,0.5-1.6,0.4c-0.6,0-1.1-0.1-1.6-0.5c-0.4-0.4-0.7-0.8-0.7-1.4L83,42.2C83.3,43.2,83.7,43.9,84.3,44.4z M93.1,44.4
	c0.8,0.5,1.7,0.8,2.7,0.7c0.6,0,1.3-0.1,1.9-0.4c0.5-0.2,1-0.6,1.3-1s0.4-0.9,0.4-1.4s-0.1-0.9-0.4-1.3c-0.3-0.4-0.6-0.6-1-0.8
	c-0.7-0.3-1.5-0.5-2.2-0.7c-0.7-0.2-1.2-0.3-1.3-0.4c-0.2-0.1-0.4-0.2-0.6-0.4c-0.1-0.2-0.2-0.3-0.2-0.5c0-0.3,0.2-0.6,0.4-0.8
	c0.4-0.3,1-0.4,1.5-0.3c0.5,0,1,0.1,1.4,0.4c0.3,0.3,0.5,0.7,0.6,1.1l1.5-0.2c-0.1-0.5-0.2-1-0.5-1.4s-0.7-0.7-1.2-0.8
	c-0.6-0.2-1.2-0.3-1.9-0.3c-0.4,0-0.9,0.1-1.3,0.2c-0.3,0.1-0.7,0.2-1,0.4c-0.3,0.2-0.6,0.5-0.8,0.8c-0.2,0.3-0.3,0.7-0.3,1.1
	c0,0.9,0.5,1.6,1.3,2c0.7,0.3,1.5,0.5,2.3,0.7c0.5,0.1,1.1,0.3,1.6,0.5c0.3,0.2,0.5,0.5,0.4,0.8c0,0.4-0.2,0.8-0.5,1
	c-0.4,0.3-1,0.5-1.6,0.4c-0.6,0-1.1-0.1-1.6-0.5c-0.4-0.4-0.7-0.8-0.7-1.4l-1.5,0.2C92.1,43.2,92.5,43.9,93.1,44.4z M111.1,44.9
	c0.7,0,1.3-0.1,2-0.2c0.5-0.1,0.9-0.3,1.4-0.6c0.4-0.3,0.7-0.7,0.9-1.2c0.2-0.5,0.4-1.1,0.4-1.5c0-0.7-0.2-1.3-0.6-1.8
	s-1-0.9-1.7-1.1c0.5-0.2,1-0.6,1.3-1.1c0.3-0.4,0.4-1,0.4-1.5c0-0.6-0.2-1.1-0.5-1.5c-0.3-0.5-0.8-0.9-1.3-1.2
	c-0.7-0.3-1.5-0.4-2.3-0.4h-4.6v11.9L111.1,44.9L111.1,44.9z M108.1,34.5h2.5c0.6,0,1.3,0,1.9,0.2c0.3,0.1,0.6,0.3,0.8,0.6
	c0.2,0.3,0.3,0.7,0.3,1.1c0,0.4-0.1,0.8-0.3,1.1c-0.2,0.3-0.6,0.5-0.9,0.6c-0.5,0.1-1,0.2-1.6,0.1h-2.7
	C108.1,38,108.1,34.5,108.1,34.5z M108.1,39.4h2.9c0.6,0,1.2,0,1.8,0.2c0.4,0.1,0.7,0.4,1,0.7c0.4,0.7,0.5,1.5,0.1,2.1
	c-0.1,0.3-0.4,0.5-0.6,0.7c-0.3,0.2-0.6,0.3-0.9,0.3c-0.4,0-0.7,0.1-1.1,0.1h-3.1v-4.1H108.1z M124.1,44.9h1.6
	c-0.2-0.3-0.3-0.7-0.4-1.1c-0.1-0.9-0.1-1.7-0.1-2.6v-1.9c0-0.5,0-0.9-0.1-1.4c-0.1-0.4-0.2-0.7-0.5-1s-0.6-0.5-1.1-0.7
	c-0.6-0.2-1.2-0.3-1.9-0.3c-0.7,0-1.4,0.1-2,0.3c-0.5,0.2-1,0.5-1.3,0.9c-0.3,0.5-0.6,1-0.7,1.5l1.5,0.2c0.1-0.5,0.4-1,0.8-1.3
	c0.5-0.3,1-0.4,1.6-0.4s1.2,0.1,1.7,0.5c0.3,0.4,0.5,0.8,0.4,1.3c0,0.1,0,0.2,0,0.4c-0.9,0.3-1.8,0.4-2.7,0.5
	c-0.5,0-0.9,0.1-1.4,0.2c-0.4,0.1-0.8,0.3-1.1,0.5c-0.3,0.2-0.6,0.5-0.8,0.9c-0.2,0.4-0.3,0.8-0.3,1.2c0,0.7,0.3,1.4,0.8,1.7
	c0.6,0.5,1.4,0.8,2.3,0.7c0.6,0,1.1-0.1,1.7-0.3c0.6-0.2,1.1-0.6,1.6-1C123.8,44.2,123.9,44.6,124.1,44.9L124.1,44.9L124.1,44.9z
	 M123.7,41.1c0,0.5-0.1,1-0.2,1.5c-0.2,0.4-0.6,0.8-1,1c-0.5,0.3-1,0.4-1.6,0.4c-0.5,0-1-0.1-1.3-0.4c-0.3-0.2-0.5-0.6-0.5-1
	c0-0.3,0.1-0.5,0.2-0.7c0.1-0.2,0.4-0.4,0.6-0.5c0.4-0.2,0.9-0.3,1.3-0.3c0.8-0.1,1.7-0.3,2.5-0.6V41.1L123.7,41.1z M129.3,44.9
	v-4.7c-0.1-0.8,0.2-1.6,0.7-2.2c0.5-0.4,1.1-0.6,1.7-0.6c0.4,0,0.7,0.1,1.1,0.3c0.3,0.2,0.5,0.4,0.6,0.7c0.1,0.5,0.2,0.9,0.2,1.4
	v5.2h1.5v-5.3c0-0.5,0-1-0.1-1.5c-0.1-0.4-0.2-0.8-0.5-1.1s-0.6-0.6-1-0.8c-0.5-0.2-1-0.3-1.5-0.3c-1.1,0-2.2,0.5-2.8,1.5v-1.3h-1.4
	v8.6L129.3,44.9L129.3,44.9z M139,44.9v-3.4l1.1-1L143,45h1.9l-3.8-5.4l3.4-3.2h-2l-3.6,3.5v-6.8h-1.5V45L139,44.9L139,44.9z
	 M147.8,34.6v-1.7h-1.5v1.7H147.8z M147.8,44.9v-8.6h-1.5v8.6H147.8z M151.8,44.9v-4.7c-0.1-0.8,0.2-1.6,0.7-2.2
	c0.5-0.4,1.1-0.6,1.7-0.6c0.4,0,0.7,0.1,1.1,0.3c0.3,0.2,0.5,0.4,0.6,0.7c0.1,0.4,0.2,0.9,0.2,1.4v5.2h1.5v-5.3c0-0.5,0-1-0.1-1.5
	c-0.1-0.4-0.2-0.8-0.5-1.1s-0.6-0.6-1-0.8c-0.5-0.2-1-0.3-1.5-0.3c-1.1,0-2.2,0.5-2.9,1.5v-1.3h-1.4v8.6L151.8,44.9L151.8,44.9z
	 M160.7,47.7c0.8,0.5,1.7,0.8,2.6,0.7c0.8,0,1.6-0.1,2.3-0.5c0.6-0.3,1.1-0.8,1.4-1.4c0.3-0.9,0.5-1.9,0.4-2.9v-7.4H166v1.1
	c-0.6-0.8-1.6-1.3-2.6-1.3c-1.5,0-2.9,0.9-3.4,2.2c-0.3,0.7-0.5,1.5-0.5,2.3c0,1.1,0.3,2.2,1,3.1c0.7,0.9,1.7,1.4,2.9,1.3
	c1,0,1.9-0.4,2.5-1.2c0,0.7,0,1.3-0.1,1.8c-0.1,0.5-0.4,0.9-0.8,1.2c-0.5,0.3-1,0.5-1.6,0.4c-0.5,0-1.1-0.1-1.5-0.4
	c-0.3-0.2-0.5-0.6-0.5-1l-1.5-0.2C159.7,46.4,160,47.2,160.7,47.7L160.7,47.7z M161.7,38.1c0.4-0.5,1.1-0.8,1.7-0.8
	c0.7,0,1.3,0.3,1.8,0.8c0.5,0.7,0.8,1.5,0.7,2.4c0.1,0.9-0.2,1.7-0.7,2.4c-0.8,1-2.3,1.1-3.2,0.3c-0.1-0.1-0.2-0.2-0.3-0.3
	c-0.5-0.7-0.8-1.6-0.7-2.5C161,39.6,161.2,38.8,161.7,38.1L161.7,38.1z M184.4,40.3v2.2c-0.5,0.4-1,0.7-1.5,0.9
	c-0.7,0.3-1.4,0.4-2.1,0.4c-0.8,0-1.6-0.2-2.3-0.5c-0.7-0.4-1.3-0.9-1.6-1.6c-0.4-0.9-0.6-1.7-0.6-2.7c0-0.8,0.2-1.6,0.5-2.4
	c0.2-0.4,0.5-0.9,0.8-1.2c0.4-0.4,0.8-0.7,1.3-0.9c0.6-0.2,1.3-0.4,1.9-0.3c0.6,0,1.2,0.1,1.7,0.3c0.5,0.2,0.9,0.5,1.2,0.9
	s0.6,0.9,0.7,1.5l1.5-0.4c-0.2-0.7-0.5-1.4-0.9-1.9c-0.4-0.5-1-1-1.7-1.2c-0.8-0.3-1.6-0.5-2.4-0.4c-1.1,0-2.3,0.2-3.3,0.8
	c-1,0.5-1.7,1.3-2.2,2.2c-0.5,1-0.8,2.1-0.8,3.3c0,1.1,0.2,2.2,0.8,3.2c0.5,1,1.3,1.7,2.2,2.2c1,0.5,2.2,0.8,3.3,0.8
	c0.9,0,1.8-0.2,2.6-0.5c0.9-0.3,1.7-0.8,2.5-1.4v-4.4h-5.2v1.4L184.4,40.3L184.4,40.3z M189.9,44.9v-4.5c0-0.6,0.1-1.2,0.3-1.7
	c0.1-0.3,0.3-0.6,0.6-0.8c0.3-0.2,0.6-0.3,0.9-0.3c0.4,0,0.8,0.1,1.1,0.3l0.5-1.4c-0.5-0.3-1-0.5-1.6-0.5c-0.3,0-0.7,0.1-1,0.3
	c-0.4,0.3-0.7,0.8-1,1.3v-1.4h-1.4v8.6L189.9,44.9L189.9,44.9z M194.9,43.9c0.8,0.8,1.9,1.2,3,1.2c0.8,0,1.5-0.2,2.2-0.5
	c0.6-0.4,1.2-0.9,1.5-1.5c0.4-0.8,0.6-1.7,0.5-2.6c0.1-1.2-0.3-2.3-1.2-3.2c-0.8-0.8-1.9-1.3-3-1.2c-1,0-2,0.3-2.8,1
	c-1,1-1.5,2.2-1.4,3.6C193.6,41.8,194,43.1,194.9,43.9z M196,38.1c0.9-1,2.5-1.1,3.5-0.2c0.1,0.1,0.2,0.1,0.2,0.2
	c0.5,0.7,0.8,1.5,0.8,2.4c0.1,0.9-0.2,1.8-0.8,2.5c-0.5,0.6-1.1,0.9-1.9,0.9c-0.7,0-1.4-0.3-1.9-0.9C195,41.6,195,39.7,196,38.1z
	 M211.2,44.9v-8.6h-1.5v4.6c0,0.6-0.1,1.2-0.3,1.7c-0.2,0.4-0.5,0.7-0.9,0.9c-0.4,0.2-0.8,0.4-1.3,0.3c-0.4,0-0.8-0.1-1.1-0.3
	c-0.3-0.2-0.5-0.6-0.6-0.9c-0.1-0.5-0.1-1.1-0.1-1.5v-4.8H204v5.3c0,0.5,0,1,0.1,1.4s0.2,0.8,0.5,1.1c0.3,0.3,0.6,0.6,1,0.8
	c0.5,0.2,1,0.3,1.5,0.3c1.1,0,2.2-0.5,2.8-1.5v1.3H211.2L211.2,44.9z M215.3,48.3v-4.2c0.3,0.3,0.6,0.6,1,0.8
	c0.4,0.2,0.9,0.3,1.4,0.3c0.7,0,1.4-0.2,2-0.6c0.6-0.4,1.1-1,1.4-1.6c0.3-0.8,0.5-1.5,0.5-2.4c0-0.8-0.1-1.5-0.4-2.3
	c-0.3-0.7-0.7-1.3-1.3-1.6s-1.3-0.6-2-0.6c-0.5,0-1,0.1-1.5,0.3c-0.4,0.3-0.8,0.6-1.1,1v-1.2h-1.4v12h1.4V48.3z M215.9,38.1
	c0.4-0.6,1-0.9,1.7-0.9s1.3,0.3,1.7,0.8c0.5,0.7,0.8,1.6,0.7,2.5c0.1,0.9-0.2,1.8-0.7,2.5c-0.4,0.5-1.1,0.9-1.7,0.9
	c-0.7,0-1.3-0.3-1.7-0.8c-0.5-0.7-0.8-1.5-0.7-2.5C215.1,39.8,215.4,38.8,215.9,38.1L215.9,38.1z"/>
</svg>
