<svg width="142" height="45" viewBox="31 0 142 45" fill="none" xmlns="http://www.w3.org/2000/svg">
<g clip-path="url(#clip0_1_2)">
<path d="M170.557 15.9843C169.759 13.0027 163.545 6.09873 159.094 0.566026C159.038 0.502249 158.695 0 158.224 0C157.746 0 157.419 0.47036 157.578 0.837081C157.746 1.21975 162.101 10.1566 161.287 13.1143C160.474 16.072 156.517 15.498 155.863 15.498C155.552 15.498 155.759 15.7531 156.15 16.1038C158.312 18.0331 159.812 20.7437 159.812 24.3551V27.0337C159.812 27.0895 159.852 27.1533 159.939 27.1453C164.885 26.5793 172.575 23.526 170.557 15.9843Z" fill="#12B732"/>
<path d="M151.013 33.3238C151.013 35.8669 147.575 37.3259 145.342 37.3259C142.948 37.3259 139.566 35.8749 139.566 33.3238V24.3471C139.566 21.804 142.948 20.6081 145.342 20.6081C147.575 20.6081 151.013 21.804 151.013 24.3471V33.3238ZM145.342 15.0515C140.037 15.1073 133.847 18.1686 133.847 24.3551V33.7623C133.847 40.0523 140.037 43.01 145.342 43.0658C150.543 43.018 156.733 40.0523 156.733 33.7623V24.3551C156.733 18.1686 150.543 15.0993 145.342 15.0515Z" fill="#12B732"/>
<path d="M111.056 33.3238C111.056 35.8669 107.618 37.3259 105.385 37.3259C102.992 37.3259 99.6094 35.8749 99.6094 33.3238V24.3471C99.6094 21.804 102.992 20.6081 105.385 20.6081C107.618 20.6081 111.056 21.804 111.056 24.3471V33.3238ZM105.385 15.0515C100.08 15.1073 93.8899 18.1686 93.8899 24.3551V33.7623C93.8899 40.0523 100.08 43.01 105.385 43.0658C110.586 43.018 116.776 40.0523 116.776 33.7623V24.3551C116.776 18.1686 110.586 15.0993 105.385 15.0515Z" fill="#12B732"/>
<path d="M47.7344 16.0959C48.1253 15.7531 48.3327 15.49 48.0216 15.49C47.3675 15.49 43.4109 16.072 42.5972 13.1063C41.7756 10.1486 46.139 1.21975 46.3065 0.837081C46.4581 0.47036 46.131 0 45.6524 0C45.1818 0 44.8388 0.502249 44.7909 0.566026C40.3397 6.09873 34.1257 13.0106 33.328 15.9843C31.3018 23.526 39.1272 26.5793 44.073 27.1374C44.1607 27.1453 44.2006 27.0816 44.2006 27.0258V24.3471C44.2006 20.7357 45.5647 18.0331 47.7344 16.0959Z" fill="#12B732"/>
<path d="M93.459 17.1004C89.2232 15.9524 86.0962 15.474 81.5573 15.474C77.0184 15.474 73.8835 15.9524 69.6557 17.0924C69.4562 17.1402 69.4163 17.3395 69.5121 17.4671C70.9559 18.6629 71.5622 20.2574 71.8493 22.0591C74.1706 21.493 76.2686 21.1662 78.7016 21.0307V42.8745C78.7016 42.9542 78.7574 43.002 78.8372 43.002H84.2775C84.3732 43.01 84.4211 42.9702 84.4131 42.8825V21.0386C86.7583 21.1742 88.7047 21.509 91.018 22.067C91.369 20.2733 92.1029 18.6071 93.5866 17.483C93.7222 17.3156 93.6105 17.1402 93.459 17.1004Z" fill="#12B732"/>
<path d="M134.054 15.2428C133.647 15.187 132.443 15.0116 131.39 15.0515C126.181 15.2508 120.294 18.3201 120.294 24.3471V24.8334V33.7543V42.9303C120.294 43.01 120.35 43.0579 120.429 43.0579H125.87C125.965 43.0658 126.013 43.026 126.005 42.9383V42.452V24.3551C126.005 22.37 128.454 21.1423 130.496 20.7277C131.087 18.7426 132.259 17.3156 134.046 15.8806C134.365 15.6255 134.349 15.2827 134.054 15.2428Z" fill="#12B732"/>
<path d="M63.5215 25.9336C63.5215 25.9973 63.4976 26.0531 63.4577 26.101C63.4178 26.1488 63.354 26.1807 63.2822 26.1807H52.8483V24.2833C52.8483 21.7003 55.9194 20.4885 58.3444 20.4885C60.6099 20.4885 63.5215 21.7003 63.5215 24.2833V25.9336ZM58.3444 14.8522C52.968 14.908 47.049 18.0172 47.049 24.2833V33.8181C47.049 40.1958 52.968 43.2014 58.3444 43.2492C62.1973 43.2093 66.5847 41.6149 68.6746 38.2426C68.7464 38.131 68.6826 37.9796 68.5789 37.9238C66.7362 36.8714 65.6673 36.2815 63.8406 35.261C63.7848 35.2291 63.7209 35.2291 63.6731 35.3089C62.676 36.9671 60.1313 37.8839 58.3444 37.8839C55.9194 37.8839 52.8483 36.409 52.8483 33.826V30.98H67.7573C68.555 30.98 69.2011 30.3342 69.2011 29.537V24.2913C69.2011 18.0092 63.6172 14.9 58.3444 14.8522Z" fill="#12B732"/>
</g>
<defs>
<clipPath id="clip0_1_2">
<rect width="173" height="45" fill="white"/>
</clipPath>
</defs>
</svg>
