<svg width="204" height="70" viewBox="0 0 204 70" fill="none" xmlns="http://www.w3.org/2000/svg">
<g clip-path="url(#clip0_1_2)">
<path d="M170.557 15.9843C169.759 13.0027 163.545 6.09873 159.094 0.566026C159.038 0.502249 158.695 0 158.224 0C157.746 0 157.419 0.47036 157.578 0.837081C157.746 1.21975 162.101 10.1566 161.287 13.1143C160.474 16.072 156.517 15.498 155.863 15.498C155.552 15.498 155.759 15.7531 156.15 16.1038C158.312 18.0331 159.812 20.7437 159.812 24.3551V27.0337C159.812 27.0895 159.852 27.1533 159.939 27.1453C164.885 26.5793 172.575 23.526 170.557 15.9843Z" fill="#12B732"/>
<path d="M151.013 33.3238C151.013 35.8669 147.575 37.3259 145.342 37.3259C142.948 37.3259 139.566 35.8749 139.566 33.3238V24.3471C139.566 21.804 142.948 20.6081 145.342 20.6081C147.575 20.6081 151.013 21.804 151.013 24.3471V33.3238ZM145.342 15.0515C140.037 15.1073 133.847 18.1686 133.847 24.3551V33.7623C133.847 40.0523 140.037 43.01 145.342 43.0658C150.543 43.018 156.733 40.0523 156.733 33.7623V24.3551C156.733 18.1686 150.543 15.0993 145.342 15.0515Z" fill="#12B732"/>
<path d="M111.056 33.3238C111.056 35.8669 107.618 37.3259 105.385 37.3259C102.992 37.3259 99.6094 35.8749 99.6094 33.3238V24.3471C99.6094 21.804 102.992 20.6081 105.385 20.6081C107.618 20.6081 111.056 21.804 111.056 24.3471V33.3238ZM105.385 15.0515C100.08 15.1073 93.8899 18.1686 93.8899 24.3551V33.7623C93.8899 40.0523 100.08 43.01 105.385 43.0658C110.586 43.018 116.776 40.0523 116.776 33.7623V24.3551C116.776 18.1686 110.586 15.0993 105.385 15.0515Z" fill="#12B732"/>
<path d="M47.7344 16.0959C48.1253 15.7531 48.3327 15.49 48.0216 15.49C47.3675 15.49 43.4109 16.072 42.5972 13.1063C41.7756 10.1486 46.139 1.21975 46.3065 0.837081C46.4581 0.47036 46.131 0 45.6524 0C45.1818 0 44.8388 0.502249 44.7909 0.566026C40.3397 6.09873 34.1257 13.0106 33.328 15.9843C31.3018 23.526 39.1272 26.5793 44.073 27.1374C44.1607 27.1453 44.2006 27.0816 44.2006 27.0258V24.3471C44.2006 20.7357 45.5647 18.0331 47.7344 16.0959Z" fill="#12B732"/>
<path d="M93.459 17.1004C89.2232 15.9524 86.0962 15.474 81.5573 15.474C77.0184 15.474 73.8835 15.9524 69.6557 17.0924C69.4562 17.1402 69.4163 17.3395 69.5121 17.4671C70.9559 18.6629 71.5622 20.2574 71.8493 22.0591C74.1706 21.493 76.2686 21.1662 78.7016 21.0307V42.8745C78.7016 42.9542 78.7574 43.002 78.8372 43.002H84.2775C84.3732 43.01 84.4211 42.9702 84.4131 42.8825V21.0386C86.7583 21.1742 88.7047 21.509 91.018 22.067C91.369 20.2733 92.1029 18.6071 93.5866 17.483C93.7222 17.3156 93.6105 17.1402 93.459 17.1004Z" fill="#12B732"/>
<path d="M134.054 15.2428C133.647 15.187 132.443 15.0116 131.39 15.0515C126.181 15.2508 120.294 18.3201 120.294 24.3471V24.8334V33.7543V42.9303C120.294 43.01 120.35 43.0579 120.429 43.0579H125.87C125.965 43.0658 126.013 43.026 126.005 42.9383V42.452V24.3551C126.005 22.37 128.454 21.1423 130.496 20.7277C131.087 18.7426 132.259 17.3156 134.046 15.8806C134.365 15.6255 134.349 15.2827 134.054 15.2428Z" fill="#12B732"/>
<path d="M63.5215 25.9336C63.5215 25.9973 63.4976 26.0531 63.4577 26.101C63.4178 26.1488 63.354 26.1807 63.2822 26.1807H52.8483V24.2833C52.8483 21.7003 55.9194 20.4885 58.3444 20.4885C60.6099 20.4885 63.5215 21.7003 63.5215 24.2833V25.9336ZM58.3444 14.8522C52.968 14.908 47.049 18.0172 47.049 24.2833V33.8181C47.049 40.1958 52.968 43.2014 58.3444 43.2492C62.1973 43.2093 66.5847 41.6149 68.6746 38.2426C68.7464 38.131 68.6826 37.9796 68.5789 37.9238C66.7362 36.8714 65.6673 36.2815 63.8406 35.261C63.7848 35.2291 63.7209 35.2291 63.6731 35.3089C62.676 36.9671 60.1313 37.8839 58.3444 37.8839C55.9194 37.8839 52.8483 36.409 52.8483 33.826V30.98H67.7573C68.555 30.98 69.2011 30.3342 69.2011 29.537V24.2913C69.2011 18.0092 63.6172 14.9 58.3444 14.8522Z" fill="#12B732"/>
<path d="M11.5028 61.1C11.9695 61.1 12.3928 61.21 12.7728 61.43C13.1528 61.65 13.4495 61.95 13.6628 62.33C13.8828 62.71 13.9928 63.1367 13.9928 63.61C13.9928 64.0767 13.8828 64.5 13.6628 64.88C13.4428 65.2533 13.1295 65.55 12.7228 65.77C12.3161 65.9833 11.8495 66.09 11.3228 66.09C10.7828 66.09 10.3095 65.9833 9.90281 65.77C9.49615 65.5567 9.17948 65.2633 8.95281 64.89C8.73281 64.51 8.62281 64.0833 8.62281 63.61C8.62281 62.9233 8.86281 62.2733 9.34281 61.66L11.7428 58.61H12.8128L10.6428 61.25C10.8895 61.15 11.1761 61.1 11.5028 61.1ZM11.3228 65.31C11.6761 65.31 11.9895 65.2367 12.2628 65.09C12.5428 64.9433 12.7561 64.74 12.9028 64.48C13.0561 64.22 13.1328 63.93 13.1328 63.61C13.1328 63.2767 13.0561 62.9767 12.9028 62.71C12.7561 62.4433 12.5461 62.2367 12.2728 62.09C11.9995 61.9367 11.6828 61.86 11.3228 61.86C10.9428 61.86 10.6128 61.9367 10.3328 62.09C10.0595 62.2433 9.84948 62.4533 9.70281 62.72C9.56281 62.9867 9.49281 63.29 9.49281 63.63C9.49281 63.95 9.56615 64.24 9.71281 64.5C9.86615 64.7533 10.0795 64.9533 10.3528 65.1C10.6328 65.24 10.9561 65.31 11.3228 65.31ZM14.7052 60.19L17.4752 58.58H17.6252V66H16.7952V59.86L15.0352 60.87L14.7052 60.19ZM21.2471 62.32C20.8938 62.32 20.5638 62.24 20.2571 62.08C19.9571 61.9133 19.7171 61.6867 19.5371 61.4C19.3638 61.1067 19.2771 60.7767 19.2771 60.41C19.2771 60.0367 19.3638 59.7033 19.5371 59.41C19.7171 59.1167 19.9571 58.89 20.2571 58.73C20.5638 58.5633 20.8938 58.48 21.2471 58.48C21.6004 58.48 21.9271 58.5633 22.2271 58.73C22.5271 58.89 22.7638 59.1167 22.9371 59.41C23.1171 59.7033 23.2071 60.0367 23.2071 60.41C23.2071 60.7767 23.1171 61.1067 22.9371 61.4C22.7638 61.6867 22.5271 61.9133 22.2271 62.08C21.9271 62.24 21.6004 62.32 21.2471 62.32ZM22.0971 66H21.2571L25.9771 58.61H26.8271L22.0971 66ZM21.2471 61.65C21.4604 61.65 21.6604 61.5967 21.8471 61.49C22.0338 61.3833 22.1838 61.2367 22.2971 61.05C22.4104 60.8567 22.4671 60.6433 22.4671 60.41C22.4671 60.17 22.4104 59.9567 22.2971 59.77C22.1904 59.5767 22.0404 59.4267 21.8471 59.32C21.6604 59.2133 21.4604 59.16 21.2471 59.16C21.0271 59.16 20.8238 59.2133 20.6371 59.32C20.4504 59.4267 20.3004 59.5767 20.1871 59.77C20.0804 59.9567 20.0271 60.17 20.0271 60.41C20.0271 60.6433 20.0804 60.8567 20.1871 61.05C20.3004 61.2367 20.4504 61.3833 20.6371 61.49C20.8238 61.5967 21.0271 61.65 21.2471 61.65ZM26.8471 66.12C26.4938 66.12 26.1638 66.04 25.8571 65.88C25.5571 65.7133 25.3171 65.4867 25.1371 65.2C24.9638 64.9067 24.8771 64.5733 24.8771 64.2C24.8771 63.8267 24.9638 63.4967 25.1371 63.21C25.3171 62.9167 25.5571 62.69 25.8571 62.53C26.1638 62.37 26.4938 62.29 26.8471 62.29C27.2004 62.29 27.5238 62.37 27.8171 62.53C28.1171 62.69 28.3538 62.9167 28.5271 63.21C28.7071 63.5033 28.7971 63.8333 28.7971 64.2C28.7971 64.5667 28.7071 64.8967 28.5271 65.19C28.3538 65.4833 28.1171 65.7133 27.8171 65.88C27.5171 66.04 27.1938 66.12 26.8471 66.12ZM26.8471 65.44C27.0604 65.44 27.2604 65.3867 27.4471 65.28C27.6404 65.1733 27.7904 65.0267 27.8971 64.84C28.0104 64.6533 28.0671 64.44 28.0671 64.2C28.0671 63.9667 28.0104 63.7567 27.8971 63.57C27.7838 63.3767 27.6338 63.2267 27.4471 63.12C27.2604 63.0133 27.0604 62.96 26.8471 62.96C26.6271 62.96 26.4238 63.0133 26.2371 63.12C26.0504 63.2267 25.9004 63.3767 25.7871 63.57C25.6738 63.7567 25.6171 63.9667 25.6171 64.2C25.6171 64.44 25.6738 64.6533 25.7871 64.84C25.9004 65.0267 26.0504 65.1733 26.2371 65.28C26.4238 65.3867 26.6271 65.44 26.8471 65.44ZM34.6422 66.12C34.1622 66.12 33.7189 66.01 33.3122 65.79C32.9055 65.5633 32.5822 65.2467 32.3422 64.84C32.1022 64.4267 31.9822 63.9533 31.9822 63.42C31.9822 62.88 32.1022 62.4067 32.3422 62C32.5822 61.5867 32.9055 61.27 33.3122 61.05C33.7189 60.8233 34.1622 60.71 34.6422 60.71C35.1222 60.71 35.5622 60.8233 35.9622 61.05C36.3689 61.27 36.6889 61.5867 36.9222 62C37.1622 62.4067 37.2822 62.88 37.2822 63.42C37.2822 63.9533 37.1622 64.4267 36.9222 64.84C36.6889 65.2467 36.3689 65.5633 35.9622 65.79C35.5622 66.01 35.1222 66.12 34.6422 66.12ZM34.6422 65.4C34.9689 65.4 35.2722 65.32 35.5522 65.16C35.8322 64.9933 36.0555 64.76 36.2222 64.46C36.3889 64.1533 36.4722 63.8033 36.4722 63.41C36.4722 63.01 36.3889 62.66 36.2222 62.36C36.0622 62.06 35.8422 61.83 35.5622 61.67C35.2822 61.51 34.9755 61.43 34.6422 61.43C34.3089 61.43 34.0022 61.51 33.7222 61.67C33.4422 61.83 33.2189 62.0633 33.0522 62.37C32.8855 62.67 32.8022 63.02 32.8022 63.42C32.8022 63.8133 32.8855 64.16 33.0522 64.46C33.2189 64.76 33.4422 64.9933 33.7222 65.16C34.0022 65.32 34.3089 65.4 34.6422 65.4ZM39.6543 60.83H41.5643V61.54H39.6543V66H38.8643V61.54H37.7843L37.9743 60.83H38.8643V60.35C38.8643 59.97 38.931 59.64 39.0643 59.36C39.2043 59.08 39.4043 58.8667 39.6643 58.72C39.931 58.5667 40.2443 58.49 40.6043 58.49C41.091 58.49 41.5143 58.63 41.8743 58.91L41.5143 59.51C41.261 59.2967 40.971 59.19 40.6443 59.19C40.3376 59.19 40.0943 59.2867 39.9143 59.48C39.741 59.6733 39.6543 59.95 39.6543 60.31V60.83ZM45.6427 61.96C46.036 61.1667 46.7227 60.77 47.7027 60.77V61.59C47.3693 61.5767 47.046 61.6233 46.7327 61.73C46.426 61.8367 46.1693 62.0367 45.9627 62.33C45.756 62.6233 45.6527 63.0233 45.6527 63.53V66H44.8627V60.83H45.6327L45.6427 61.96ZM53.2596 63.6H49.1596C49.1996 64.18 49.3763 64.6267 49.6896 64.94C50.0096 65.2467 50.4363 65.4 50.9696 65.4C51.3029 65.4 51.5963 65.3467 51.8496 65.24C52.1029 65.1267 52.3529 64.94 52.5996 64.68L53.0796 65.18C52.7996 65.5133 52.4863 65.7533 52.1396 65.9C51.7996 66.0467 51.3996 66.12 50.9396 66.12C50.4263 66.12 49.9729 66.0133 49.5796 65.8C49.1863 65.58 48.8796 65.2667 48.6596 64.86C48.4463 64.4467 48.3396 63.9567 48.3396 63.39C48.3396 62.8767 48.4496 62.4167 48.6696 62.01C48.8963 61.6033 49.2029 61.2867 49.5896 61.06C49.9829 60.8267 50.4163 60.71 50.8896 60.71C51.3563 60.71 51.7696 60.82 52.1296 61.04C52.4896 61.2533 52.7696 61.5567 52.9696 61.95C53.1696 62.3433 53.2696 62.8 53.2696 63.32L53.2596 63.6ZM50.8796 61.41C50.5863 61.41 50.3196 61.4767 50.0796 61.61C49.8396 61.7367 49.6396 61.92 49.4796 62.16C49.3263 62.3933 49.2263 62.6633 49.1796 62.97H52.4496C52.4229 62.6567 52.3429 62.3833 52.2096 62.15C52.0763 61.91 51.8963 61.7267 51.6696 61.6C51.4429 61.4733 51.1796 61.41 50.8796 61.41ZM57.7509 65.6C57.5509 65.7733 57.3409 65.9033 57.1209 65.99C56.9075 66.0767 56.6675 66.12 56.4009 66.12C55.9275 66.12 55.5475 65.9867 55.2609 65.72C54.9809 65.4533 54.8409 65.0567 54.8409 64.53V61.54H53.7609L53.9509 60.83H54.8409V59.34H55.6309V60.83H57.6709V61.54H55.6309V64.52C55.6309 64.8067 55.7042 65.0233 55.8509 65.17C56.0042 65.3167 56.2042 65.39 56.4509 65.39C56.6309 65.39 56.7875 65.3633 56.9209 65.31C57.0609 65.25 57.2075 65.1533 57.3609 65.02L57.7509 65.6ZM62.067 66C62.0604 65.94 62.0437 65.8267 62.017 65.66C61.997 65.4933 61.9804 65.3367 61.967 65.19C61.7937 65.49 61.557 65.72 61.257 65.88C60.9637 66.0333 60.6237 66.11 60.237 66.11C59.877 66.11 59.557 66.05 59.277 65.93C59.0037 65.8033 58.7904 65.6233 58.637 65.39C58.4837 65.1567 58.407 64.8767 58.407 64.55C58.407 64.2167 58.4904 63.9267 58.657 63.68C58.8304 63.4333 59.0837 63.2433 59.417 63.11C59.757 62.97 60.1637 62.9 60.637 62.9C60.8837 62.9 61.1104 62.9167 61.317 62.95C61.5237 62.9767 61.7304 63.0167 61.937 63.07V62.73C61.937 62.3233 61.8137 62.0067 61.567 61.78C61.327 61.5467 60.9937 61.43 60.567 61.43C60.2604 61.43 59.9837 61.4767 59.737 61.57C59.4904 61.6567 59.2637 61.78 59.057 61.94L58.717 61.33C59.2637 60.93 59.8904 60.73 60.597 60.73C61.0304 60.73 61.4037 60.81 61.717 60.97C62.037 61.1233 62.2804 61.35 62.447 61.65C62.6204 61.95 62.707 62.31 62.707 62.73V64.49C62.707 64.9967 62.7437 65.5 62.817 66H62.067ZM60.377 65.44C60.6904 65.44 60.9637 65.38 61.197 65.26C61.437 65.1333 61.6204 64.9567 61.747 64.73C61.8737 64.5033 61.937 64.2367 61.937 63.93V63.68C61.7437 63.6267 61.5504 63.5867 61.357 63.56C61.1637 63.5333 60.9504 63.52 60.717 63.52C60.2104 63.52 59.8304 63.61 59.577 63.79C59.3237 63.97 59.197 64.2167 59.197 64.53C59.197 64.8033 59.3037 65.0233 59.517 65.19C59.7304 65.3567 60.017 65.44 60.377 65.44ZM65.1448 66H64.3548V60.83H65.1448V66ZM64.7548 59.6C64.5948 59.6 64.4615 59.55 64.3548 59.45C64.2482 59.3433 64.1948 59.2133 64.1948 59.06C64.1948 58.9067 64.2482 58.78 64.3548 58.68C64.4615 58.58 64.5948 58.53 64.7548 58.53C64.9215 58.53 65.0582 58.58 65.1648 58.68C65.2782 58.78 65.3348 58.9067 65.3348 59.06C65.3348 59.2133 65.2782 59.3433 65.1648 59.45C65.0582 59.55 64.9215 59.6 64.7548 59.6ZM67.723 66H66.933V58.61H67.723V66ZM74.9384 66.11C74.285 66.11 73.6884 65.95 73.1484 65.63C72.6084 65.3033 72.1817 64.85 71.8684 64.27C71.555 63.69 71.3984 63.0367 71.3984 62.31C71.3984 61.57 71.555 60.9133 71.8684 60.34C72.1884 59.76 72.6217 59.31 73.1684 58.99C73.7217 58.67 74.3384 58.51 75.0184 58.51C75.605 58.51 76.1284 58.6167 76.5884 58.83C77.055 59.0433 77.4484 59.35 77.7684 59.75L77.1684 60.31C76.9217 59.99 76.615 59.7433 76.2484 59.57C75.8817 59.3967 75.4784 59.31 75.0384 59.31C74.505 59.31 74.0284 59.4367 73.6084 59.69C73.1884 59.9367 72.8584 60.29 72.6184 60.75C72.3784 61.2033 72.2584 61.7233 72.2584 62.31C72.2584 62.89 72.375 63.41 72.6084 63.87C72.8484 64.3233 73.175 64.6767 73.5884 64.93C74.0084 65.1833 74.4717 65.31 74.9784 65.31C75.4517 65.31 75.875 65.21 76.2484 65.01C76.6217 64.81 76.9384 64.5267 77.1984 64.16L77.8084 64.68C77.495 65.1467 77.0917 65.5033 76.5984 65.75C76.105 65.99 75.5517 66.11 74.9384 66.11ZM83.3909 58.61V59.39H80.1009V61.88H83.2509V62.65H80.1009V66H79.2609V58.61H83.3909ZM86.9715 58.61C87.7782 58.61 88.4848 58.7533 89.0915 59.04C89.6982 59.3267 90.1682 59.7433 90.5015 60.29C90.8348 60.83 91.0015 61.48 91.0015 62.24C91.0015 63.0133 90.8315 63.6833 90.4915 64.25C90.1582 64.8167 89.6848 65.25 89.0715 65.55C88.4648 65.85 87.7648 66 86.9715 66H85.0715V58.61H86.9715ZM86.9915 65.22C87.6115 65.22 88.1582 65.1033 88.6315 64.87C89.1048 64.6367 89.4715 64.2967 89.7315 63.85C89.9982 63.4033 90.1315 62.8667 90.1315 62.24C90.1315 61.62 90.0015 61.0967 89.7415 60.67C89.4882 60.2433 89.1248 59.9233 88.6515 59.71C88.1848 59.4967 87.6315 59.39 86.9915 59.39H85.9015V65.22H86.9915ZM97.8873 66C97.8807 65.94 97.864 65.8267 97.8373 65.66C97.8173 65.4933 97.8007 65.3367 97.7873 65.19C97.614 65.49 97.3773 65.72 97.0773 65.88C96.784 66.0333 96.444 66.11 96.0573 66.11C95.6973 66.11 95.3773 66.05 95.0973 65.93C94.824 65.8033 94.6107 65.6233 94.4573 65.39C94.304 65.1567 94.2273 64.8767 94.2273 64.55C94.2273 64.2167 94.3107 63.9267 94.4773 63.68C94.6507 63.4333 94.904 63.2433 95.2373 63.11C95.5773 62.97 95.984 62.9 96.4573 62.9C96.704 62.9 96.9307 62.9167 97.1373 62.95C97.344 62.9767 97.5507 63.0167 97.7573 63.07V62.73C97.7573 62.3233 97.634 62.0067 97.3873 61.78C97.1473 61.5467 96.814 61.43 96.3873 61.43C96.0807 61.43 95.804 61.4767 95.5573 61.57C95.3107 61.6567 95.084 61.78 94.8773 61.94L94.5373 61.33C95.084 60.93 95.7107 60.73 96.4173 60.73C96.8507 60.73 97.224 60.81 97.5373 60.97C97.8573 61.1233 98.1007 61.35 98.2673 61.65C98.4407 61.95 98.5273 62.31 98.5273 62.73V64.49C98.5273 64.9967 98.564 65.5 98.6373 66H97.8873ZM96.1973 65.44C96.5107 65.44 96.784 65.38 97.0173 65.26C97.2573 65.1333 97.4407 64.9567 97.5673 64.73C97.694 64.5033 97.7573 64.2367 97.7573 63.93V63.68C97.564 63.6267 97.3707 63.5867 97.1773 63.56C96.984 63.5333 96.7707 63.52 96.5373 63.52C96.0307 63.52 95.6507 63.61 95.3973 63.79C95.144 63.97 95.0173 64.2167 95.0173 64.53C95.0173 64.8033 95.124 65.0233 95.3373 65.19C95.5507 65.3567 95.8373 65.44 96.1973 65.44ZM102.315 66.1C101.835 66.1 101.402 65.9933 101.015 65.78C100.635 65.56 100.332 65.2467 100.105 64.84C99.8852 64.4333 99.7752 63.9567 99.7752 63.41C99.7752 62.9033 99.8885 62.45 100.115 62.05C100.348 61.6433 100.665 61.3267 101.065 61.1C101.465 60.8667 101.912 60.75 102.405 60.75C102.792 60.75 103.135 60.8133 103.435 60.94C103.735 61.06 104.008 61.2433 104.255 61.49L103.795 62.08C103.608 61.88 103.402 61.73 103.175 61.63C102.955 61.53 102.705 61.48 102.425 61.48C102.085 61.48 101.775 61.5633 101.495 61.73C101.215 61.8967 100.995 62.1267 100.835 62.42C100.675 62.7133 100.595 63.0467 100.595 63.42C100.595 63.82 100.675 64.1667 100.835 64.46C100.995 64.7533 101.208 64.9767 101.475 65.13C101.742 65.2833 102.035 65.36 102.355 65.36C102.648 65.36 102.908 65.3133 103.135 65.22C103.368 65.12 103.598 64.9567 103.825 64.73L104.275 65.28C104.008 65.56 103.715 65.7667 103.395 65.9C103.082 66.0333 102.722 66.1 102.315 66.1ZM107.462 66.1C106.982 66.1 106.548 65.9933 106.162 65.78C105.782 65.56 105.478 65.2467 105.252 64.84C105.032 64.4333 104.922 63.9567 104.922 63.41C104.922 62.9033 105.035 62.45 105.262 62.05C105.495 61.6433 105.812 61.3267 106.212 61.1C106.612 60.8667 107.058 60.75 107.552 60.75C107.938 60.75 108.282 60.8133 108.582 60.94C108.882 61.06 109.155 61.2433 109.402 61.49L108.942 62.08C108.755 61.88 108.548 61.73 108.322 61.63C108.102 61.53 107.852 61.48 107.572 61.48C107.232 61.48 106.922 61.5633 106.642 61.73C106.362 61.8967 106.142 62.1267 105.982 62.42C105.822 62.7133 105.742 63.0467 105.742 63.42C105.742 63.82 105.822 64.1667 105.982 64.46C106.142 64.7533 106.355 64.9767 106.622 65.13C106.888 65.2833 107.182 65.36 107.502 65.36C107.795 65.36 108.055 65.3133 108.282 65.22C108.515 65.12 108.745 64.9567 108.972 64.73L109.422 65.28C109.155 65.56 108.862 65.7667 108.542 65.9C108.228 66.0333 107.868 66.1 107.462 66.1ZM112.728 66.12C112.248 66.12 111.805 66.01 111.398 65.79C110.991 65.5633 110.668 65.2467 110.428 64.84C110.188 64.4267 110.068 63.9533 110.068 63.42C110.068 62.88 110.188 62.4067 110.428 62C110.668 61.5867 110.991 61.27 111.398 61.05C111.805 60.8233 112.248 60.71 112.728 60.71C113.208 60.71 113.648 60.8233 114.048 61.05C114.455 61.27 114.775 61.5867 115.008 62C115.248 62.4067 115.368 62.88 115.368 63.42C115.368 63.9533 115.248 64.4267 115.008 64.84C114.775 65.2467 114.455 65.5633 114.048 65.79C113.648 66.01 113.208 66.12 112.728 66.12ZM112.728 65.4C113.055 65.4 113.358 65.32 113.638 65.16C113.918 64.9933 114.141 64.76 114.308 64.46C114.475 64.1533 114.558 63.8033 114.558 63.41C114.558 63.01 114.475 62.66 114.308 62.36C114.148 62.06 113.928 61.83 113.648 61.67C113.368 61.51 113.061 61.43 112.728 61.43C112.395 61.43 112.088 61.51 111.808 61.67C111.528 61.83 111.305 62.0633 111.138 62.37C110.971 62.67 110.888 63.02 110.888 63.42C110.888 63.8133 110.971 64.16 111.138 64.46C111.305 64.76 111.528 64.9933 111.808 65.16C112.088 65.32 112.395 65.4 112.728 65.4ZM120.287 60.83H121.077V66H120.307L120.297 65.14C120.111 65.46 119.864 65.7033 119.557 65.87C119.257 66.0367 118.914 66.12 118.527 66.12C118.147 66.12 117.814 66.0333 117.527 65.86C117.241 65.6867 117.017 65.4333 116.857 65.1C116.697 64.76 116.617 64.3467 116.617 63.86V60.83H117.407V63.8C117.407 64.32 117.524 64.7133 117.757 64.98C117.991 65.2467 118.324 65.38 118.757 65.38C119.037 65.38 119.291 65.3167 119.517 65.19C119.751 65.0567 119.937 64.8533 120.077 64.58C120.217 64.3067 120.287 63.9667 120.287 63.56V60.83ZM125.421 60.71C125.801 60.71 126.134 60.7967 126.421 60.97C126.707 61.1433 126.931 61.4 127.091 61.74C127.251 62.08 127.331 62.4933 127.331 62.98V66H126.541V63.04C126.541 62.52 126.421 62.1267 126.181 61.86C125.947 61.5933 125.617 61.46 125.191 61.46C124.911 61.46 124.654 61.5233 124.421 61.65C124.187 61.7767 124.001 61.9767 123.861 62.25C123.721 62.5233 123.651 62.8633 123.651 63.27V66H122.861V60.83H123.631L123.641 61.7C123.827 61.3733 124.074 61.1267 124.381 60.96C124.687 60.7933 125.034 60.71 125.421 60.71ZM132.106 65.6C131.906 65.7733 131.696 65.9033 131.476 65.99C131.263 66.0767 131.023 66.12 130.756 66.12C130.283 66.12 129.903 65.9867 129.616 65.72C129.336 65.4533 129.196 65.0567 129.196 64.53V61.54H128.116L128.306 60.83H129.196V59.34H129.986V60.83H132.026V61.54H129.986V64.52C129.986 64.8067 130.06 65.0233 130.206 65.17C130.36 65.3167 130.56 65.39 130.806 65.39C130.986 65.39 131.143 65.3633 131.276 65.31C131.416 65.25 131.563 65.1533 131.716 65.02L132.106 65.6ZM134.83 66.1C134.35 66.1 133.94 66.0233 133.6 65.87C133.26 65.7167 132.957 65.5 132.69 65.22L133.17 64.69C133.417 64.93 133.67 65.1067 133.93 65.22C134.197 65.3333 134.493 65.39 134.82 65.39C135.173 65.39 135.457 65.3233 135.67 65.19C135.89 65.0567 136 64.8567 136 64.59C136 64.3967 135.94 64.2433 135.82 64.13C135.707 64.0167 135.563 63.9333 135.39 63.88C135.217 63.8267 134.977 63.7733 134.67 63.72C134.283 63.6467 133.97 63.57 133.73 63.49C133.497 63.4033 133.293 63.2633 133.12 63.07C132.953 62.8767 132.87 62.6033 132.87 62.25C132.87 61.9767 132.947 61.7267 133.1 61.5C133.26 61.2667 133.487 61.0833 133.78 60.95C134.073 60.8167 134.42 60.75 134.82 60.75C135.613 60.75 136.263 61.0033 136.77 61.51L136.32 62.06C135.907 61.6467 135.41 61.44 134.83 61.44C134.443 61.44 134.153 61.5133 133.96 61.66C133.767 61.8067 133.67 61.9933 133.67 62.22C133.67 62.4 133.727 62.5433 133.84 62.65C133.953 62.75 134.093 62.8267 134.26 62.88C134.427 62.9333 134.663 62.99 134.97 63.05C135.357 63.1233 135.67 63.2067 135.91 63.3C136.157 63.3867 136.367 63.53 136.54 63.73C136.713 63.9233 136.8 64.1933 136.8 64.54C136.8 64.86 136.713 65.1367 136.54 65.37C136.367 65.6033 136.13 65.7833 135.83 65.91C135.53 66.0367 135.197 66.1 134.83 66.1ZM141.073 66H140.283V58.61H141.073V66ZM145.121 66.12C144.641 66.12 144.197 66.01 143.791 65.79C143.384 65.5633 143.061 65.2467 142.821 64.84C142.581 64.4267 142.461 63.9533 142.461 63.42C142.461 62.88 142.581 62.4067 142.821 62C143.061 61.5867 143.384 61.27 143.791 61.05C144.197 60.8233 144.641 60.71 145.121 60.71C145.601 60.71 146.041 60.8233 146.441 61.05C146.847 61.27 147.167 61.5867 147.401 62C147.641 62.4067 147.761 62.88 147.761 63.42C147.761 63.9533 147.641 64.4267 147.401 64.84C147.167 65.2467 146.847 65.5633 146.441 65.79C146.041 66.01 145.601 66.12 145.121 66.12ZM145.121 65.4C145.447 65.4 145.751 65.32 146.031 65.16C146.311 64.9933 146.534 64.76 146.701 64.46C146.867 64.1533 146.951 63.8033 146.951 63.41C146.951 63.01 146.867 62.66 146.701 62.36C146.541 62.06 146.321 61.83 146.041 61.67C145.761 61.51 145.454 61.43 145.121 61.43C144.787 61.43 144.481 61.51 144.201 61.67C143.921 61.83 143.697 62.0633 143.531 62.37C143.364 62.67 143.281 63.02 143.281 63.42C143.281 63.8133 143.364 64.16 143.531 64.46C143.697 64.76 143.921 64.9933 144.201 65.16C144.481 65.32 144.787 65.4 145.121 65.4ZM150.67 66.1C150.19 66.1 149.78 66.0233 149.44 65.87C149.1 65.7167 148.797 65.5 148.53 65.22L149.01 64.69C149.257 64.93 149.51 65.1067 149.77 65.22C150.037 65.3333 150.333 65.39 150.66 65.39C151.013 65.39 151.297 65.3233 151.51 65.19C151.73 65.0567 151.84 64.8567 151.84 64.59C151.84 64.3967 151.78 64.2433 151.66 64.13C151.547 64.0167 151.403 63.9333 151.23 63.88C151.057 63.8267 150.817 63.7733 150.51 63.72C150.123 63.6467 149.81 63.57 149.57 63.49C149.337 63.4033 149.133 63.2633 148.96 63.07C148.793 62.8767 148.71 62.6033 148.71 62.25C148.71 61.9767 148.787 61.7267 148.94 61.5C149.1 61.2667 149.327 61.0833 149.62 60.95C149.913 60.8167 150.26 60.75 150.66 60.75C151.453 60.75 152.103 61.0033 152.61 61.51L152.16 62.06C151.747 61.6467 151.25 61.44 150.67 61.44C150.283 61.44 149.993 61.5133 149.8 61.66C149.607 61.8067 149.51 61.9933 149.51 62.22C149.51 62.4 149.567 62.5433 149.68 62.65C149.793 62.75 149.933 62.8267 150.1 62.88C150.267 62.9333 150.503 62.99 150.81 63.05C151.197 63.1233 151.51 63.2067 151.75 63.3C151.997 63.3867 152.207 63.53 152.38 63.73C152.553 63.9233 152.64 64.1933 152.64 64.54C152.64 64.86 152.553 65.1367 152.38 65.37C152.207 65.6033 151.97 65.7833 151.67 65.91C151.37 66.0367 151.037 66.1 150.67 66.1ZM158.484 63.6H154.384C154.424 64.18 154.601 64.6267 154.914 64.94C155.234 65.2467 155.661 65.4 156.194 65.4C156.528 65.4 156.821 65.3467 157.074 65.24C157.328 65.1267 157.578 64.94 157.824 64.68L158.304 65.18C158.024 65.5133 157.711 65.7533 157.364 65.9C157.024 66.0467 156.624 66.12 156.164 66.12C155.651 66.12 155.198 66.0133 154.804 65.8C154.411 65.58 154.104 65.2667 153.884 64.86C153.671 64.4467 153.564 63.9567 153.564 63.39C153.564 62.8767 153.674 62.4167 153.894 62.01C154.121 61.6033 154.428 61.2867 154.814 61.06C155.208 60.8267 155.641 60.71 156.114 60.71C156.581 60.71 156.994 60.82 157.354 61.04C157.714 61.2533 157.994 61.5567 158.194 61.95C158.394 62.3433 158.494 62.8 158.494 63.32L158.484 63.6ZM156.104 61.41C155.811 61.41 155.544 61.4767 155.304 61.61C155.064 61.7367 154.864 61.92 154.704 62.16C154.551 62.3933 154.451 62.6633 154.404 62.97H157.674C157.648 62.6567 157.568 62.3833 157.434 62.15C157.301 61.91 157.121 61.7267 156.894 61.6C156.668 61.4733 156.404 61.41 156.104 61.41ZM168.06 60.71C168.427 60.71 168.747 60.7933 169.02 60.96C169.3 61.1267 169.517 61.3733 169.67 61.7C169.824 62.02 169.9 62.4133 169.9 62.88V66H169.11V62.93C169.11 62.4567 168.997 62.0933 168.77 61.84C168.55 61.5867 168.244 61.46 167.85 61.46C167.577 61.46 167.327 61.5233 167.1 61.65C166.88 61.77 166.704 61.9567 166.57 62.21C166.437 62.4633 166.37 62.78 166.37 63.16V66H165.58V62.93C165.58 62.4567 165.467 62.0933 165.24 61.84C165.02 61.5867 164.714 61.46 164.32 61.46C164.04 61.46 163.787 61.5233 163.56 61.65C163.34 61.77 163.164 61.9567 163.03 62.21C162.897 62.4633 162.83 62.78 162.83 63.16V66H162.04V60.83H162.81L162.82 61.62C163.007 61.3267 163.244 61.1033 163.53 60.95C163.824 60.79 164.157 60.71 164.53 60.71C164.924 60.71 165.264 60.8067 165.55 61C165.844 61.1933 166.06 61.4767 166.2 61.85C166.374 61.4833 166.62 61.2033 166.94 61.01C167.26 60.81 167.634 60.71 168.06 60.71ZM173.812 66.12C173.332 66.12 172.889 66.01 172.482 65.79C172.075 65.5633 171.752 65.2467 171.512 64.84C171.272 64.4267 171.152 63.9533 171.152 63.42C171.152 62.88 171.272 62.4067 171.512 62C171.752 61.5867 172.075 61.27 172.482 61.05C172.889 60.8233 173.332 60.71 173.812 60.71C174.292 60.71 174.732 60.8233 175.132 61.05C175.539 61.27 175.859 61.5867 176.092 62C176.332 62.4067 176.452 62.88 176.452 63.42C176.452 63.9533 176.332 64.4267 176.092 64.84C175.859 65.2467 175.539 65.5633 175.132 65.79C174.732 66.01 174.292 66.12 173.812 66.12ZM173.812 65.4C174.139 65.4 174.442 65.32 174.722 65.16C175.002 64.9933 175.225 64.76 175.392 64.46C175.559 64.1533 175.642 63.8033 175.642 63.41C175.642 63.01 175.559 62.66 175.392 62.36C175.232 62.06 175.012 61.83 174.732 61.67C174.452 61.51 174.145 61.43 173.812 61.43C173.479 61.43 173.172 61.51 172.892 61.67C172.612 61.83 172.389 62.0633 172.222 62.37C172.055 62.67 171.972 63.02 171.972 63.42C171.972 63.8133 172.055 64.16 172.222 64.46C172.389 64.76 172.612 64.9933 172.892 65.16C173.172 65.32 173.479 65.4 173.812 65.4ZM180.391 60.71C180.771 60.71 181.105 60.7967 181.391 60.97C181.678 61.1433 181.901 61.4 182.061 61.74C182.221 62.08 182.301 62.4933 182.301 62.98V66H181.511V63.04C181.511 62.52 181.391 62.1267 181.151 61.86C180.918 61.5933 180.588 61.46 180.161 61.46C179.881 61.46 179.625 61.5233 179.391 61.65C179.158 61.7767 178.971 61.9767 178.831 62.25C178.691 62.5233 178.621 62.8633 178.621 63.27V66H177.831V60.83H178.601L178.611 61.7C178.798 61.3733 179.045 61.1267 179.351 60.96C179.658 60.7933 180.005 60.71 180.391 60.71ZM188.465 63.6H184.365C184.405 64.18 184.581 64.6267 184.895 64.94C185.215 65.2467 185.641 65.4 186.175 65.4C186.508 65.4 186.801 65.3467 187.055 65.24C187.308 65.1267 187.558 64.94 187.805 64.68L188.285 65.18C188.005 65.5133 187.691 65.7533 187.345 65.9C187.005 66.0467 186.605 66.12 186.145 66.12C185.631 66.12 185.178 66.0133 184.785 65.8C184.391 65.58 184.085 65.2667 183.865 64.86C183.651 64.4467 183.545 63.9567 183.545 63.39C183.545 62.8767 183.655 62.4167 183.875 62.01C184.101 61.6033 184.408 61.2867 184.795 61.06C185.188 60.8267 185.621 60.71 186.095 60.71C186.561 60.71 186.975 60.82 187.335 61.04C187.695 61.2533 187.975 61.5567 188.175 61.95C188.375 62.3433 188.475 62.8 188.475 63.32L188.465 63.6ZM186.085 61.41C185.791 61.41 185.525 61.4767 185.285 61.61C185.045 61.7367 184.845 61.92 184.685 62.16C184.531 62.3933 184.431 62.6633 184.385 62.97H187.655C187.628 62.6567 187.548 62.3833 187.415 62.15C187.281 61.91 187.101 61.7267 186.875 61.6C186.648 61.4733 186.385 61.41 186.085 61.41ZM191.545 64.82L193.215 60.83H194.105L191.815 66L190.925 68.06H190.065L191.125 65.67L188.945 60.83H189.835L191.545 64.82ZM194.761 66.11C194.594 66.11 194.454 66.0567 194.341 65.95C194.234 65.8433 194.181 65.7067 194.181 65.54C194.181 65.38 194.234 65.2467 194.341 65.14C194.454 65.0333 194.594 64.98 194.761 64.98C194.921 64.98 195.054 65.0333 195.161 65.14C195.274 65.2467 195.331 65.38 195.331 65.54C195.331 65.7067 195.274 65.8433 195.161 65.95C195.054 66.0567 194.921 66.11 194.761 66.11Z" fill="#000021"/>
</g>
<defs>
<clipPath id="clip0_1_2">
<rect width="204" height="70" fill="white"/>
</clipPath>
</defs>
</svg>
