<?xml version="1.0" encoding="UTF-8"?>
<svg viewBox="60 155 390 210" xmlns="http://www.w3.org/2000/svg">
  <defs>
    <style>
      .bg { fill: #f41112; }
      .wt { fill: #fff; }
    </style>
  </defs>
  <rect class="bg" x="0" y="0" width="512" height="512"/>
  <g class="wt">
    <path d="M158.29 173.23H76.8v3.84c9.39.43 12.37 1.71 12.37 11.52v66.13c0 10.24-3 11.09-12.37 11.52v3.41h45.65v-3.41c-11.52-.43-14.08-1.71-14.08-11.52v-31.57H125c12.37 0 18.35 3 20.48 14.08h3.84v-34.14h-3.84c-1.71 10.24-5.12 12.8-20.48 12.8h-16.63v-30.72c0-3.84.85-4.69 5.55-4.69h14.51c19.2 0 22.61 3.41 26 14.08h3.84zM220.16 259.84l-18.77-27.73 10.24-12.8c6.83-8.11 10.67-12.37 16.64-12.8v-3.84h-26.46v3.84c4.69 0 6.83 1.28 6.83 4.27 0 2.56-3 6-5.55 8.53l-6 6.83-6.83-10.24c-1.71-2.13-3-3.84-3-6s2.56-3.41 6.83-3.41v-3.84h-35.37v3.84c5.12 1.28 7.25 4.27 9.81 8.11L186 240.21l-14.51 17.07c-5.12 6-7.68 8.11-13.65 9v3.41h26v-3.41c-3.41 0-7.25-.85-7.25-3s2.56-5.12 6.83-10.24l6-7.25 7.25 10.67c2.56 3.84 3.84 5.55 3.84 6.83 0 1.71-2.56 2.56-7.25 2.56v3.41h36.27v-3.41c-2.97.82-5.53-.04-9.37-6.01zM281.17 173.23h-45.65v3.84c9.81.43 12.37 1.71 12.37 11.52v66.13c0 10.24-2.56 11.09-12.37 11.52v3.41h44.8v-3.41c-10.24-.43-12.8-1.71-12.8-11.52v-25.17h12.8c24.75 0 38-9.81 38-28.16-.45-15.79-10.69-28.16-37.15-28.16zM267.09 224v-39.68c0-3.41 1.28-5.55 8.11-5.55 12.8 0 22.61 7.25 22.61 20.48 0 15.36-8.1 24.75-30.72 24.75zM363.52 201.39c-8.11 0-13.23 6.4-15.79 12.37h-.43v-10.24c0-1.28 0-2.13-.85-2.13-1.28 0-17.07 4.27-24.32 5.55v3.84c6.4 0 8.11 1.28 8.11 8.53v38.83c0 6-2.56 7.25-8.11 8.11v3.41h35.41v-3.41c-6.4 0-10.24-1.71-10.24-9v-37.52c2.13-3.41 4.69-5.55 7.25-5.55a8.1 8.1 0 0 1 3.84 1.28c1.28.85 3 3 6.83 3a7.65 7.65 0 0 0 7.68-7.68c.43-4.27-2.55-9.39-9.38-9.39zM404.48 201.39c-19.2 0-32.43 14.93-32.43 35.41s13.23 35.41 32.43 35.41 32.43-14.93 32.43-35.41-13.23-35.41-32.43-35.41zm0 64.85c-10.24 0-14.08-9-14.08-29.44s4.27-29.44 14.08-29.44c10.24 0 14.08 9 14.08 29.44.44 20.48-3.84 29.44-14.08 29.44z"/>
  </g>
</svg>
