<svg width="110" height="34" viewBox="74 12 110 34" fill="none" xmlns="http://www.w3.org/2000/svg">
<path d="M81.946 18.3428V27.2695H94.8682V31.468H81.946V43.1261H77.0543V14.1048H95.8469V18.3446H81.946V18.3428Z" fill="#1A1D30"/>
<path d="M122.352 43.1279H116.645L109.879 32.0391H109.798L103.031 43.1279H97.2833L106.864 28.2896L97.7735 14.1031H103.439L109.798 24.743H109.879L116.237 14.1031H121.864L112.815 28.2896L122.352 43.1279Z" fill="#1A1D30"/>
<path d="M137.947 18.3429V43.1279H133.097V18.3429H123.558V14.1031H147.486V18.3429H137.947Z" fill="#1A1D30"/>
<path d="M176.449 43.1278V28.5337C176.449 24.865 176.49 21.1962 176.612 17.5275H176.532C175.431 21.1962 174.249 24.8237 173.026 28.4529L168.013 43.1278H162.428L157.414 28.4529C156.191 24.8255 155.009 21.1962 153.909 17.5275H153.828C153.95 21.1962 153.991 24.865 153.991 28.5337V43.1278H149.263V14.1048H157.13L161.819 27.9232C163.042 31.5111 164.184 35.2193 165.163 38.8486H165.244C166.264 35.2211 167.404 31.5111 168.627 27.9232L173.315 14.1048H181.183V43.1296H176.449V43.1278Z" fill="#1A1D30"/>
</svg>
