<svg width="166" height="48" viewBox="0 0 166 48" fill="none" xmlns="http://www.w3.org/2000/svg">
<path d="M54.5664 10.8955C54.5664 4.46728 59.1274 0 65.3402 0C70.1148 0 73.788 2.56539 74.7676 6.54965H71.3394C70.4822 4.16539 68.248 2.83709 65.4014 2.83709C61.0548 2.83709 57.8409 5.91569 57.8409 10.8351C57.8409 15.7546 60.9936 18.7728 65.2484 18.7728C69.044 18.7728 71.8599 16.298 72.0742 12.3439H65.4014V9.59741H74.9513V21.3684H72.3803L72.1048 18.1992C70.6659 20.4024 68.0643 21.6099 64.881 21.6099C58.8825 21.6106 54.5664 17.2037 54.5664 10.8955Z" fill="#09202C"/>
<path d="M77.6445 10.805C77.6445 4.46728 82.3586 0 88.3272 0C94.2957 0 99.0098 4.46728 99.0098 10.805C99.0098 17.1426 94.2957 21.6099 88.3272 21.6099C82.3586 21.6099 77.6452 17.1433 77.6452 10.805H77.6445ZM88.3272 18.7433C92.582 18.7433 95.7347 15.5741 95.7347 10.8056C95.7347 6.0371 92.582 2.86793 88.3272 2.86793C84.0723 2.86793 80.9197 6.0371 80.9197 10.8056C80.9197 15.5741 84.0723 18.7433 88.3272 18.7433Z" fill="#09202C"/>
<path d="M55.166 25.0234H59.2678L66.4609 41.9856L73.6847 25.0234H77.7559V46.151H74.6032V29.8523L67.6855 46.151H65.1145L58.2581 30.0033V46.151H55.166V25.0234Z" fill="#09202C"/>
<path d="M80.418 41.6222C80.418 38.7549 82.8665 36.8537 86.8152 36.8537H91.7122V36.2197C91.7122 33.8656 90.3346 32.6581 87.9473 32.6581C85.7436 32.6581 84.366 33.6845 84.1211 35.3442H80.9378C81.2745 32.1147 83.968 30.0625 88.0391 30.0625C92.1102 30.0625 94.7118 32.326 94.7118 36.2499V42.2863C94.7118 43.2222 95.1098 43.6146 96.0283 43.6146H96.7324V46.1498H94.9268C93.1824 46.1498 92.019 45.2744 91.7741 43.7052C90.672 45.3649 88.5908 46.331 86.1729 46.331C82.7753 46.331 80.4186 44.3995 80.4186 41.6228L80.418 41.6222ZM86.7539 43.8555C89.5698 43.8555 91.7122 42.0146 91.7122 39.4788V39.0863H87.1207C84.764 39.0863 83.5087 39.992 83.5087 41.4706C83.5087 42.9492 84.7333 43.8548 86.7533 43.8548L86.7539 43.8555Z" fill="#09202C"/>
<path d="M98.3535 30.3053H101.384V33.0217C102.363 31.2412 104.2 30.3053 106.311 30.3053H107.536V33.0519H106.311C103.189 33.0519 101.414 34.772 101.414 38.2732V46.1505H98.3535V30.3047V30.3053Z" fill="#09202C"/>
<path d="M115.065 39.1479H112.586V46.1504H109.525V24.1172H112.586V36.5221H115.096L120.422 30.3046H124.034L117.667 37.7297L124.401 46.1504H120.667L115.065 39.1479Z" fill="#09202C"/>
<path d="M124.309 38.3624C124.309 33.443 127.89 30.0625 132.542 30.0625C136.919 30.0625 140.194 33.0505 140.194 37.7587C140.194 38.2115 140.163 38.604 140.133 38.9058H127.399C127.644 42.1656 129.848 43.8253 132.572 43.8253C134.622 43.8253 136.276 42.9196 137.01 41.4109H139.979C139.092 44.5196 136.153 46.3907 132.481 46.3907C127.676 46.3907 124.309 43.1611 124.309 38.3624ZM137.103 36.582C136.736 33.926 134.961 32.5977 132.573 32.5977C130.186 32.5977 128.135 34.0166 127.554 36.582H137.104H137.103Z" fill="#09202C"/>
<path d="M143.623 41.8035V32.93H140.898V30.3042H142.49C143.317 30.3042 143.623 30.0023 143.623 29.1873V26.1992H146.684V30.3042H151.214V32.93H146.684V41.2903C146.684 42.8903 147.296 43.4934 148.918 43.4934H151.214V46.1494H148.03C145.153 46.1494 143.623 44.64 143.623 41.8029V41.8035Z" fill="#09202C"/>
<path d="M152.53 41.1392H155.499C155.744 42.8894 157.182 43.9159 159.509 43.9159C161.836 43.9159 162.968 42.9498 162.968 41.5316C162.968 40.4448 162.233 39.9021 159.876 39.4492L157.366 38.9964C154.091 38.3926 152.744 36.9744 152.744 34.831C152.744 32.0543 155.132 30.0625 159.233 30.0625C163.335 30.0625 165.539 31.9335 165.814 35.1329H162.845C162.6 33.4732 161.314 32.5373 159.05 32.5373C156.785 32.5373 155.713 33.4128 155.713 34.6499C155.713 35.6159 156.326 36.1587 158.743 36.6115L161.253 37.0643C164.437 37.6379 165.936 38.9656 165.936 41.3203C165.936 44.3083 163.487 46.3907 159.355 46.3907C155.223 46.3907 152.744 44.4291 152.529 41.1392H152.53Z" fill="#09202C"/>
<path d="M54.5664 10.8955C54.5664 4.46728 59.1274 0 65.3402 0C70.1148 0 73.788 2.56539 74.7676 6.54965H71.3394C70.4822 4.16539 68.248 2.83709 65.4014 2.83709C61.0548 2.83709 57.8409 5.91569 57.8409 10.8351C57.8409 15.7546 60.9936 18.7728 65.2484 18.7728C69.044 18.7728 71.8599 16.298 72.0742 12.3439H65.4014V9.59741H74.9513V21.3684H72.3803L72.1048 18.1992C70.6659 20.4024 68.0643 21.6099 64.881 21.6099C58.8825 21.6106 54.5664 17.2037 54.5664 10.8955Z" fill="#09202C"/>
<path d="M77.6445 10.805C77.6445 4.46728 82.3586 0 88.3272 0C94.2957 0 99.0098 4.46728 99.0098 10.805C99.0098 17.1426 94.2957 21.6099 88.3272 21.6099C82.3586 21.6099 77.6452 17.1433 77.6452 10.805H77.6445ZM88.3272 18.7433C92.582 18.7433 95.7347 15.5741 95.7347 10.8056C95.7347 6.0371 92.582 2.86793 88.3272 2.86793C84.0723 2.86793 80.9197 6.0371 80.9197 10.8056C80.9197 15.5741 84.0723 18.7433 88.3272 18.7433Z" fill="#09202C"/>
<path d="M55.166 25.0234H59.2678L66.4609 41.9856L73.6847 25.0234H77.7559V46.151H74.6032V29.8523L67.6855 46.151H65.1145L58.2581 30.0033V46.151H55.166V25.0234Z" fill="#09202C"/>
<path d="M80.418 41.6222C80.418 38.7549 82.8665 36.8537 86.8152 36.8537H91.7122V36.2197C91.7122 33.8656 90.3346 32.6581 87.9473 32.6581C85.7436 32.6581 84.366 33.6845 84.1211 35.3442H80.9378C81.2745 32.1147 83.968 30.0625 88.0391 30.0625C92.1102 30.0625 94.7118 32.326 94.7118 36.2499V42.2863C94.7118 43.2222 95.1098 43.6146 96.0283 43.6146H96.7324V46.1498H94.9268C93.1824 46.1498 92.019 45.2744 91.7741 43.7052C90.672 45.3649 88.5908 46.331 86.1729 46.331C82.7753 46.331 80.4186 44.3995 80.4186 41.6228L80.418 41.6222ZM86.7539 43.8555C89.5698 43.8555 91.7122 42.0146 91.7122 39.4788V39.0863H87.1207C84.764 39.0863 83.5087 39.992 83.5087 41.4706C83.5087 42.9492 84.7333 43.8548 86.7533 43.8548L86.7539 43.8555Z" fill="#09202C"/>
<path d="M98.3535 30.3053H101.384V33.0217C102.363 31.2412 104.2 30.3053 106.311 30.3053H107.536V33.0519H106.311C103.189 33.0519 101.414 34.772 101.414 38.2732V46.1505H98.3535V30.3047V30.3053Z" fill="#09202C"/>
<path d="M115.065 39.1479H112.586V46.1504H109.525V24.1172H112.586V36.5221H115.096L120.422 30.3046H124.034L117.667 37.7297L124.401 46.1504H120.667L115.065 39.1479Z" fill="#09202C"/>
<path d="M124.309 38.3624C124.309 33.443 127.89 30.0625 132.542 30.0625C136.919 30.0625 140.194 33.0505 140.194 37.7587C140.194 38.2115 140.163 38.604 140.133 38.9058H127.399C127.644 42.1656 129.848 43.8253 132.572 43.8253C134.622 43.8253 136.276 42.9196 137.01 41.4109H139.979C139.092 44.5196 136.153 46.3907 132.481 46.3907C127.676 46.3907 124.309 43.1611 124.309 38.3624ZM137.103 36.582C136.736 33.926 134.961 32.5977 132.573 32.5977C130.186 32.5977 128.135 34.0166 127.554 36.582H137.104H137.103Z" fill="#09202C"/>
<path d="M143.623 41.8035V32.93H140.898V30.3042H142.49C143.317 30.3042 143.623 30.0023 143.623 29.1873V26.1992H146.684V30.3042H151.214V32.93H146.684V41.2903C146.684 42.8903 147.296 43.4934 148.918 43.4934H151.214V46.1494H148.03C145.153 46.1494 143.623 44.64 143.623 41.8029V41.8035Z" fill="#09202C"/>
<path d="M152.53 41.1392H155.499C155.744 42.8894 157.182 43.9159 159.509 43.9159C161.836 43.9159 162.968 42.9498 162.968 41.5316C162.968 40.4448 162.233 39.9021 159.876 39.4492L157.366 38.9964C154.091 38.3926 152.744 36.9744 152.744 34.831C152.744 32.0543 155.132 30.0625 159.233 30.0625C163.335 30.0625 165.539 31.9335 165.814 35.1329H162.845C162.6 33.4732 161.314 32.5373 159.05 32.5373C156.785 32.5373 155.713 33.4128 155.713 34.6499C155.713 35.6159 156.326 36.1587 158.743 36.6115L161.253 37.0643C164.437 37.6379 165.936 38.9656 165.936 41.3203C165.936 44.3083 163.487 46.3907 159.355 46.3907C155.223 46.3907 152.744 44.4291 152.529 41.1392H152.53Z" fill="#09202C"/>
<g clip-path="url(#clip0_1480_14067)">
<path d="M47.5618 17.4289V29.714C47.5618 31.066 47.2414 32.3953 46.6303 33.5981C46.5136 33.4217 46.3992 33.2476 46.2802 33.0758C46.0994 32.8045 45.9141 32.5378 45.7287 32.2687C45.6669 32.1783 45.6028 32.0833 45.5342 31.9907C45.3534 31.7261 45.1634 31.4571 44.9758 31.1926C44.9392 31.1406 44.9025 31.0886 44.8636 31.0366C44.6279 30.7043 44.3876 30.3697 44.1428 30.0396C44.1428 30.0373 44.1405 30.0373 44.1359 30.0328C43.8819 29.6824 43.6233 29.3365 43.3624 28.9906C43.1313 28.6831 42.8955 28.3757 42.6621 28.0727C42.3646 27.6884 42.0671 27.304 41.7628 26.9265C41.4927 26.5874 41.2181 26.246 40.9435 25.9114C40.1013 24.8782 39.2317 23.8609 38.3575 22.8774L37.9639 22.432C33.8446 17.8291 29.2104 13.4951 24.1781 9.53198H24.1758C24.2559 9.45963 24.3337 9.39181 24.4161 9.32625C24.8097 8.98939 25.2102 8.65705 25.6107 8.32698C25.9997 8.00595 26.391 7.68944 26.7846 7.37745C27.224 7.02477 27.6634 6.67887 28.1074 6.33749C28.7527 5.83785 29.4027 5.35178 30.0549 4.87023C30.8124 4.3186 31.5722 3.77601 32.3365 3.24925C32.5425 3.10456 32.7507 2.96439 32.959 2.82422C33.5997 2.39015 34.2451 1.96512 34.8927 1.54688C35.355 1.85434 35.799 2.21381 36.2063 2.61623L44.9987 11.3022C46.6326 12.9119 47.5686 15.1478 47.5686 17.4267L47.5618 17.4289Z" fill="#008F36"/>
<path d="M33.9245 0.998266C33.7621 1.10678 33.5973 1.21304 33.4348 1.32156C33.2929 1.41199 33.151 1.50694 33.0091 1.6019C32.6201 1.86415 32.2265 2.12866 31.8352 2.39543C29.2926 4.14302 26.7959 6.04209 24.3793 8.06323C23.9399 8.42948 23.5028 8.80251 23.0703 9.1778C22.9215 9.30441 22.7728 9.43553 22.624 9.56666C17.9578 13.6406 13.5708 18.2164 9.56595 23.1834C9.0991 22.6498 8.63682 22.1118 8.1837 21.5692C8.01893 21.377 7.85645 21.1803 7.69855 20.9836C5.43982 18.2549 3.36416 15.447 1.49219 12.5939C1.80571 12.1327 2.16729 11.6963 2.56777 11.3007L11.3578 2.61699C13.0124 0.98018 15.2139 0.078125 17.5596 0.078125H29.9952C31.3614 0.078125 32.7071 0.394636 33.9245 0.998266Z" fill="#008F36"/>
<path d="M24.1691 9.52769H24.1714C24.2515 9.45987 24.3293 9.38978 24.4094 9.32422C24.327 9.38978 24.2469 9.4576 24.1691 9.52769ZM9.20703 24.2703L9.60065 24.7157H9.60294C9.46792 24.5665 9.33519 24.4195 9.20703 24.2703Z" fill="#09202C"/>
<path d="M46.0685 34.5476C45.9334 34.7443 45.7984 34.9297 45.6611 35.0992C45.4551 35.3547 45.2309 35.6056 44.986 35.843L36.1959 44.529C35.5849 45.1303 34.8869 45.6435 34.1226 46.0482C32.8525 46.7152 31.4268 47.0678 29.9919 47.0678H17.5563C16.3388 47.0678 15.1122 46.8101 13.9977 46.3195C13.8718 46.263 13.746 46.2042 13.627 46.1454C14.1785 45.786 14.7254 45.4243 15.2701 45.0512C15.4852 44.9065 15.6957 44.7596 15.9086 44.6126C16.0779 44.4973 16.245 44.3798 16.4143 44.2599C16.6455 44.0994 16.8743 43.9389 17.1032 43.7739H17.1054C17.3366 43.6111 17.5654 43.4438 17.7943 43.2765C18.5014 42.7633 19.2063 42.2388 19.9043 41.6985C20.1102 41.5447 20.3116 41.3887 20.513 41.2282C21.1881 40.706 21.8563 40.1702 22.5177 39.6253C22.7351 39.4467 22.9571 39.2636 23.1768 39.0805C23.6139 38.7188 24.0533 38.348 24.4835 37.9704C24.4904 37.9682 24.4927 37.9614 24.4995 37.9569C24.5018 37.9569 24.5064 37.9546 24.5087 37.9501L24.5247 37.9343C26.2777 36.4195 27.994 34.8347 29.6211 33.2228C29.9049 32.9447 30.1864 32.6598 30.4702 32.3727L30.4931 32.3501C33.1088 29.7072 35.6307 26.888 37.9924 23.9648C38.2029 24.2067 38.4158 24.4487 38.624 24.6928C38.7796 24.8714 38.9353 25.0523 39.0863 25.2354C39.4502 25.6627 39.8072 26.0945 40.1642 26.5286C40.9583 27.4985 41.7318 28.4819 42.4847 29.4789C42.6838 29.7434 42.8806 30.0079 43.0774 30.2724C43.3772 30.6749 43.6724 31.0818 43.963 31.4887C44.2079 31.8256 44.4459 32.1647 44.6816 32.5038C44.9196 32.8407 45.1508 33.1798 45.3819 33.5235C45.613 33.8626 45.8419 34.204 46.0662 34.5453L46.0685 34.5476Z" fill="#008F36"/>
<path d="M47.0801 34.8024L47.1556 34.6916V34.6758C47.1327 34.7187 47.1053 34.7617 47.0801 34.8024Z" fill="#09202C"/>
<path d="M23.3856 37.6152C23.3056 37.6831 23.2277 37.7486 23.1476 37.8187C22.8204 38.0968 22.4886 38.3749 22.159 38.6484C22.1087 38.6914 22.0606 38.7298 22.0103 38.7728C21.6967 39.0282 21.3855 39.286 21.0674 39.5369C20.9484 39.6319 20.8294 39.7291 20.7081 39.824C20.2939 40.1541 19.882 40.4774 19.4655 40.7984C19.0581 41.1127 18.6485 41.4247 18.2343 41.7321C16.4126 43.0954 14.5544 44.384 12.6733 45.5936C12.2041 45.2838 11.7647 44.9244 11.3597 44.5287L2.56734 35.8428C0.91048 34.206 0.00195312 32.0266 0.00195312 29.7138V17.4286C0.00195312 16.0857 0.320052 14.7564 0.931076 13.5469C1.91741 15.0277 2.95409 16.4972 4.04341 17.9464C4.22191 18.1838 4.4027 18.4234 4.58578 18.6608C4.76657 18.8982 4.95194 19.1378 5.1373 19.3729C5.32267 19.6103 5.50804 19.8477 5.69569 20.0828C5.88106 20.3202 6.06872 20.5576 6.26095 20.7927C6.4486 21.0278 6.64084 21.2629 6.83536 21.4958C7.02759 21.7309 7.22211 21.9638 7.41663 22.1944C7.99791 22.893 8.59749 23.587 9.20622 24.2721C9.33438 24.419 9.46711 24.566 9.60213 24.7129C13.7283 29.3249 18.3624 33.6611 23.3856 37.6175V37.6152Z" fill="#008F36"/>
</g>
<defs>
<clipPath id="clip0_1480_14067">
<rect width="47.5615" height="46.9882" fill="white" transform="translate(0 0.078125)"/>
</clipPath>
</defs>
</svg>
