<?xml version="1.0" encoding="UTF-8"?>
<svg id="Layer_1" data-name="Layer 1" xmlns="http://www.w3.org/2000/svg" version="1.1" viewBox="0 0 204 70">
  <defs>
    <style>
      .cls-1 {
        fill: #000;
      }

      .cls-1, .cls-2 {
        stroke-width: 0px;
      }

      .cls-2 {
        fill: #cd0511;
      }
    </style>
  </defs>
  <g>
    <path class="cls-1" d="M32.75,58.323v4.354h4.592v-4.354h2.495v11.345h-2.495v-4.894h-4.592v4.894h-2.495v-11.345h2.495Z"/>
    <path class="cls-1" d="M54.536,58.323v2.097h-5.482v2.622h4.751v1.939h-4.751v4.687h-2.495v-11.345h7.977Z"/>
    <path class="cls-1" d="M72.969,58.323l2.654,7.802h.032l2.511-7.802h3.512v11.345h-2.336v-8.04h-.032l-2.781,8.04h-1.923l-2.781-7.961h-.032v7.961h-2.336v-11.345h3.512Z"/>
    <path class="cls-1" d="M94.056,58.323l4.243,11.345h-2.59l-.858-2.527h-4.243l-.89,2.527h-2.511l4.291-11.345h2.558ZM94.199,65.283l-1.43-4.163h-.032l-1.478,4.163h2.94Z"/>
    <path class="cls-1" d="M109.93,58.323c.509,0,.967.082,1.374.246.408.164.757.389,1.049.675.291.286.514.618.667.993.154.376.231.781.231,1.216,0,.668-.141,1.245-.421,1.732-.281.487-.739.858-1.374,1.112v.032c.307.085.561.214.762.389s.366.381.493.619c.127.239.22.501.278.787.058.286.098.572.119.858.01.18.022.392.032.636.01.244.029.493.055.747s.069.496.127.723c.058.228.145.421.262.58h-2.495c-.138-.36-.222-.789-.254-1.287-.031-.498-.079-.974-.143-1.43-.085-.594-.265-1.028-.54-1.303s-.726-.413-1.351-.413h-2.495v4.433h-2.495v-11.345h6.117ZM109.04,63.456c.572,0,1.001-.127,1.287-.382.286-.254.429-.668.429-1.24,0-.551-.143-.95-.429-1.2-.286-.249-.715-.373-1.287-.373h-2.733v3.194h2.733Z"/>
    <path class="cls-1" d="M122.309,58.323v4.703l4.433-4.703h3.115l-4.433,4.481,4.862,6.864h-3.131l-3.416-5.101-1.43,1.446v3.655h-2.495v-11.345h2.495Z"/>
    <path class="cls-1" d="M144.301,58.323v2.097h-5.99v2.431h5.498v1.939h-5.498v2.781h6.118v2.097h-8.613v-11.345h8.485Z"/>
    <path class="cls-1" d="M149.75,60.421v-2.097h9.296v2.097h-3.4v9.248h-2.495v-9.248h-3.401Z"/>
    <path class="cls-1" d="M166.785,66.872c.137.265.32.479.548.644s.495.286.803.365c.307.079.624.119.953.119.222,0,.461-.018.715-.056.254-.037.493-.108.715-.214.223-.106.408-.251.556-.437.148-.185.223-.421.223-.707,0-.307-.099-.556-.294-.747-.196-.19-.453-.349-.77-.477-.318-.127-.678-.238-1.081-.334s-.81-.201-1.224-.318c-.424-.106-.837-.235-1.24-.389-.403-.153-.762-.352-1.08-.596-.318-.243-.575-.548-.771-.914-.196-.365-.294-.807-.294-1.326,0-.583.124-1.089.373-1.518.249-.429.575-.786.977-1.072.403-.286.858-.498,1.366-.636.509-.137,1.017-.206,1.526-.206.593,0,1.162.067,1.708.199.545.132,1.03.347,1.454.644.424.296.76.675,1.009,1.136.249.461.374,1.02.374,1.676h-2.416c-.021-.339-.092-.619-.214-.842-.122-.222-.283-.397-.485-.524-.201-.127-.432-.217-.692-.27-.259-.053-.543-.079-.85-.079-.201,0-.403.022-.604.063-.201.042-.384.117-.548.223s-.299.238-.405.397-.159.36-.159.603c0,.223.042.403.127.541.085.137.252.265.501.381s.593.233,1.033.35c.439.116,1.014.265,1.724.445.212.042.506.119.882.23.376.111.749.289,1.12.533.371.244.691.57.961.977s.405.929.405,1.565c0,.519-.101,1.001-.302,1.446-.201.445-.501.829-.898,1.152s-.89.575-1.478.754c-.588.18-1.269.27-2.042.27-.625,0-1.232-.077-1.82-.23-.587-.153-1.107-.395-1.557-.723s-.808-.747-1.072-1.256c-.265-.508-.392-1.112-.382-1.811h2.416c0,.381.068.704.206.969Z"/>
  </g>
  <g>
    <polygon class="cls-2" points="149.299 24.522 124.883 .106 124.883 13.724 149.299 38.14 156.108 31.331 156.116 31.331 164.109 23.33 164.109 47.569 173.745 47.569 173.745 .077 149.299 24.522"/>
    <g>
      <path class="cls-1" d="M40.73.274v18.135h18.818V.274h10.223v47.257h-10.223v-20.385h-18.818v20.385h-10.223V.274h10.223Z"/>
      <path class="cls-1" d="M110.14.274v8.737h-22.464v10.921h19.469v8.075h-19.469v19.525h-10.223V.274h32.686Z"/>
    </g>
    <polygon class="cls-1" points="127.548 9.741 117.913 .106 117.913 47.569 127.548 47.569 127.548 23.359 149.314 45.124 149.314 31.503 127.548 9.741"/>
  </g>
</svg>