<?xml version="1.0" encoding="UTF-8"?>
<svg id="Layer_1" data-name="Layer 1" xmlns="http://www.w3.org/2000/svg" version="1.1" viewBox="0 0 204 70">
  <defs>
    <style>
      .cls-1 {
        fill: #34e834;
      }

      .cls-1, .cls-2 {
        stroke-width: 0px;
      }

      .cls-2 {
        fill: #000;
      }
    </style>
  </defs>
  <path class="cls-1" d="M33.629,21.093v27.592h-6.064v-27.592h6.064Z"/>
  <path class="cls-1" d="M61.554,38.224c-.607,6.731-4.791,11.31-12.31,11.31-8.005,0-13.28-5.761-13.28-14.493,0-8.035,5.094-14.433,13.523-14.433,6.61,0,11.431,4.184,11.886,9.884h-5.913c-.606-3.032-2.85-4.821-6.094-4.821-5.276,0-7.338,4.76-7.338,9.369,0,5.7,2.82,9.339,7.247,9.339,3.638,0,5.791-2.183,6.307-6.216h5.973v.061Z"/>
  <path class="cls-2" d="M67.163,48.595v-27.592h8.611l6.398,18.95,6.246-18.95h8.429v27.592h-5.67v-19.617l-6.761,19.617h-4.669l-6.822-19.405v19.405h-5.761Z"/>
  <path class="cls-2" d="M117.859,48.686v-14.069c0-5.518-4.578-6.489-8.581-6.519h-.121c-5.761,0-8.914,2.274-9.217,6.731h5.124c.394-2.274,1.425-3.062,3.942-3.062s3.578.849,3.578,2.668c0,1.607-1.273,1.941-4.73,2.395l-.849.121c-3.76.515-7.974,1.334-7.974,6.276,0,3.76,2.699,6.034,7.095,6.034,2.395,0,4.76-.819,6.458-2.517v1.941h5.276ZM112.583,38.953v2.244c0,2.88-2.001,4.457-4.851,4.457-1.88,0-3.002-1.001-3.002-2.668,0-2.456,2.122-2.668,4.002-2.971,1.365-.243,2.577-.334,3.851-1.061Z"/>
  <path class="cls-2" d="M125.166,48.686v-12.492c0-1.304,1.031-2.335,2.335-2.335h5.064v-5.397h-5.064c-4.245,0-7.701,3.457-7.701,7.732v12.492h5.367Z"/>
  <path class="cls-2" d="M178.441,21.003v7.459h6.063v5.397h-6.063v7.065c0,1.304,1.031,2.335,2.333,2.335h3.729v5.397h-3.729c-4.245,0-7.701-3.456-7.701-7.732v-19.921h5.367Z"/>
  <path class="cls-2" d="M152.637,28.582l-7.489,7.398,8.369,12.583h-6.641l-5.487-8.884-2.244,2.092v6.792h-5.367v-27.592h5.397v14.766l7.035-7.186h6.427v.03Z"/>
  <path class="cls-2" d="M171.224,42.379h-5.245c-.819,2.001-2.032,2.911-4.063,2.911-2.942,0-4.609-1.849-4.669-5.306h14.282v-.546c0-7.004-3.822-11.431-9.854-11.431s-10.007,4.487-10.007,10.703,4.062,10.461,10.188,10.461c4.548,0,8.127-2.456,9.369-6.792ZM165.947,36.497h-8.731c.302-2.79,2.002-4.488,4.426-4.488,2.79-.03,4.094,2.031,4.305,4.488Z"/>
  <path class="cls-2" d="M203.394,34.405h-5.094c-.304-2.092-1.576-2.759-3.79-2.759-1.94,0-3.092.728-3.092,1.971,0,1.425,1.272,1.819,3.637,2.304l1.85.394c3.427.728,7.095,1.789,7.095,6.064s-3.426,6.792-9.126,6.792c-4.973,0-9.278-1.971-9.339-7.095h5.215c.181,2.395,1.727,3.335,4.245,3.335,2.242,0,3.637-.97,3.637-2.486,0-1.637-1.514-2.001-4.213-2.608l-.487-.121c-3.516-.788-7.973-1.395-7.973-6.064,0-3.912,3.154-6.125,8.731-6.125,4.609,0,8.55,1.728,8.702,6.398Z"/>
  <path class="cls-2" d="M6.064,39.71v9.096H0v-9.096h6.064Z"/>
  <path class="cls-2" d="M15.16,29.098v19.709h-6.064v-19.709h6.064Z"/>
  <path class="cls-2" d="M24.226,35.162v13.644h-6.064v-13.644h6.064Z"/>
</svg>