<?xml version="1.0" encoding="UTF-8"?>
<svg xmlns="http://www.w3.org/2000/svg" xmlns:xlink="http://www.w3.org/1999/xlink" version="1.1" viewBox="0 0 204 70">
  <!-- Generator: Adobe Illustrator 29.2.1, SVG Export Plug-In . SVG Version: 2.1.0 Build 116)  -->
  <defs>
    <style>
      .st0 {
        mask: url(#mask);
      }

      .st1 {
        fill: url(#linear-gradient2);
      }

      .st2 {
        fill: url(#linear-gradient1);
      }

      .st3 {
        fill: url(#linear-gradient3);
      }

      .st4 {
        fill: url(#linear-gradient5);
      }

      .st5 {
        fill: url(#linear-gradient4);
      }

      .st6 {
        stroke-linecap: square;
      }

      .st6, .st7, .st8 {
        fill: none;
        stroke: #fff;
        stroke-width: 1.953px;
      }

      .st9 {
        fill: url(#linear-gradient);
      }

      .st10, .st11, .st8 {
        isolation: isolate;
      }

      .st11 {
        fill-rule: evenodd;
        opacity: .5;
      }

      .st11, .st12 {
        fill: #fff;
      }

      .st13 {
        mix-blend-mode: lighten;
      }

      .st14 {
        fill: #f7f1f1;
      }

      .st15 {
        mix-blend-mode: darken;
      }

      .st16 {
        opacity: .4;
      }

      .st17 {
        fill: #f18d8d;
      }

      .st8 {
        opacity: .72;
      }

      .st18 {
        fill: #ff4931;
      }
    </style>
    <linearGradient id="linear-gradient" x1="101.71" y1="69.799" x2="101.71" y2=".781" gradientTransform="translate(0 70) scale(1 -1)" gradientUnits="userSpaceOnUse">
      <stop offset="0" stop-color="#e8ebee"/>
      <stop offset="1" stop-color="#ced3db"/>
    </linearGradient>
    <mask id="mask" x="67" y="0" width="70.001" height="70" maskUnits="userSpaceOnUse">
      <g id="mask0_2967_2">
        <rect class="st12" x="67.201" y=".201" width="69.018" height="69.018"/>
      </g>
    </mask>
    <linearGradient id="linear-gradient1" x1="101.71" y1="64.338" x2="101.71" y2="6.307" gradientTransform="translate(0 70) scale(1 -1)" gradientUnits="userSpaceOnUse">
      <stop offset="0" stop-color="#f5f5f6"/>
      <stop offset="1" stop-color="#eeeef1"/>
    </linearGradient>
    <linearGradient id="linear-gradient2" x1="92.303" y1="48.796" x2="111.209" y2="21.652" gradientTransform="translate(0 70) scale(1 -1)" gradientUnits="userSpaceOnUse">
      <stop offset="0" stop-color="#9444fb"/>
      <stop offset="1" stop-color="#4d08a4"/>
    </linearGradient>
    <linearGradient id="linear-gradient3" x1="111.14" y1="20.808" x2="103.788" y2="32.099" gradientTransform="translate(0 70) scale(1 -1)" gradientUnits="userSpaceOnUse">
      <stop offset="0" stop-color="#000" stop-opacity=".19"/>
      <stop offset="1" stop-color="#000" stop-opacity="0"/>
    </linearGradient>
    <linearGradient id="linear-gradient4" x1="241.465" y1="163.257" x2="260.37" y2="136.113" gradientTransform="translate(-101.855 244.289) rotate(-15) scale(1 -1)" gradientUnits="userSpaceOnUse">
      <stop offset="0" stop-color="#40e6da"/>
      <stop offset="1" stop-color="#23d8cd" stop-opacity="0"/>
    </linearGradient>
    <linearGradient id="linear-gradient5" x1="241.465" y1="163.257" x2="260.37" y2="136.113" gradientTransform="translate(-101.855 244.289) rotate(-15) scale(1 -1)" gradientUnits="userSpaceOnUse">
      <stop offset="0" stop-color="#9444fb" stop-opacity="0"/>
      <stop offset="1" stop-color="#4d08a4"/>
    </linearGradient>
  </defs>
  <g class="st10">
    <g id="Layer_1">
      <g>
        <rect class="st17" x="67.201" y=".201" width="69.018" height="69.018"/>
        <rect class="st9" x="67.201" y=".201" width="69.018" height="69.018"/>
        <g class="st16">
          <g class="st0">
            <path class="st11" d="M114.797,61.438c2.915-1.433,5.563-3.328,7.848-5.59l8.628,8.629h-16.476v-3.038ZM101.856,64.477v-.004c4.525-.022,8.815-1.057,12.653-2.893v2.897h-12.653ZM88.915,64.477v-2.897c3.838,1.836,8.128,2.871,12.653,2.893v.004h-12.653ZM72.152,64.477l8.628-8.629c2.285,2.263,4.933,4.157,7.848,5.59v3.038h-16.476ZM74.986,47.797c1.433,2.915,3.328,5.563,5.59,7.848l-8.628,8.628v-16.476h3.038ZM71.948,34.856h.003c.022,4.526,1.057,8.815,2.893,12.653h-2.896v-12.653ZM71.948,21.915h2.896c-1.836,3.838-2.871,8.128-2.893,12.653h-.003v-12.653ZM71.948,5.152l8.628,8.628c-2.263,2.285-4.157,4.933-5.59,7.848h-3.038V5.152ZM88.628,7.986c-2.915,1.433-5.563,3.328-7.848,5.59l-8.628-8.628h16.476v3.038ZM101.569,4.948v.003c-4.525.022-8.815,1.058-12.653,2.893v-2.896h12.653ZM114.509,4.948v2.896c-3.838-1.835-8.128-2.871-12.653-2.893v-.003h12.653ZM131.273,4.948l-8.628,8.628c-2.285-2.263-4.933-4.157-7.848-5.59v-3.038h16.476ZM128.439,21.627c-1.433-2.915-3.327-5.563-5.59-7.848l8.628-8.628v16.476h-3.038ZM131.476,34.568h-.003c-.022-4.525-1.057-8.815-2.893-12.653h2.896v12.653ZM131.476,47.509h-2.896c1.835-3.838,2.871-8.127,2.893-12.653h.003v12.653ZM115.001,47.797h13.115c-1.411,2.837-3.263,5.416-5.47,7.644l-7.644-7.644ZM114.797,48l7.645,7.645c-2.229,2.207-4.808,4.059-7.645,5.47v-13.115ZM101.856,53.257c4.902-.038,9.354-1.987,12.653-5.137v13.143c-3.832,1.854-8.123,2.9-12.653,2.922v-10.928ZM88.915,48.12c3.299,3.15,7.751,5.099,12.653,5.137v10.928c-4.53-.022-8.822-1.068-12.653-2.922v-13.143ZM88.628,48.001v13.115c-2.836-1.411-5.416-3.263-7.644-5.47l7.644-7.644ZM88.425,47.797l-7.645,7.644c-2.207-2.229-4.059-4.808-5.47-7.644h13.115ZM83.167,34.856c.038,4.902,1.987,9.354,5.137,12.653h-13.143c-1.854-3.832-2.9-8.123-2.922-12.653h10.928ZM88.304,21.915c-3.15,3.299-5.099,7.751-5.137,12.653h-10.928c.022-4.53,1.068-8.822,2.923-12.653h13.142ZM88.425,21.627h-13.115c1.411-2.836,3.263-5.416,5.47-7.644l7.645,7.644ZM88.628,21.424l-7.644-7.644c2.229-2.207,4.808-4.059,7.644-5.47v13.115ZM101.569,16.167c-4.902.038-9.354,1.987-12.653,5.137v-13.142c3.832-1.855,8.123-2.901,12.653-2.923v10.928ZM114.509,21.304c-3.299-3.15-7.751-5.099-12.653-5.137V5.239c4.53.022,8.822,1.068,12.653,2.923v13.142ZM114.797,21.424v-13.115c2.837,1.411,5.416,3.263,7.645,5.47l-7.645,7.645ZM115.001,21.627l7.644-7.644c2.207,2.229,4.059,4.808,5.47,7.644h-13.115ZM120.258,34.568c-.037-4.902-1.987-9.354-5.137-12.653h13.143c1.854,3.832,2.901,8.123,2.922,12.653h-10.928ZM120.258,34.856h10.928c-.022,4.53-1.068,8.822-2.922,12.653h-13.143c3.15-3.299,5.1-7.751,5.137-12.653h0ZM101.856,47.797h12.576c-3.259,3.169-7.691,5.135-12.576,5.173v-5.173ZM101.569,47.797v5.173c-4.885-.038-9.317-2.004-12.576-5.173h12.576ZM88.628,34.856v12.576c-3.169-3.259-5.134-7.691-5.173-12.576h5.173ZM88.628,34.568h-5.173c.039-4.885,2.004-9.317,5.173-12.576v12.576ZM101.569,21.627h-12.576c3.259-3.169,7.691-5.134,12.576-5.173v5.173ZM101.856,21.627v-5.173c4.885.039,9.317,2.004,12.576,5.173h-12.576ZM114.797,34.568v-12.576c3.169,3.259,5.135,7.691,5.173,12.576h-5.173ZM114.797,34.856h5.173c-.038,4.885-2.004,9.317-5.173,12.576v-12.576ZM101.856,35.059l12.45,12.45h-12.45v-12.45ZM101.569,35.06v12.45h-12.45l12.45-12.45ZM101.365,34.856l-12.45,12.45v-12.45h12.45ZM101.365,34.568h-12.45v-12.45l12.45,12.45ZM101.569,34.365l-12.45-12.45h12.45v12.45ZM101.856,34.365v-12.45h12.45l-12.45,12.45ZM114.51,34.856v12.45l-12.45-12.45h12.45ZM102.06,34.568l12.45-12.45v12.45h-12.45ZM131.476,64.273l-8.628-8.628c2.263-2.285,4.157-4.933,5.59-7.848h3.038v16.476ZM137,69.797l-5.033-5.033h4.397v-.288h-4.601v-16.68h4.601v-.288h-4.601v-12.653h4.601v-.288h-4.601v-12.653h4.601v-.288h-4.601V4.948h4.601v-.288h-4.397l4.457-4.457L136.221,0l-4.457,4.457V.059h-.288v4.601h-16.679V.059h-.288v4.601h-12.653V.059h-.288v4.601h-12.653V.059h-.288v4.601h-16.679V.059h-.288v4.398L67.203,0l-.204.203,4.458,4.457h-4.398v.288h4.601v16.679h-4.601v.288h4.601v12.653h-4.601v.288h4.601v12.653h-4.601v.288h4.601v16.68h-4.601v.288h4.398l-4.458,4.457.204.203,4.457-4.457v4.398h.288v-4.601h16.679v4.601h.288v-4.601h12.653v4.601h.288v-4.601h12.653v4.601h.288v-4.601h16.679v4.601h.288v-4.398l5.033,5.033.204-.203Z"/>
          </g>
        </g>
        <g class="st16">
          <rect class="st8" x="78.856" y="3.229" width="45.843" height="63.097" rx="22.921" ry="22.921"/>
          <rect class="st8" x="74.543" y="7.543" width="54.47" height="54.47" rx="27.235" ry="27.235"/>
          <rect class="st8" x="70.229" y="11.856" width="63.097" height="45.843" rx="22.921" ry="22.921"/>
          <path class="st7" d="M101.778,3.229c17.424,0,31.549,14.125,31.549,31.549s-14.125,31.548-31.549,31.548-31.549-14.125-31.549-31.548S84.354,3.229,101.778,3.229Z"/>
          <path class="st7" d="M101.778,20.619c7.82,0,14.159,6.339,14.159,14.159s-6.339,14.159-14.159,14.159-14.159-6.339-14.159-14.159,6.339-14.159,14.159-14.159Z"/>
          <rect class="st7" x="91.797" y="24.797" width="19.961" height="19.961"/>
          <path class="st6" d="M91.802.268v69.018"/>
          <path class="st6" d="M101.778.201v69.019"/>
          <path class="st6" d="M111.753.201v69.019"/>
          <path class="st6" d="M136.287,24.802h-69.018"/>
          <path class="st6" d="M136.22,34.778h-69.018"/>
          <path class="st6" d="M136.287,44.753h-69.018"/>
          <path class="st6" d="M67.269.268l69.018,69.018"/>
          <path class="st6" d="M136.287.268l-69.018,69.018"/>
        </g>
        <circle class="st2" cx="101.71" cy="34.71" r="28.982"/>
        <g>
          <g>
            <circle class="st1" cx="101.71" cy="34.71" r="16.969"/>
            <circle class="st3" cx="101.71" cy="34.71" r="16.969"/>
          </g>
          <g class="st13">
            <circle class="st5" cx="101.71" cy="34.71" r="16.969"/>
          </g>
          <g class="st15">
            <circle class="st4" cx="101.71" cy="34.71" r="16.969"/>
          </g>
        </g>
        <rect class="st18" x="67.137" y=".201" width="69.082" height="69.082"/>
        <path class="st14" d="M99.618,34.462c.127-6.343,5.219-11.49,11.565-11.446,3.026.021,5.735,1.198,7.754,3.111.235.223.607.218.836-.011l5.618-5.618c.244-.244.231-.636-.021-.872-3.756-3.484-8.791-5.622-14.269-5.622-11.416,0-20.915,9.289-20.915,20.705s9.499,20.705,20.915,20.705h6.517c.333,0,.6-.269.6-.6v-8.409h-7.117c-6.532,0-11.616-5.383-11.484-11.944h.002Z"/>
        <path class="st14" d="M110.784,31.062v7.448c0,.333.269.6.6.6h6.267c.333,0,.6.269.6.6v6.691h8.048c.333,0,.6-.269.6-.6v-14.739c0-.333-.269-.6-.6-.6h-14.918c-.333,0-.6.269-.6.6h.002Z"/>
        <path class="st14" d="M85.35,28.337h-8.218c-.331,0-.6.269-.6.6v25.817c0,.331.269.6.6.6h8.218c.331,0,.6-.269.6-.6v-25.817c0-.331-.269-.6-.6-.6Z"/>
        <path class="st14" d="M85.367,14.55h-8.235c-.331,0-.6.269-.6.6v8.235c0,.331.269.6.6.6h8.235c.331,0,.6-.269.6-.6v-8.235c0-.331-.269-.6-.6-.6Z"/>
      </g>
    </g>
  </g>
</svg>