<?xml version="1.0" encoding="UTF-8"?>
<svg id="Layer_1" data-name="Layer 1" xmlns="http://www.w3.org/2000/svg" xmlns:xlink="http://www.w3.org/1999/xlink" version="1.1" viewBox="0 0 204 70">
  <defs>
    <style>
      .cls-1 {
        fill: url(#linear-gradient);
      }

      .cls-1, .cls-2, .cls-3, .cls-4 {
        stroke-width: 0px;
      }

      .cls-2 {
        fill: #d61f28;
      }

      .cls-3 {
        fill: #fff;
      }

      .cls-4 {
        fill: #231f20;
      }
    </style>
    <linearGradient id="linear-gradient" x1="2176.9" y1="768.8" x2="2198.4" y2="768.8" gradientTransform="translate(2210.2 -720) rotate(-180) scale(1 -1)" gradientUnits="userSpaceOnUse">
      <stop offset="0" stop-color="#d61f28"/>
      <stop offset="1" stop-color="#a41e23"/>
    </linearGradient>
  </defs>
  <g>
    <polygon class="cls-3" points="33.3 60.6 11.9 60.6 11.9 36.9 33.3 60.6"/>
    <circle class="cls-3" cx="30.3" cy="42.7" r="6.4"/>
    <polygon class="cls-3" points="33.3 12.1 11.9 36.9 11.9 60.6 33.3 12.1"/>
  </g>
  <g>
    <g>
      <path class="cls-4" d="M46.1,32.4h-4.2V12.1h4.2v20.3Z"/>
      <path class="cls-4" d="M61.8,18.2c.9.9,1.5,2.1,1.5,4v10.1h-4v-9.1c0-.8,0-1.4-.3-1.8-.3-.8-1.1-1.2-2.2-1.2s-2.2.6-2.7,1.7c-.3.6-.3,1.4-.3,2.3v8.1h-3.9v-14.9h3.8v2.2c.5-.8.9-1.4,1.5-1.7.8-.6,1.8-.9,3.1-.9s2.9.4,3.8,1.2Z"/>
      <path class="cls-4" d="M65.2,20.4v-2.8h2v-4.2h3.8v4.2h2.5v2.8h-2.5v7.9c0,.6,0,1,.3,1.1s.6.3,1.5.3h.8v2.9h-1.9c-1.9.2-3.2-.2-3.8-.9-.4-.4-.7-1.1-.7-2v-9.2h-2Z"/>
      <path class="cls-4" d="M85.7,17.7c1,.4,1.9,1.2,2.6,2.2.6.9,1,2,1.2,3.1,0,.7.2,1.7.2,3h-10.9c0,1.5.6,2.6,1.5,3.2.6.3,1.3.6,2.1.6s1.6-.3,2.2-.7c.3-.3.6-.6.8-1h4c0,.9-.6,1.8-1.5,2.7-1.4,1.5-3.2,2.2-5.6,2.2s-3.8-.6-5.3-1.9c-1.5-1.2-2.3-3.2-2.3-6s.7-4.6,2-6,3.2-2,5.4-2c1.4,0,2.5,0,3.6.6ZM79.8,21.1c-.5.6-.9,1.4-1,2.3h6.7c0-1-.4-1.8-1-2.4-.6-.5-1.4-.8-2.3-.8-1,0-1.9.3-2.4.9Z"/>
      <path class="cls-4" d="M100.2,17h.3v4c-.3,0-.4,0-.7,0h-.4c-1.5,0-2.6.5-3.2,1.5-.3.6-.4,1.5-.4,2.6v7.2h-3.9v-14.9h3.8v2.6c.6-1,1.1-1.7,1.6-2,.8-.6,1.7-.9,2.9-.9q0,0,0,0Z"/>
      <path class="cls-4" d="M108.7,23.3c.8,0,1.3-.2,1.5-.3.6-.3.9-.6.9-1.1s-.3-1-.7-1.3c-.4-.3-1-.3-1.9-.3s-1.6.3-2,.7c-.3.3-.4.8-.6,1.4h-3.8c0-1.3.4-2.4,1.1-3.2,1-1.3,2.8-2,5.4-2s3.1.3,4.4.9c1.3.7,1.9,1.9,1.9,3.7v8.6c0,.5,0,.9.3,1,.2.2.3.3.6.4v.6h-4.3c0-.3-.2-.6-.3-.9s0-.6,0-.9c-.5.6-1.2,1.1-1.9,1.5-.9.5-1.8.8-2.9.8s-2.5-.4-3.4-1.2c-.9-.8-1.4-1.9-1.4-3.3s.7-3.2,2.1-4c.8-.4,2-.8,3.5-.9h1.5ZM111.1,25.2c-.3.2-.5.3-.8.3s-.6.2-1,.3l-.9.2c-.9.2-1.5.3-1.8.5-.6.3-.9.9-.9,1.6s.2,1.2.6,1.5c.3.3.9.4,1.4.4.9,0,1.6-.3,2.4-.8.7-.5,1.1-1.4,1.1-2.7v-1.3h0Z"/>
      <path class="cls-4" d="M127.4,22.8c0-.6-.3-1-.6-1.5-.4-.6-1.1-.9-2-.9s-2.2.7-2.7,2c-.3.7-.4,1.6-.4,2.7s.2,2,.4,2.6c.4,1.3,1.4,1.9,2.6,1.9s1.5-.3,2-.8.6-1.1.7-2h4c0,1.2-.5,2.3-1.3,3.4-1.2,1.7-3.1,2.6-5.5,2.6s-4.2-.7-5.3-2.1-1.7-3.2-1.7-5.6.6-4.6,1.9-6c1.3-1.5,3-2.1,5.2-2.1s3.4.4,4.6,1.3,1.9,2.3,2.1,4.4h-4Z"/>
      <path class="cls-4" d="M132.7,20.4v-2.8h2v-4.2h3.8v4.2h2.5v2.8h-2.5v7.9c0,.6,0,1,.3,1.1.2.2.6.3,1.5.3h.8v2.9h-1.9c-1.9.2-3.2-.2-3.8-.9-.4-.4-.7-1.1-.7-2v-9.2h-2Z"/>
      <path class="cls-4" d="M147.6,15.6h-4v-3.6h4v3.6ZM143.7,17.4h4v15h-4v-15Z"/>
      <path class="cls-4" d="M160.4,17.4h4.2l-5.4,15h-4.1l-5.4-15h4.4l3.2,11.1,3.1-11.1Z"/>
      <path class="cls-4" d="M176,17.7c1,.4,1.9,1.2,2.6,2.2.6.9,1,2,1.2,3.1,0,.7.2,1.7.2,3h-10.9c0,1.5.6,2.6,1.5,3.2.6.3,1.3.6,2.1.6s1.6-.3,2.2-.7c.3-.3.6-.6.8-1h4c0,.9-.6,1.8-1.5,2.7-1.4,1.5-3.2,2.2-5.6,2.2s-3.8-.6-5.3-1.9c-1.5-1.2-2.3-3.2-2.3-6s.7-4.6,2-6c1.4-1.4,3.2-2,5.4-2,1.4,0,2.6,0,3.6.6ZM170.2,21.1c-.5.6-.9,1.4-1,2.3h6.7c0-1-.4-1.8-1-2.4-.6-.5-1.4-.8-2.3-.8-1,0-1.8.3-2.4.9Z"/>
    </g>
    <g>
      <path class="cls-4" d="M41.9,39.9h8.7c2.4,0,4.1.7,5.1,2.1.6.9.9,1.8.9,2.9s-.3,2.3-1.1,3.2c-.3.4-.9.9-1.6,1.2,1,.4,1.8.9,2.3,1.4.9.9,1.4,2.1,1.4,3.7s-.4,2.5-1.2,3.5c-1.2,1.5-3.2,2.4-5.9,2.4h-8.5v-20.3ZM49.6,48.5c1.2,0,2-.2,2.7-.5,1-.5,1.5-1.5,1.5-2.7s-.5-2.2-1.6-2.6c-.6-.3-1.5-.4-2.7-.4h-5v6.2h5ZM50.5,57.8c1.7,0,2.9-.5,3.6-1.5.4-.6.7-1.4.7-2.2,0-1.5-.7-2.5-2-3-.7-.3-1.6-.4-2.8-.4h-5.5v7.1h6Z"/>
      <path class="cls-4" d="M60.4,45.4h2.4v2.6c.2-.5.7-1.1,1.5-1.8.8-.7,1.6-1,2.6-1h.3c0,0,.3,0,.6,0v2.6c-.2,0-.3,0-.4,0h-.4c-1.3,0-2.2.4-2.9,1.2-.7.8-1,1.7-1,2.7v8.5h-2.5s0-14.8,0-14.8Z"/>
      <path class="cls-4" d="M80.2,46.8c1.3,1.3,2,3.2,2,5.6s-.6,4.4-1.7,5.9c-1.1,1.5-2.9,2.4-5.3,2.4s-3.6-.7-4.8-2-1.8-3.2-1.8-5.6.6-4.4,1.9-5.9,2.9-2.2,5-2.2,3.4.6,4.7,1.9ZM78.7,56.7c.6-1.3.9-2.6.9-4.2s-.3-2.5-.7-3.3c-.7-1.4-1.9-2-3.6-2s-2.6.6-3.2,1.7c-.7,1.2-1,2.6-1,4.2s.3,2.9,1,3.9,1.8,1.5,3.2,1.5c1.6,0,2.7-.6,3.3-1.8Z"/>
      <path class="cls-4" d="M85,39.9h2.4v11.7l6.3-6.2h3.2l-5.6,5.5,6,9.2h-3.2l-4.6-7.5-2,2v5.6h-2.4v-20.2Z"/>
      <path class="cls-4" d="M107.5,45.8c.9.5,1.7,1.1,2.2,1.9s.9,1.6,1,2.6c.2.7.3,1.8.3,3.2h-10.8c0,1.5.4,2.7,1,3.6.7.9,1.7,1.4,3.1,1.4s2.3-.4,3.1-1.3c.4-.5.8-1.1.9-1.7h2.5c0,.5-.3,1.1-.6,1.8-.3.7-.8,1.2-1.2,1.6-.8.8-1.7,1.2-2.7,1.5-.6.2-1.3.3-2,.3-1.8,0-3.3-.7-4.6-2-1.3-1.4-1.9-3.2-1.9-5.6s.6-4.3,1.9-5.8c1.3-1.5,2.9-2.2,5-2.2.8,0,1.8.3,2.8.9ZM108.4,51.5c0-1.1-.3-2-.7-2.6-.7-1.2-1.8-1.8-3.3-1.8s-2,.4-2.8,1.2c-.8.9-1.2,1.9-1.2,3.2,0,0,8,0,8,0Z"/>
      <path class="cls-4" d="M113.9,45.4h2.4v2.6c.2-.5.7-1.1,1.5-1.8s1.6-1,2.6-1h.3c0,0,.3,0,.6,0v2.6c-.2,0-.3,0-.4,0h-.4c-1.3,0-2.2.4-2.9,1.2-.7.8-1,1.7-1,2.7v8.5h-2.5v-14.8Z"/>
      <path class="cls-4" d="M124.7,55.5c0,.9.3,1.5.6,1.9.6.8,1.7,1.2,3.3,1.2s1.8-.2,2.5-.6c.7-.4,1-1,1-1.9s-.3-1.1-.9-1.5c-.3-.2-1.1-.4-2.1-.7l-2-.5c-1.3-.3-2.2-.7-2.8-1-1.1-.7-1.6-1.6-1.6-2.8s.5-2.6,1.5-3.4,2.4-1.3,4.1-1.3,3.8.7,4.9,2c.6.9.9,1.7.9,2.6h-2.3c0-.6-.3-1-.6-1.5-.6-.7-1.6-.9-3-.9s-1.7.2-2.1.5c-.5.3-.8.9-.8,1.5s.3,1.1.9,1.5c.3.3.9.4,1.6.6l1.7.4c1.8.4,3,.9,3.7,1.3.9.6,1.5,1.6,1.5,3s-.5,2.5-1.5,3.4-2.6,1.5-4.6,1.5-3.8-.5-4.7-1.5c-.9-1-1.5-2.2-1.5-3.7h2.2Z"/>
    </g>
  </g>
  <g id="logo">
    <g>
      <polygon class="cls-1" points="33.3 60.6 11.8 60.6 11.8 37 33.3 60.6"/>
      <circle class="cls-2" cx="30.3" cy="42.7" r="6.4"/>
      <polygon class="cls-2" points="33.3 12.1 11.8 37 11.8 60.6 33.3 12.1"/>
    </g>
  </g>
</svg>