<?xml version="1.0" encoding="utf-8"?>
<!-- Generator: Adobe Illustrator 26.2.1, SVG Export Plug-In . SVG Version: 6.00 Build 0)  -->
<svg version="1.1" id="Layer_1" xmlns="http://www.w3.org/2000/svg" xmlns:xlink="http://www.w3.org/1999/xlink" x="0px" y="0px"
	 viewBox="0 0 169 48.5" style="enable-background:new 0 0 169 48.5;" xml:space="preserve">
<style type="text/css">
	.st0{fill:#00214A;}
	.st1{fill:#00D37E;}
</style>
<g id="b">
	<path class="st0" d="M51.4,46.3h1.5c0,0.5,0.5,1,1.2,1c0.7,0,1.1-0.4,1.1-0.9c0-0.4-0.3-0.7-0.9-0.9l-0.9-0.3
		c-1.6-0.4-1.9-1.4-1.9-2.1c0-1.3,1.1-2.3,2.6-2.3s2.5,0.9,2.5,2.3H55c0-0.5-0.4-0.9-1-0.9c-0.6,0-1,0.4-1,0.9
		c0,0.2,0.1,0.6,0.8,0.8l0.8,0.2c1.1,0.3,2.1,0.9,2.1,2.2c0,1.5-1.3,2.3-2.7,2.3C52.5,48.6,51.4,47.6,51.4,46.3L51.4,46.3z"/>
	<path class="st0" d="M68.1,48.5h-1.5L66,43.8l-1.8,3.8H63l-1.8-3.8l-0.5,4.6h-1.5L60,41h1.3l2.3,4.9l2.3-4.9h1.3L68.1,48.5
		L68.1,48.5z"/>
	<path class="st0" d="M75.6,48.5L75,46.7h-2.8l-0.6,1.8H70l2.8-7.5h1.6l2.8,7.5H75.6z M72.6,45.4h1.9l-1-2.8L72.6,45.4L72.6,45.4z"
		/>
	<path class="st0" d="M83.2,48.5l-1.8-2.7h-0.5v2.7h-1.5V41h3c1.7,0,2.4,1.2,2.4,2.4c0,1.1-0.7,2.1-1.8,2.3l1.9,2.7L83.2,48.5
		L83.2,48.5z M80.9,42.3v2.2h1.2c0.8,0,1.2-0.5,1.2-1.1c0-0.6-0.4-1.1-1.1-1.1H80.9L80.9,42.3z"/>
	<path class="st0" d="M92.5,41v1.3h-2.1v6.1h-1.5v-6.1h-2.1V41H92.5L92.5,41z"/>
	<path class="st0" d="M96.5,47.1h3.3v1.3H95V41h4.7v1.3h-3.2v1.8h2.8v1.4h-2.8L96.5,47.1L96.5,47.1z"/>
	<path class="st0" d="M106.5,48.5l-1.8-2.7h-0.5v2.7h-1.5V41h3c1.7,0,2.4,1.2,2.4,2.4c0,1.1-0.7,2.1-1.8,2.3l1.9,2.7L106.5,48.5
		L106.5,48.5z M104.2,42.3v2.2h1.2c0.8,0,1.2-0.5,1.2-1.1c0-0.6-0.4-1.1-1.1-1.1H104.2L104.2,42.3z"/>
	<path class="st0" d="M119.5,41v1.3h-2.1v6.1H116v-6.1h-2.1V41H119.5z"/>
	<path class="st0" d="M125.9,48.5l-1.8-2.7h-0.5v2.7h-1.5V41h3c1.7,0,2.4,1.2,2.4,2.4c0,1.1-0.7,2.1-1.8,2.3l1.9,2.7L125.9,48.5
		L125.9,48.5z M123.6,42.3v2.2h1.2c0.8,0,1.2-0.5,1.2-1.1c0-0.6-0.4-1.1-1.1-1.1H123.6L123.6,42.3z"/>
	<path class="st0" d="M135,48.5l-0.6-1.8h-2.8l-0.6,1.8h-1.6l2.8-7.5h1.6l2.8,7.5H135z M132,45.4h1.9l-1-2.8L132,45.4z"/>
	<path class="st0" d="M141.8,41c2.1,0,3.4,1.6,3.4,3.7s-1.2,3.7-3.4,3.7h-2.9V41H141.8z M141.8,47.1c1.2,0,1.9-1.1,1.9-2.4
		s-0.6-2.4-1.9-2.4h-1.4v4.8H141.8z"/>
	<path class="st0" d="M148,48.5V41h1.5v7.5H148z"/>
	<path class="st0" d="M156.8,41h1.5v7.5h-1.4l-2.7-4.7v4.7h-1.5V41h1.4l2.7,4.6V41z"/>
	<path class="st0" d="M161,44.7c0-2.1,1.7-3.9,3.8-3.9c1.1,0,2.1,0.5,2.8,1.2l-1.1,0.9c-0.4-0.5-1-0.7-1.7-0.7
		c-1.3,0-2.3,1.1-2.3,2.5c0,1.3,1,2.5,2.4,2.5c1,0,1.9-0.6,1.9-1.5h-2.1v-1.2h3.8c0,2.8-1.5,4-3.6,4C162.7,48.6,161,46.9,161,44.7
		L161,44.7z"/>
</g>
<g id="c">
	<path class="st0" d="M61.4,10.6c-6.3,0-11.4,5.2-11.4,11.5s5.1,11.6,11.4,11.6s11.4-5.2,11.4-11.6S67.7,10.6,61.4,10.6z M61.4,28.6
		c-3.5,0-6-2.7-6-6.5s2.5-6.5,6-6.5s6,2.8,6,6.5S64.8,28.6,61.4,28.6L61.4,28.6z"/>
	<polygon class="st0" points="114.3,10.9 114.3,21.9 106.2,10.9 101.1,10.9 101.1,33.3 106.8,33.3 106.8,22.1 115.1,33.3 120,33.3
		120,10.9 	"/>
	<path class="st0" d="M134.2,10.9h-9.3v22.3h9.3c6.1,0,10.2-4.5,10.2-11.1S140.3,10.9,134.2,10.9z M130.5,16h3.7
		c3.1,0,4.5,3.2,4.5,6.1s-1.4,6.1-4.5,6.1h-3.7V16L130.5,16z"/>
	<path class="st0" d="M91.7,33.3h6.1l-9.1-22.3l-2.8,0l-2.8,0l-9.1,22.3H80l1.8-5.1h8L91.7,33.3L91.7,33.3z M83.6,23.2l2.2-6.1
		l2.2,6.1H83.6L83.6,23.2z"/>
	<path class="st0" d="M162.9,33.3h6.1l-9.1-22.3l-2.8,0l-2.8,0l-9.1,22.3h6.1l1.8-5.1h8L162.9,33.3L162.9,33.3z M154.8,23.2l2.2-6.1
		l2.2,6.1H154.8L154.8,23.2z"/>
</g>
<polygon class="st0" points="9.6,29.8 3.3,29.8 0,17.4 6.4,17.4 "/>
<polygon class="st1" points="36.8,19.1 30.4,19.1 35.5,0 41.9,0 "/>
<polygon class="st1" points="24,9.6 18.6,29.7 15.4,41.5 21.7,41.5 21.8,41.5 30.4,9.6 "/>
<polygon class="st0" points="16.5,22.1 10.1,22.1 15.3,41.5 15.4,41.5 21.7,41.5 "/>
</svg>
