<svg width="202" height="40" viewBox="0 0 202 40" fill="none" xmlns="http://www.w3.org/2000/svg">
<path d="M52.2747 30.1533V11.1956H55.8615V12.8632C56.473 11.8071 58.0019 10.8898 60.0598 10.8898C64.0629 10.8898 66.3703 13.9475 66.3703 18.005C66.3703 22.147 63.7853 25.2047 59.921 25.2047C58.03 25.2047 56.64 24.4543 55.9741 23.537V30.1533H52.2747ZM59.3356 14.199C57.4446 14.199 55.9158 15.6172 55.9158 18.0352C55.9158 20.4532 57.4446 21.8995 59.3356 21.8995C61.2265 21.8995 62.7272 20.4813 62.7272 18.0352C62.7272 15.6152 61.2265 14.199 59.3356 14.199ZM80.84 20.9541C80.146 23.3158 77.9775 25.2912 74.614 25.2912C70.8623 25.2912 67.5531 22.5956 67.5531 17.9809C67.5531 13.6176 70.7778 10.7812 74.2801 10.7812C78.5045 10.7812 81.0352 13.4768 81.0352 17.8702C81.0352 18.3973 80.9788 18.9545 80.9788 19.0088H71.1942C71.2767 20.8153 72.8055 22.1228 74.6402 22.1228C76.3641 22.1228 77.3096 21.2619 77.7542 20.0388L80.84 20.9541ZM77.3941 16.4782C77.3378 15.1163 76.4486 13.7826 74.3364 13.7826C72.4173 13.7826 71.3612 15.2289 71.2787 16.4782H77.3941ZM82.4051 30.1533V11.1956H85.9919V12.8632C86.6034 11.8071 88.1322 10.8898 90.1902 10.8898C94.1933 10.8898 96.5007 13.9475 96.5007 18.005C96.5007 22.147 93.9157 25.2047 90.0513 25.2047C88.1604 25.2047 86.7704 24.4543 86.1045 23.537V30.1533H82.4051ZM89.464 14.199C87.573 14.199 86.0442 15.6172 86.0442 18.0352C86.0442 20.4532 87.573 21.8995 89.464 21.8995C91.3549 21.8995 92.8556 20.4813 92.8556 18.0352C92.8556 15.6152 91.3549 14.199 89.464 14.199ZM97.8344 30.0527V11.095H101.421V12.7627C102.033 11.7066 103.562 10.7892 105.619 10.7892C109.623 10.7892 111.93 13.8469 111.93 17.9044C111.93 22.0464 109.345 25.1041 105.481 25.1041C103.59 25.1041 102.2 24.3538 101.534 23.4364V30.0527H97.8344ZM104.893 14.0964C103.002 14.0964 101.473 15.5146 101.473 17.9326C101.473 20.3506 103.002 21.7969 104.893 21.7969C106.784 21.7969 108.285 20.3787 108.285 17.9326C108.285 15.5146 106.784 14.0964 104.893 14.0964ZM126.398 20.9541C125.704 23.3158 123.535 25.2912 120.172 25.2912C116.42 25.2912 113.111 22.5956 113.111 17.9809C113.111 13.6176 116.335 10.7812 119.838 10.7812C124.062 10.7812 126.593 13.4768 126.593 17.8702C126.593 18.3973 126.537 18.9545 126.537 19.0088H116.752C116.834 20.8153 118.363 22.1228 120.198 22.1228C121.922 22.1228 122.867 21.2619 123.312 20.0388L126.398 20.9541ZM122.952 16.4782C122.895 15.1163 122.006 13.7826 119.894 13.7826C117.975 13.7826 116.919 15.2289 116.836 16.4782H122.952ZM136.581 14.8648C136.164 14.7824 135.802 14.7542 135.468 14.7542C133.577 14.7542 131.938 15.6715 131.938 18.6186V24.8728H128.24V11.1956H131.827V13.2253C132.66 11.4189 134.551 11.085 135.72 11.085C136.025 11.085 136.303 11.1131 136.581 11.1413V14.8648ZM140.069 20.3687C140.151 21.453 140.958 22.4527 142.571 22.4527C143.794 22.4527 144.378 21.8131 144.378 21.0909C144.378 20.4793 143.961 19.9784 142.905 19.7572L141.099 19.3407C138.458 18.7574 137.263 17.1722 137.263 15.2551C137.263 12.8089 139.431 10.7792 142.378 10.7792C146.271 10.7792 147.576 13.2535 147.743 14.726L144.657 15.42C144.547 14.6134 143.963 13.5854 142.406 13.5854C141.433 13.5854 140.654 14.1688 140.654 14.9473C140.654 15.6152 141.155 16.0316 141.905 16.1704L143.851 16.5868C146.546 17.142 147.908 18.7835 147.908 20.7851C147.908 23.01 146.184 25.2892 142.599 25.2892C138.486 25.2892 137.067 22.6197 136.9 21.0647L140.069 20.3687ZM154.832 11.1956H157.584V14.4766H154.832V20.2037C154.832 21.3986 155.388 21.7889 156.446 21.7889C156.89 21.7889 157.391 21.7326 157.584 21.6783V24.736C157.25 24.8748 156.584 25.0699 155.5 25.0699C152.833 25.0699 151.163 23.4847 151.163 20.8454V14.4806H148.689V11.1996H149.383C150.829 11.1996 151.495 10.2541 151.495 9.03107V7.11196H154.83V11.1956H154.832ZM172.41 18.0352C172.41 22.2335 169.324 25.2912 165.239 25.2912C161.153 25.2912 158.067 22.2335 158.067 18.0352C158.067 13.8107 161.153 10.7812 165.239 10.7812C169.324 10.7792 172.41 13.8087 172.41 18.0352ZM168.713 18.0352C168.713 15.4502 167.045 14.1426 165.239 14.1426C163.432 14.1426 161.764 15.4482 161.764 18.0352C161.764 20.592 163.432 21.9277 165.239 21.9277C167.045 21.9277 168.713 20.6201 168.713 18.0352ZM177.415 24.8728H173.718V11.1956H177.304V12.8914C178.137 11.4732 179.779 10.8335 181.251 10.8335C184.643 10.8335 186.2 13.2515 186.2 16.2549V24.8728H182.502V16.8946C182.502 15.3657 181.752 14.1708 179.974 14.1708C178.362 14.1708 177.417 15.4221 177.417 17.0052V24.8728H177.415ZM200.973 20.9541C200.279 23.3158 198.111 25.2912 194.747 25.2912C190.996 25.2912 187.686 22.5956 187.686 17.9809C187.686 13.6176 190.911 10.7812 194.413 10.7812C198.638 10.7812 201.168 13.4768 201.168 17.8702C201.168 18.3973 201.112 18.9545 201.112 19.0088H191.328C191.41 20.8153 192.939 22.1228 194.773 22.1228C196.497 22.1228 197.443 21.2619 197.887 20.0388L200.973 20.9541ZM197.527 16.4782C197.471 15.1163 196.582 13.7826 194.47 13.7826C192.551 13.7826 191.494 15.2289 191.412 16.4782H197.527Z" fill="#151515"/>
<path d="M37.9216 7.49619C30.8447 3.42865 16.1094 0.232148 8.30824 0.0249488C0.505078 -0.18225 -0.365962 2.59784 0.110797 8.92647C0.589568 15.2571 2.41413 25.1343 6.44144 31.4428C10.4667 37.7513 16.6928 40.4911 23.293 38.2301C29.8912 35.967 36.8655 28.7029 40.6414 22.6016C44.4172 16.5043 44.9986 11.5637 37.9216 7.49619ZM24.0675 24.8788H19.1047V33.1326H14.0515V14.7703H19.1047V19.8235H24.0675V19.8095C26.1495 19.7733 27.8272 18.0774 27.8272 15.9873C27.8272 13.8972 26.1495 12.1994 24.0675 12.1652V12.1612H7.73291L9.5796 7.10795H24.0654C28.9819 7.10795 32.969 11.095 32.969 16.0115C32.971 20.9299 28.9839 24.8788 24.0675 24.8788Z" fill="#0064FA"/>
<path d="M24.0675 24.8788H19.1047V33.1326H14.0515V14.7703H19.1047V19.8235H24.0675V19.8095C26.1495 19.7733 27.8272 18.0774 27.8272 15.9873C27.8272 13.8972 26.1495 12.1994 24.0675 12.1652V12.1612H7.73291L9.5796 7.10795H24.0654C28.9819 7.10795 32.969 11.095 32.969 16.0115C32.971 20.9299 28.9839 24.8788 24.0675 24.8788Z" fill="white"/>
</svg>
