<?xml version="1.0" encoding="UTF-8"?>
<svg xmlns="http://www.w3.org/2000/svg" version="1.1" viewBox="42 10 120 35">
  <defs>
    <style>
      .st1 {
        fill: #0c2780;
      }
    </style>
  </defs>
  <g>
    <path class="st1" d="M60.746,22.879h-13.108v16.589h5.777v-6.112h7.332c1.596,0,2.889-1.271,2.889-2.838v-4.8c0-1.568-1.293-2.838-2.889-2.838ZM57.859,30.082c0,.362-.298.654-.666.654h-3.778v-5.237h3.776c.368,0,.666.293.666.654v3.928h.002Z"/>
    <path class="st1" d="M65.413,22.879v12.004c0,1.922,1.013,3.611,2.543,4.583h3.234v-16.587h-5.777Z"/>
    <path class="st1" d="M82.743,26.808v9.385c0,.362-.298.655-.666.655h-2.666c-.368,0-.666-.293-.666-.655v-9.385h-5.777v9.822c0,1.568,1.293,2.838,2.889,2.838h12.665v-12.659h-5.778Z"/>
    <path class="st1" d="M93.185,26.808c-1.596,0-2.889,1.271-2.889,2.838v3.055c0,1.568,1.293,2.838,2.889,2.838h5.333c.368,0,.666.293.666.655v.436c0,.362-.298.654-.666.654h-7.777v2.182h10.887c1.596,0,2.889-1.27,2.889-2.838v-3.055c0-1.568-1.293-2.838-2.889-2.838h-5.333c-.368,0-.666-.293-.666-.654s.298-.655.666-.655h7.332v-2.618h-10.442Z"/>
    <path class="st1" d="M103.628,24.19h-4.889v-2.62h-3.554v-4.802h3.554v-2.62h4.889v2.62h3.554v4.802h-3.554v2.62Z"/>
    <path class="st1" d="M118.069,29.865h-5.999v-3.057h7.998v-2.618h-13.774v8.294h8.22c.369,0,.666.293.666.654v3.055c0,.362-.298.654-.666.654h-8.22v2.62h11.776c1.596,0,2.889-1.271,2.889-2.838v-3.929c0-1.566-1.293-2.837-2.889-2.837Z"/>
    <path class="st1" d="M135.398,24.19h-9.775c-1.596,0-2.889,1.271-2.889,2.838v9.603c0,1.568,1.294,2.838,2.889,2.838h9.775c1.596,0,2.889-1.271,2.889-2.838v-9.605c0-1.566-1.294-2.837-2.889-2.837ZM132.511,36.194c0,.362-.298.654-.666.654h-2.667c-.368,0-.666-.293-.666-.654v-8.73c0-.362.298-.655.666-.655h2.667c.369,0,.666.293.666.655v8.73Z"/>
    <path class="st1" d="M152.728,24.19h-9.775c-1.596,0-2.889,1.271-2.889,2.838v9.603c0,1.568,1.293,2.838,2.889,2.838h9.775c1.596,0,2.889-1.271,2.889-2.838v-9.605c0-1.566-1.294-2.837-2.889-2.837ZM149.841,36.194c0,.362-.298.654-.666.654h-2.666c-.369,0-.666-.293-.666-.654v-8.73c0-.362.298-.655.666-.655h2.666c.369,0,.666.293.666.655v8.73Z"/>
  </g>
</svg>
