<?xml version="1.0" encoding="UTF-8"?>
<svg xmlns="http://www.w3.org/2000/svg" version="1.1" viewBox="24 5 155 60">
  <defs>
    <style>
      .dark {
        fill: #1a1a2e;
      }
      .teal {
        fill: #62c3ab;
      }
      .white {
        fill: #ffffff;
      }
    </style>
  </defs>
  <g>
    <!-- SPREAD text in dark -->
    <path class="dark" d="M27.1,24l4.8-.3c0,.6.3,1.3.6,1.8.5.7,1.4,1,2.2,1,.6,0,1.2-.1,1.7-.5.6-.5.8-1.4.3-2,0-.1-.2-.2-.3-.3-.4-.3-1.2-.7-2.6-.9-2.2-.5-3.8-1.2-4.8-2-.9-.8-1.5-1.9-1.5-3.2,0-.9.3-1.7.7-2.4.5-.8,1.3-1.4,2.2-1.8,1.3-.5,2.7-.7,4-.6,2.1,0,3.7.4,4.8,1.2,1.1.8,1.8,2,2,3.7l-4.8.3c0-.6-.4-1.2-.8-1.6-.5-.4-1.1-.5-1.7-.5-.5,0-1,0-1.3.4-.3.2-.5.6-.5.9,0,.3.2.6.4.7.5.3,1.1.5,1.7.6,1.6.3,3.2.8,4.8,1.4.9.4,1.6,1,2.1,1.8.4.7.7,1.6.6,2.4,0,1-.3,2-.9,2.9-.6.9-1.4,1.6-2.4,2-1.3.5-2.6.7-3.9.7-2.8,0-4.7-.5-5.8-1.6-1.1-1.1-1.7-2.6-1.8-4.1"/>
    <path class="dark" d="M44.4,13.1h8.4c1.8,0,3.2.4,4.1,1.3,1,1,1.5,2.3,1.4,3.7,0,1.4-.5,2.9-1.5,3.9-1,.9-2.5,1.4-4.6,1.4h-2.8v6h-5.1V13.1h0ZM49.5,20h1.2c.7,0,1.4,0,2.1-.5.4-.3.6-.8.6-1.3,0-.5-.2-1-.5-1.3-.3-.4-1-.5-1.9-.5h-1.4v3.6h0Z"/>
    <path class="dark" d="M61,29.4V13.1h8.4c1.2,0,2.4,0,3.6.4.8.3,1.5.8,2,1.5.5.8.8,1.7.8,2.7,0,1.6-.8,3.1-2.2,4-.6.3-1.2.5-1.8.7.5.1.9.3,1.3.6.3.3.6.5.8.9.3.3.5.7.7,1l2.5,4.7h-5.7l-2.7-5c-.2-.5-.5-.9-.9-1.3-.4-.3-.8-.4-1.2-.4h-.4v6.6h-5.1ZM66.1,19.7h2.1c.5,0,.9-.1,1.3-.2.3,0,.6-.2.8-.5.2-.3.3-.6.3-1,0-.5-.2-.9-.5-1.2-.6-.3-1.2-.5-1.9-.4h-2.2v3.3h0Z"/>
    <path class="dark" d="M78.8,13.1h13.6v3.5h-8.5v2.6h7.9v3.3h-7.9v3.2h8.7v3.7h-13.8V13.1h0Z"/>
    <path class="dark" d="M104.3,23.2l-1.8-5.9-1.8,5.9h3.6ZM105.3,26.7h-5.7l-.8,2.7h-5.2l6.2-16.4h5.6l6.1,16.4h-5.3l-.8-2.7h0Z"/>
    <path class="dark" d="M113.2,13.1h7.5c1.2,0,2.4.2,3.6.6.9.4,1.7,1,2.3,1.7.6.8,1,1.7,1.3,2.6.3,1,.4,2.1.4,3.2,0,1.4-.1,2.8-.6,4.1-.4.9-.9,1.7-1.7,2.4-.6.6-1.4,1.1-2.3,1.3-1,.3-2,.4-3,.4h-7.6V13.1h0ZM118.2,16.7v8.9h1.2c.8,0,1.5,0,2.3-.4.5-.3.9-.7,1.1-1.2.3-.9.4-1.9.4-2.9,0-1.7-.3-2.9-.8-3.6-.6-.6-1.5-1-2.8-1h-1.3Z"/>
    <!-- EX teal rectangle with white letters -->
    <rect class="teal" x="131.8" y="7" width="45.2" height="28.2"/>
    <path class="white" d="M152.3,29.4h-13.8V13.1h13.6v3.5h-8.5v2.6h7.9v3.3h-7.9v3.2h8.7v3.7h0Z"/>
    <path class="white" d="M165.5,29.4l-3.2-5.3-3.2,5.3h-5.6l5.6-8.5-5.1-7.8h5.6l2.9,5,2.8-5h5.5l-5.1,7.9,5.6,8.4h-5.7Z"/>
    <!-- Trading text in dark -->
    <polygon class="dark" points="119.5 58.2 117.5 58.2 117.5 45.8 113 45.8 113 44.1 124 44.1 124 45.8 119.5 45.8 119.5 58.2"/>
    <path class="dark" d="M124,49.8c0-.4,0-.8,0-1.1h1.8c0,.2,0,.5,0,.8,0,.3,0,.6,0,.8h0c.3-.6.7-1,1.2-1.3.5-.3,1.1-.5,1.7-.5s.5,0,.7,0v1.7c-.3,0-.6,0-.9,0-.5,0-.8,0-1.2.2-.3.2-.6.4-.8.7-.2.3-.4.6-.5,1-.1.4-.2.7-.2,1.1v5h-1.9v-7.4c0-.3,0-.6,0-1h0Z"/>
    <path class="dark" d="M136.4,53.7c-.5,0-.9,0-1.4,0-.5,0-1,.1-1.4.2-.4.1-.7.3-1,.5-.3.2-.4.6-.4,1s0,.5.2.7c.1.2.3.3.4.5.2.1.4.2.6.2.2,0,.5,0,.7,0,.9,0,1.6-.3,2-.8.5-.5.7-1.2.7-2v-.5h-.5ZM136.8,52.1c0-.7-.2-1.2-.6-1.6-.4-.3-1-.5-1.7-.5s-1,.1-1.5.3c-.5.2-.9.5-1.2.8l-1-1.2c.5-.4,1-.8,1.7-1,.7-.3,1.4-.4,2.2-.4s1.3,0,1.8.3c.5.2.9.5,1.2.8.3.3.6.7.7,1.2.2.5.2.9.2,1.5v4.1c0,.3,0,.7,0,1,0,.4,0,.6.1,.9h-1.7c-.1-.5-.2-.9-.2-1.4h0c-.3.5-.8.9-1.3,1.2-.5.3-1.1.4-1.9.4s-.8,0-1.2-.1c-.4,0-.8-.3-1.1-.5-.3-.2-.6-.5-.8-.9-.2-.4-.3-.8-.3-1.4s.2-1.3.6-1.7c.4-.4.9-.7,1.5-1,.6-.2,1.3-.4,2.1-.4.8,0,1.6,0,2.4,0v-.3h0Z"/>
    <path class="dark" d="M142.1,53.5c0,.4,0,.9.2,1.3.1.4.3.8.6,1.1.3.3.6.6,1,.8.4.2.8.3,1.4.3s.9,0,1.3-.3c.4-.2.7-.4,1-.7.3-.3.5-.7.6-1.1.2-.4.2-.8.2-1.3s0-.9-.2-1.3c-.2-.4-.4-.8-.6-1.1-.3-.3-.6-.6-1-.8-.4-.2-.8-.3-1.3-.3s-1,0-1.4.3c-.4.2-.7.4-1,.8-.3.3-.5.7-.6,1.1-.1.4-.2.8-.2,1.3h0ZM148.3,56.7c-.4.6-.8,1-1.5,1.3-.6.3-1.3.4-1.9.4s-1.4-.1-2-.4c-.6-.3-1.1-.6-1.5-1.1-.4-.5-.7-1-1-1.6-.2-.6-.3-1.3-.3-2s.1-1.3.3-1.9c.2-.6.5-1.1,1-1.6.4-.5.9-.8,1.5-1.1.6-.3,1.2-.4,1.9-.4s1.4.2,2,.5c.6.3,1,.7,1.4,1.2h0v-7h1.9v15.1h-1.8v-1.5h0Z"/>
    <path class="dark" d="M154.4,58.2h-1.9v-9.5h1.9v9.5h0ZM154.7,45.3c0,.3-.1.6-.4.9-.2.2-.5.3-.9.3s-.6-.1-.9-.3c-.2-.2-.4-.5-.4-.8s.1-.6.4-.9c.2-.2.5-.3.9-.3s.6.1.9.3c.2.2.4.5.4,.9h0Z"/>
    <path class="dark" d="M158.5,48.7c0,.2,0,.5,0,.8,0,.3,0,.5,0,.7h0c.1-.3.3-.5.5-.7.2-.2.4-.4.7-.6.3-.2.6-.3.9-.4.3,0,.7-.1,1-.1.6,0,1.1.1,1.6.3.4.2.8.5,1.1.8.3.3.5.8.6,1.2.1.5.2,1,.2,1.5v5.9h-1.9v-5.2c0-.4,0-.8,0-1.1,0-.3-.2-.7-.3-.9-.2-.3-.4-.5-.7-.6-.3-.2-.6-.2-1.1-.2-.7,0-1.4.3-1.8.8-.5.6-.7,1.3-.7,2.3v5h-1.9v-7.4c0-.3,0-.6,0-1,0-.4,0-.8,0-1.1h1.8Z"/>
    <path class="dark" d="M168.8,53.4c0,.4,0,.9.2,1.3.1.4.3.8.6,1.1.3.3.6.6,1,.7.4.2.8.3,1.3.3s.9,0,1.3-.3c.4-.2.7-.4,1-.7.3-.3.5-.7.7-1.1.2-.4.2-.8.2-1.3s0-.9-.2-1.3c-.2-.4-.4-.8-.7-1.1-.3-.3-.6-.5-1-.7-.4-.2-.8-.3-1.3-.3s-.9,0-1.3.3c-.4.2-.7.4-1,.7-.3.3-.5.7-.6,1.1-.1.4-.2.8-.2,1.3h0ZM168.3,59.8c.4.5.9.8,1.5,1.1.6.3,1.3.4,1.9.4s1.2,0,1.6-.3c.4-.2.8-.4,1-.7.3-.3.4-.7.6-1.1.1-.4.2-.9.2-1.4v-1.2h0c-.3.5-.8.9-1.4,1.2-.6.3-1.2.4-1.9.4s-1.4-.1-2-.4c-.6-.3-1.1-.6-1.5-1-.4-.4-.7-1-1-1.5-.2-.6-.3-1.2-.3-1.9s.1-1.3.3-1.9c.2-.6.5-1.1,1-1.6.4-.4.9-.8,1.5-1.1.6-.3,1.2-.4,2-.4s1.3.1,1.9.4c.6.3,1.1.7,1.5,1.3h0v-1.5h1.8v9c0,.7,0,1.4-.3,2-.2.6-.5,1.2-.9,1.7-.4.5-1,.9-1.6,1.2-.7.3-1.5.4-2.5.4s-1.7-.1-2.5-.4c-.8-.3-1.5-.7-2.1-1.3l1.2-1.5h0Z"/>
  </g>
</svg>
