<svg xmlns="http://www.w3.org/2000/svg" width="177" height="35" fill="none"><path fill="#323232" d="M5.282 7.568c0 3.178 4.54 3.821 7.946 5.789 2.12 1.21 3.86 3.178 3.86 6.508 0 4.768-3.898 7.757-8.211 7.757-4.314 0-7.416-2.081-8.627-3.406l1.703-3.594h.15a9.251 9.251 0 0 0 6.471 2.724c1.854 0 3.86-1.097 3.86-3.254 0-3.216-4.54-3.86-7.946-5.827-2.12-1.21-3.86-3.179-3.86-6.508C.628 2.989 4.563 0 8.953 0a11.96 11.96 0 0 1 8.135 3.216l-1.703 3.595h-.151c-1.476-1.324-3.33-2.535-5.903-2.535-2.043 0-4.049 1.097-4.049 3.292Zm12.487 4.35h4.465l2.648 7.682h.152l3.745-10.708h3.028l3.935 10.822h.151l3.784-10.822h4.238l-6.47 18.162h-2.952l-4.162-11.427h-.151l-4.011 11.427h-3.027L17.769 11.92Zm28-10.594h4.503v4.352h-4.503V1.324Zm.075 7.568h4.352v18.162h-4.352V8.892Zm14.492 18.73a9.95 9.95 0 0 1-6.81-2.649l1.21-3.254h.152c1.362 1.21 3.102 2.157 5.108 2.157 1.513 0 2.497-.643 2.497-1.779 0-1.173-1.249-1.627-2.8-2.119-2.497-.794-5.79-2.005-5.79-5.789 0-3.48 2.725-5.864 6.622-5.864a9.874 9.874 0 0 1 6.055 2.156l-1.211 3.292h-.152c-1.286-1.022-2.951-1.703-4.351-1.703-1.703 0-2.687.644-2.687 1.779 0 1.173 1.249 1.627 2.801 2.119 2.497.794 5.789 2.005 5.789 5.789 0 3.48-2.725 5.865-6.433 5.865Zm15.552 0a9.95 9.95 0 0 1-6.811-2.649l1.21-3.254h.152c1.362 1.21 3.103 2.157 5.108 2.157 1.514 0 2.497-.643 2.497-1.779 0-1.173-1.248-1.627-2.8-2.119-2.497-.794-5.789-2.005-5.789-5.789 0-3.48 2.724-5.864 6.622-5.864a9.873 9.873 0 0 1 6.054 2.156l-1.211 3.292h-.151c-1.287-1.022-2.952-1.703-4.352-1.703-1.703 0-2.686.644-2.686 1.779 0 1.173 1.248 1.627 2.8 2.119 2.497.794 5.789 2.005 5.789 5.789 0 3.48-2.724 5.865-6.432 5.865Zm26.448-18.73V35h-4.351v-9.27a7.233 7.233 0 0 1-4.806 1.892c-5.146 0-8.437-3.973-8.437-9.46 0-5.146 3.518-9.837 8.891-9.837a7.466 7.466 0 0 1 4.579 1.664h.151V8.892h3.973Zm-4.351 4.73a5.663 5.663 0 0 0-3.671-1.325c-3.102 0-5.108 2.422-5.108 5.827 0 3.065 1.741 5.525 4.844 5.525a5.303 5.303 0 0 0 3.935-1.703v-8.324Zm12.373 6.13c0 1.589.265 2.27.719 2.837a3.318 3.318 0 0 0 3.869.838c.43-.195.814-.481 1.125-.838.454-.567.719-1.248.719-2.838V8.892h4.351v10.405c0 2.952-.794 4.806-2.156 6.13a7.763 7.763 0 0 1-5.6 2.195 7.39 7.39 0 0 1-5.298-2.12c-1.324-1.323-2.081-3.215-2.081-6.205V8.892h4.352v10.86Zm13.773-1.59c0-5.789 3.935-9.837 9.459-9.837 5.524 0 9.46 4.048 9.46 9.459 0 5.79-3.936 9.838-9.46 9.838-5.524 0-9.459-4.049-9.459-9.46Zm9.459-5.865c-2.913 0-4.994 2.46-4.994 5.676s2.081 5.676 4.994 5.676c2.914 0 4.995-2.46 4.995-5.676s-2.081-5.676-4.995-5.676Zm24.216 11.2v3.368a9.94 9.94 0 0 1-3.897.757c-1.93 0-3.368-.568-4.351-1.552-1.06-1.06-1.589-2.61-1.589-5.373v-8.021h-4.163V8.892h4.163V2.838h4.351v6.054h5.486v3.784h-5.486v8.589c0 .946.189 1.476.492 1.816.529.605 1.4.757 2.346.757a10.29 10.29 0 0 0 2.497-.34h.151Zm10.671 4.125c-5.298 0-9.271-3.746-9.271-9.46 0-5.221 3.179-9.837 8.816-9.837 4.806 0 8.022 3.821 8.022 9.08v1.438h-12.297c.113 2.838 2.081 4.957 4.957 4.957 1.854 0 3.556-.757 5.108-2.043h.151l1.627 3.027c-1.703 1.816-4.238 2.838-7.113 2.838Zm3.216-12.184a3.493 3.493 0 0 0-1.087-2.453 3.478 3.478 0 0 0-2.508-.952c-2.194 0-3.67 1.475-4.124 3.405h7.719Z"/></svg>