<?xml version="1.0" encoding="UTF-8"?>
<svg id="Layer_1" xmlns="http://www.w3.org/2000/svg" xmlns:xlink="http://www.w3.org/1999/xlink" version="1.1" viewBox="0 0 505.45 82.33" width="505.45" height="82.33">
  <!-- Generator: Adobe Illustrator 30.0.0, SVG Export Plug-In . SVG Version: 2.1.1 Build 123)  -->
  <defs>
    <style>
      .st0 {
        fill: none;
      }

      .st1 {
        fill: #73a533;
      }

      .st2 {
        fill: #fff;
      }

      .st4 {
        fill: #1a1a2e;
      }

      .st3 {
        clip-path: url(#clippath);
      }
    </style>
    <clipPath id="clippath">
      <rect class="st0" width="505.45" height="82.33"/>
    </clipPath>
  </defs>
  <g class="st3">
    <g>
      <path class="st1" d="M73.84,66.93c-5.14,6.35-12.05,11.05-19.88,13.49-7.82,2.45-16.21,2.54-24.08.26-7.88-2.28-14.9-6.82-20.17-13.06C4.43,61.39,1.14,53.74.25,45.65c-.89-8.09.65-16.27,4.44-23.49,3.79-7.22,9.65-13.17,16.84-17.08C28.72,1.16,36.92-.55,45.1.16c8.17.71,15.95,3.81,22.35,8.9,4.25,3.38,7.78,7.56,10.41,12.3,2.62,4.74,4.27,9.95,4.87,15.32.59,5.37.11,10.81-1.41,16-1.52,5.19-4.06,10.03-7.47,14.25Z"/>
      <path class="st2" d="M65.95,10.9c-6.03-4.81-13.37-7.73-21.08-8.4-7.71-.67-15.45.94-22.23,4.63-6.79,3.69-12.32,9.3-15.89,16.11-3.58,6.81-5.03,14.52-4.19,22.16.84,7.63,3.95,14.85,8.92,20.73,4.97,5.88,11.59,10.17,19.02,12.32,7.43,2.15,15.34,2.07,22.72-.24,7.38-2.31,13.91-6.74,18.75-12.73,6.5-8.03,9.51-18.29,8.38-28.53-1.13-10.24-6.31-19.61-14.4-26.06ZM69.63,63.62c-4.47,5.53-10.49,9.62-17.31,11.75-6.81,2.13-14.11,2.21-20.97.23-6.86-1.98-12.97-5.94-17.56-11.37-4.59-5.43-7.46-12.09-8.24-19.14-.78-7.05.57-14.16,3.87-20.45,3.3-6.29,8.4-11.46,14.67-14.87,6.26-3.41,13.4-4.9,20.52-4.28,7.12.62,13.89,3.32,19.46,7.75,3.7,2.95,6.78,6.59,9.06,10.71,2.28,4.13,3.72,8.66,4.24,13.34.52,4.68.1,9.41-1.23,13.93-1.33,4.52-3.54,8.73-6.51,12.41h0Z"/>
      <path class="st2" d="M39.64,18.07c0,.5.19.99.53,1.36.34.37.81.6,1.31.65v-3.44c-1.84-.44-2.68-.99-2.68-2.5,0-.71.27-1.4.77-1.91.5-.51,1.19-.8,1.91-.81v-.86h.72v.87c.66.08,1.27.37,1.74.84.47.47.76,1.08.84,1.73h-1.11c-.05-.37-.22-.72-.48-1-.26-.27-.61-.45-.98-.51v3.2l.78.21c.57.11,1.08.42,1.46.85.38.44.59.99.62,1.56,0,.37-.07.74-.21,1.09-.14.35-.35.66-.62.92-.27.26-.59.47-.93.61-.35.14-.72.21-1.1.2v1.06h-.72v-1.06c-.79-.04-1.54-.38-2.09-.94-.55-.57-.86-1.32-.87-2.11h1.12ZM41.48,12.44c-.2,0-.41.05-.59.13-.19.08-.36.2-.5.35-.14.15-.25.32-.32.51-.07.19-.1.39-.1.59,0,.92.62,1.21,1.51,1.47v-3.04ZM42.2,20.08c.98-.08,1.69-.55,1.69-1.66,0-.99-.73-1.33-1.69-1.6v3.26Z"/>
      <path class="st2" d="M20.27,58.33h.76c-.4-.6-.61-1.31-.62-2.03,0-.37.1-.74.25-1.07.16-.34.38-.64.66-.89.28-.25.61-.44.96-.55.36-.12.73-.16,1.1-.13.44-.03.88.03,1.29.19.41.16.78.41,1.08.74.3.32.52.71.64,1.13.12.42.15.86.08,1.29h-1.11c-.04-1.49-.66-2.38-1.91-2.38-.24-.01-.47.02-.69.1-.22.08-.43.2-.6.36-.17.16-.31.35-.41.56-.1.21-.15.44-.16.68.05.71.29,1.39.68,1.99h2.07v.58h-1.79c.16.3.25.63.26.98-.04.5-.19.98-.46,1.41-.26.43-.63.78-1.06,1.03l.03.03c.43-.22.89-.35,1.38-.38.42.01.84.08,1.24.21.35.13.72.21,1.1.23.43-.03.84-.2,1.17-.48l.56.86c-.55.42-1.22.63-1.91.6-.44-.03-.87-.12-1.28-.28-.44-.16-.91-.25-1.38-.28-.47.01-.93.17-1.31.45l-.62-.86c.41-.24.76-.58,1.01-.98.25-.4.4-.86.43-1.33-.03-.42-.14-.83-.33-1.21h-1.11v-.58Z"/>
      <path class="st2" d="M62.39,54.98c-.24-.26-.52-.48-.84-.63-.32-.15-.67-.24-1.02-.26-.32,0-.63.07-.91.21-.28.14-.53.35-.71.61-.38.52-.63,1.11-.73,1.74h3.7l-.35.79h-3.44c-.01.14-.01.29-.01.41,0,.09,0,.18.01.27h3.26l-.34.79h-2.85c.29,1.85,1.11,2.79,2.49,2.79.39.01.77-.07,1.11-.25.33-.19.63-.42.9-.69v1.37c-.6.38-1.3.58-2.02.57-2.13,0-3.39-1.26-3.76-3.79h-1.01l.35-.79h.6c-.01-.09-.01-.17-.01-.26,0-.14,0-.27.01-.41h-.96l.34-.79h.71c.15-.93.56-1.81,1.19-2.52.32-.35.71-.62,1.15-.8.44-.18.91-.27,1.38-.25.86.02,1.69.31,2.37.82l-.61,1.07Z"/>
      <path class="st2" d="M18.08,36.13h-1.85v-.78h1.85v-.55l-.23-.43h-1.61v-.78h1.21l-2.4-4.48h1.43l2.28,4.59,2.21-4.59h1.36l-2.33,4.48h1.22v.78h-1.66l-.24.43v.55h1.89v.78h-1.89v2.26h-1.24v-2.27Z"/>
      <path class="st2" d="M65.44,32.07h-.77c-.2-.02-.39.05-.54.17-.15.13-.25.31-.27.5l-.41,1.79h1.34l-.18.88h-1.31l-.72,4.04c-.41,2.36-1.04,3.05-2.49,3.05h-.86l.18-.98c1.38,0,1.6-.13,1.82-1.33l.91-4.79h-1.21l.17-.88h1.19l.34-1.77c.07-.48.31-.91.68-1.22.37-.31.85-.47,1.33-.45h.97l-.17.98Z"/>
      <path class="st2" d="M41.56,24.3c-1.66,0-3.31.33-4.85.96-1.54.63-2.93,1.56-4.11,2.73s-2.1,2.56-2.74,4.09c-.63,1.53-.95,3.16-.95,4.82,0,4.42,5.53,10.23,5.53,13.1v2.57c0,.67.27,1.31.75,1.78.48.47,1.12.74,1.8.74h9.14c.33,0,.67-.06.97-.19.31-.13.59-.31.83-.55.24-.23.42-.51.55-.82.13-.31.19-.63.2-.97v-2.57c0-2.87,5.53-8.68,5.53-13.1,0-1.65-.32-3.29-.95-4.82-.63-1.53-1.56-2.92-2.74-4.09-1.18-1.17-2.57-2.1-4.11-2.73-1.54-.63-3.19-.96-4.85-.96ZM41.56,64.79c.5,0,1-.1,1.46-.29.46-.19.88-.47,1.24-.82h-5.39c.35.35.78.63,1.24.82.46.19.96.28,1.46.28h0ZM46.12,56.1h-9.13c-.39.01-.77.18-1.04.46-.27.28-.43.66-.43,1.05s.15.77.43,1.05c.27.28.65.45,1.04.46h9.14c.39-.01.77-.18,1.04-.46.27-.28.43-.66.43-1.05s-.15-.77-.43-1.05c-.27-.28-.65-.45-1.04-.46h0ZM46.12,59.88h-9.13c-.4,0-.79.16-1.08.44-.29.28-.45.67-.45,1.07s.16.79.45,1.07c.29.28.67.44,1.08.44h9.14c.4,0,.79-.16,1.08-.44.29-.28.45-.67.45-1.07s-.16-.79-.45-1.07c-.29-.28-.67-.44-1.08-.44h0Z"/>
      <path class="st4" d="M84.9,15.25h43.98v6.44h-18.33v47.32h-7.32V21.69h-18.33v-6.44Z"/>
      <path class="st4" d="M164.09,69.01h-6.64v-25.6c0-5.32-1.51-8.76-7.85-8.76-5.43,0-11.01,3.14-11.01,13.03v21.34h-6.64V15.25l6.64-.84v20.68h.15c1.24-1.92,2.95-3.51,4.96-4.62,2.01-1.11,4.27-1.71,6.58-1.74,6.11,0,13.81,2.47,13.81,13.63v26.65Z"/>
      <path class="st4" d="M168.26,22.74v-7.49h6.64v7.49h-6.64ZM174.89,69h-6.64V29.85h6.64v39.15Z"/>
      <path class="st4" d="M210.9,69h-6.64v-24.11c0-6.81-1.96-10.26-8.45-10.26-3.77,0-10.41,2.39-10.41,13.03v21.34h-6.64V29.84l6.26-.8v6.34h.15c1.27-2.01,3.02-3.67,5.11-4.84,2.08-1.16,4.43-1.79,6.81-1.83,6.11,0,13.81,2.47,13.81,13.63v26.66Z"/>
      <path class="st4" d="M247.5,69.01h-8.52l-12.3-19.76-5.51,4.94v14.82h-6.41V15.25l6.41-.82v31.96l16.97-16.55h8.46l-15.09,14.6,15.99,24.56Z"/>
      <path class="st1" d="M299.14,69.18h-9.28V28.63h-.15l-10.62,40.55h-8.91l-10.4-40.55h-.15v40.55h-9.28V15.02h15.02l9.44,39.11h.15l9.3-39.11h14.88v54.15Z"/>
      <path class="st1" d="M337.57,61.43c0,4.67,1.04,5.71,2.32,6.15v1.56h-11.28c-.54-1.5-.87-3.08-.97-4.67-1.57,1.85-3.54,3.33-5.77,4.32-2.23.99-4.65,1.46-7.09,1.39-5.98,0-12.1-3.33-12.1-11.49,0-7.71,4.93-11.64,11.58-12.6l9.41-1.41c1.64-.22,3.66-.89,3.66-3.11,0-4.38-4.19-4.6-6.87-4.6-5.23,0-6.13,3.19-6.43,5.49h-10.07c1.19-12.09,9.64-13.79,17.78-13.79,5.6,0,15.84,1.71,15.84,11.42v21.35ZM327.33,49.94c-1.04.82-2.76,1.48-7.1,2.15-3.88.67-7.1,1.63-7.1,5.93-.03.64.07,1.28.3,1.87.23.6.59,1.13,1.05,1.58.46.45,1.01.79,1.61,1.02.6.22,1.25.32,1.89.27,4.63,0,9.33-2.97,9.33-7.78v-5.04Z"/>
      <path class="st1" d="M342.7,29.67h8.26v6.83h.15c2.17-4.01,4.56-7.87,10.92-7.87.67.01,1.35.06,2.02.15v10.54c-.99-.12-1.99-.17-2.99-.15-8.16,0-9.65,5.05-9.65,9.43v20.56h-8.71V29.67Z"/>
      <path class="st1" d="M375.98,69.17h-8.4V15.02l8.4-1.35v31.72l13.67-15.68h11.62l-14.55,15.96,14,23.49h-11.32l-9.22-16.43-4.21,4.32v12.11Z"/>
      <path class="st1" d="M435.44,57.59c-1.02,3.76-3.32,7.06-6.49,9.35-3.18,2.29-7.05,3.43-10.97,3.24-11.2,0-19.78-5.33-19.78-21.55,0-4.73,1.64-19.93,19.03-19.93,7.84,0,18.67,3.7,18.67,21.7v1.85h-28.14c.3,2.96,1.78,9.63,10.22,9.63,2.9,0,6.78-1.48,7.6-4.3h9.86ZM426.03,45.52c-.16-2.25-1.18-4.36-2.85-5.9-1.67-1.54-3.86-2.4-6.14-2.4s-4.47.86-6.14,2.4c-1.67,1.54-2.68,3.65-2.85,5.9h17.97Z"/>
      <path class="st1" d="M456.36,36.94v-7.2h-7.2v-10.8l-8.4,1.3v9.5h-7.88c1.83,2.09,3.19,4.55,3.98,7.2h3.9v24.38c0,4.97.71,8.29,9.5,8.29h1.31c1.6,0,3.2-.07,4.79-.14v-7.64c-.73.07-1.45.14-2.11.14-4.15,0-5.1-.86-5.1-3.1v-21.92h7.21Z"/>
      <path class="st1" d="M482.96,42.33c-.45-2.52-1.5-5.83-7.18-5.83s-6.43,2.15-6.43,3.86c0,6.23,24.89,1.71,24.89,16.25,0,11.5-11.22,13.58-17.42,13.58-9.05,0-16.96-2.02-17.26-12.56h9c0,3.34,1.98,4.68,8.56,4.68,5.38,0,6.65-2.6,6.65-4.08,0-6.6-24.68-1.63-24.68-16.39,0-5.79,3.67-13.21,16.08-13.21,7.77,0,16.31,2.56,17.13,13.69h-9.34Z"/>
      <path class="st1" d="M505.45,19.49c0,1.45-.43,2.87-1.25,4.08-.81,1.21-1.97,2.15-3.32,2.71-1.35.56-2.84.7-4.28.42-1.44-.28-2.75-.98-3.79-2.01-1.04-1.03-1.74-2.34-2.03-3.76-.29-1.42-.14-2.9.42-4.24.56-1.34,1.51-2.49,2.73-3.3,1.22-.81,2.65-1.24,4.11-1.24.97-.01,1.94.17,2.85.53.9.36,1.73.9,2.41,1.59.69.68,1.24,1.5,1.6,2.4.37.9.55,1.86.54,2.83ZM491.8,19.49c0,1.64.66,3.22,1.83,4.38,1.17,1.16,2.76,1.82,4.42,1.82s3.25-.65,4.42-1.82c1.17-1.16,1.83-2.74,1.83-4.38s-.66-3.22-1.83-4.38c-1.17-1.16-2.76-1.82-4.42-1.82s-3.25.65-4.42,1.82c-1.17,1.16-1.83,2.74-1.83,4.38ZM496.42,23.74h-1.06v-8.49h3.29c1.93,0,2.79.82,2.79,2.35.02.59-.19,1.18-.59,1.62-.4.44-.96.71-1.56.75l2.55,3.77h-1.23l-2.41-3.77h-1.77v3.77ZM497.81,19.08c1.29,0,2.57-.04,2.57-1.48,0-1.19-.99-1.46-2.03-1.46h-1.93v2.95h1.39Z"/>
    </g>
  </g>
</svg>