<svg width="658" height="100" viewBox="0 0 658 100" fill="none" xmlns="http://www.w3.org/2000/svg">
<path d="M54 33.3L30.3 99.6C51 99.6 67.7 82.9 67.7 62.2C67.7 41.5 62.4 40.1 54 33.3Z" fill="#0089FF"/>
<path d="M64.9 2.70001L56.9 25.1H75.1C87.5 25.1 97.5 15.1 97.5 2.70001H64.9Z" fill="#0089FF"/>
<path d="M22.7 2.70001C10.3 2.70001 0.200012 12.8 0.200012 25.2H25.9C23.9 29.8 22.8 34.8 22.8 40.1C22.8 50.8 27.3 60.5 34.6 67.3L57.7 2.70001H22.8H22.7Z" fill="#0089FF"/>
<path d="M275.8 71.3C271.9 71.3 268.3 70.3 265.2 68.4C262.1 66.4 259.6 63.6 257.8 60C256 56.4 255.1 52.2 255.1 47.4C255.1 42.6 256 38.9 257.7 35.2C259.5 31.5 262 28.6 265.2 26.4C268.4 24.2 272.1 23.1 276.2 23.1C280.3 23.1 281 23.6 283.1 24.6C285.2 25.6 287 26.9 288.4 28.7V2.79999H304.2V70H289.3L289.1 64.8C287.7 66.9 285.9 68.5 283.6 69.7C281.3 70.8 278.7 71.4 275.7 71.4L275.8 71.3ZM280.1 57.2C282.8 57.2 285 56.3 286.7 54.4C288.4 52.5 289.3 50.1 289.3 47.2C289.3 44.3 288.4 41.9 286.7 40C285 38.1 282.8 37.2 280.1 37.2C277.4 37.2 275.2 38.1 273.5 40C271.8 41.9 270.9 44.3 270.9 47.2C270.9 50.1 271.8 52.5 273.5 54.4C275.2 56.3 277.4 57.2 280.1 57.2Z" fill="#0089FF"/>
<path d="M546.1 17.3C543.6 17.3 541.5 16.5 539.8 14.9C538.1 13.3 537.2 11.3 537.2 8.89999C537.2 6.49999 538.1 4.49999 539.8 2.79999C541.5 1.19999 543.6 0.299988 546.1 0.299988C548.6 0.299988 550.7 1.09999 552.4 2.79999C554.1 4.49999 555 6.49999 555 8.89999C555 11.3 554.1 13.3 552.4 14.9C550.7 16.5 548.6 17.3 546.1 17.3ZM538.2 24.4H554V69.8H538.2V24.4Z" fill="#0089FF"/>
<path d="M583.9 71.3C579.3 71.3 575.1 70.3 571.4 68.3C567.6 66.3 564.6 63.5 562.3 59.8C560 56.1 558.9 51.9 558.9 47.2C558.9 42.5 559.9 38.8 562 35.1C564.1 31.4 567 28.5 570.8 26.3C574.6 24.1 579 23 583.8 23C588.6 23 592.6 24 596.3 26C600.1 28 603.1 30.8 605.3 34.5C607.5 38.2 608.6 42.4 608.6 47.1C608.6 51.8 607.6 55.5 605.5 59.2C603.4 62.8 600.5 65.8 596.7 68C592.9 70.2 588.5 71.3 583.7 71.3H583.9ZM583.9 57.2C586.6 57.2 588.8 56.3 590.5 54.4C592.2 52.5 593.1 50.1 593.1 47.2C593.1 44.3 592.3 41.9 590.5 40C588.8 38.1 586.6 37.2 583.9 37.2C581.2 37.2 579 38.1 577.3 40C575.6 41.9 574.7 44.3 574.7 47.2C574.7 50.1 575.6 52.5 577.3 54.4C579 56.3 581.2 57.2 583.9 57.2Z" fill="#0089FF"/>
<path d="M613.4 24.4H628.9L629.1 30C630.2 27.8 631.9 26 634.2 24.8C636.5 23.6 639.1 23 642.1 23C647.3 23 651.3 24.6 653.9 27.9C656.6 31.2 657.9 35.9 657.9 42.2V69.8H642.1V45.2C642.1 39.8 640.1 37.1 636 37.1C631.9 37.1 632.2 37.8 631 39.3C629.8 40.8 629.2 43 629.2 45.8V69.8H613.4V24.4Z" fill="#0089FF"/>
<path d="M405.5 36.9C402.1 33.5 396.4 30.7 388.5 28.4C384.5 27.2 381.8 26.2 380.4 25.2C379 24.3 378.3 23 378.3 21.4C378.3 17.5 381.3 15.6 387.5 15.6C393.7 15.6 393.5 16.1 396.8 17C399.1 17.6 401.2 18.4 403.1 19.3L407.6 6.70001C405 5.10001 401.9 3.89999 398.1 2.89999C394.3 1.99999 390.5 1.5 386.8 1.5C378.9 1.5 372.7 3.3 368.2 7C363.7 10.6 361.4 15.6 361.4 21.9C361.4 28.2 363 31.9 366.2 35.2C369.4 38.6 374.6 41.3 381.8 43.3C384.7 44.1 387 44.9 388.6 45.6C390.2 46.3 391.4 47.1 392.1 47.9C392.8 48.7 393.2 49.7 393.2 50.9C393.2 52.9 392.3 54.4 390.6 55.5C388.8 56.6 386.3 57.1 383 57.1C379.7 57.1 375.6 56.6 371.7 55.5C369.2 54.8 366.9 53.9 364.8 52.9L360.3 65.6C361.9 66.7 364 67.7 366.6 68.5C369.2 69.4 372 70.1 375 70.5C378 71 380.9 71.2 383.8 71.2C392.2 71.2 398.8 69.4 403.6 65.7C408.3 62 410.7 56.8 410.7 50.2C410.7 43.6 409 40.2 405.6 36.9H405.5Z" fill="#0089FF"/>
<path d="M353.7 57.3L353.5 56C351.5 56.9 349.2 57.7 346.6 58.2C344 58.7 341.5 59 338.9 59C335 59 331.9 58.4 329.6 57.1C327.3 55.8 325.8 53.9 325 51.2H354.9C355.3 49.6 355.4 47.8 355.4 45.7C355.4 38.7 353.4 33.2 349.4 29.1C345.4 25 340 23 333.2 23C326.4 23 324.3 24.1 320.7 26.2C317.1 28.3 314.3 31.2 312.4 34.8C310.5 38.4 309.5 42.5 309.5 47.1C309.5 51.7 310.6 56.5 312.9 60.1C315.2 63.7 318.3 66.5 322.4 68.4C326.5 70.3 331.3 71.3 336.8 71.3C342.3 71.3 343.4 71 346.5 70.4C349.1 69.9 351.5 69.2 353.6 68.4V57.3H353.7ZM333 34.1C335.2 34.1 336.9 34.8 338.3 36.1C339.7 37.4 340.5 39.3 340.7 41.6H324.8C325.8 36.6 328.5 34 333 34V34.1Z" fill="#0089FF"/>
<path d="M244 28.5C240.1 24.8 234.5 23 227 23C219.5 23 220.7 23.4 217.5 24.2C215 24.9 212.8 25.7 211 26.6V39.4C215.2 36.7 219.7 35.3 224.6 35.3C229.5 35.3 230.5 36 232.2 37.4C233.9 38.8 234.8 41 235 43.9C233.5 43.3 231.8 42.7 229.9 42.4C228 42 226.2 41.8 224.5 41.8C219.2 41.8 215 43.2 211.7 46C208.4 48.8 206.8 52.4 206.8 57C206.8 61.6 208.2 64.9 210.9 67.4C213.6 70 217.3 71.2 222 71.2C226.7 71.2 232.3 69.3 235.3 65.4L235.5 69.8H249.8V44.5C249.8 37.5 247.9 32.2 244 28.5ZM232.4 58.5C231 60 229.1 60.7 226.9 60.7C224.7 60.7 223.8 60.3 222.8 59.4C221.8 58.5 221.3 57.3 221.3 55.9C221.3 54.5 221.9 53.3 223.1 52.4C224.3 51.5 225.9 51.1 228 51.1C230.1 51.1 232.8 51.5 235 52.4C234.8 55 233.9 57 232.5 58.5H232.4Z" fill="#0089FF"/>
<path d="M489 28.5C485.1 24.8 479.5 23 472 23C464.5 23 465.7 23.4 462.5 24.2C460 24.9 457.8 25.7 456 26.6V39.4C460.2 36.7 464.7 35.3 469.6 35.3C474.5 35.3 475.5 36 477.2 37.4C478.9 38.8 479.8 41 480 43.9C478.5 43.3 476.8 42.7 474.9 42.4C473 42 471.2 41.8 469.5 41.8C464.2 41.8 459.9 43.2 456.7 46C453.4 48.8 451.8 52.4 451.8 57C451.8 61.6 453.2 64.9 455.9 67.4C458.6 70 462.3 71.2 467 71.2C471.7 71.2 477.3 69.3 480.3 65.4L480.5 69.8H494.8V44.5C494.8 37.5 492.9 32.2 489 28.5ZM477.4 58.5C476 60 474.1 60.7 471.9 60.7C469.7 60.7 468.8 60.3 467.8 59.4C466.8 58.5 466.3 57.3 466.3 55.9C466.3 54.5 466.9 53.3 468.1 52.4C469.3 51.5 470.9 51.1 473 51.1C475.1 51.1 477.8 51.5 480 52.4C479.8 55 478.9 57 477.5 58.5H477.4Z" fill="#0089FF"/>
<path d="M446.4 55.5C444.3 56.6 441.9 57.2 439 57.2C436.1 57.2 435.3 56.6 434.4 55.5C433.5 54.4 433.1 52.5 433.1 49.8V37.2H432.9V37H435.2C442.1 37 447.7 31.4 447.7 24.5H433.1V12.8H417.3V24.5H412.7V37H417.7V37.2H417.3V53.4C417.3 59.4 418.7 63.9 421.6 66.9C424.4 69.8 428.7 71.3 434.5 71.3C440.3 71.3 439.7 71.1 442.1 70.6C444.5 70.1 446.4 69.5 448 68.7L446.4 55.6V55.5Z" fill="#0089FF"/>
<path d="M531.3 55.5C529.2 56.6 526.8 57.2 523.9 57.2C521 57.2 520.2 56.6 519.3 55.5C518.4 54.4 518 52.5 518 49.8V37.2H517.8V37H520.1C527 37 532.6 31.4 532.6 24.5H518V12.8H502.2V24.5H497.6V37H502.6V37.2H502.2V53.4C502.2 59.4 503.6 63.9 506.5 66.9C509.3 69.8 513.6 71.3 519.4 71.3C525.2 71.3 524.6 71.1 527 70.6C529.4 70.1 531.3 69.5 532.9 68.7L531.3 55.6V55.5Z" fill="#0089FF"/>
<path d="M163.6 3H136.2C128.2 3 121.8 9.49999 121.8 17.4H142.4V69.8H160.2V17.4H167.8C175.8 17.4 182.2 10.9 182.2 3H163.7H163.6Z" fill="#0089FF"/>
<path d="M205 24.1C203.9 23.8 202.6 23.6 201.2 23.6C198.6 23.6 196.4 24.3 194.4 25.6C192.5 26.9 190.9 28.8 189.8 31.3L189.6 24.5H174.2V69.9H190V50.5C190 46.5 190.8 43.5 192.3 41.5C193.9 39.5 196.2 38.5 199.2 38.5C202.2 38.5 203.1 38.9 204.9 39.6V24.2L205 24.1Z" fill="#0089FF"/>
</svg>
