<?xml version="1.0" encoding="UTF-8"?>
<svg id="Layer_1" xmlns="http://www.w3.org/2000/svg" version="1.1" viewBox="0 0 204 70">
  <!-- Generator: Adobe Illustrator 29.2.1, SVG Export Plug-In . SVG Version: 2.1.0 Build 116)  -->
  <defs>
    <style>
      .st0 {
        fill: red;
      }
    </style>
  </defs>
  <path d="M154.1,64.1h17.9V12.6l-17.9,22.9v28.7h0v-.1Z"/>
  <path d="M172,5.9v1.6l-31.5,40.3-13.7-17.5v33.7h-17.9V5.9h18.8l12.7,16.2,12.7-16.2h18.9Z"/>
  <path d="M109,5.9h-20.2l-12.6,16.1h0l-10.1,12.9h0l-22.7,29.1h20.2l12.6-16.1,12.2,15.7.4.5h20.2l-22.7-29.1,22.6-29.1h.1Z"/>
  <path class="st0" d="M32,5.9v58.2l22.7-29.1L32,5.9Z"/>
  <polygon points="63.6 5.9 43.4 5.9 64.2 32.4 74.3 19.5 63.6 5.9"/>
</svg>