<?xml version="1.0" encoding="UTF-8"?>
<svg id="Layer_1" data-name="Layer 1" xmlns="http://www.w3.org/2000/svg" version="1.1" viewBox="0 0 204 70">
  <defs>
    <style>
      .cls-1 {
        fill: #0576f6;
      }

      .cls-1, .cls-2 {
        stroke-width: 0px;
      }

      .cls-2 {
        fill: #ffffff;
      }
    </style>
  </defs>
  <path class="cls-2" d="M16.157,43.634h-1.044c-.895,0-1.806.05-2.735.149-.895.066-1.707.215-2.436.447-.696.232-1.276.58-1.74,1.044-.464.431-.696,1.011-.696,1.74,0,.464.1.862.298,1.193.232.331.514.596.845.795s.713.348,1.144.447c.431.067.845.1,1.243.1,1.657,0,2.917-.447,3.778-1.342.895-.928,1.342-2.171,1.342-3.729v-.845ZM1.193,33.044c1.458-1.392,3.149-2.436,5.071-3.132,1.956-.696,3.944-1.044,5.966-1.044,2.089,0,3.845.265,5.27.795,1.459.497,2.635,1.292,3.53,2.386.894,1.061,1.541,2.419,1.939,4.076.431,1.624.646,3.563.646,5.816v12.479h-7.457v-2.635h-.149c-.63,1.027-1.591,1.823-2.883,2.386-1.259.564-2.635.845-4.126.845-.994,0-2.022-.133-3.082-.398-1.061-.265-2.038-.696-2.933-1.292-.862-.596-1.574-1.392-2.138-2.386-.563-.994-.845-2.22-.845-3.679,0-1.789.481-3.231,1.442-4.325.994-1.093,2.254-1.939,3.778-2.536,1.558-.596,3.281-.994,5.17-1.193,1.889-.199,3.729-.299,5.518-.299v-.397c0-1.226-.431-2.121-1.292-2.684-.862-.597-1.922-.895-3.182-.895-1.159,0-2.287.248-3.38.746-1.061.497-1.972,1.093-2.734,1.789l-4.127-4.425Z"/>
  <path class="cls-2" d="M48.442,54.422v-3.232h-.1c-.795,1.26-1.939,2.237-3.43,2.933-1.459.663-3.016.994-4.673.994-1.856,0-3.513-.365-4.972-1.094-1.458-.729-2.701-1.69-3.729-2.883-.994-1.226-1.757-2.635-2.287-4.225-.53-1.591-.795-3.248-.795-4.972s.265-3.364.795-4.921c.564-1.591,1.343-2.983,2.337-4.176,1.028-1.194,2.254-2.138,3.679-2.834,1.459-.696,3.082-1.044,4.872-1.044,1.823,0,3.364.348,4.624,1.044,1.259.696,2.237,1.459,2.933,2.287h.1v-15.461h8.153v37.584h-7.507ZM48.143,41.993c0-.795-.149-1.574-.447-2.337-.265-.762-.663-1.442-1.194-2.038-.497-.596-1.11-1.077-1.839-1.442-.729-.365-1.558-.547-2.486-.547-.961,0-1.806.182-2.535.547-.729.365-1.343.845-1.84,1.442-.497.564-.878,1.226-1.143,1.989-.232.762-.348,1.541-.348,2.336s.116,1.591.348,2.386c.265.762.646,1.442,1.143,2.038.497.597,1.11,1.078,1.84,1.442.729.364,1.574.547,2.535.547.928,0,1.757-.183,2.486-.547.729-.365,1.342-.845,1.839-1.442.53-.596.928-1.276,1.194-2.038.298-.762.447-1.541.447-2.337Z"/>
  <path class="cls-2" d="M94.04,54.422v-13.522c0-.696-.05-1.359-.149-1.989-.099-.663-.282-1.226-.547-1.69-.265-.464-.63-.829-1.093-1.094-.431-.298-1.011-.447-1.74-.447-.696,0-1.309.149-1.84.447-.497.299-.928.696-1.292,1.194-.331.497-.58,1.077-.746,1.74-.166.63-.249,1.293-.249,1.989v13.373h-8.153v-14.119c0-1.425-.282-2.552-.845-3.381-.563-.828-1.458-1.243-2.684-1.243-1.292,0-2.303.513-3.033,1.541-.696,1.027-1.044,2.287-1.044,3.778v13.423h-8.203v-24.758h7.904v3.43h.1c.298-.53.663-1.044,1.093-1.541.464-.497,1.011-.928,1.641-1.292.63-.397,1.326-.712,2.088-.945.795-.232,1.657-.348,2.585-.348,1.79,0,3.298.365,4.524,1.093,1.26.729,2.237,1.774,2.933,3.132.828-1.292,1.889-2.32,3.182-3.082,1.292-.762,2.866-1.143,4.722-1.143,1.69,0,3.099.315,4.226.944,1.159.597,2.088,1.393,2.784,2.386.696.961,1.193,2.055,1.491,3.281.331,1.193.497,2.369.497,3.53v15.312h-8.153Z"/>
  <path class="cls-2" d="M108.449,54.422v-24.758h8.153v24.758h-8.153Z"/>
  <path class="cls-2" d="M139.117,36.326c-.365-.1-.729-.166-1.093-.199-.332-.033-.663-.05-.994-.05-1.094,0-2.022.199-2.784.596-.729.398-1.326.879-1.79,1.442-.431.564-.746,1.177-.945,1.84-.198.663-.298,1.243-.298,1.74v12.727h-8.153v-24.758h7.855v3.579h.1c.63-1.26,1.525-2.287,2.684-3.082,1.16-.795,2.502-1.193,4.027-1.193.331,0,.646.016.945.05.331.033.596.082.795.149l-.348,7.159Z"/>
  <path class="cls-2" d="M156.61,43.634h-1.044c-.894,0-1.806.05-2.734.149-.895.066-1.707.215-2.436.447-.696.232-1.276.58-1.74,1.044-.464.431-.696,1.011-.696,1.74,0,.464.099.862.298,1.193.232.331.514.596.845.795.331.199.712.348,1.144.447.431.067.845.1,1.243.1,1.657,0,2.917-.447,3.778-1.342.895-.928,1.342-2.171,1.342-3.729v-.845ZM141.646,33.044c1.458-1.392,3.148-2.436,5.071-3.132,1.956-.696,3.944-1.044,5.966-1.044,2.088,0,3.844.265,5.27.795,1.459.497,2.635,1.292,3.53,2.386.894,1.061,1.541,2.419,1.939,4.076.431,1.624.646,3.563.646,5.816v12.479h-7.457v-2.635h-.149c-.63,1.027-1.591,1.823-2.883,2.386-1.26.564-2.635.845-4.126.845-.995,0-2.022-.133-3.082-.398s-2.039-.696-2.933-1.292c-.862-.596-1.575-1.392-2.138-2.386-.564-.994-.845-2.22-.845-3.679,0-1.789.481-3.231,1.442-4.325.994-1.093,2.253-1.939,3.778-2.536,1.558-.596,3.281-.994,5.17-1.193,1.889-.199,3.729-.299,5.518-.299v-.397c0-1.226-.431-2.121-1.292-2.684-.862-.597-1.922-.895-3.182-.895-1.159,0-2.287.248-3.38.746-1.061.497-1.972,1.093-2.734,1.789l-4.127-4.425Z"/>
  <path class="cls-2" d="M170.252,54.422V16.838h8.253v37.584h-8.253Z"/>
  <path class="cls-2" d="M199.526,36.972c-.663-.63-1.442-1.16-2.337-1.591-.894-.431-1.839-.646-2.834-.646-.762,0-1.475.149-2.138.447-.63.299-.945.812-.945,1.541,0,.696.348,1.194,1.044,1.491.729.299,1.889.63,3.48.994.928.199,1.856.481,2.784.845.962.365,1.823.845,2.585,1.442.762.596,1.376,1.326,1.84,2.187.464.862.696,1.889.696,3.082,0,1.558-.315,2.883-.945,3.977-.63,1.061-1.459,1.922-2.486,2.585-.994.663-2.121,1.144-3.38,1.442-1.26.299-2.519.448-3.778.448-2.022,0-4.011-.315-5.966-.945-1.922-.663-3.53-1.624-4.823-2.883l4.574-4.823c.729.795,1.624,1.459,2.685,1.989,1.06.53,2.187.795,3.38.795.663,0,1.309-.149,1.939-.447.663-.331.994-.895.994-1.69,0-.762-.397-1.326-1.193-1.69-.795-.365-2.039-.746-3.729-1.144-.862-.199-1.724-.464-2.585-.795-.862-.331-1.641-.778-2.337-1.342-.663-.564-1.209-1.26-1.641-2.088-.431-.829-.646-1.823-.646-2.983,0-1.491.315-2.751.945-3.778.63-1.061,1.442-1.922,2.436-2.585.994-.663,2.088-1.143,3.281-1.442,1.226-.331,2.436-.497,3.63-.497,1.855,0,3.662.298,5.418.895,1.79.563,3.298,1.425,4.524,2.585l-4.474,4.624Z"/>
  <path class="cls-1" d="M117.768,19.697c0,1.404-.502,2.575-1.505,3.51-.97.936-2.14,1.404-3.511,1.404-.702,0-1.371-.134-2.006-.401-.602-.234-1.137-.568-1.605-1.003-.468-.434-.836-.936-1.103-1.504-.268-.602-.401-1.254-.401-1.956,0-.669.134-1.304.401-1.906.267-.602.635-1.12,1.103-1.555.468-.468,1.003-.836,1.605-1.103.635-.268,1.304-.401,2.006-.401,1.371,0,2.541.468,3.511,1.404,1.003.936,1.505,2.106,1.505,3.51Z"/>
</svg>