<?xml version="1.0" encoding="UTF-8"?>
<svg width="236px" height="56px" viewBox="0 0 236 56" version="1.1" xmlns="http://www.w3.org/2000/svg" xmlns:xlink="http://www.w3.org/1999/xlink">
    <title>AMP-Logo-Horizontal-Color</title>
    <defs>
        <radialGradient cx="50.416547%" cy="35.4256064%" fx="50.416547%" fy="35.4256064%" r="72.7700956%" gradientTransform="translate(0.504165,0.354256),scale(0.555993,1.000000),translate(-0.504165,-0.354256)" id="radialGradient-1">
            <stop stop-color="#FFFFFF" offset="0%"></stop>
            <stop stop-color="#00A4E4" offset="46%"></stop>
            <stop stop-color="#006499" offset="77%"></stop>
            <stop stop-color="#003E64" offset="100%"></stop>
        </radialGradient>
        <radialGradient cx="41.3120619%" cy="113.779264%" fx="41.3120619%" fy="113.779264%" r="92.2261976%" gradientTransform="translate(0.413121,1.137793),scale(1.000000,0.914817),rotate(-90.000000),translate(-0.413121,-1.137793)" id="radialGradient-2">
            <stop stop-color="#FFFFFF" offset="11%"></stop>
            <stop stop-color="#00A4E4" offset="46%"></stop>
            <stop stop-color="#006499" offset="77%"></stop>
            <stop stop-color="#003E64" offset="100%"></stop>
        </radialGradient>
        <radialGradient cx="49.1127425%" cy="-7.97203137%" fx="49.1127425%" fy="-7.97203137%" r="150.933704%" gradientTransform="translate(0.491127,-0.079720),scale(0.676502,1.000000),translate(-0.491127,0.079720)" id="radialGradient-3">
            <stop stop-color="#FFFFFF" offset="11%"></stop>
            <stop stop-color="#00A4E4" offset="46%"></stop>
            <stop stop-color="#006499" offset="77%"></stop>
            <stop stop-color="#003E64" offset="100%"></stop>
        </radialGradient>
        <linearGradient x1="89.1718868%" y1="84.3478045%" x2="50.4955728%" y2="31.443352%" id="linearGradient-4">
            <stop stop-color="#FFFFFF" offset="0%"></stop>
            <stop stop-color="#00A4E4" offset="46%"></stop>
            <stop stop-color="#006499" offset="77%"></stop>
            <stop stop-color="#003E64" offset="100%"></stop>
        </linearGradient>
        <linearGradient x1="47.6472493%" y1="39.8859315%" x2="78.78249%" y2="81.7510208%" id="linearGradient-5">
            <stop stop-color="#FFFFFF" offset="0%"></stop>
            <stop stop-color="#00A4E4" offset="46%"></stop>
            <stop stop-color="#006499" offset="77%"></stop>
            <stop stop-color="#003E64" offset="100%"></stop>
        </linearGradient>
        <linearGradient x1="10.8403644%" y1="84.4132559%" x2="49.4937899%" y2="31.4303084%" id="linearGradient-6">
            <stop stop-color="#FFFFFF" offset="0%"></stop>
            <stop stop-color="#00A4E4" offset="46%"></stop>
            <stop stop-color="#006499" offset="77%"></stop>
            <stop stop-color="#003E64" offset="100%"></stop>
        </linearGradient>
        <linearGradient x1="52.2510626%" y1="39.8905547%" x2="21.1229387%" y2="81.7365074%" id="linearGradient-7">
            <stop stop-color="#FFFFFF" offset="0%"></stop>
            <stop stop-color="#00A4E4" offset="46%"></stop>
            <stop stop-color="#006499" offset="77%"></stop>
            <stop stop-color="#003E64" offset="100%"></stop>
        </linearGradient>
        <radialGradient cx="31.5555556%" cy="94.7441941%" fx="31.5555556%" fy="94.7441941%" r="73.1492905%" gradientTransform="translate(0.315556,0.947442),scale(0.668896,1.000000),translate(-0.315556,-0.947442)" id="radialGradient-8">
            <stop stop-color="#FFFFFF" offset="0%"></stop>
            <stop stop-color="#00A4E4" offset="46%"></stop>
            <stop stop-color="#006499" offset="77%"></stop>
            <stop stop-color="#003E64" offset="100%"></stop>
        </radialGradient>
    </defs>
    <g id="Page-1" stroke="none" stroke-width="1" fill="none" fill-rule="evenodd">
        <g id="AMP-Digital-Styleguide-V04" transform="translate(-769.000000, -271.000000)" fill-rule="nonzero">
            <g id="Logo" transform="translate(62.000000, 146.000000)">
                <g id="logo/horizontal/full-color" transform="translate(670.000000, 67.000000)">
                    <g id="AMP-Logo-Horizontal-Color" transform="translate(37.000000, 58.000000)">
                        <path d="M96.5442337,41.8381644 L96.5442337,40.7644862 C97.8288281,40.6897188 99.0260436,40.0843206 99.8537447,39.0909596 C100.58697,38.1399395 101.846783,35.543957 103.633186,31.3030121 L115.546426,3.02444562 L116.686257,3.02444562 L130.939151,35.7187027 C131.889011,37.8862221 132.647232,39.2304201 133.213815,39.7512969 C133.780398,40.2721736 134.735257,40.6233454 136.078392,40.8048121 L136.078392,41.8381644 L121.530541,41.8381644 L121.530541,40.7644862 C122.627637,40.7220977 123.714751,40.537432 124.765063,40.2150452 C125.26499,40.003334 125.489956,39.474056 125.489956,38.632252 C125.451291,38.1194339 125.357419,37.6123777 125.209998,37.1200292 C125.005498,36.3555131 124.744815,35.6074144 124.430113,34.8819394 L122.140451,29.3371225 L107.067679,29.3371225 C105.581232,33.114319 104.69303,35.4162582 104.403072,36.24294 C104.158561,36.8749968 104.013499,37.541695 103.973136,38.2189111 C103.907006,39.0714333 104.373538,39.8755417 105.142963,40.2352082 C106.025353,40.5363497 106.946574,40.7061606 107.877559,40.7392824 L107.877559,41.8381644 L96.5442337,41.8381644 Z M121.175594,27.0183808 L114.621562,11.1400414 L108.037535,27.0183808 L121.175594,27.0183808 Z" id="Shape" fill="#ffffff"></path>
                        <path d="M146.226892,40.7644862 C148.593209,40.5158095 150.111318,39.9764501 150.781219,39.1464078 C151.45112,38.3163655 151.784404,36.37904 151.781071,33.3344314 L151.781071,9.92522236 C151.781071,7.84339563 151.45112,6.48743585 150.781219,5.85734301 C150.111318,5.22725017 148.651534,4.84919447 146.341875,4.74333887 L146.341875,3.67470142 L157.620208,3.67470142 L170.753268,32.4069348 L183.566374,3.67470142 L194.969689,3.67470142 L194.969689,4.74333887 C192.850002,4.89456116 191.481871,5.28437859 190.865296,5.91279118 C190.24872,6.54120377 189.942099,7.88540182 189.945432,9.94538533 L189.945432,35.557399 C189.945432,37.6577084 190.252053,39.0019065 190.865296,39.5899931 C191.478538,40.1780798 192.84667,40.5695774 194.969689,40.7644862 L194.969689,41.8381644 L178.972053,41.8381644 L178.972053,40.7644862 C181.281712,40.5729379 182.721499,40.159597 183.291415,39.5093412 C183.861331,38.8590854 184.141289,37.3216589 184.141289,34.8819394 L184.141289,8.99268497 L169.473457,41.8381644 L168.688573,41.8381644 L154.2907,10.3486447 L154.2907,33.3344314 C154.2907,36.4865759 154.7473,38.5398384 155.660498,39.494219 C156.25541,40.1142304 157.590213,40.5376527 159.659907,40.7644862 L159.659907,41.8381644 L146.226892,41.8381644 L146.226892,40.7644862 Z" id="Path" fill="#ffffff"></path>
                        <path d="M205.968064,40.7644862 C208.147742,40.5561355 209.507541,40.1209513 210.047461,39.4589338 C210.587381,38.7985965 210.857341,37.2762922 210.857341,34.9222654 L210.857341,9.92522236 C210.857341,7.90892529 210.552387,6.59329144 209.947476,5.95815786 C209.342565,5.32302428 208.017761,4.91472413 205.948067,4.74333887 L205.948067,3.67470142 L221.030838,3.67470142 C225.870123,3.67470142 229.574576,4.62236105 232.144196,6.5176803 C234.601284,8.19784657 236.05103,11.0152231 235.998626,14.0082239 C235.998626,17.9332823 234.573837,20.7779414 231.724258,22.5422013 C228.874679,24.3064613 225.308539,25.193632 221.025839,25.2037135 C220.41093,25.2037135 219.626046,25.2037135 218.666188,25.1633875 C217.706329,25.1230616 216.991435,25.1230616 216.526504,25.1230616 L216.526504,35.5826027 C216.526504,37.7450813 216.861454,39.1111226 217.526356,39.670645 C218.191258,40.2301674 219.661041,40.5931009 221.950702,40.7644862 L221.950702,41.8381644 L205.968064,41.8381644 L205.968064,40.7644862 Z M225.265212,6.88565452 C223.310466,6.11221881 221.219889,5.74860628 219.12112,5.81701707 C217.951293,5.81701707 217.2264,5.93295415 216.95644,6.16986906 C216.68648,6.40678396 216.5515,6.92598046 216.5515,7.73249929 L216.5515,22.7690347 C217.576349,22.8648089 218.24625,22.920257 218.551205,22.9353793 C218.856159,22.9505015 219.171113,22.9656237 219.471069,22.9656237 C222.097347,22.9656237 224.163708,22.5892483 225.670153,21.8364973 C228.409748,20.4687758 229.777879,17.9063983 229.774552,14.1493647 C229.76788,10.6208449 228.256437,8.19960811 225.240216,6.88565452 L225.265212,6.88565452 Z" id="Shape" fill="#ffffff"></path>
                        <path d="M95.0544539,12.4153493 C94.7844937,10.2427892 93.3247095,8.97756274 92.1498831,7.98453643 C91.390653,7.50543436 90.4331484,7.48033267 89.6502524,7.91900677 C85.1509173,10.7771079 71.8178876,19.8756484 65.0388893,24.331665 C62.7542269,25.8438878 59.2297477,25.8842137 58.0399236,25.6472988 C56.0223661,25.1387234 53.9549507,24.8580757 51.8758344,24.8105355 C49.5628866,24.8622051 47.2605393,25.1424675 45.0018502,25.6472988 C43.8320231,25.8842137 40.3075439,25.838847 38.0028845,24.331665 C31.2788781,19.8756484 17.9408491,10.7771079 13.4465132,7.91900677 C12.6633529,7.48142063 11.7064328,7.50650699 10.9468826,7.98453643 C9.77205619,8.99268497 8.31227191,10.2427892 8.0423118,12.4153493 C8.07812018,13.2437322 8.41851461,14.0290025 8.9971707,14.6181538 C12.5416469,18.297896 27.8943782,30.894712 33.1386033,37.8660591 C35.9481881,41.6012494 35.3382782,45.2406657 36.0681704,48.0382779 C40.8674612,66.3664183 58.2948859,48.6330855 68.6983485,38.3802149 C74.10255,33.0219054 90.0901874,18.474322 94.1295905,14.6181538 C94.7126475,14.0347272 95.0448299,13.2435478 95.0544539,12.4153493 Z" id="Path" fill="url(#radialGradient-1)"></path>
                        <path d="M51.7458536,0 C57.45501,0 62.0843259,5.04074269 62.0843259,11.3063859 C62.0843259,17.572029 57.45501,22.607731 51.7458536,22.607731 C46.0366973,22.607731 41.4023821,17.5669883 41.4023821,11.3063859 C41.4023821,5.04578344 46.0366973,0 51.7458536,0 Z" id="Path" fill="url(#radialGradient-2)"></path>
                        <path d="M51.1759379,12.6421827 C55.4203107,9.94538533 59.884651,12.1381084 61.1744604,12.8538939 C61.2424425,12.3408729 61.2775103,11.8239622 61.2794448,11.3063859 C61.2794448,5.54481696 56.9900787,0.882129971 51.7458536,0.882129971 C46.5016286,0.882129971 42.2122624,5.54481696 42.2122624,11.3063859 C42.2122624,11.3063859 46.1416818,15.8329728 51.1759379,12.6421827 Z" id="Path" fill="url(#radialGradient-3)"></path>
                        <path d="M93.3896999,4.7231759 C93.3896999,4.7231759 101.888444,-0.998067053 103.118262,0.942618884 C104.348081,2.88330482 100.283681,9.00780719 98.4589508,10.7519042 C96.6342204,12.4960011 96.4142529,9.61773706 95.5043874,8.29202173 C94.6995063,7.11752868 90.5851143,7.05703977 93.3896999,4.7231759 Z" id="Path" fill="url(#linearGradient-4)"></path>
                        <path d="M96.224281,7.78794746 C95.725506,7.21313679 95.0808511,6.78619047 94.3595565,6.5529655 L93.8596304,6.33117282 C93.6396629,6.23035797 93.4546903,5.82709855 93.6246651,5.66579479 C93.7046533,5.59018365 93.79464,5.50953176 93.909623,5.41375765 C96.2342795,3.85112742 100.508648,1.3811635 102.173402,1.3811635 C102.24756,1.37847028 102.321701,1.38696532 102.393369,1.40636721 C103.033275,2.65143066 96.5242367,8.23153282 96.224281,7.78794746 Z" id="Path" fill="url(#linearGradient-5)"></path>
                        <path d="M9.9520296,4.7231759 C9.9520296,4.7231759 1.43828769,-1.00814854 0.223467205,0.942618884 C-0.991353279,2.89338631 3.05804833,9.00780719 4.88277869,10.7519042 C6.70750905,12.4960011 6.92247728,9.61773706 7.83734209,8.29202173 C8.64222315,7.11752868 12.7516159,7.05703977 9.9520296,4.7231759 Z" id="Path" fill="url(#linearGradient-6)"></path>
                        <path d="M7.11744847,7.78794746 C7.6203438,7.21084716 8.27045621,6.78372176 8.9971707,6.5529655 L9.49709682,6.33117282 C9.71706432,6.23035797 9.90203698,5.82709855 9.7320621,5.66579479 C9.65207392,5.59018365 9.56208722,5.50953176 9.44710421,5.41375765 C7.11744847,3.85112742 2.84807936,1.3811635 1.18332536,1.3811635 C1.10916711,1.37847028 1.03502598,1.38696532 0.96335787,1.40636721 C0.308454646,2.65143066 6.81749279,8.23153282 7.11744847,7.78794746 Z" id="Path" fill="url(#linearGradient-7)"></path>
                        <path d="M94.1295905,14.6181538 C94.1295905,14.6181538 61.1794596,39.9277229 53.7255611,43.7637281 C51.6608662,44.8273248 47.7264476,45.0844027 44.8618709,44.353495 C38.8627574,42.8110277 33.6785235,38.2189111 32.2637326,36.7923809 C32.5736868,37.1653959 32.8686432,37.5333701 33.1286048,37.8811813 C35.9381896,41.6163717 35.3282797,45.2557879 36.0581718,48.0534001 C40.8574626,66.3815405 58.2848874,48.6482077 68.68835,38.3953371 C74.10255,33.0219054 90.0901874,18.474322 94.1295905,14.6181538 Z" id="Path" fill="url(#radialGradient-8)"></path>
                    </g>
                </g>
            </g>
        </g>
    </g>
</svg>