<svg width="154" height="30" viewBox="0 0 154 30" fill="none" xmlns="http://www.w3.org/2000/svg">
<path fill-rule="evenodd" clip-rule="evenodd" d="M147.448 7.2876C145.293 7.2876 143.896 8.08885 143.047 9.3201C142.197 8.02635 140.862 7.2876 139.07 7.2876C137.037 7.2876 135.702 8.08885 135.003 9.1351V7.71885H130.451V23.1163H135.003V14.4326C135.003 12.6151 135.853 11.5376 137.371 11.5376C138.828 11.5376 139.557 12.5226 139.557 14.0626V23.1163H144.109V14.4326C144.109 12.6151 144.959 11.5376 146.477 11.5376C147.933 11.5376 148.661 12.5226 148.661 14.0626V23.1163H153.215V13.6626C153.215 9.8126 150.938 7.2876 147.448 7.2876Z" fill="white"/>
<path fill-rule="evenodd" clip-rule="evenodd" d="M121.042 19.0513C119.068 19.0513 117.55 17.6038 117.55 15.4176C117.55 13.2313 119.068 11.7838 121.042 11.7838C123.014 11.7838 124.532 13.2313 124.532 15.4176C124.532 17.6038 123.014 19.0513 121.042 19.0513ZM121.042 7.2876C116.579 7.2876 112.998 10.8288 112.998 15.4176C112.998 20.0063 116.579 23.5476 121.042 23.5476C125.503 23.5476 129.084 20.0063 129.084 15.4176C129.084 10.8288 125.503 7.2876 121.042 7.2876Z" fill="white"/>
<path fill-rule="evenodd" clip-rule="evenodd" d="M106.533 18.9901C104.56 18.9901 103.104 17.5426 103.104 15.4176C103.104 13.2926 104.56 11.8451 106.533 11.8451C107.868 11.8451 108.961 12.4926 109.477 13.5701L113.454 11.2288C112.148 8.8576 109.538 7.2876 106.595 7.2876C101.981 7.2876 98.5508 10.8288 98.5508 15.4176C98.5508 20.0063 101.981 23.5476 106.595 23.5476C109.569 23.5476 112.148 21.9763 113.454 19.5751L109.477 17.2651C108.992 18.3426 107.868 18.9901 106.533 18.9901Z" fill="white"/>
<path fill-rule="evenodd" clip-rule="evenodd" d="M76.2719 19.1751C74.1775 19.1751 72.6597 17.7276 72.6597 15.4176C72.6597 13.1076 74.1775 11.6601 76.2719 11.6601C78.3663 11.6601 79.8841 13.1076 79.8841 15.4176C79.8841 17.7276 78.3663 19.1751 76.2719 19.1751ZM79.8841 9.16635C78.8825 7.99635 77.3955 7.2876 75.3614 7.2876C71.3858 7.2876 68.1074 10.8288 68.1074 15.4176C68.1074 20.0063 71.3858 23.5476 75.3614 23.5476C77.3955 23.5476 78.8825 22.8388 79.8841 21.6688V23.1163H84.4363V7.71885H79.8841V9.16635Z" fill="white"/>
<path fill-rule="evenodd" clip-rule="evenodd" d="M64.6778 3.40771L60.1255 4.79271V7.71897H57.6973V12.154H60.1255V17.604C60.1255 21.9152 61.8553 23.7327 67.8046 23.1165V18.929C65.8014 19.0515 64.6778 18.929 64.6778 17.604V12.154H67.8046V7.71897H64.6778V3.40771Z" fill="white"/>
<path fill-rule="evenodd" clip-rule="evenodd" d="M51.8828 23.1163H56.4351V7.71875H51.8828V23.1163Z" fill="white"/>
<path fill-rule="evenodd" clip-rule="evenodd" d="M86.5625 23.1161H91.1147V0.839844L86.5625 2.24734V23.1161Z" fill="white"/>
<path fill-rule="evenodd" clip-rule="evenodd" d="M42.3525 19.1736C40.2568 19.1736 38.7378 17.7261 38.7378 15.4186C38.7378 13.1061 40.2568 11.6623 42.3525 11.6623C44.4444 11.6623 45.9635 13.1061 45.9635 15.4186C45.9635 17.7261 44.4444 19.1736 42.3525 19.1736ZM43.2629 7.28857C41.2277 7.28857 39.7406 7.99482 38.7378 9.16482V7.71982H34.1855V29.2761H38.7378V21.6673C39.7406 22.8373 41.2277 23.5473 43.2629 23.5473C47.2398 23.5473 50.5157 20.0048 50.5157 15.4186C50.5157 10.8273 47.2398 7.28857 43.2629 7.28857Z" fill="white"/>
<path fill-rule="evenodd" clip-rule="evenodd" d="M23.8969 19.1751C21.8037 19.1751 20.2859 17.7276 20.2859 15.4176C20.2859 13.1076 21.8037 11.6601 23.8969 11.6601C25.9913 11.6601 27.5091 13.1076 27.5091 15.4176C27.5091 17.7276 25.9913 19.1751 23.8969 19.1751ZM27.5091 9.16635C26.5075 7.99635 25.0205 7.2876 22.9864 7.2876C19.0108 7.2876 15.7324 10.8288 15.7324 15.4176C15.7324 20.0063 19.0108 23.5476 22.9864 23.5476C25.0205 23.5476 26.5075 22.8388 27.5091 21.6688V23.1163H32.0626V7.71885H27.5091V9.16635Z" fill="white"/>
<path fill-rule="evenodd" clip-rule="evenodd" d="M8.56416 11.8451C9.89965 11.8451 10.9924 12.4926 11.5086 13.5701L15.4843 11.2288C14.1796 8.8576 11.569 7.2876 8.62453 7.2876C4.01192 7.2876 0.582031 10.8288 0.582031 15.4176C0.582031 20.0063 4.01192 23.5476 8.62453 23.5476C11.5998 23.5476 14.1796 21.9763 15.4843 19.5751L11.5086 17.2651C11.0232 18.3426 9.89965 18.9901 8.56416 18.9901C6.59173 18.9901 5.13427 17.5426 5.13427 15.4176C5.13427 13.2926 6.59173 11.8451 8.56416 11.8451Z" fill="white"/>
<path fill-rule="evenodd" clip-rule="evenodd" d="M95.12 18.189C96.607 18.189 97.8514 16.9265 97.8514 15.4177C97.8514 13.909 96.607 12.6465 95.12 12.6465C93.633 12.6465 92.3887 13.909 92.3887 15.4177C92.3887 16.9265 93.633 18.189 95.12 18.189Z" fill="#C09C7C"/>
<path fill-rule="evenodd" clip-rule="evenodd" d="M54.2138 6.57109C55.7008 6.57109 56.9451 5.30734 56.9451 3.79859C56.9451 2.28984 55.7008 1.02734 54.2138 1.02734C52.7267 1.02734 51.4824 2.28984 51.4824 3.79859C51.4824 5.30734 52.7267 6.57109 54.2138 6.57109Z" fill="white"/>
</svg>
