<?xml version="1.0" encoding="UTF-8"?>
<svg id="Layer_1" data-name="Layer 1" xmlns="http://www.w3.org/2000/svg" version="1.1" viewBox="0 0 204 70">
  <defs>
    <style>
      .cls-1, .cls-2 {
        fill: #ffffff;
        stroke-width: 0px;
      }

      .cls-2 {
        fill-rule: evenodd;
      }
    </style>
  </defs>
  <path class="cls-1" d="M6.264,27.72c.899-.906,1.938-1.62,3.124-2.138,1.183-.518,2.447-.777,3.788-.777,1.478,0,2.668.182,3.567.549.899.367,1.769.896,2.612,1.588.409.301.829.437,1.264.406.431-.031.803-.182,1.109-.455.306-.269.46-.609.46-1.022,0-.196-.018-.36-.051-.504-.033-.14-.103-.28-.206-.42-.103-.14-.243-.276-.427-.406-1.275-.994-2.542-1.707-3.806-2.138-1.26-.434-2.767-.651-4.521-.651-1.868,0-3.596.336-5.188,1.004-1.592.668-2.988,1.595-4.182,2.771-1.194,1.179-2.13,2.551-2.8,4.118C.335,31.215,0,32.905,0,34.721,0,36.557.335,38.265,1.006,39.843c.671,1.578,1.603,2.956,2.8,4.132,1.194,1.179,2.594,2.096,4.197,2.754,1.603.661,3.327.99,5.173.99,1.547,0,3.021-.238,4.421-.714,1.4-.476,2.715-1.179,3.942-2.106.181-.172.317-.361.409-.567.088-.207.136-.416.136-.633,0-.476-.136-.847-.409-1.12-.273-.269-.608-.42-1.006-.455-.398-.031-.803.091-1.212.374-.954.668-1.953,1.193-2.988,1.571-1.035.378-2.133.567-3.294.567-1.345,0-2.605-.255-3.788-.763-1.183-.507-2.225-1.218-3.124-2.124-.899-.906-1.599-1.959-2.1-3.159-.501-1.2-.752-2.491-.752-3.873,0-1.361.251-2.641.752-3.841.501-1.197,1.201-2.25,2.1-3.156Z"/>
  <path class="cls-1" d="M29.052,22.08c-.501,0-.921.157-1.264.469-.343.315-.512.717-.512,1.214v21.944c0,.476.169.875.512,1.2.343.322.763.486,1.264.486.523,0,.95-.161,1.279-.486.332-.325.494-.724.494-1.2v-21.944c0-.497-.166-.903-.494-1.214-.328-.311-.755-.469-1.279-.469Z"/>
  <path class="cls-1" d="M54.347,22.08h-18.26c-.479,0-.869.147-1.179.437-.306.29-.46.665-.46,1.12s.155.826.46,1.12c.306.29.7.437,1.179.437h7.373v20.516c0,.476.17.875.512,1.2.343.322.763.486,1.264.486s.921-.161,1.264-.486c.343-.325.512-.724.512-1.2v-20.52h7.34c.479,0,.869-.147,1.179-.437.306-.29.461-.665.461-1.12s-.155-.826-.461-1.12c-.31-.29-.704-.434-1.183-.434Z"/>
  <path class="cls-1" d="M81.583,22.486c-.273-.269-.615-.406-1.024-.406-.365,0-.67.07-.921.21-.25.14-.468.339-.648.598l-8.124,12.168-7.988-12.035c-.206-.301-.42-.535-.648-.696-.228-.161-.534-.241-.921-.241-.431,0-.814.126-1.142.374-.332.248-.531.574-.597.973-.07.399.044.826.343,1.281l9.112,13.452v7.554c0,.476.169.875.512,1.2.343.322.751.486,1.23.486.501,0,.921-.161,1.264-.486.343-.325.512-.724.512-1.2v-7.561l9.182-13.452c.273-.409.387-.815.343-1.214-.052-.399-.21-.735-.483-1.004Z"/>
  <path class="cls-1" d="M99.644,22.08c-.501,0-.921.157-1.264.469-.343.315-.512.717-.512,1.214v21.944c0,.476.169.875.512,1.2.343.322.763.486,1.264.486.523,0,.951-.161,1.279-.486.332-.325.494-.724.494-1.2v-21.944c0-.497-.166-.903-.494-1.214-.328-.311-.755-.469-1.279-.469Z"/>
  <path class="cls-1" d="M126.534,22.08c-.501,0-.921.157-1.264.469-.343.315-.512.717-.512,1.214v17.731l-14.882-18.798c-.365-.409-.818-.616-1.367-.616-.501,0-.917.157-1.245.469-.332.315-.494.717-.494,1.214v21.944c0,.476.166.875.494,1.2.328.322.744.486,1.245.486.523,0,.951-.161,1.279-.486.328-.325.494-.724.494-1.2v-17.696l14.882,18.798c.158.192.368.339.63.437.261.098.505.147.733.147.523,0,.943-.161,1.264-.486.317-.325.479-.724.479-1.2v-21.944c0-.497-.158-.903-.479-1.214-.31-.311-.733-.469-1.256-.469Z"/>
  <path class="cls-2" d="M150.94,25.628c-1.183-1.134-2.575-2.008-4.182-2.624-1.603-.616-3.386-.924-5.343-.924h-6.179c-.501,0-.921.157-1.264.469-.343.315-.512.717-.512,1.214v21.944c0,.476.169.875.512,1.2.343.322.763.486,1.264.486h6.179c1.957,0,3.736-.308,5.343-.924,1.603-.616,2.999-1.49,4.182-2.624,1.183-1.134,2.093-2.474,2.73-4.02.637-1.543.954-3.247.954-5.105s-.317-3.555-.954-5.087c-.637-1.536-1.547-2.872-2.73-4.006ZM149.949,39.727c-.844,1.459-1.997,2.603-3.463,3.436-1.467.833-3.158,1.249-5.07,1.249h-4.403v-19.351h4.403c1.912,0,3.6.409,5.07,1.232,1.467.822,2.623,1.956,3.463,3.404s1.264,3.121,1.264,5.024c0,1.879-.42,3.548-1.264,5.007Z"/>
  <path class="cls-1" d="M176.589,25.19c.523,0,.943-.14,1.264-.423.317-.28.479-.647.479-1.102,0-.476-.158-.861-.479-1.151-.317-.29-.741-.437-1.264-.437h-15.431c-.501,0-.921.157-1.264.469-.343.315-.512.717-.512,1.214v21.944c0,.476.169.875.512,1.2.343.322.763.486,1.264.486h15.431c.523,0,.943-.147,1.264-.437.317-.29.479-.675.479-1.151,0-.455-.158-.822-.479-1.102-.317-.28-.741-.423-1.264-.423h-13.655v-8.096h9.797c.523,0,.943-.147,1.264-.437.317-.29.479-.665.479-1.12s-.158-.826-.479-1.12c-.317-.29-.741-.437-1.264-.437h-9.797v-7.875h13.655Z"/>
  <path class="cls-1" d="M195.84,34.588l7.781-9.852c.273-.388.398-.787.377-1.2-.023-.409-.171-.756-.443-1.036-.273-.28-.647-.423-1.126-.423-.525,0-.943.161-1.264.486l-7.65,9.663-7.336-9.66c-.251-.325-.671-.486-1.264-.486-.479,0-.858.15-1.142.455-.284.304-.45.658-.494,1.071-.044.409.07.787.343,1.134l7.498,9.877-7.944,10.055c-.272.346-.409.728-.409,1.151,0,.42.136.791.409,1.102.273.315.671.469,1.194.469.479,0,.888-.161,1.231-.486l7.837-9.901,7.425,9.772c.179.217.379.374.595.469.219.098.473.147.77.147.502,0,.893-.151,1.18-.455.283-.301.437-.668.46-1.102.021-.43-.104-.822-.377-1.169l-7.652-10.08Z"/>
</svg>