<svg version="1.2" xmlns="http://www.w3.org/2000/svg" viewBox="0 0 1569 485" width="1569" height="485">
	<title>EToro_logo</title>
	<style>
		.s0 { fill: #ffffff } 
	</style>
	<path fill-rule="evenodd" class="s0" d="m115.3 252.6v27.7c0 0.5-0.4 1.3-1.3 1.2-50.6-5.8-130.8-37.4-110.1-115.3 8.2-30.8 71.8-102.2 117.4-159.3 0.5-0.7 4-5.9 8.9-5.9 4.9 0 8.2 4.8 6.6 8.6-1.7 4-46.3 96.3-38 126.9 8.4 30.6 48.9 24.6 55.5 24.6 3.2 0 1.1 2.7-2.9 6.3-22.1 19.9-36.1 47.9-36.1 85.2zm1302.3-85.2c-4-3.6-6.1-6.3-2.9-6.3 6.7 0 47.2 6 55.5-24.6 8.4-30.6-36.3-122.9-38-126.9-1.6-3.8 1.8-8.6 6.7-8.6 4.8 0 8.3 5.2 8.8 5.9 45.6 57.1 109.2 128.5 117.4 159.3 20.7 77.9-59.4 109.5-110 115.3-0.9 0.1-1.4-0.7-1.4-1.2v-27.7c0-37.3-13.9-65.3-36.1-85.2zm14 92.4v111.6c0 74.6-72.8 109.7-133.9 110.3-62.4-0.6-135.1-35.7-135.1-110.3v-111.6c0-73.4 72.7-109.7 135.1-110.4 61.1 0.7 133.9 37 133.9 110.4zm-67.2 0c0-30.2-40.4-44.4-66.7-44.4-28.1 0-67.9 14.2-67.9 44.4v106.5c0 30.2 39.8 47.5 67.9 47.5 26.3 0 66.7-17.3 66.7-47.5zm-402.6 0v111.6c0 74.6-72.8 109.7-133.9 110.3-62.3-0.6-135.1-35.7-135.1-110.3v-111.6c0-73.4 72.8-109.8 135.1-110.4 61.1 0.6 133.9 37 133.9 110.4zm-67.2 0c0-30.2-40.4-44.4-66.7-44.4-28.1 0-67.9 14.2-67.9 44.4v106.5c0 30.2 39.8 47.4 67.9 47.4 26.3 0 66.7-17.2 66.7-47.4zm-205.4-81.6c-17.4 13.3-26 33.1-30.1 54.4-27.1-6.7-50.1-10.6-77.6-12.2v259.2q0 1.5-1.7 1.4h-63.9c-1 0-1.7-0.6-1.6-1.5v-259.1c-28.7 1.6-53.3 5.5-80.6 12.2-3.3-21.4-10.5-40.3-27.5-54.5-1.1-1.5-0.6-3.9 1.8-4.5 49.6-13.5 86.5-19.2 139.9-19.2 53.3 0 90.1 5.7 139.9 19.3 1.7 0.5 3 2.6 1.4 4.5zm475.7-19c-21 17-34.7 34-41.7 57.5-24 4.9-52.8 19.5-52.8 43.1v214.7 5.7q0 1.6-1.6 1.5h-64c-1 0-1.6-0.6-1.6-1.5v-220.4c0-71.6 69.2-108 130.5-110.4 12.4-0.4 26.5 1.6 31.3 2.3 3.4 0.5 3.6 4.5-0.1 7.5zm-762.4 99.8v62.2c0 9.5-7.6 17.1-16.9 17.1h-175.3v33.8c0 30.7 36.1 48.2 64.6 48.2 21 0 50.9-10.9 62.7-30.6 0.5-0.9 1.2-0.9 1.9-0.5 21.5 12.2 34 19.1 55.7 31.6 1.2 0.8 2 2.5 1.1 3.8-24.5 40.1-76.1 59-121.4 59.5-63.2-0.7-132.8-36.3-132.8-112v-113.1c0-74.5 69.6-111.3 132.8-112 62 0.7 127.6 37.5 127.6 112zm-66.8 0c0-30.7-34.1-45.1-60.8-45.1-28.5 0-64.6 14.4-64.6 45.1v22.4h122.6c0.8 0 1.5-0.3 2.1-0.9 0.4-0.5 0.7-1.2 0.7-1.9z"/>
</svg>