<?xml version="1.0" encoding="UTF-8"?>
<svg id="Layer_1" data-name="Layer 1" xmlns="http://www.w3.org/2000/svg" version="1.1" viewBox="0 0 204 70">
  <defs>
    <style>
      .cls-1 {
        fill: #ffffff;
      }

      .cls-1, .cls-2 {
        stroke-width: 0px;
      }

      .cls-2 {
        fill: #ffde02;
      }
    </style>
  </defs>
  <!-- yellow bg rects removed for dark variant -->
  <path class="cls-1" d="M13.776,37.37c.299,1.087.767,2.089,1.405,3.008.637.919,1.386,1.714,2.248,2.389.862.674,1.826,1.199,2.896,1.574,1.068.375,2.182.562,3.345.562,1.761,0,3.297-.366,4.61-1.095,1.311-.731,2.362-1.563,3.148-2.502h6.353c-.6,1.275-1.377,2.455-2.332,3.542-.955,1.087-2.042,2.034-3.26,2.839-1.218.807-2.548,1.434-3.991,1.883-1.443.449-2.951.674-4.525.674-2.135,0-4.152-.413-6.043-1.237-1.894-.824-3.542-1.938-4.946-3.345-1.405-1.405-2.521-3.055-3.345-4.946-.826-1.892-1.237-3.906-1.237-6.044s.411-4.15,1.237-6.042c.824-1.892,1.938-3.542,3.345-4.946,1.405-1.405,3.055-2.519,4.946-3.345,1.892-.824,3.906-1.237,6.042-1.237s4.15.413,6.044,1.237c1.892.824,3.542,1.938,4.946,3.345,1.405,1.405,2.521,3.055,3.345,4.946.824,1.894,1.237,3.906,1.237,6.043,0,.487-.019.955-.057,1.405-.038.449-.093.881-.169,1.292H13.776ZM33.564,32.03c-.301-1.087-.758-2.099-1.377-3.036-.618-.936-1.368-1.743-2.248-2.417-.881-.674-1.847-1.199-2.896-1.574-1.049-.375-2.173-.562-3.373-.562-1.163,0-2.277.197-3.345.591-1.068.394-2.042.928-2.923,1.602-.881.674-1.631,1.472-2.248,2.389-.619.919-1.078,1.921-1.377,3.008h19.786v-.002Z"/>
  <path class="cls-1" d="M40.195,22.811l3.823-3.709,11.354,11.748,11.355-11.748,3.822,3.709-11.467,11.861,11.467,11.861-3.822,3.709-11.355-11.748-11.354,11.748-3.822-3.709,11.467-11.861-11.469-11.861Z"/>
  <path class="cls-1" d="M73.866,33.886c0-2.023.383-3.936,1.152-5.734.767-1.799,1.826-3.372,3.176-4.722,1.349-1.349,2.923-2.407,4.722-3.176,1.798-.767,3.711-1.152,5.734-1.152s3.934.385,5.734,1.152c1.799.769,3.373,1.826,4.722,3.176,1.349,1.349,2.407,2.923,3.176,4.722.767,1.799,1.152,3.709,1.152,5.734v15.458h-5.847v-15.739c0-1.237-.235-2.398-.703-3.485-.468-1.087-1.105-2.032-1.911-2.839-.806-.805-1.751-1.443-2.838-1.911-1.087-.468-2.248-.703-3.485-.703s-2.398.235-3.485.703c-1.087.468-2.033,1.106-2.838,1.911-.807.807-1.443,1.752-1.911,2.839-.468,1.087-.703,2.248-.703,3.485v15.739h-5.847v-15.458Z"/>
  <path class="cls-1" d="M113.157,37.37c.299,1.087.768,2.089,1.405,3.008.638.919,1.386,1.714,2.248,2.389.862.674,1.826,1.199,2.896,1.574,1.067.375,2.182.562,3.344.562,1.761,0,3.297-.366,4.61-1.095,1.311-.731,2.362-1.563,3.148-2.502h6.353c-.6,1.275-1.377,2.455-2.333,3.542-.955,1.087-2.042,2.034-3.26,2.839-1.218.807-2.548,1.434-3.991,1.883-1.443.449-2.951.674-4.525.674-2.135,0-4.152-.413-6.043-1.237-1.894-.824-3.542-1.938-4.947-3.345-1.405-1.405-2.521-3.055-3.345-4.946-.824-1.892-1.237-3.906-1.237-6.044s.411-4.15,1.237-6.043c.824-1.892,1.939-3.542,3.345-4.946,1.405-1.405,3.055-2.519,4.947-3.345,1.891-.822,3.906-1.235,6.041-1.235s4.15.413,6.044,1.237c1.892.824,3.542,1.938,4.946,3.345,1.405,1.405,2.521,3.055,3.345,4.946.824,1.894,1.237,3.906,1.237,6.043,0,.487-.019.955-.057,1.405-.038.449-.093.881-.169,1.292h-25.239ZM132.945,32.03c-.301-1.087-.758-2.099-1.377-3.036-.619-.936-1.368-1.743-2.248-2.417-.881-.674-1.847-1.199-2.895-1.574-1.049-.375-2.174-.562-3.373-.562-1.163,0-2.277.197-3.345.591-1.067.394-2.042.928-2.923,1.602-.881.674-1.631,1.472-2.248,2.389-.618.919-1.078,1.921-1.377,3.008h19.786v-.002Z"/>
  <path class="cls-1" d="M155.036,50.244c-3.411,0-6.362-.797-8.853-2.389-2.493-1.593-4.243-3.775-5.256-6.548h6.239c.788,1.199,1.883,2.127,3.288,2.783,1.404.657,2.913.983,4.525.983,1.948,0,3.457-.346,4.524-1.04,1.068-.693,1.602-1.64,1.602-2.839,0-.974-.385-1.723-1.152-2.248-.769-.525-2.053-.955-3.851-1.292l-4.385-.843c-3.449-.637-5.959-1.648-7.533-3.036-1.574-1.386-2.362-3.26-2.362-5.622,0-1.311.29-2.521.871-3.626.58-1.106,1.385-2.061,2.417-2.866,1.03-.805,2.256-1.434,3.682-1.883,1.427-.451,3.001-.675,4.725-.675,3.184,0,5.94.758,8.264,2.277,2.323,1.517,3.953,3.626,4.891,6.323h-6.241c-.637-1.087-1.565-1.93-2.783-2.529-1.218-.599-2.578-.9-4.076-.9-1.798,0-3.194.328-4.188.983-.993.657-1.489,1.584-1.489,2.782,0,.862.384,1.555,1.152,2.08.767.525,2.032.955,3.794,1.292l4.385.843c3.409.638,5.921,1.678,7.533,3.12,1.61,1.443,2.417,3.345,2.417,5.705,0,1.349-.3,2.578-.9,3.682-.599,1.106-1.434,2.071-2.502,2.896-1.067.824-2.351,1.462-3.851,1.911-1.498.453-3.127.677-4.887.677Z"/>
  <path class="cls-1" d="M183.704,50.242c-3.411,0-6.362-.797-8.853-2.389-2.493-1.593-4.243-3.775-5.256-6.548h6.239c.788,1.199,1.883,2.127,3.288,2.783,1.404.657,2.913.983,4.525.983,1.948,0,3.457-.345,4.524-1.04,1.068-.693,1.602-1.64,1.602-2.839,0-.974-.385-1.723-1.152-2.248-.769-.525-2.053-.955-3.851-1.292l-4.385-.843c-3.449-.637-5.959-1.648-7.533-3.036-1.574-1.386-2.362-3.26-2.362-5.622,0-1.311.29-2.521.871-3.626.58-1.106,1.385-2.061,2.417-2.866,1.03-.805,2.256-1.434,3.682-1.883,1.423-.449,2.997-.674,4.721-.674,3.185,0,5.94.758,8.264,2.277,2.324,1.517,3.953,3.626,4.891,6.323h-6.238c-.638-1.087-1.566-1.93-2.784-2.529-1.218-.599-2.578-.9-4.076-.9-1.798,0-3.194.328-4.187.983-.994.657-1.49,1.584-1.49,2.782,0,.862.384,1.555,1.153,2.08.767.525,2.031.955,3.794,1.292l4.385.843c3.408.638,5.92,1.678,7.532,3.12,1.611,1.443,2.418,3.345,2.418,5.705,0,1.349-.301,2.578-.901,3.682-.599,1.106-1.434,2.071-2.501,2.896-1.068.824-2.352,1.462-3.851,1.911-1.495.451-3.126.676-4.886.676Z"/>
</svg>