<svg width="220" height="60" viewBox="0 0 220 60" fill="none" xmlns="http://www.w3.org/2000/svg">
<path fill-rule="evenodd" clip-rule="evenodd" d="M28.0051 42.1107H55.1304C50.503 52.5512 40.0743 59.8805 28.0051 60H27.7718C17.6955 60 8.72988 54.9553 3.28343 47.2724L26.367 20.7615V42.1107H28.0075H28.0051ZM29.4682 18.7671V39.002L52.6685 13.4298C47.397 5.39581 38.3147 0.0585176 28.0051 0H27.7718C15.2335 0 4.45243 7.74138 0 18.7671H29.4682ZM72.2961 10.382C69.7758 10.382 68.3711 11.4377 67.3163 12.7861C66.2615 14.1344 65.5008 15.8363 65.5008 18.416V43.2835H75.108L75.2247 30.673H96.7845V22.756L74.9914 22.873C74.9331 20.9956 74.8164 19.2962 76.1628 18.5915C77.8616 17.7113 81.0843 18.0039 84.1903 18.0039H96.8452V10.3796C90.7523 10.3796 78.3915 10.321 72.2961 10.3796V10.382ZM135.512 10.382H126.08L118.347 21.7003L110.497 10.2625H100.595L111.843 26.3914L100.654 43.1055L109.969 43.2225L118.288 31.3166L126.433 43.281L136.159 43.3396L124.559 26.506L135.515 10.3771L135.512 10.382ZM164.631 10.382H143.482C139.967 10.382 137.095 13.2567 137.095 16.8335V36.8319C137.095 40.3503 139.965 43.2835 143.482 43.2835H164.631C168.145 43.2835 171.018 40.3503 171.018 36.8319V31.9652H163.109V32.2578C163.109 34.1352 161.644 35.7177 159.887 35.7177H149.108C147.292 35.7177 145.827 34.1352 145.827 32.2578V21.7003C145.827 19.8228 147.292 18.2404 149.108 18.2404H159.887C161.527 18.2404 162.873 19.5302 163.109 21.1736H171.018V16.8335C171.018 13.2567 168.147 10.382 164.631 10.382ZM213.316 10.3235H182.382C178.632 10.3235 175.587 14.3709 175.587 19.3547V43.2835H184.961V21.8758C184.961 19.7058 187.07 17.8869 189.588 17.8869H192.108C192.519 17.8869 192.93 17.9454 193.338 18.0039V43.281H202.537V18.0624C202.948 17.9454 203.358 17.8869 203.767 17.8869H206.637C208.922 18.0624 210.798 19.8228 210.798 21.8758V43.225H219.997V19.3547C220.113 14.3685 217.068 10.3235 213.318 10.3235H213.316Z" fill="#ffffff"/>
</svg>
