<svg width="164" height="48" viewBox="0 0 164 48" fill="none" xmlns="http://www.w3.org/2000/svg">
<path d="M53.9082 10.8955C53.9082 4.46728 58.4142 0 64.5522 0C69.2692 0 72.8981 2.56539 73.8659 6.54965H70.4791C69.6322 4.16539 67.4249 2.83709 64.6126 2.83709C60.3184 2.83709 57.1432 5.91569 57.1432 10.8351C57.1432 15.7546 60.2579 18.7728 64.4614 18.7728C68.2113 18.7728 70.9932 16.298 71.205 12.3439H64.6126V9.59741H74.0474V21.3684H71.5074L71.2352 18.1992C69.8136 20.4024 67.2434 21.6099 64.0985 21.6099C58.1722 21.6106 53.9082 17.2037 53.9082 10.8955Z" fill="white"/>
<path d="M76.709 10.805C76.709 4.46728 81.3662 0 87.2629 0C93.1595 0 97.8167 4.46728 97.8167 10.805C97.8167 17.1426 93.1595 21.6099 87.2629 21.6099C81.3662 21.6099 76.7096 17.1433 76.7096 10.805H76.709ZM87.2629 18.7433C91.4664 18.7433 94.5811 15.5741 94.5811 10.8056C94.5811 6.0371 91.4664 2.86793 87.2629 2.86793C83.0593 2.86793 79.9446 6.0371 79.9446 10.8056C79.9446 15.5741 83.0593 18.7433 87.2629 18.7433Z" fill="white"/>
<path d="M54.502 25.0234H58.5543L65.6607 41.9856L72.7975 25.0234H76.8195V46.151H73.7049V29.8523L66.8706 46.151H64.3306L57.5568 30.0033V46.151H54.502V25.0234Z" fill="white"/>
<path d="M79.4492 41.6222C79.4492 38.7549 81.8682 36.8537 85.7693 36.8537H90.6074V36.2197C90.6074 33.8656 89.2463 32.6581 86.8878 32.6581C84.7107 32.6581 83.3496 33.6845 83.1077 35.3442H79.9627C80.2954 32.1147 82.9564 30.0625 86.9785 30.0625C91.0006 30.0625 93.5708 32.326 93.5708 36.2499V42.2863C93.5708 43.2222 93.964 43.6146 94.8714 43.6146H95.567V46.1498H93.7832C92.0598 46.1498 90.9105 45.2744 90.6685 43.7052C89.5796 45.3649 87.5236 46.331 85.1348 46.331C81.7782 46.331 79.4499 44.3995 79.4499 41.6228L79.4492 41.6222ZM85.7088 43.8555C88.4908 43.8555 90.6074 42.0146 90.6074 39.4788V39.0863H86.0711C83.7428 39.0863 82.5027 39.992 82.5027 41.4706C82.5027 42.9492 83.7126 43.8548 85.7082 43.8548L85.7088 43.8555Z" fill="white"/>
<path d="M97.1699 30.3053H100.164V33.0217C101.131 31.2412 102.946 30.3053 105.032 30.3053H106.242V33.0519H105.032C101.947 33.0519 100.194 34.772 100.194 38.2732V46.1505H97.1699V30.3047V30.3053Z" fill="white"/>
<path d="M113.68 39.1479H111.231V46.1504H108.207V24.1172H111.231V36.5221H113.71L118.972 30.3046H122.54L116.25 37.7297L122.903 46.1504H119.214L113.68 39.1479Z" fill="white"/>
<path d="M122.812 38.3624C122.812 33.443 126.351 30.0625 130.947 30.0625C135.271 30.0625 138.506 33.0505 138.506 37.7587C138.506 38.2115 138.476 38.604 138.446 38.9058H125.866C126.108 42.1656 128.285 43.8253 130.976 43.8253C133.002 43.8253 134.635 42.9196 135.361 41.4109H138.294C137.417 44.5196 134.514 46.3907 130.886 46.3907C126.139 46.3907 122.812 43.1611 122.812 38.3624ZM135.453 36.582C135.09 33.926 133.336 32.5977 130.978 32.5977C128.619 32.5977 126.593 34.0166 126.019 36.582H135.453H135.453Z" fill="white"/>
<path d="M141.892 41.8035V32.93H139.201V30.3042H140.774C141.591 30.3042 141.893 30.0023 141.893 29.1873V26.1992H144.917V30.3042H149.393V32.93H144.917V41.2903C144.917 42.8903 145.522 43.4934 147.124 43.4934H149.392V46.1494H146.247C143.405 46.1494 141.892 44.64 141.892 41.8029V41.8035Z" fill="white"/>
<path d="M150.692 41.1392H153.625C153.867 42.8894 155.288 43.9159 157.587 43.9159C159.886 43.9159 161.004 42.9498 161.004 41.5316C161.004 40.4448 160.278 39.9021 157.95 39.4492L155.47 38.9964C152.235 38.3926 150.904 36.9744 150.904 34.831C150.904 32.0543 153.262 30.0625 157.315 30.0625C161.367 30.0625 163.544 31.9335 163.816 35.1329H160.883C160.641 33.4732 159.371 32.5373 157.133 32.5373C154.896 32.5373 153.837 33.4128 153.837 34.6499C153.837 35.6159 154.442 36.1587 156.831 36.6115L159.31 37.0643C162.455 37.6379 163.937 38.9656 163.937 41.3203C163.937 44.3083 161.517 46.3907 157.435 46.3907C153.352 46.3907 150.903 44.4291 150.691 41.1392H150.692Z" fill="white"/>
<path d="M53.9082 10.8955C53.9082 4.46728 58.4142 0 64.5522 0C69.2692 0 72.8981 2.56539 73.8659 6.54965H70.4791C69.6322 4.16539 67.4249 2.83709 64.6126 2.83709C60.3184 2.83709 57.1432 5.91569 57.1432 10.8351C57.1432 15.7546 60.2579 18.7728 64.4614 18.7728C68.2113 18.7728 70.9932 16.298 71.205 12.3439H64.6126V9.59741H74.0474V21.3684H71.5074L71.2352 18.1992C69.8136 20.4024 67.2434 21.6099 64.0985 21.6099C58.1722 21.6106 53.9082 17.2037 53.9082 10.8955Z" fill="white"/>
<path d="M76.709 10.805C76.709 4.46728 81.3662 0 87.2629 0C93.1595 0 97.8167 4.46728 97.8167 10.805C97.8167 17.1426 93.1595 21.6099 87.2629 21.6099C81.3662 21.6099 76.7096 17.1433 76.7096 10.805H76.709ZM87.2629 18.7433C91.4664 18.7433 94.5811 15.5741 94.5811 10.8056C94.5811 6.0371 91.4664 2.86793 87.2629 2.86793C83.0593 2.86793 79.9446 6.0371 79.9446 10.8056C79.9446 15.5741 83.0593 18.7433 87.2629 18.7433Z" fill="white"/>
<path d="M54.502 25.0234H58.5543L65.6607 41.9856L72.7975 25.0234H76.8195V46.151H73.7049V29.8523L66.8706 46.151H64.3306L57.5568 30.0033V46.151H54.502V25.0234Z" fill="white"/>
<path d="M79.4492 41.6222C79.4492 38.7549 81.8682 36.8537 85.7693 36.8537H90.6074V36.2197C90.6074 33.8656 89.2463 32.6581 86.8878 32.6581C84.7107 32.6581 83.3496 33.6845 83.1077 35.3442H79.9627C80.2954 32.1147 82.9564 30.0625 86.9785 30.0625C91.0006 30.0625 93.5708 32.326 93.5708 36.2499V42.2863C93.5708 43.2222 93.964 43.6146 94.8714 43.6146H95.567V46.1498H93.7832C92.0598 46.1498 90.9105 45.2744 90.6685 43.7052C89.5796 45.3649 87.5236 46.331 85.1348 46.331C81.7782 46.331 79.4499 44.3995 79.4499 41.6228L79.4492 41.6222ZM85.7088 43.8555C88.4908 43.8555 90.6074 42.0146 90.6074 39.4788V39.0863H86.0711C83.7428 39.0863 82.5027 39.992 82.5027 41.4706C82.5027 42.9492 83.7126 43.8548 85.7082 43.8548L85.7088 43.8555Z" fill="white"/>
<path d="M97.1699 30.3053H100.164V33.0217C101.131 31.2412 102.946 30.3053 105.032 30.3053H106.242V33.0519H105.032C101.947 33.0519 100.194 34.772 100.194 38.2732V46.1505H97.1699V30.3047V30.3053Z" fill="white"/>
<path d="M113.68 39.1479H111.231V46.1504H108.207V24.1172H111.231V36.5221H113.71L118.972 30.3046H122.54L116.25 37.7297L122.903 46.1504H119.214L113.68 39.1479Z" fill="white"/>
<path d="M122.812 38.3624C122.812 33.443 126.351 30.0625 130.947 30.0625C135.271 30.0625 138.506 33.0505 138.506 37.7587C138.506 38.2115 138.476 38.604 138.446 38.9058H125.866C126.108 42.1656 128.285 43.8253 130.976 43.8253C133.002 43.8253 134.635 42.9196 135.361 41.4109H138.294C137.417 44.5196 134.514 46.3907 130.886 46.3907C126.139 46.3907 122.812 43.1611 122.812 38.3624ZM135.453 36.582C135.09 33.926 133.336 32.5977 130.978 32.5977C128.619 32.5977 126.593 34.0166 126.019 36.582H135.453H135.453Z" fill="white"/>
<path d="M141.892 41.8035V32.93H139.201V30.3042H140.774C141.591 30.3042 141.893 30.0023 141.893 29.1873V26.1992H144.917V30.3042H149.393V32.93H144.917V41.2903C144.917 42.8903 145.522 43.4934 147.124 43.4934H149.392V46.1494H146.247C143.405 46.1494 141.892 44.64 141.892 41.8029V41.8035Z" fill="white"/>
<path d="M150.692 41.1392H153.625C153.867 42.8894 155.288 43.9159 157.587 43.9159C159.886 43.9159 161.004 42.9498 161.004 41.5316C161.004 40.4448 160.278 39.9021 157.95 39.4492L155.47 38.9964C152.235 38.3926 150.904 36.9744 150.904 34.831C150.904 32.0543 153.262 30.0625 157.315 30.0625C161.367 30.0625 163.544 31.9335 163.816 35.1329H160.883C160.641 33.4732 159.371 32.5373 157.133 32.5373C154.896 32.5373 153.837 33.4128 153.837 34.6499C153.837 35.6159 154.442 36.1587 156.831 36.6115L159.31 37.0643C162.455 37.6379 163.937 38.9656 163.937 41.3203C163.937 44.3083 161.517 46.3907 157.435 46.3907C153.352 46.3907 150.903 44.4291 150.691 41.1392H150.692Z" fill="white"/>
<g clip-path="url(#clip0_1092_13996)">
<path d="M46.9889 17.4289V29.714C46.9889 31.066 46.6724 32.3953 46.0687 33.5981C45.9534 33.4217 45.8403 33.2476 45.7228 33.0758C45.5442 32.8045 45.361 32.5378 45.1779 32.2687C45.1169 32.1783 45.0536 32.0833 44.9857 31.9907C44.8071 31.7261 44.6195 31.4571 44.4341 31.1926C44.3979 31.1406 44.3617 31.0886 44.3233 31.0366C44.0904 30.7043 43.853 30.3697 43.6111 30.0396C43.6111 30.0373 43.6088 30.0373 43.6043 30.0328C43.3534 29.6824 43.0979 29.3365 42.8401 28.9906C42.6118 28.6831 42.3789 28.3757 42.1483 28.0727C41.8544 27.6884 41.5605 27.304 41.2598 26.9265C40.993 26.5874 40.7217 26.246 40.4504 25.9114C39.6184 24.8782 38.7592 23.8609 37.8955 22.8774L37.5067 22.432C33.4371 17.8291 28.8587 13.4951 23.887 9.53198H23.8848C23.9639 9.45963 24.0408 9.39181 24.1222 9.32625C24.511 8.98939 24.9067 8.65705 25.3023 8.32698C25.6867 8.00595 26.0733 7.68944 26.4622 7.37745C26.8963 7.02477 27.3304 6.67887 27.769 6.33749C28.4066 5.83785 29.0487 5.35178 29.693 4.87023C30.4414 4.3186 31.192 3.77601 31.9471 3.24925C32.1506 3.10456 32.3564 2.96439 32.5621 2.82422C33.1951 2.39015 33.8327 1.96512 34.4725 1.54688C34.9293 1.85434 35.3679 2.21381 35.7703 2.61623L44.4567 11.3022C46.071 12.9119 46.9957 15.1478 46.9957 17.4267L46.9889 17.4289Z" fill="#008F36"/>
<path d="M33.5161 0.998266C33.3555 1.10678 33.1927 1.21304 33.0322 1.32156C32.892 1.41199 32.7519 1.50694 32.6117 1.6019C32.2273 1.86415 31.8385 2.12866 31.4519 2.39543C28.94 4.14302 26.4734 6.04209 24.0858 8.06323C23.6518 8.42948 23.2199 8.80251 22.7926 9.1778C22.6457 9.30441 22.4987 9.43553 22.3517 9.56666C17.7418 13.6406 13.4076 18.2164 9.45106 23.1834C8.98983 22.6498 8.53313 22.1118 8.08547 21.5692C7.92269 21.377 7.76217 21.1803 7.60616 20.9836C5.37466 18.2549 3.32402 15.447 1.47461 12.5939C1.78435 12.1327 2.14157 11.6963 2.53723 11.3007L11.2213 2.61699C12.856 0.98018 15.031 0.078125 17.3484 0.078125H29.6341C30.9838 0.078125 32.3133 0.394636 33.5161 0.998266Z" fill="#008F36"/>
<path d="M23.8775 9.52769H23.8797C23.9588 9.45987 24.0357 9.38978 24.1148 9.32422C24.0335 9.38978 23.9543 9.4576 23.8775 9.52769ZM9.0957 24.2703L9.48458 24.7157H9.48684C9.35345 24.5665 9.22231 24.4195 9.0957 24.2703Z" fill="white"/>
<path d="M45.5134 34.5476C45.38 34.7443 45.2466 34.9297 45.1109 35.0992C44.9075 35.3547 44.6859 35.6056 44.444 35.843L35.7599 44.529C35.1562 45.1303 34.4666 45.6435 33.7115 46.0482C32.4567 46.7152 31.0482 47.0678 29.6306 47.0678H17.3449C16.1421 47.0678 14.9302 46.8101 13.8292 46.3195C13.7048 46.263 13.5805 46.2042 13.4629 46.1454C14.0078 45.786 14.5481 45.4243 15.0862 45.0512C15.2987 44.9065 15.5067 44.7596 15.717 44.6126C15.8843 44.4973 16.0494 44.3798 16.2167 44.2599C16.445 44.0994 16.6711 43.9389 16.8972 43.7739H16.8995C17.1278 43.6111 17.3539 43.4438 17.58 43.2765C18.2786 42.7633 18.975 42.2388 19.6645 41.6985C19.868 41.5447 20.067 41.3887 20.2659 41.2282C20.9329 40.706 21.5931 40.1702 22.2465 39.6253C22.4613 39.4467 22.6806 39.2636 22.8976 39.0805C23.3294 38.7188 23.7635 38.348 24.1886 37.9704C24.1954 37.9682 24.1976 37.9614 24.2044 37.9569C24.2067 37.9569 24.2112 37.9546 24.2135 37.9501L24.2293 37.9343C25.9611 36.4195 27.6568 34.8347 29.2643 33.2228C29.5447 32.9447 29.8227 32.6598 30.1031 32.3727L30.1257 32.3501C32.7099 29.7072 35.2014 26.888 37.5347 23.9648C37.7427 24.2067 37.9529 24.4487 38.1587 24.6928C38.3124 24.8714 38.4662 25.0523 38.6154 25.2354C38.9749 25.6627 39.3276 26.0945 39.6803 26.5286C40.4648 27.4985 41.229 28.4819 41.9728 29.4789C42.1695 29.7434 42.3639 30.0079 42.5584 30.2724C42.8546 30.6749 43.1462 31.0818 43.4333 31.4887C43.6753 31.8256 43.9104 32.1647 44.1433 32.5038C44.3784 32.8407 44.6068 33.1798 44.8351 33.5235C45.0635 33.8626 45.2895 34.204 45.5111 34.5453L45.5134 34.5476Z" fill="#008F36"/>
<path d="M46.5117 34.8024L46.5863 34.6916V34.6758C46.5637 34.7187 46.5366 34.7617 46.5117 34.8024Z" fill="white"/>
<path d="M23.1038 37.6152C23.0247 37.6831 22.9478 37.7486 22.8687 37.8187C22.5454 38.0968 22.2175 38.3749 21.892 38.6484C21.8422 38.6914 21.7947 38.7298 21.745 38.7728C21.4353 39.0282 21.1278 39.286 20.8135 39.5369C20.696 39.6319 20.5784 39.7291 20.4586 39.824C20.0493 40.1541 19.6424 40.4774 19.2309 40.7984C18.8285 41.1127 18.4238 41.4247 18.0145 41.7321C16.2149 43.0954 14.379 44.384 12.5205 45.5936C12.0571 45.2838 11.623 44.9244 11.2228 44.5287L2.53642 35.8428C0.89953 34.206 0.00195312 32.0266 0.00195312 29.7138V17.4286C0.00195312 16.0857 0.316218 14.7564 0.919878 13.5469C1.89432 15.0277 2.91851 16.4972 3.9947 17.9464C4.17105 18.1838 4.34966 18.4234 4.53053 18.6608C4.70914 18.8982 4.89228 19.1378 5.07541 19.3729C5.25854 19.6103 5.44167 19.8477 5.62707 20.0828C5.8102 20.3202 5.99559 20.5576 6.18551 20.7927C6.3709 21.0278 6.56082 21.2629 6.75299 21.4958C6.94291 21.7309 7.13509 21.9638 7.32726 22.1944C7.90153 22.893 8.49389 23.587 9.09529 24.2721C9.2219 24.419 9.35303 24.566 9.48642 24.7129C13.5628 29.3249 18.1411 33.6611 23.1038 37.6175V37.6152Z" fill="#008F36"/>
</g>
<defs>
<clipPath id="clip0_1092_13996">
<rect width="46.9882" height="46.9882" fill="white" transform="translate(0 0.078125)"/>
</clipPath>
</defs>
</svg>
