<svg width="172" height="60" viewBox="0 0 172 60" fill="none" xmlns="http://www.w3.org/2000/svg">
<path d="M29.8 10V32.8H24.8V10H29.8Z" fill="#34E834"/>
<path d="M7.09998 25.2V32.5999H2.09998V25.2C2.09998 25.2 7.09998 25.2 7.09998 25.2Z" fill="white"/>
<path d="M14.6 16.4V32.6H9.59998V16.4H14.6Z" fill="white"/>
<path d="M22 21.5V32.8H17V21.5H22Z" fill="white"/>
<path d="M52.7 24.1C52.2 29.7 48.8 33.4 42.6 33.4C36 33.4 31.6 28.6 31.6 21.5C31.6 14.9 35.8 9.59998 42.7 9.59998C48.2 9.59998 52.1 13 52.5 17.8H47.7C47.2 15.3 45.3 13.9 42.6 13.9C38.3 13.9 36.6 17.8 36.6 21.7C36.6 26.4 38.9 29.4 42.6 29.4C45.6 29.4 47.4 27.6 47.8 24.3H52.7V24.1Z" fill="#34E834"/>
<path d="M57.4 32.5999V9.79993H64.4L69.7 25.3999L74.9 9.79993H81.8V32.5999H77.1V16.3999L71.5 32.4999H67.7L62.1 16.5999V32.4999H57.4V32.5999Z" fill="white"/>
<path d="M99.1 32.7C99.1 30.9 99.1 29.6 99.1 28.7V21.1C99.1 16.5 95.4 15.7 92.1 15.7H92C87.2 15.7 84.7 17.6 84.4 21.3H88.6C88.9 19.4 89.7 18.8 91.8 18.8C93.8 18.8 94.8 19.5 94.8 21C94.8 22.3 93.8 22.6 90.9 23L90.2 23.1C87.1 23.5 83.7 24.2 83.7 28.3C83.7 31.4 85.9 33.2999 89.6 33.2999C91.6 33.2999 93.5 32.7 94.9 31.2V32.7999H99.1V32.7ZM94.7 24.7V26.6C94.7 29 93 30.2 90.7 30.2C89.1 30.2 88.2 29.4 88.2 28C88.2 26 90 25.8 91.5 25.5C92.7 25.3 93.7 25.3 94.7 24.7Z" fill="white"/>
<path d="M105.1 32.7V22.4C105.1 21.4 105.9 20.4 107.1 20.4H111.2V16H107C103.5 16 100.7 18.9 100.7 22.4V32.6C100.7 32.7 105.1 32.7 105.1 32.7Z" fill="white"/>
<path d="M148.9 9.90002V16H153.9V20.4H148.9V26.2C148.9 27.2 149.7 28.2 150.9 28.2H154V32.6H150.9C147.4 32.6 144.6 29.7 144.6 26.2V9.90002H148.9Z" fill="white"/>
<path d="M127.7 16.0999L121.5 22.1999L128.4 32.4999H123L118.4 25.1999L116.5 26.9999V32.5999H112.1V9.79993H116.5V21.9999L122.3 16.0999H127.7Z" fill="white"/>
<path d="M142.9 27.4999H138.6C138 29.1999 136.9 29.8999 135.3 29.8999C132.9 29.8999 131.5 28.2999 131.5 25.5999H143.3V25.1999C143.3 19.3999 140.2 15.7999 135.2 15.7999C130.4 15.7999 126.9 19.4999 126.9 24.5999C126.9 29.7999 130.2 33.1999 135.3 33.1999C139 33.0999 141.9 30.9999 142.9 27.4999ZM138.6 22.5999H131.5C131.7 20.2999 133.2 18.8999 135.1 18.8999C137.4 18.8999 138.5 20.6999 138.6 22.5999Z" fill="white"/>
<path d="M169.4 20.9H165.2C165 19.1 163.9 18.6 162.1 18.6C160.5 18.6 159.5 19.2 159.5 20.3C159.5 21.4 160.5 21.7 162.5 22.2L164.1 22.5C166.9 23.1 170 23.9 170 27.5C170 30.9 167.2 33.1 162.6 33.1C158.5 33.1 154.9 31.4 154.9 27.3H159.1C159.3 29.3 160.5 30.1 162.6 30.1C164.5 30.1 165.6 29.3 165.6 28C165.6 26.7 164.4 26.3 162.1 25.8L161.7 25.7C158.8 25.1 155.2 24.6 155.2 20.7C155.2 17.5 157.8 15.6 162.3 15.6C166.1 15.7 169.3 17.1 169.4 20.9Z" fill="white"/>
<path d="M47.648 55V45.004H48.978V55H47.648ZM59.573 48.014H58.243C57.963 46.6 56.829 45.886 55.443 45.886C53.063 45.886 52.055 47.846 52.055 49.932C52.055 52.214 53.063 54.118 55.457 54.118C57.207 54.118 58.215 52.886 58.341 51.234H59.671C59.419 53.726 57.865 55.238 55.345 55.238C52.237 55.238 50.725 52.942 50.725 50.03C50.725 47.132 52.377 44.766 55.457 44.766C57.543 44.766 59.265 45.886 59.573 48.014ZM65.243 55V45.004H67.063L70.213 53.404L73.377 45.004H75.197V55H73.937V46.684H73.909L70.787 55H69.653L66.531 46.684H66.503V55H65.243ZM81.6944 52.48V51.262C81.2324 51.598 80.3364 51.612 79.5384 51.752C78.7544 51.892 78.0824 52.172 78.0824 53.054C78.0824 53.838 78.7544 54.118 79.4824 54.118C81.0504 54.118 81.6944 53.138 81.6944 52.48ZM83.6264 54.048V54.972C83.4164 55.098 83.1504 55.168 82.7724 55.168C82.1564 55.168 81.7644 54.832 81.7644 54.048C81.1064 54.818 80.2244 55.168 79.2164 55.168C77.9004 55.168 76.8224 54.58 76.8224 53.138C76.8224 51.5 78.0404 51.15 79.2724 50.912C80.5884 50.66 81.7084 50.744 81.7084 49.848C81.7084 48.812 80.8544 48.644 80.0984 48.644C79.0904 48.644 78.3484 48.952 78.2924 50.016H77.1024C77.1724 48.224 78.5584 47.594 80.1684 47.594C81.4704 47.594 82.8844 47.888 82.8844 49.582V53.306C82.8844 53.866 82.8844 54.118 83.2624 54.118C83.3604 54.118 83.4724 54.104 83.6264 54.048ZM84.6919 55V47.762H85.8119V49.288H85.8399C86.4139 48.126 87.2119 47.552 88.4999 47.594V48.854C86.5819 48.854 85.8819 49.946 85.8819 51.78V55H84.6919ZM89.466 55V45.004H90.656V50.926L93.96 47.762H95.556L92.686 50.394L95.766 55H94.254L91.776 51.22L90.656 52.256V55H89.466ZM101.654 52.704H102.83C102.508 54.3 101.36 55.168 99.7358 55.168C97.4258 55.168 96.3338 53.572 96.2638 51.36C96.2638 49.19 97.6918 47.594 99.6658 47.594C102.228 47.594 103.012 49.988 102.942 51.738H97.5238C97.4818 52.998 98.1958 54.118 99.7778 54.118C100.758 54.118 101.444 53.642 101.654 52.704ZM97.5238 50.688H101.682C101.626 49.554 100.772 48.644 99.5958 48.644C98.3498 48.644 97.6078 49.582 97.5238 50.688ZM105.827 45.592V47.762H107.269V48.812H105.827V53.306C105.827 53.852 105.981 53.95 106.723 53.95H107.269V55H106.359C105.127 55 104.637 54.748 104.637 53.418V48.812H103.405V47.762H104.637V45.592H105.827ZM108.129 52.718H109.319C109.361 53.782 110.285 54.118 111.265 54.118C112.007 54.118 113.015 53.95 113.015 53.04C113.015 52.116 111.839 51.962 110.649 51.696C109.473 51.43 108.283 51.038 108.283 49.652C108.283 48.196 109.725 47.594 110.985 47.594C112.581 47.594 113.855 48.098 113.953 49.862H112.763C112.679 48.938 111.867 48.644 111.083 48.644C110.369 48.644 109.543 48.84 109.543 49.568C109.543 50.422 110.803 50.562 111.909 50.828C113.099 51.094 114.275 51.486 114.275 52.886C114.275 54.608 112.665 55.168 111.195 55.168C109.571 55.168 108.199 54.51 108.129 52.718ZM122.358 57.772H121.448C120.104 55.672 119.25 53.67 119.25 51.22C119.25 49.036 120.02 46.67 121.448 44.766H122.358C121.028 46.866 120.51 48.952 120.51 51.22C120.51 53.572 121.028 55.63 122.358 57.772ZM123.307 55V45.004H130.209V46.124H124.637V49.302H129.831V50.422H124.637V53.88H130.251V55H123.307ZM139.845 45.004V51.388C139.845 53.908 138.403 55.238 135.911 55.238C133.335 55.238 131.809 54.048 131.809 51.388V45.004H133.139V51.388C133.139 53.152 134.147 54.118 135.911 54.118C137.591 54.118 138.515 53.152 138.515 51.388V45.004H139.845ZM141.647 57.772H140.737C142.067 55.672 142.585 53.586 142.585 51.318C142.585 48.966 142.067 46.908 140.737 44.766H141.647C142.991 46.866 143.845 48.868 143.845 51.318C143.845 53.502 143.075 55.868 141.647 57.772ZM149.488 55V45.004H150.818V53.88H156.11V55H149.488ZM158.724 45.592V47.762H160.166V48.812H158.724V53.306C158.724 53.852 158.878 53.95 159.62 53.95H160.166V55H159.256C158.024 55 157.534 54.748 157.534 53.418V48.812H156.302V47.762H157.534V45.592H158.724ZM167.956 45.004V55H166.766V54.02H166.738C166.346 54.818 165.422 55.168 164.428 55.168C162.202 55.168 161.096 53.404 161.096 51.36C161.096 49.316 162.188 47.594 164.4 47.594C165.142 47.594 166.206 47.874 166.738 48.728H166.766V45.004H167.956ZM162.356 51.444C162.356 52.802 163.056 54.118 164.596 54.118C166.192 54.118 166.808 52.746 166.808 51.388C166.808 49.96 166.164 48.644 164.526 48.644C162.902 48.644 162.356 50.03 162.356 51.444Z" fill="white"/>
</svg>
