<svg viewBox="-6 -5 54 46" fill="none" xmlns="http://www.w3.org/2000/svg">
<rect x="-6" y="-5" width="54" height="46" rx="6" fill="#E01B1C"/>
<path d="M6.53932 0.840167V34.6698H0V0.840167H6.53932ZM27.6166 0C27.5589 0 27.5026 0.0007102 27.4449 0.0007102C22.8962 0.0411916 18.5675 1.82095 15.2565 5.0133C11.9456 8.20565 10.0162 12.4597 9.82537 16.9915C9.61883 21.8742 11.3737 26.5061 14.7651 30.0344C18.1601 33.5655 22.7231 35.51 27.6137 35.51C32.6318 35.51 37.7973 33.4774 41.1168 30.2005V15.172H26.9763V21.4331H34.7527V26.9414L34.6687 26.9968C32.7116 28.2837 30.1612 29.1154 27.613 29.1154C24.4616 29.1154 21.5274 27.8562 19.3516 25.5693C17.178 23.2853 16.0727 20.2947 16.2379 17.1478C16.537 11.4498 21.2532 6.73483 26.9749 6.41382C30.1548 6.23058 33.1866 7.53096 35.6031 9.84266C35.6885 9.92504 35.7861 10.0273 35.8979 10.1544L40.4324 5.6326C40.3313 5.52394 40.2323 5.41883 40.1383 5.32082C36.9135 1.9637 32.5115 0 27.6166 0Z" fill="#ffffff"/>
</svg>
