<svg version="1.2" xmlns="http://www.w3.org/2000/svg" viewBox="0 0 1507 219" width="1507" height="219">
	<title>Interactive_Brokers_Logo_(2014)-svg</title>
	<defs>
		<linearGradient id="g1" x1="95.4" y1="163.1" x2=".2" y2="163.1" gradientUnits="userSpaceOnUse">
			<stop offset="0" stop-color="#d81222"/>
			<stop offset="1" stop-color="#960b1a"/>
		</linearGradient>
	</defs>
	<style>
		.s0 { fill: #ffffff } 
		.s1 { fill: url(#g1) } 
		.s2 { fill: #d81222 } 
	</style>
	<g id="layer1">
		<g id="g9910">
			<path id="path9659" fill-rule="evenodd" class="s0" d="m160.2 98.7h24.1v116.8h-24.1zm114.9 35.2c5.7 4.7 8.4 12.4 8.4 23.2v58.4h-23.1v-52.4c0-4.7-0.7-8.1-1.7-10.4-2.3-4.4-6.3-6.7-12.7-6.7-7.7 0-12.7 3.3-15.8 9.7-1.3 3.4-2.3 7.7-2.3 13.1v47h-22.5v-86.6h21.8v12.8c3-4.4 5.7-7.8 8.1-9.8 4.7-3.3 10.4-5.3 17.7-5.3q13.6 0 22.1 7zm19.5 12.1v-16.1h12.1v-24.2h22.4v24.2h14.1v16.1h-14.1v45.6c0 3.7 0.3 5.7 1.3 6.7 1.1 1 3.7 1.4 8.4 1.4 0.7 0 1.4 0 2.4 0 0.6 0 1.6 0 2.3 0v16.8l-11.4 0.3c-10.7 0.3-18.1-1.3-21.8-5.7-2.6-2.7-3.6-6.7-3.6-12.1v-53zm117.9-15.1c6.1 2.7 11.1 7 15.1 12.7 3.7 5.1 5.7 11.1 7 17.8 0.7 4 1 9.8 0.7 17.1h-63q0.5 13.1 9.1 18.2c3.3 2 7.7 3.3 12.4 3.3 5 0 9.3-1.3 12.4-4 1.6-1.4 3.3-3.4 4.6-6.1h23.2c-0.7 5.1-3.4 10.5-8.4 15.8-7.7 8.4-18.4 12.8-32.5 12.8-11.4 0-21.8-3.7-30.5-10.8-8.7-7-13.1-18.8-13.1-34.5 0-15.1 4-26.5 12.1-34.6 8-8.1 18.1-12.1 30.8-12.1 7.4 0.4 14.1 1.7 20.1 4.4zm-33.8 19.4c-3.4 3.4-5.4 7.8-6.1 13.5h38.9c-0.3-6.1-2.3-10.4-6-13.8-3.7-3-8.1-4.7-13.4-4.7-5.7 0-10.1 1.7-13.4 5zm117.6-23.1q0.5 0 2 0v23.1c-1.3 0-2.7-0.3-3.7-0.3-1 0-2 0-2.7 0-9 0-15 3-18.4 8.7-1.7 3.4-2.7 8.4-2.7 15.5v41.3h-22.8v-86.3h21.5v15.1c3.3-5.7 6.4-9.7 9-11.7 4.4-3.7 9.8-5.4 16.5-5.4 0.6-0.3 1-0.3 1.3 0zm49.3 35.9q6.5-1 9-2c3.4-1.4 5-3.4 5-6.4 0-3.7-1.3-6-3.6-7.4q-3.6-2-11.1-2c-5.4 0-9.4 1.4-11.4 4-1.7 2.1-2.7 4.7-3.3 8.1h-21.8c0.3-7.7 2.7-13.8 6.3-18.8 6.1-7.7 16.5-11.4 30.9-11.4 9.4 0 18.1 2 25.4 5.7q11.1 5.5 11.1 21.1c0 2.7 0 45.7 0 49.7 0 3 0.7 5 1.3 6 0.7 1.1 2.1 2.1 3.4 2.7v3.4h-24.5c-0.6-1.7-1-3.4-1.3-5-0.3-1.7-0.3-3.4-0.7-5.4-3 3.3-6.7 6.4-10.7 8.7-5 2.7-10.4 4.4-16.8 4.4-7.7 0-14.4-2.4-19.4-6.7-5-4.4-7.7-10.8-7.7-19.2 0-10.7 4-18.4 12.4-23.1 4.7-2.7 11-4.4 20.1-5.7zm13.7 10.4c-1.3 1-3 1.7-4.3 2.3-1.4 0.7-3.4 1-6.1 1.7l-5 1c-4.7 1-8.4 2-10.4 3-3.7 2-5.3 5.4-5.3 9.8 0 4 1 6.7 3.3 8.4 2 1.6 4.7 2.6 8.1 2.6 5 0 9.3-1.3 13.7-4.3 4-3 6.4-8.1 6.4-15.8v-8.7zm93.5-13.4c-0.4-3.4-1.4-6.1-3.4-8.8-2.7-3.3-6.3-5.3-11.7-5.3-7.7 0-12.7 3.6-15.8 11.4-1.3 4-2.3 9.4-2.3 16.1 0 6.4 0.7 11.4 2.3 15.4 2.7 7.1 7.8 10.8 15.5 10.8 5.3 0 9-1.4 11.4-4.4q3.5-4.5 4-11.1h23.1c-0.7 7.1-3 13.4-7.4 19.5-7 9.7-17.4 14.7-31.5 14.7-14.1 0-24.1-4-30.8-12.4-6.7-8.4-9.7-19.1-9.7-32.2 0-14.8 3.7-26.5 10.7-34.6 7.4-8.3 17.1-12.4 30.2-12.4 10.7 0 19.7 2.4 26.4 7.4 6.7 5 11.1 13.4 12.4 25.9zm30.5-14.1v-16.2h12.1v-24.1h22.5v24.1h14v16.2h-14v45.6c0 3.7 0.3 5.7 1.3 6.7 1 1 3.7 1.4 8.4 1.4 0.6 0 1.3 0 2.3 0 0.7 0 1.7 0 2.4 0v16.7l-11.1 0.4c-10.7 0.3-18.1-1.4-21.8-5.7-2.7-2.7-3.7-6.7-3.7-12.1v-53zm86.5-27.2h-22.8v-20.8h22.8zm-23.1 10.4h22.8v86.6h-22.8zm96.5 0h24.1l-31.1 86.5h-23.8l-30.9-86.5h25.5l18.1 63.7zm90.1 1.7c6.1 2.7 11.1 7 15.1 12.7 3.7 5.1 5.7 11.1 7.1 17.8 0.6 4.1 1 9.8 0.6 17.2h-63q0.5 13 9.1 18.1c3.3 2 7.7 3.3 12.4 3.3 5 0 9.4-1.3 12.4-4 1.7-1.3 3.3-3.4 4.7-6h23.1c-0.7 5-3.4 10.4-8.4 15.7-7.7 8.4-18.4 12.8-32.5 12.8-11.4 0-21.8-3.7-30.5-10.7-8.7-7.1-13.1-18.8-13.1-34.6 0-15.1 4.1-26.5 12.1-34.6 8.1-8 18.1-12.1 30.8-12.1 7.4 0.4 14.1 1.7 20.1 4.4zm-33.8 19.5c-3.4 3.3-5.4 7.7-6 13.4h38.8c-0.3-6.1-2.3-10.4-6-13.8-3.7-3-8-4.7-13.4-4.7-5.7 0-10 1.7-13.4 5.1zm121.7-51.4q20.6 0 29.1 12.1c3.4 4.7 5 10.4 5 16.8 0 7.4-2 13.4-6.3 18.1-2 2.3-5.4 4.7-9.4 6.7 6 2.4 10.4 4.7 13.4 7.7 5.4 5.1 7.7 12.1 7.7 21.2 0 7.4-2.3 14.4-7 20.4-7.1 9.1-18.5 13.8-33.9 13.8h-49.6v-116.8zm-5.7 49.3c6.7 0 12.1-1 15.8-2.6 6-3.1 8.7-8.1 8.7-15.8 0-7.7-3-12.8-9.4-15.4-3.7-1.4-8.7-2.4-15.8-2.4h-28.4v36.2zm5.3 53.7c9.7 0 16.8-2.6 20.8-8.3 2.7-3.7 4-7.8 4-12.8 0-8.4-3.7-14.1-11.4-17.4-4-1.7-9.4-2.4-16.1-2.4h-31.5v40.9zm57.3-71.4h13.5v14.7c1-3 3.6-6.3 8-10.4q6.5-6 15.1-6c0.3 0 0.6 0 1.3 0 0.7 0 1.7 0 3.4 0.3v15.1c-1 0-1.7-0.3-2.4-0.3-0.6 0-1.3 0-2.3 0-7.1 0-12.8 2.3-16.4 7-4.1 4.7-5.7 10.1-5.7 16.1v49h-14.5zm114.3 8.4c7.4 7.4 11.4 18.2 11.4 32.2 0 13.8-3.3 25.2-10 33.9-6.7 9.1-16.8 13.5-30.9 13.5-11.7 0-20.7-4.1-27.4-11.8-6.7-8-10.4-18.4-10.4-31.9 0-14.4 3.7-25.5 10.7-34.2 7-8.4 16.7-12.7 28.8-12.7 11.1 0.3 20.1 4 27.8 11zm-9 56.7c3.3-7 5.3-15.1 5.3-23.8 0-8-1.3-14.4-3.6-19.4-4.1-7.8-10.8-11.8-20.5-11.8-8.7 0-14.7 3.4-18.8 10.1q-6 10-6 24.1c0 9.1 2 16.5 6 22.5 4.1 6.1 10.1 9.1 18.8 9.1 9.1 0 15.4-3.7 18.8-10.8zm36.2-96.6h13.7v67.8l36.5-36.3h18.1l-32.5 31.6 34.6 53.3h-18.1l-26.9-43.2-11.7 11.4v31.8h-13.7zm129.7 33.9c5.7 2.7 10 6.4 12.7 11.1 2.7 4.4 4.7 9.4 5.7 15.1 1 4 1.3 10.1 1.3 18.8h-61.6c0.3 8.7 2.3 15.5 6 20.8 3.7 5.4 9.7 7.7 17.4 7.7 7.4 0 13.4-2.3 17.8-7.3 2.4-3.1 4.4-6.1 5.4-10.1h14c-0.3 3-1.6 6.7-3.6 10.4-2.1 3.7-4.4 7-7.1 9.4-4.3 4.4-9.7 7-16.1 8.7-3.3 1-7.3 1.4-11.7 1.4-10.4 0-19.4-3.7-26.8-11.5q-11.1-11.5-11.1-32.2 0-20.6 11.1-33.2c7.4-8.4 17.1-12.7 28.8-12.7 6.4-0.7 12.1 1 17.8 3.6zm5.3 33.6c-0.6-6-2-11.1-4-14.8-4-7-10.4-10.4-19.4-10.4-6.4 0-12.1 2.4-16.4 7.1q-6.6 7-7.1 18.1zm31.5-35.9h13.4v14.8c1-3.1 3.7-6.4 8.1-10.4q6.5-6.1 15.1-6.1c0.3 0 0.6 0 1.3 0 0.7 0 1.7 0 3.3 0.4v15.1c-1 0-1.6-0.4-2.3-0.4-0.7 0-1.3 0-2.3 0-7.1 0-12.8 2.4-16.5 7.1-4 4.7-5.7 10-5.7 16.1v49h-14.4zm62.4 58.4c0.3 4.7 1.6 8.4 3.6 11q5.6 7.1 19.1 7.1c5.4 0 10.1-1 14.5-3.4 4-2.3 6-5.7 6-10.7 0-3.7-1.7-6.4-5-8.4-2-1-6.4-2.3-12.4-4l-11.4-3c-7.4-1.7-12.8-3.7-16.5-6.1-6.3-4-9.3-9-9.3-16.1 0-8 3-14.4 8.7-19.5 5.7-5 13.7-7.3 23.8-7.3 13 0 22.4 3.7 28.1 11.4 3.7 4.7 5.4 10 5.4 15.4h-13.4c-0.4-3.3-1.4-6-3.4-8.7-3.3-3.7-9-5.7-17.4-5.7-5.4 0-9.7 1-12.4 3-2.7 2-4.4 4.7-4.4 8.1 0 3.6 2.1 6.7 5.7 8.7 2.1 1.3 5.4 2.3 9.4 3.3l9.7 2.4c10.4 2.3 17.5 5 21.2 7.4 5.7 3.7 8.3 9.4 8.3 17.1 0 7.7-3 14.1-8.7 19.4-5.7 5.4-14.7 8.4-26.5 8.4-12.7 0-21.7-3-27.1-8.7-5.4-5.7-8-12.7-8.7-21.5h13.1z"/>
			<path id="polygon9702" class="s1" d="m0.3 215.5v-104.7l95.2 104.7z"/>
			<path id="circle9704" class="s2" d="m82.1 164.8c-15.7 0-28.5-12.8-28.5-28.5 0-15.8 12.8-28.6 28.5-28.6 15.8 0 28.5 12.8 28.5 28.6 0 15.7-12.7 28.5-28.5 28.5z"/>
			<path id="polygon9706" class="s2" d="m95.5 0.3l-95.2 215.2v-104.7z"/>
		</g>
	</g>
</svg>