<?xml version="1.0" encoding="utf-8"?>
<!-- Generator: Adobe Illustrator 24.2.0, SVG Export Plug-In . SVG Version: 6.00 Build 0)  -->
<svg version="1.1" id="logo" xmlns="http://www.w3.org/2000/svg" xmlns:xlink="http://www.w3.org/1999/xlink" x="0px" y="0px"
	 viewBox="20 188 470 130" xml:space="preserve">
<style type="text/css">
	.st0{fill:url(#orange_1_);}
	.st1{fill:#FFFFFF;}
	.st2{fill:#FFFFFF;}
</style>
<g>
	
		<linearGradient id="orange_1_" gradientUnits="userSpaceOnUse" x1="-5538.1235" y1="434.6999" x2="-5538.1235" y2="435.8479" gradientTransform="matrix(98.4615 0 0 -98.4615 545379.6875 43113.7383)">
		<stop  offset="0" style="stop-color:#FF5208"/>
		<stop  offset="1" style="stop-color:#FFA408"/>
	</linearGradient>
	<path id="orange" class="st0" d="M117.1,199.5c16.5,0,27,10.4,27,27v59.1c0,16.5-10.4,27-27,27H58c-16.5,0-27-10.9-27-27v-59.1
		c0-16.5,10.4-27,27-27H117.1z"/>
	<path id="sign" class="st1" d="M48,276.4v-12.2L66.7,246h32.2l27.8-28.7v12.2l-24.3,24.3H70.6L48,276.4L48,276.4z M48,296v-12.2
		L72.7,259h32.2l22.2-22.2V249l-18.7,18.3H76.2L48,296L48,296z"/>
	<path id="lab" class="st2" d="M180.6,277.3h27.8v8.7h-38.3v-60.9h10.4C180.6,225.1,180.6,277.3,180.6,277.3z M227.1,285.6h-10
		v-45.2h10V285.6z M216.2,228.6c0-1.3,0.4-3,1.3-3.9c0.9-0.9,2.6-1.3,4.3-1.3s3.5,0.4,4.3,1.3s1.3,2.2,1.3,3.9c0,1.3-0.4,3-1.3,3.9
		s-2.6,1.3-4.3,1.3s-3.5-0.4-4.3-1.3C216.7,231.7,216.2,230.3,216.2,228.6L216.2,228.6z M278.4,265.1c0,7-1.3,11.3-4.8,15.2
		c-3.5,3.9-7.4,6.1-13,6.1c-5.2,0-9.6-1.7-12.2-5.7v5.2h-9.1v-64.3h10v23.5c3-3.5,7-5.2,11.7-5.2c5.7,0,10,1.7,13,6.1
		C277.5,251.2,278.4,259.5,278.4,265.1z M265.8,251.7c-1.7-2.6-4.3-3.5-7.4-3.5c-4.3,0-7.4,1.7-9.1,5.7v18.7
		c1.7,3.9,4.8,6.1,9.6,6.1c3,0,5.7-1.3,7.4-3.5s2.6-6.1,2.6-10.9C268.8,264.3,268.8,255.1,265.8,251.7z M308,286.4
		c-6.5,0-11.7-1.7-15.7-6.1c-3.9-4.3-6.1-9.6-6.1-16.1V263c0-4.3,0.9-8.7,2.6-12.2c1.7-3.5,4.3-6.1,7.4-8.3c3-2.2,6.5-3,10.4-3
		c6.1,0,10.9,1.7,14.3,6.1c3.5,3.9,4.8,9.6,4.8,16.5v3.9h-29.6c0.4,3.9,1.3,6.5,3.9,9.1c2.2,2.2,4.8,3.5,8.3,3.5
		c4.8,0,8.7-1.7,11.3-5.7l5.7,5.2c-1.7,2.6-4.3,4.8-7.4,6.1C314.9,286,311.9,286.4,308,286.4L308,286.4z M306.7,247.7
		c-3,0-4.8,0.9-7,3c-1.7,1.7-3,4.8-3.5,8.3h19.6v-0.9c0-3.5-1.3-6.1-2.6-7.8C311.9,248.6,309.7,247.7,306.7,247.7L306.7,247.7z
		 M358.4,249.9c-1.3,0-2.6-0.4-4.3-0.4c-4.8,0-7.8,1.7-9.6,5.2v30.9h-10v-45.2h10l0.4,5.2c2.6-3.9,5.7-6.1,10.4-6.1
		c1.3,0,2.6,0,3.5,0.4L358.4,249.9z M380.6,229.5v10.9h7.8v7.4h-7.8v25.7c0,1.7,0.4,3,0.9,3.9s1.7,1.3,3.5,1.3c1.3,0,2.2,0,3.5-0.4
		v7.8c-2.2,0.4-4.3,0.9-6.5,0.9c-7.8,0-11.7-4.3-11.7-13v-25.7h-7.4v-7.4h7.4v-11.3H380.6L380.6,229.5L380.6,229.5z M417.1,286.4
		c-6.5,0-11.7-1.7-15.7-6.1c-3.9-4.3-6.1-9.6-6.1-16.1V263c0-4.3,0.9-8.7,2.6-12.2s4.3-6.1,7.4-8.3c3-2.2,6.5-3,10.4-3
		c6.1,0,10.9,1.7,14.3,6.1c3.5,3.9,4.8,9.6,4.8,16.5v3.9h-29.6c0.4,3.9,1.3,6.5,3.9,9.1c2.2,2.2,4.8,3.5,8.3,3.5
		c4.8,0,8.7-1.7,11.3-5.7l5.7,5.2c-1.7,2.6-4.3,4.8-7.4,6.1C424.5,286,421,286.4,417.1,286.4L417.1,286.4z M416.2,247.7
		c-3,0-4.8,0.9-7,3c-1.7,1.7-3,4.8-3.5,8.3h19.6v-0.9c0-3.5-1.3-6.1-2.6-7.8C421,248.6,418.8,247.7,416.2,247.7L416.2,247.7z
		 M460.6,255.6l8.7-14.8h11.3L466.7,263l14.3,23h-10.9l-9.1-15.2l-9.1,15.2h-11.3l14.3-23L441,240.8h11.3L460.6,255.6z"/>
</g>
</svg>
