<svg width="152" height="29" viewBox="0 0 152 29" fill="none" xmlns="http://www.w3.org/2000/svg">
<g clip-path="url(#clip0_5205_3306)">
<path d="M50.332 14.7543V22.6912C50.332 22.9964 50.533 23.1999 50.8343 23.1999H53.0445C53.3459 23.1999 53.5468 22.9964 53.5468 22.6912V14.042C53.5468 12.821 54.5515 11.8034 55.757 11.8034C56.9626 11.8034 57.9672 12.821 57.9672 14.042V22.6912C57.9672 22.9964 58.1681 23.1999 58.4695 23.1999H60.6797C60.9811 23.1999 61.182 22.9964 61.182 22.6912V14.7543C61.182 11.8034 58.8714 9.36133 55.9579 9.36133H55.757C52.6427 9.46308 50.332 11.8034 50.332 14.7543Z" fill="white"/>
<path d="M57.8667 14.8564V22.7932C57.8667 23.0985 58.0676 23.302 58.369 23.302H60.5792C60.8806 23.302 61.0815 23.0985 61.0815 22.7932V14.1441C61.0815 12.923 62.0861 11.9055 63.2917 11.9055C64.4972 11.9055 65.5019 12.923 65.5019 14.1441V22.7932C65.5019 23.0985 65.7028 23.302 66.0042 23.302H68.2144C68.5157 23.302 68.7167 23.0985 68.7167 22.7932V14.8564C68.7167 11.9055 66.406 9.46338 63.4926 9.46338H63.2917C60.2778 9.46338 57.9672 11.9055 57.8667 14.8564Z" fill="white"/>
<path d="M70.5249 16.2809V16.4844C70.5249 20.2493 73.5388 23.302 77.2559 23.302H77.6578C81.3749 23.302 84.3888 20.2493 84.3888 16.4844V16.2809C84.3888 12.516 81.3749 9.46338 77.6578 9.46338H77.2559C73.5388 9.46338 70.5249 12.516 70.5249 16.2809ZM77.3564 20.9616C75.3471 20.9616 73.6393 19.2318 73.6393 17.1967V15.7722C73.6393 13.7371 75.3471 12.0072 77.3564 12.0072C79.3656 12.0072 81.0735 13.7371 81.0735 15.7722V17.1967C81.0735 19.2318 79.4661 20.9616 77.3564 20.9616Z" fill="white"/>
<path d="M86.0967 16.3825V16.586C86.0967 20.3509 89.1106 23.4035 92.8277 23.4035H93.2295C96.9467 23.4035 99.9605 20.3509 99.9605 16.586V16.3825C99.9605 12.6176 96.9467 9.56494 93.2295 9.56494H92.8277C89.1106 9.56494 86.0967 12.6176 86.0967 16.3825ZM93.0286 20.9614C91.0194 20.9614 89.3115 19.2316 89.3115 17.1965V15.772C89.3115 13.7369 91.0194 12.007 93.0286 12.007C95.0379 12.007 96.7457 13.7369 96.7457 15.772V17.1965C96.7457 19.3334 95.0379 20.9614 93.0286 20.9614Z" fill="white"/>
<path d="M102.271 14.9579V22.8948C102.271 23.2 102.472 23.4035 102.773 23.4035H104.983C105.285 23.4035 105.486 23.2 105.486 22.8948V14.2456C105.486 13.0246 106.49 12.007 107.696 12.007C108.902 12.007 109.906 13.0246 109.906 14.2456V22.8948C109.906 23.2 110.107 23.4035 110.408 23.4035H112.619C112.92 23.4035 113.121 23.2 113.121 22.8948V14.9579C113.121 12.007 110.81 9.56494 107.897 9.56494H107.696C104.682 9.56494 102.371 12.007 102.271 14.9579Z" fill="white"/>
<path d="M109.906 14.9579V22.8948C109.906 23.2 110.107 23.4035 110.409 23.4035H112.619C112.92 23.4035 113.121 23.2 113.121 22.8948V14.2456C113.121 13.0246 114.126 12.007 115.331 12.007C116.537 12.007 117.541 13.0246 117.541 14.2456V22.8948C117.541 23.2 117.742 23.4035 118.044 23.4035H120.254C120.555 23.4035 120.756 23.2 120.756 22.8948V14.9579C120.756 12.007 118.446 9.56494 115.532 9.56494H115.331C112.317 9.6667 109.906 12.007 109.906 14.9579Z" fill="white"/>
<path d="M122.564 16.484V16.6876C122.564 20.4525 125.578 23.5051 129.295 23.5051H129.697C133.414 23.5051 136.428 20.4525 136.428 16.6876V16.484C136.428 12.7191 133.414 9.6665 129.697 9.6665H129.295C125.578 9.6665 122.564 12.7191 122.564 16.484ZM129.396 21.063C127.387 21.063 125.679 19.3332 125.679 17.2981V15.8735C125.679 13.8384 127.387 12.1086 129.396 12.1086C131.405 12.1086 133.113 13.8384 133.113 15.8735V17.2981C133.113 19.4349 131.506 21.063 129.396 21.063Z" fill="white"/>
<path d="M138.136 16.5861V16.7896C138.136 20.5545 141.15 23.6072 144.867 23.6072H145.269C148.986 23.6072 152 20.5545 152 16.7896V16.5861C152 12.8212 148.986 9.76855 145.269 9.76855H144.867C141.15 9.76855 138.136 12.8212 138.136 16.5861ZM145.068 21.165C143.059 21.165 141.351 19.4352 141.351 17.4001V15.9756C141.351 13.9405 143.059 12.2107 145.068 12.2107C147.077 12.2107 148.785 13.9405 148.785 15.9756V17.4001C148.785 19.4352 147.077 21.165 145.068 21.165Z" fill="white"/>
<path d="M0.502524 29H2.7127C2.91363 29 3.11455 28.8983 3.21502 28.6947L3.41594 28.3895C4.21964 26.8632 5.62612 25.8456 7.33399 25.6421L7.8363 25.5404C8.13769 25.5404 8.43907 25.3369 8.64 25.0316L16.2752 6.7158C16.3756 6.51229 16.1747 6.20703 15.9738 6.30879L15.5719 6.41054C11.0511 7.52984 7.93676 10.379 5.92751 14.2456L5.82705 14.4491L0.000210676 28.2877C-0.100252 28.593 0.100673 29 0.502524 29Z" fill="#FF6900"/>
<path d="M9.44344 28.9993H14.9689C15.0694 28.8976 15.1698 28.8976 15.2703 28.7958L16.1744 27.2695C20.8962 19.7397 31.9471 20.5537 35.4633 28.6941C35.5637 28.8976 35.6642 28.9993 35.8651 28.9993H39.7832C40.0846 28.9993 40.2855 28.7958 40.2855 28.4906L39.2808 17.7046C39.2808 17.5011 38.9795 17.5011 38.879 17.7046L37.9748 21.0625C37.8744 21.266 37.6734 21.4695 37.4725 21.3678L31.3443 20.5537C30.9425 20.452 30.5406 20.1467 30.3397 19.8414L28.23 14.7537C28.029 14.3467 28.3304 13.9397 28.7323 14.0414L32.3489 14.5502C32.5499 14.5502 32.7508 14.7537 32.7508 14.8555L33.3536 16.5853C33.454 16.7888 33.6549 16.7888 33.6549 16.5853L34.2577 14.3467C34.3582 14.0414 34.1573 13.7362 33.8559 13.7362L26.723 12.7186C21.5994 12.0063 20.6953 4.88354 25.417 2.95021L26.8235 2.33968C27.0244 2.23793 27.1249 2.44143 27.0244 2.64494L25.8189 4.68003C24.9147 6.3081 25.8189 8.34319 27.7276 8.64845L35.7647 9.76775C37.4725 9.97126 38.6781 8.24143 37.8744 6.71512L37.7739 6.10459C33.5545 -2.34102 21.5994 -1.934 17.9828 6.71512L17.7818 7.22389L8.94113 28.287C8.84067 28.5923 9.04159 28.9993 9.44344 28.9993Z" fill="#FF6900"/>
<path d="M39.7832 14.4489L40.4864 14.3472C43.8017 13.8384 45.1077 9.76821 42.8975 7.3261L41.5915 6.0033C41.4911 5.90154 41.1897 6.0033 41.2901 6.20681L41.8929 7.93663C42.1943 8.85242 41.7925 9.86996 40.9888 10.3787L39.7832 14.4489Z" fill="#FF6900"/>
</g>
<defs>
<clipPath id="clip0_5205_3306">
<rect width="152" height="29" fill="white"/>
</clipPath>
</defs>
</svg>
