<?xml version="1.0" encoding="utf-8"?>
<!-- Generator: Adobe Illustrator 22.1.0, SVG Export Plug-In . SVG Version: 6.00 Build 0)  -->
<svg version="1.1" id="Layer_1" xmlns="http://www.w3.org/2000/svg" xmlns:xlink="http://www.w3.org/1999/xlink" x="0px" y="0px"
	 viewBox="0 0 200 100" style="enable-background:new 0 0 200 100;" xml:space="preserve">
<style type="text/css">
	.st0{fill:#EC1B2E;}
	.st1{fill:#FFFFFF;}
</style>
<polygon class="st0" points="36.9,54.3 24.7,55.1 35.2,26 3.4,30.8 0,63.2 7.6,63 6.2,100 "/>
<path class="st0" d="M11.1,0.8L9.7,4.8c0,0,7,1.5,5.9,12.4L3.4,28.1l0,0l31.4-4.2L20,17C20,17,21.9,5,11.1,0.8"/>
<path class="st1" d="M55.8,74.6c-0.2-0.2-0.2-0.4-0.2-0.8V26.9c0-0.3,0.1-0.6,0.2-0.8c0.2-0.2,0.4-0.3,0.7-0.3h3.8
	c0.5,0,0.8,0.2,1.1,0.7l18.4,34.7c0.1,0.1,0.2,0.2,0.2,0.2c0.1,0,0.1-0.1,0.1-0.3V26.9c0-0.3,0.1-0.6,0.2-0.8
	c0.2-0.2,0.4-0.3,0.7-0.3h4c0.3,0,0.5,0.1,0.7,0.3c0.2,0.2,0.2,0.4,0.2,0.8v46.9c0,0.3-0.1,0.6-0.2,0.8c-0.2,0.2-0.4,0.3-0.7,0.3
	h-3.9c-0.5,0-0.8-0.2-1.1-0.7L61.6,39.3c-0.1-0.1-0.2-0.2-0.2-0.2c-0.1,0-0.1,0.1-0.1,0.3l0.1,34.4c0,0.3-0.1,0.6-0.2,0.8
	c-0.2,0.2-0.4,0.3-0.7,0.3h-4C56.1,74.9,55.9,74.8,55.8,74.6z"/>
<path class="st1" d="M120.5,74l-2.1-7.8c-0.1-0.2-0.2-0.3-0.3-0.3h-16.8c-0.1,0-0.2,0.1-0.3,0.3L98.9,74c-0.2,0.6-0.5,0.8-1,0.8
	h-4.3c-0.7,0-0.9-0.4-0.7-1.2l13-47c0.2-0.6,0.5-0.8,1-0.8h5.5c0.5,0,0.9,0.3,1,0.8l13.1,47c0,0.1,0.1,0.2,0.1,0.4
	c0,0.5-0.3,0.8-0.8,0.8h-4.3C121,74.9,120.6,74.6,120.5,74z M102.8,60.6h13.8c0.2,0,0.3-0.1,0.2-0.4l-7-26.1c0-0.2-0.1-0.3-0.2-0.3
	c-0.1,0-0.1,0.1-0.2,0.3l-6.9,26.1C102.5,60.4,102.6,60.6,102.8,60.6z"/>
<path class="st1" d="M138.5,73.4c-2.2-1.3-3.9-3.2-5.2-5.7c-1.2-2.5-1.8-5.3-1.8-8.4V41.4c0-3.2,0.6-6,1.8-8.5
	c1.2-2.4,2.9-4.3,5.2-5.6c2.2-1.3,4.8-2,7.7-2c2.9,0,5.4,0.7,7.6,2c2.2,1.3,3.9,3.1,5.1,5.4c1.2,2.3,1.8,4.9,1.8,7.8v0.4
	c0,0.3-0.1,0.6-0.2,0.8c-0.2,0.2-0.4,0.3-0.7,0.3h-4c-0.3,0-0.5-0.1-0.7-0.2c-0.2-0.1-0.2-0.3-0.2-0.5v-0.6c0-2.8-0.8-5.1-2.4-6.8
	c-1.6-1.8-3.8-2.6-6.4-2.6c-2.7,0-4.8,0.9-6.5,2.7c-1.6,1.8-2.4,4.2-2.4,7.3v18.3c0,3,0.8,5.5,2.5,7.3c1.7,1.8,3.9,2.7,6.6,2.7
	c2.6,0,4.7-0.8,6.3-2.4c1.5-1.6,2.3-3.8,2.3-6.6v-5.3c0-0.2-0.1-0.4-0.3-0.4H147c-0.3,0-0.5-0.1-0.7-0.3c-0.2-0.2-0.2-0.4-0.2-0.8
	v-3.6c0-0.3,0.1-0.6,0.2-0.8c0.2-0.2,0.4-0.3,0.7-0.3h12.9c0.3,0,0.5,0.1,0.7,0.3c0.2,0.2,0.2,0.4,0.2,0.8v8.5
	c0,5.4-1.3,9.5-3.9,12.4c-2.6,2.9-6.2,4.3-10.7,4.3C143.3,75.4,140.8,74.8,138.5,73.4z"/>
<path class="st1" d="M193.5,74l-2.1-7.8c-0.1-0.2-0.2-0.3-0.3-0.3h-16.8c-0.1,0-0.2,0.1-0.3,0.3l-2.1,7.8c-0.2,0.6-0.5,0.8-1,0.8
	h-4.3c-0.7,0-0.9-0.4-0.7-1.2l13-47c0.2-0.6,0.5-0.8,1-0.8h5.5c0.5,0,0.9,0.3,1,0.8l13.1,47c0,0.1,0.1,0.2,0.1,0.4
	c0,0.5-0.3,0.8-0.8,0.8h-4.3C194,74.9,193.7,74.6,193.5,74z M175.9,60.6h13.8c0.2,0,0.3-0.1,0.2-0.4l-7-26.1c0-0.2-0.1-0.3-0.2-0.3
	c-0.1,0-0.1,0.1-0.2,0.3l-6.9,26.1C175.6,60.4,175.7,60.6,175.9,60.6z"/>
</svg>
