<svg xmlns="http://www.w3.org/2000/svg" xml:space="preserve" id="Layer_1" x="0" y="0" style="enable-background:new 0 0 353.4 79.5" version="1.1" viewBox="0 0 353.4 79.5"><style>.st0{fill:#51b848}.st1{fill:#4ac3ca}</style><path d="M70.9 23H60.1c-1.7 0-3.2-.7-4.3-1.8S54 18.6 54 16.9V6.1c0-1.7.7-3.2 1.8-4.3S58.5 0 60.1 0h10.8c1.7 0 3.2.7 4.3 1.8S77 4.4 77 6.1v10.8c0 1.7-.7 3.2-1.8 4.3S72.6 23 70.9 23z" class="st0"/><path d="M70.9 50H60.1c-1.7 0-3.2-.7-4.3-1.8-1.1-1.1-1.8-2.6-1.8-4.3V33.1c0-1.7.7-3.2 1.8-4.3s2.6-1.8 4.3-1.8h10.8c1.7 0 3.2.7 4.3 1.8s1.8 2.6 1.8 4.3v10.8c0 1.7-.7 3.2-1.8 4.3S72.6 50 70.9 50z" class="st1"/><path d="M70.9 77H60.1c-1.7 0-3.2-.7-4.3-1.8S54 72.6 54 70.9V60.1c0-1.7.7-3.2 1.8-4.3 1.1-1.1 2.6-1.8 4.3-1.8h10.8c1.7 0 3.2.7 4.3 1.8 1.1 1.1 1.8 2.6 1.8 4.3v10.8c0 1.7-.7 3.2-1.8 4.3S72.6 77 70.9 77z" style="fill:#598eca"/><path d="M43.9 50H33.1c-1.7 0-3.2-.7-4.3-1.8S27 45.6 27 43.9V33.1c0-1.7.7-3.2 1.8-4.3s2.6-1.8 4.3-1.8h10.8c1.7 0 3.2.7 4.3 1.8s1.8 2.6 1.8 4.3v10.8c0 1.7-.7 3.2-1.8 4.3S45.6 50 43.9 50z" class="st0"/><path d="M43.9 77H33.1c-1.7 0-3.2-.7-4.3-1.8S27 72.6 27 70.9V60.1c0-1.7.7-3.2 1.8-4.3 1.1-1.1 2.6-1.8 4.3-1.8h10.8c1.7 0 3.2.7 4.3 1.8 1.1 1.1 1.8 2.6 1.8 4.3v10.8c0 1.7-.7 3.2-1.8 4.3S45.6 77 43.9 77z" class="st1"/><path d="M16.9 77H6.1c-1.7 0-3.2-.7-4.3-1.8S0 72.6 0 70.9V60.1c0-1.7.7-3.2 1.8-4.3C2.9 54.7 4.4 54 6.1 54h10.8c1.7 0 3.2.7 4.3 1.8 1.1 1.1 1.8 2.6 1.8 4.3v10.8c0 1.7-.7 3.2-1.8 4.3S18.6 77 16.9 77z" class="st0"/><path d="M131 60.3c0 13.2-3.4 19-15.7 19-12.5 0-16.1-4.9-16.1-19.1 0-13.2 5.1-17.7 16.1-17.6 9.8 0 15.7 4.8 15.7 17.7zm-23.7.1c0 9.5 1.5 12.5 7.9 12.5s7.8-3.5 7.8-12.4c0-8.5-2.6-11.5-7.8-11.5-5.9 0-7.9 2.7-7.9 11.4zm50.8-17c8.6 0 11.5 3.6 11.5 11.6 0 7.2-3.1 11.3-11.6 11.3-3.6 0-5.8-.1-7.9-.2v12.4h-7.5v-35h15.5v-.1zm-8 5.9v11c1.6.2 3.1.3 6.1.3 4.5 0 6.1-1.9 6.1-5.6 0-4.1-1.5-5.7-6.1-5.7h-6.1zm55.3.2h-10.1v29h-7.6v-29h-10.1v-6.1h27.7v6.1h.1zM223 78.4h-7.5v-35h7.5v35zm52 0h-6.9L267 52.5l-7.9 20.3h-8.3l-7.9-20.3-1.2 25.8h-6.8l1.5-35h10.4l8.1 23.1 8.1-23.1h10.4l1.6 35.1zm19.6-15.7c0 7.8 1.1 10.2 7 10.2 5.8 0 6.9-2.9 6.9-10.1V43.4h7.7v19.4c0 11.6-3.1 16.5-14.4 16.5-11.5 0-14.8-4.1-14.8-16.6V43.4h7.7v19.3h-.1zm57.3-18.8-.7 5.8c-3.5-.2-8.2-.5-10.7-.5-3.5 0-5.8.7-5.8 4 0 2 .9 2.7 3 3.2l8.9 2.7c3.8 1.2 6.8 3.8 6.8 10.2.1 8-5.6 10.1-11.5 10.2-4.3.1-11.1-1-15.9-1.8l.6-5.8c5.4.8 10.5 1.2 13.5 1.2 3.5 0 5.6-.6 5.6-3.8 0-2.4-1.2-3.4-3-4l-9.6-2.8c-4.2-1.2-6.4-3.5-6.4-8.9 0-9.1 5.9-11 11.6-11 4.4 0 9.5.6 13.6 1.3z" style="fill:#ffffff"/></svg>