<svg version="1.2" xmlns="http://www.w3.org/2000/svg" viewBox="0 0 1560 369" width="1560" height="369">
	<title>plus500-svg</title>
	<style>
		.s0 { fill: #ffffff } 
	</style>
	<path id="Layer" fill-rule="evenodd" class="s0" d="m1386.2 145.9h126.7c3.8 0 7.3 0.4 10.5 1.1 3.2 0.7 6.2 1.6 8.9 2.6q4.6 2.2 8.4 5.1c2.5 2 4.6 4.2 6.5 6.7 2.6 2.9 4.5 6.1 6.1 9.6 1.6 3.5 2.8 7 3.9 10.5q1.6 5.6 2.2 11.1 0.6 5.6 0.6 10.9v107.1q0 5.9-0.6 11.3c-0.4 3.6-1.2 7.1-2.2 10.4-1.1 3.9-2.4 7.6-4.2 11.1-1.8 3.5-3.7 6.6-5.8 9.3q-3.1 3.7-6.8 6.7-3.8 2.9-7.8 4.8c-2.9 1.4-5.9 2.4-8.9 3.1-3 0.6-6.1 0.9-9.2 0.9h-129q-5.3 0-10.6-1.2c-3.5-0.7-6.8-1.8-9.9-3.5q-4.7-2.4-8.7-6c-2.7-2.3-5.2-5.2-7.5-8.5-1.7-2.7-3.2-5.7-4.7-9-1.4-3.3-2.6-6.9-3.4-10.8-0.7-3.1-1.2-6.4-1.6-9.8-0.4-3.4-0.6-7-0.6-11v-101.8c0-3.9 0.3-7.9 0.7-11.9 0.6-4.1 1.4-8 2.4-12q1.2-5.9 3.7-11.3c1.7-3.6 3.7-6.8 6-9.7q3.1-4.1 7.1-7.3c2.7-2.2 5.9-3.9 9.4-5.1 2.5-1 5.3-1.9 8.4-2.5q4.7-0.9 10-0.9zm83.5 37.2h-41.5c-1.4 0-2.9 0.4-4.5 1.2-1.5 0.8-2.8 1.9-3.9 3.1q-1.9 1.8-2.9 4c-0.8 1.5-1.1 3-1.1 4.6v122.6c0 1.7 0.4 3.3 1.4 4.9 0.9 1.5 2 2.8 3.2 3.8 1.3 1.3 2.7 2.3 4.4 3.1 1.7 0.9 3.4 1.3 5 1.3h39.9q1.8-0.1 3.9-1c1.4-0.6 2.6-1.4 3.9-2.5 1-0.8 1.9-1.8 2.6-3q1.1-1.9 1.1-3.8v-128.1q0-1.8-1.1-3.7-1.1-1.9-2.6-3.1c-1.3-1-2.5-1.9-3.9-2.5-1.4-0.6-2.7-0.9-3.9-0.9zm-333.1-37.2h126.8c3.7 0 7.2 0.4 10.4 1.1 3.3 0.7 6.2 1.6 8.9 2.6q4.7 2.2 8.4 5.1 3.8 3 6.6 6.7c2.4 2.9 4.5 6.1 6 9.6 1.6 3.5 2.9 7 3.9 10.5q1.6 5.6 2.2 11.1c0.5 3.7 0.6 7.3 0.6 10.9v107.1c0 3.9-0.2 7.7-0.6 11.3q-0.6 5.4-2.2 10.4c-1 3.9-2.4 7.6-4.2 11.1-1.7 3.5-3.7 6.6-5.7 9.3q-3.2 3.7-6.9 6.7c-2.5 2-5.1 3.5-7.8 4.8-2.9 1.4-5.9 2.4-8.9 3.1q-4.5 0.9-9.2 0.9h-128.9q-5.3 0-10.6-1.2c-3.6-0.7-6.9-1.8-10-3.5q-4.6-2.4-8.7-6c-2.7-2.3-5.3-5.2-7.5-8.5q-2.5-4-4.6-9c-1.5-3.3-2.6-6.9-3.5-10.8-0.6-3.1-1.1-6.4-1.5-9.8-0.5-3.4-0.7-7-0.7-11v-101.8c0-3.9 0.3-7.9 0.8-11.9 0.5-4.1 1.3-8 2.3-12 0.9-3.9 2.1-7.7 3.8-11.3 1.7-3.6 3.6-6.8 5.9-9.7 2.1-2.7 4.5-5.1 7.2-7.3 2.7-2.2 5.8-3.9 9.3-5.1 2.5-1 5.3-1.9 8.4-2.5q4.7-0.9 10-0.9zm83.5 37.2h-41.4c-1.5 0-3 0.4-4.5 1.2-1.6 0.8-2.9 1.9-3.9 3.1q-1.9 1.8-3 4c-0.7 1.5-1.1 3-1.1 4.6v122.6c0 1.7 0.5 3.3 1.4 4.9 1 1.5 2.1 2.8 3.3 3.8 1.2 1.3 2.6 2.3 4.3 3.1 1.7 0.9 3.4 1.3 5 1.3h39.9c1.3 0 2.5-0.4 3.9-1 1.3-0.6 2.6-1.4 3.9-2.5 1-0.8 1.9-1.8 2.6-3 0.7-1.3 1.1-2.5 1.1-3.8v-128.1q0-1.8-1.1-3.7-1.1-1.9-2.6-3.1c-1.2-1-2.6-1.9-3.9-2.5q-2-0.9-3.9-0.9zm-161.7-0.3h-129.6l-2.2 43.6h91.3c5.8 0 11.2 0.8 16.2 2.5q4.7 1.6 8.6 4c2.6 1.7 4.9 3.6 7 5.9 1.9 1.9 3.5 3.9 5 6.2q2.1 3.4 3.4 7.1c1 2.7 1.9 5.4 2.3 8.2 0.5 2.8 0.8 5.7 0.8 8.8v58.2c0 3.3-0.3 6.3-0.8 9-0.5 2.7-1.3 5.3-2.3 7.8q-1.6 4.6-4.3 8.2c-1.9 2.4-3.9 4.4-6 6.3-2.1 1.5-4.3 2.8-6.5 4.1-2.4 1.2-4.7 2.1-7.2 2.7q-3.8 1.3-7.7 1.9-4.2 0.6-8.1 0.6h-162.4v-35.9h120.3c1.2 0 2.3-0.4 3.2-1.4 1-0.9 1.7-2.1 2.4-3.5q0.9-2.2 1.2-4.5c0.2-1.6 0.3-3 0.3-4.2v-43.7c0-1.9-0.3-3.5-0.7-4.9q-0.8-2.2-2.1-3.4-1.2-1.5-2.9-2.2c-1.2-0.4-2.4-0.6-3.6-0.6h-122.2l1.6-117.3h205z"/>
	<path id="Layer" fill-rule="evenodd" class="s0" d="m810.5 190.4v32.8h-109.6c-0.7 0-1.5 0.1-2.5 0.5q-1.6 0.5-2.9 1.2c-0.9 0.4-1.7 1-2.2 1.7q-0.9 1-0.9 2.3v9.8q0 1.4 1 2.2c0.7 0.6 1.5 1.1 2.4 1.5 0.9 0.5 1.9 0.8 2.9 1 1 0.3 2 0.4 2.9 0.4h80.6c2.5 0 5.1 0.2 7.7 0.7q3.9 0.7 7.3 1.7c2.5 0.9 4.8 2 7 3.4q3.2 2 6 4.7c1.5 1.6 2.9 3.4 4.2 5.4 1.2 2 2.3 4.3 3.2 6.8q1.4 3.4 2.1 7.7 0.7 4.4 0.7 9.5v41.6q0 4.7-0.9 9.1c-0.6 2.9-1.4 5.8-2.5 8.4q-1.4 3.8-3.8 7-2.4 3.2-4.8 5.9c-2 1.8-4.2 3.4-6.4 4.9-2.3 1.5-4.6 2.8-6.8 3.9-3.2 1.4-6.4 2.3-9.7 2.9-3.3 0.5-6.5 0.8-9.7 0.8h-157.9v-32.1h117.1q1.4 0 2.9-0.7c1-0.4 1.8-1 2.5-1.7q1.4-0.7 2.1-2 0.6-1.4 0.6-2.7v-9.8q0-1.3-0.6-2.5-0.7-1.2-2.1-1.9c-0.9-0.7-1.8-1.2-2.7-1.5-0.9-0.4-1.8-0.5-2.7-0.5h-80.6q-4.8 0-9.7-0.9c-3.3-0.5-6.5-1.5-9.7-2.9q-3.1-1.3-6-3.3-2.9-2.1-4.9-4.8-2.1-2.3-3.6-5.2c-1-1.9-1.9-3.9-2.5-5.9-0.5-1.9-0.8-3.8-1-5.8-0.3-2-0.4-4.2-0.4-6.4v-47.3c0-3.2 0.4-6.1 1-8.7q1-3.8 2.7-7.6c1.4-2.2 2.9-4.4 4.5-6.4 1.6-2 3.4-3.8 5.4-5.4 2-1.8 4.3-3.4 6.6-4.7 2.4-1.4 4.8-2.5 7.3-3.4 3.2-1.1 6.5-2 9.9-2.7 3.4-0.7 6.7-1 9.9-1zm-361 133.2q0 1.7 1.1 3.5c0.7 1.3 1.4 2.3 2.4 3.2 1.1 0.9 2.3 1.7 3.5 2.2q1.9 0.9 3.6 0.9h37.1c1.1 0 2.3-0.3 3.5-0.7q1.9-0.7 3.3-2 1.3-1.4 2.4-2.9c0.6-1 1-2.1 1-3.2v-134.6h82.7v178.2h-173.9c-3.9 0-7.5-0.4-10.9-1.2-3.4-0.8-6.6-1.9-9.5-3.2q-4.4-2.4-8.2-5.6c-2.5-2.2-4.7-4.4-6.8-6.9-2-2.5-3.9-5.3-5.6-8.3-1.7-3.1-3.1-6.2-4.2-9.3q-1.4-4.8-2.2-9.7-0.9-4.9-0.9-9.6v-124.8h81.6zm-109.3 43.5c0 0-40.4 0.4-43.9 0-3.4-0.4-6.6-2.5-9.5-4.3q-4.4-3-8.2-7.4c-2.5-2.8-4.7-5.8-6.8-9.1-2-3.3-3.9-7-5.6-10.9-1.7-4.1-3.1-8.2-4.2-12.3-1-4.2-1.7-8.5-2.2-12.8-0.6-4.3-0.9-8.6-0.9-12.8v-165h81.7zm-340.3-240.9h180.4c3.1 0 6.4 0.2 9.8 0.7q5.1 0.7 9.9 2c3.2 1.2 6.3 2.6 9.4 4.3 3 1.7 5.8 3.6 8.3 5.9 1.8 2 3.5 4.2 5.1 6.6 1.6 2.3 2.9 5 4.1 7.9 1.1 3 1.9 6.2 2.5 9.7 0.6 3.5 0.9 7.2 0.9 11.3v60.2q0 5.7-0.9 10.8-0.8 5.1-2.5 9.1c-0.9 2.7-2.2 5.3-3.8 7.6q-2.4 3.6-5.1 6.3-3 3-6.6 5.2c-2.4 1.5-4.9 2.8-7.7 3.9q-5.1 2-10.5 2.9-5.5 0.8-10.9 0.8h-97.6v86.2h-84.8zm84.8 115.3h50.3c1.4 0 2.6-0.4 3.9-1.3q1.9-1.4 3.2-3.4 1.4-2.1 2.1-4.4c0.4-1.6 0.6-3.1 0.6-4.4v-50.1c0-1.7-0.2-3.4-0.8-4.9q-0.9-2.2-2.2-3.5-1.4-1.7-3.2-2.6-1.9-0.8-3.6-0.8h-50.3z"/>
	<path id="Layer" class="s0" d="m858.9 42.6h-48.4v-42.6h-74.7v42.6h-48.4v69.8h48.4v42.6h74.7v-42.6h48.4z"/>
</svg>