<svg xmlns="http://www.w3.org/2000/svg" viewBox="0 0 248 40"><g fill="#fff"><path d="M79.5 32h-2a6.5 6.5 0 0 1-6.5-6.5v-6c0-3.6 2.9-6.5 6.5-6.5h2c3.6 0 6.5 2.9 6.5 6.5v6c0 3.6-2.9 6.5-6.5 6.5zm-2-16a3.5 3.5 0 0 0-3.5 3.5v6c0 1.9 1.6 3.5 3.5 3.5h2c1.9 0 3.5-1.6 3.5-3.5v-6c0-1.9-1.6-3.5-3.5-3.5h-2zM117.5 32h-2a6.5 6.5 0 0 1-6.5-6.5v-6c0-3.6 2.9-6.5 6.5-6.5h2c3.6 0 6.5 2.9 6.5 6.5v6c0 3.6-2.9 6.5-6.5 6.5zm-2-16a3.5 3.5 0 0 0-3.5 3.5v6c0 1.9 1.6 3.5 3.5 3.5h2c1.9 0 3.5-1.6 3.5-3.5v-6c0-1.9-1.6-3.5-3.5-3.5h-2zM8 40H0V0h32a8 8 0 0 1 8 8v8a8 8 0 0 1-8 8H16v-8h16V8H8v32z"/><path d="M36 40H16v-8h16zM98.5 13h-2c-1.3 0-2.5.4-3.5 1V5h-3v20.5c0 3.6 2.9 6.5 6.5 6.5h2c3.6 0 6.5-2.9 6.5-6.5v-6c0-3.6-2.9-6.5-6.5-6.5zm3.5 12.5c0 1.9-1.6 3.5-3.5 3.5h-2a3.5 3.5 0 0 1-3.5-3.5v-6c0-1.9 1.6-3.5 3.5-3.5h2c1.9 0 3.5 1.6 3.5 3.5v6zM213 32h-5.5a6.5 6.5 0 0 1-6.5-6.5v-6c0-3.6 2.9-6.5 6.5-6.5h2c3.6 0 6.5 2.9 6.5 6.5V24h-12v1.5c0 1.9 1.6 3.5 3.5 3.5h5.5v3zm-9-11h9v-1.5c0-1.9-1.6-3.5-3.5-3.5h-2a3.5 3.5 0 0 0-3.5 3.5V21zM172 32h-3V19.5c0-3.6 2.9-6.5 6.5-6.5h2.5v3h-2.5a3.5 3.5 0 0 0-3.5 3.5V32zM229 16v-3h-6V5h-3v20.5c0 3.6 2.9 6.5 6.5 6.5h2.5v-3h-2.5a3.5 3.5 0 0 1-3.5-3.5V16h6zM242.5 32H234v-3h8.5c1.4 0 2.5-1.1 2.5-2.5s-1.1-2.5-2.5-2.5h-4c-3 0-5.5-2.5-5.5-5.5s2.5-5.5 5.5-5.5h6.5v3h-6.5c-1.4 0-2.5 1.1-2.5 2.5s1.1 2.5 2.5 2.5h4c3 0 5.5 2.5 5.5 5.5s-2.5 5.5-5.5 5.5zM143 32h3V8h-3.2L137 20.5 131.2 8H128v24h3V14.7l4.3 9.3h3.4l4.3-9.3zM165 32h-9.5c-3 0-5.5-2.5-5.5-5.5v-2c0-3 2.5-5.5 5.5-5.5h6.5c-.2-1.7-1.7-3-3.5-3H153v-3h5.5c3.6 0 6.5 2.9 6.5 6.5V32zm-9.5-10a2.5 2.5 0 0 0-2.5 2.5v2c0 1.4 1.1 2.5 2.5 2.5h6.5v-7h-6.5zM185 20.4V5h-3v27h3v-7.4l2.4-2.4 7.4 9.8h3.7l-8.9-11.9 7-7.1h-4.2zM64.5 32h3.4l-5.6-10.1a5.6 5.6 0 0 0 4.7-5.4v-3c0-3-2.5-5.5-5.5-5.5H52v24h3V22h4l5.5 10zM55 11h6.5c1.4 0 2.5 1.1 2.5 2.5v3c0 1.4-1.1 2.5-2.5 2.5H55v-8z"/></g></svg>