<svg width="461" height="201" viewBox="0 0 461 201" fill="none" xmlns="http://www.w3.org/2000/svg">
<path d="M401.75 189.24C400.93 191.03 399.7 192.38 398.06 193.28C396.42 194.18 394.38 194.63 391.93 194.63H386.69V170.47H392.12C394.5 170.47 396.5 170.92 398.1 171.8C399.71 172.69 400.93 174.02 401.75 175.8C402.58 177.58 402.99 179.82 402.99 182.51C402.99 185.21 402.58 187.45 401.75 189.24ZM401.49 167.06C398.98 165.66 395.97 164.96 392.48 164.96H380.32V200.15H392.24C395.82 200.15 398.87 199.44 401.42 198.04C403.97 196.64 405.92 194.61 407.28 191.98C408.64 189.35 409.31 186.2 409.31 182.53C409.31 178.87 408.64 175.74 407.28 173.11C405.94 170.48 404 168.46 401.49 167.06ZM352.45 185.2H367.78V179.85H352.45V170.3H368.96V164.96H346.07V200.15H369.09V194.81H352.44V185.2H352.45ZM307.77 170.3H318.65V200.15H324.97V170.3H335.85V164.96H307.77V170.3V170.3ZM295.62 183.37C294.64 182.57 293.53 181.91 292.3 181.38C291.07 180.85 289.79 180.43 288.46 180.13L285.16 179.3C284.44 179.13 283.72 178.91 283.01 178.66C282.3 178.41 281.65 178.1 281.07 177.73C280.48 177.35 280.02 176.9 279.69 176.36C279.36 175.82 279.18 175.18 279.18 174.45C279.19 173.57 279.45 172.78 279.96 172.1C280.46 171.41 281.19 170.86 282.14 170.46C283.09 170.06 284.23 169.86 285.56 169.86C287.45 169.86 288.99 170.28 290.17 171.11C291.36 171.95 292.03 173.11 292.19 174.61H298.32C298.29 172.63 297.73 170.87 296.65 169.35C295.58 167.82 294.09 166.62 292.21 165.76C290.32 164.9 288.13 164.46 285.64 164.46C283.18 164.46 280.97 164.9 279.02 165.76C277.07 166.62 275.54 167.84 274.41 169.39C273.28 170.95 272.72 172.76 272.72 174.84C272.72 177.36 273.56 179.38 275.24 180.9C276.92 182.42 279.2 183.55 282.1 184.29L286.1 185.32C287.36 185.64 288.46 186 289.41 186.41C290.35 186.81 291.09 187.32 291.62 187.92C292.14 188.52 292.41 189.28 292.43 190.2C292.42 191.21 292.11 192.09 291.52 192.84C290.92 193.59 290.1 194.17 289.05 194.59C288 195.01 286.78 195.22 285.4 195.22C284.07 195.22 282.87 195.02 281.8 194.62C280.73 194.22 279.86 193.61 279.2 192.8C278.54 191.99 278.16 190.96 278.07 189.74H271.8C271.89 192.07 272.5 194.06 273.63 195.68C274.76 197.3 276.33 198.54 278.34 199.39C280.35 200.24 282.73 200.66 285.46 200.66C288.28 200.66 290.68 200.22 292.67 199.35C294.65 198.47 296.18 197.25 297.23 195.69C298.28 194.12 298.81 192.31 298.81 190.25C298.81 188.73 298.52 187.4 297.95 186.26C297.37 185.14 296.6 184.18 295.62 183.37ZM245.21 185.2H260.54V179.85H245.21V170.3H261.72V164.96H238.83V200.15H261.85V194.81H245.2L245.21 185.2ZM213.21 192.65H212.85L203.69 164.96H196.7L209.09 200.15H216.96L229.36 164.96H222.35L213.21 192.65ZM180.88 188.94H180.57L164.01 164.95H158.3V200.14H164.67V176.17H164.96L181.54 200.14H187.21V164.95H180.87L180.88 188.94ZM140.17 200.14H146.54V164.95H140.17V200.14ZM95.46 185.2H110.79V179.85H95.46V170.3H111.97V164.96H89.08V200.15H112.1V194.81H95.45L95.46 185.2ZM70.68 193.49C69.65 194.38 67.99 194.82 65.67 194.82H58.81V184.52H65.84C67.15 184.52 68.29 184.76 69.24 185.25C70.19 185.74 70.92 186.4 71.44 187.24C71.96 188.08 72.22 189.02 72.22 190.06C72.22 191.46 71.7 192.6 70.68 193.49ZM58.82 170.22H65.26C67.14 170.22 68.56 170.66 69.51 171.54C70.47 172.42 70.95 173.55 70.95 174.91C70.95 175.94 70.69 176.83 70.19 177.58C69.68 178.33 68.98 178.91 68.1 179.32C67.22 179.72 66.23 179.93 65.13 179.93H58.82V170.22V170.22ZM74.77 183.06C73.62 182.37 72.42 181.99 71.17 181.92V181.58C72.32 181.31 73.35 180.86 74.28 180.22C75.2 179.59 75.94 178.77 76.5 177.75C77.05 176.74 77.32 175.52 77.32 174.08C77.32 172.34 76.9 170.78 76.06 169.41C75.21 168.03 73.95 166.95 72.26 166.15C70.57 165.36 68.46 164.96 65.91 164.96H52.44V200.15H66.68C69.37 200.15 71.6 199.73 73.38 198.9C75.15 198.06 76.48 196.92 77.37 195.47C78.25 194.02 78.69 192.39 78.69 190.56C78.69 188.78 78.32 187.25 77.59 185.99C76.87 184.72 75.92 183.75 74.77 183.06Z" fill="white"/>
<path d="M148.78 70.23L163.86 33.46L178.99 70.23H148.78ZM174.08 2.57001H154.27L107.56 112.32H131.43L140.91 89.31H186.88L196.3 112.21L211.32 90.05L174.08 2.57001ZM291.76 54.7L327.05 2.57001H301.47L278.63 36.43L256.42 2.57001H229.92L265.72 55.1L226.83 112.31H252.47L278.85 73.6L304.55 112.31H330.87L291.76 54.7ZM28.92 33.81C28.92 25.3 36.8 20.5 47.42 20.5C58.96 20.5 65.01 26.04 68.15 32.77L89.67 24.78C83.9 9.99 68.15 0.850006 48.84 0.850006C23.03 0.850006 6.07002 16.44 6.07002 35.45C6.07002 73.19 67.91 59.32 67.91 80.96C67.91 89.07 59.51 94.21 47.52 94.21C34.44 94.21 25.99 87.13 22.45 76.28L0.640015 83.24C5.72001 101.97 23.48 114.02 46.83 114.02C72.35 114.02 91.2 99.63 91.2 79.87C91.21 40.77 28.92 53.5 28.92 33.81ZM402.83 93.3C383.93 93.3 369.2 78.28 369.2 57.44C369.2 36.6 383.93 21.58 402.83 21.58C422.02 21.58 436.58 36.6 436.58 57.44C436.57 78.29 422.01 93.3 402.83 93.3ZM402.83 0.860001C370.57 0.860001 345.5 26.33 345.5 57.45C345.5 88.57 370.57 114.04 402.83 114.04C435.09 114.04 460.27 88.57 460.27 57.45C460.27 26.33 435.09 0.860001 402.83 0.860001Z" fill="white"/>
</svg>
