<?xml version="1.0" encoding="utf-8"?>
<!-- Generator: Adobe Illustrator 26.2.1, SVG Export Plug-In . SVG Version: 6.00 Build 0)  -->
<svg version="1.1" id="Layer_1" xmlns="http://www.w3.org/2000/svg" xmlns:xlink="http://www.w3.org/1999/xlink" x="0px" y="0px"
	 viewBox="0 0 416 49.4" style="enable-background:new 0 0 416 49.4;" xml:space="preserve">
<style type="text/css">
	.st0{fill:#FFFFFF;}
</style>
<g>
	<g id="Layer_1-2_27_">
		<path class="st0" d="M0,29.8l8.4-0.5c0.1,1.1,0.5,2.2,1.1,3.1c1,1.2,2.4,1.8,3.9,1.7c1,0.1,2.1-0.2,2.9-0.9
			c1.1-0.8,1.4-2.4,0.5-3.6c-0.1-0.2-0.3-0.4-0.5-0.5c-0.6-0.6-2.2-1.1-4.5-1.7c-3.9-0.9-6.7-2-8.3-3.5C1.9,22.7,1,20.7,1,18.5
			c0-1.5,0.5-2.9,1.3-4.2c1-1.4,2.3-2.5,3.9-3.1c2.3-0.8,4.7-1.2,7.1-1.1c3.7,0,6.5,0.7,8.4,2.1s3.1,3.5,3.4,6.5l-8.4,0.5
			c-0.1-1.1-0.6-2.1-1.4-2.8c-0.9-0.6-1.9-0.9-3-0.9c-0.8-0.1-1.7,0.2-2.4,0.7c-0.5,0.4-0.8,1-0.8,1.6c0,0.5,0.3,1,0.7,1.3
			c0.9,0.6,1.9,0.9,3,1.1c2.9,0.5,5.7,1.4,8.3,2.5c1.5,0.7,2.8,1.8,3.7,3.2c0.8,1.3,1.2,2.7,1.1,4.2c0,1.8-0.5,3.6-1.5,5.1
			c-1,1.6-2.5,2.8-4.3,3.5c-2.2,0.9-4.5,1.3-6.9,1.2c-4.9,0-8.3-1-10.1-2.8C1.3,35.1,0.2,32.5,0,29.8 M30.5,10.6h14.7
			c3.2,0,5.6,0.8,7.2,2.3c1.7,1.7,2.6,4.1,2.4,6.5c0.1,2.5-0.8,5-2.6,6.8c-1.7,1.6-4.4,2.5-8,2.5h-4.9v10.6h-8.9V10.6z M39.4,22.9
			h2.2c1.3,0.1,2.5-0.2,3.6-0.9c0.7-0.6,1-1.4,1-2.3c0-0.9-0.3-1.7-0.9-2.3c-0.6-0.6-1.7-0.9-3.4-0.9h-2.5V22.9z M59.6,39.3V10.6
			h14.8c2.1-0.1,4.2,0.2,6.3,0.7c1.4,0.5,2.7,1.4,3.5,2.6c0.9,1.4,1.4,3,1.3,4.7c0.1,2.8-1.4,5.5-3.8,6.9c-1,0.5-2,0.9-3.1,1.1
			c0.8,0.2,1.6,0.6,2.3,1.1c0.5,0.4,1,1,1.4,1.5c0.5,0.6,0.9,1.2,1.2,1.8l4.3,8.3h-10l-4.7-8.8c-0.4-0.8-0.9-1.6-1.6-2.2
			c-0.6-0.4-1.4-0.7-2.2-0.7h-0.8v11.6H59.6z M68.5,22.2h3.7c0.8-0.1,1.6-0.2,2.3-0.4c0.6-0.1,1.1-0.4,1.4-0.9
			c0.4-0.5,0.6-1.1,0.6-1.7c0.1-0.8-0.3-1.6-0.9-2.1c-1-0.6-2.2-0.9-3.3-0.7h-3.9V22.2z M90.7,10.6h23.8v6.1H99.6v4.6h13.8v5.9H99.6
			v5.6h15.3v6.5H90.7V10.6z M137.3,34.6h-10l-1.5,4.7h-9.1l10.8-28.7h9.8L148,39.3h-9.3L137.3,34.6z M135.4,28.4L132.3,18l-3.2,10.3
			L135.4,28.4z M151,10.6h13.2c2.1-0.1,4.3,0.3,6.3,1.1c1.6,0.7,2.9,1.7,4,3c1.1,1.4,1.8,2.9,2.3,4.6c0.5,1.8,0.7,3.7,0.7,5.6
			c0.1,2.4-0.2,4.8-1,7.1c-0.6,1.6-1.6,3.1-2.9,4.2c-1.1,1.1-2.5,1.9-4,2.3c-1.7,0.5-3.5,0.8-5.3,0.8H151V10.6z M159.8,17.1v15.7
			h2.2c1.3,0.1,2.7-0.1,3.9-0.6c0.9-0.5,1.5-1.2,1.9-2.1c0.5-1.6,0.8-3.3,0.7-5c0-3-0.5-5.1-1.5-6.2s-2.6-1.7-4.9-1.7L159.8,17.1z"
			/>
		<path class="st0" d="M242.8,39.3l-5.7-9.2l-5.7,9.2h-9.9l9.9-15l-9-13.7h9.8l5.1,8.8l4.9-8.8h9.7L243,24.5l9.8,14.8H242.8z
			 M219.7,39.3h-24.2V10.6h23.8v6.1h-14.9v4.6h13.8v5.9h-13.8v5.6h15.3L219.7,39.3z M183.6,49.4h79.2V0h-79.2V49.4z"/>
	</g>
	<g>
		<path class="st0" d="M276.1,34.1h13v3.1h-16.4V12.4h15.9v3h-12.4v7.4h11.7v3h-11.7V34.1z"/>
		<path class="st0" d="M302.4,24.8c-0.4-0.6-0.9-1.1-1.6-1.5c-0.7-0.4-1.4-0.6-2.3-0.6c-0.4,0-0.7,0-1.1,0.1c-0.4,0.1-0.7,0.2-1,0.4
			c-0.3,0.2-0.5,0.4-0.7,0.7c-0.2,0.3-0.3,0.6-0.3,1c0,0.7,0.3,1.2,0.9,1.6c0.6,0.3,1.6,0.6,2.8,0.9c0.8,0.2,1.5,0.4,2.2,0.7
			s1.3,0.6,1.8,1c0.5,0.4,0.9,0.8,1.2,1.4c0.3,0.5,0.4,1.2,0.4,1.9c0,1-0.2,1.8-0.6,2.5c-0.4,0.7-0.9,1.2-1.5,1.7
			c-0.6,0.4-1.3,0.7-2.1,0.9c-0.8,0.2-1.6,0.3-2.5,0.3c-1.3,0-2.5-0.2-3.7-0.7c-1.2-0.5-2.2-1.2-3-2.2l2.3-2
			c0.4,0.7,1.1,1.2,1.8,1.6c0.8,0.4,1.6,0.7,2.6,0.7c0.4,0,0.8,0,1.2-0.1c0.4-0.1,0.7-0.2,1-0.4c0.3-0.2,0.6-0.4,0.8-0.7
			c0.2-0.3,0.3-0.7,0.3-1.2c0-0.8-0.4-1.3-1.1-1.7c-0.7-0.4-1.8-0.7-3.2-1c-0.6-0.1-1.1-0.3-1.7-0.5c-0.6-0.2-1.1-0.5-1.6-0.8
			c-0.5-0.4-0.8-0.8-1.1-1.3c-0.3-0.5-0.4-1.2-0.4-1.9c0-0.9,0.2-1.7,0.5-2.3c0.4-0.6,0.8-1.2,1.4-1.6c0.6-0.4,1.2-0.7,2-0.9
			c0.7-0.2,1.5-0.3,2.3-0.3c1.2,0,2.3,0.2,3.4,0.7c1.1,0.5,2,1.1,2.6,2L302.4,24.8z"/>
		<path class="st0" d="M317.1,23.3h-4.4v8.6c0,1,0.2,1.7,0.6,2.1c0.4,0.4,1,0.6,1.8,0.6c0.3,0,0.6,0,1-0.1c0.4-0.1,0.7-0.2,0.9-0.3
			l0.1,2.7c-0.4,0.1-0.8,0.3-1.3,0.3c-0.5,0.1-1,0.1-1.5,0.1c-1.6,0-2.8-0.4-3.6-1.3c-0.8-0.9-1.2-2.2-1.2-3.9v-9h-3.2v-2.7h3.2
			v-4.8h3.3v4.8h4.4V23.3z"/>
		<path class="st0" d="M324.6,35.1c0,0.6-0.2,1.1-0.7,1.6c-0.4,0.5-1,0.7-1.7,0.7c-0.7,0-1.2-0.2-1.7-0.7s-0.7-1-0.7-1.6
			c0-0.6,0.2-1.2,0.7-1.6s1-0.7,1.7-0.7s1.2,0.2,1.7,0.7C324.4,33.9,324.6,34.5,324.6,35.1z"/>
		<path class="st0" d="M347.7,37.2h-3.4V16.5l-4.7,3.9l-2-2.3l7-5.7h3V37.2z"/>
		<path class="st0" d="M368.1,27.2L368.1,27.2c-0.4,0.2-0.9,0.3-1.5,0.5c-0.3,0-0.6,0.1-0.9,0.1c-0.3,0-0.6,0.1-0.8,0.1
			c-1.1,0-2.1-0.2-3-0.6c-0.9-0.4-1.7-0.9-2.4-1.6c-0.7-0.7-1.2-1.5-1.6-2.5c-0.4-1-0.6-2-0.6-3.1c0-1.2,0.2-2.4,0.6-3.4
			c0.4-1,1-1.9,1.8-2.6s1.7-1.3,2.7-1.7c1-0.4,2.2-0.6,3.4-0.6s2.3,0.2,3.4,0.6s2,1,2.7,1.7c0.8,0.7,1.4,1.6,1.8,2.6
			s0.6,2.1,0.6,3.3c0,1.4-0.2,2.6-0.7,3.7c-0.4,1.1-1,2.2-1.7,3.4l-6.5,10.2h-4L368.1,27.2z M370.9,19.9c0-0.7-0.1-1.4-0.4-2
			c-0.2-0.6-0.6-1.2-1-1.7c-0.5-0.5-1-0.9-1.6-1.1c-0.6-0.3-1.3-0.4-2.1-0.4c-0.8,0-1.5,0.1-2.1,0.4c-0.6,0.3-1.2,0.6-1.6,1.1
			s-0.8,1-1,1.7c-0.2,0.7-0.4,1.4-0.4,2.1c0,0.7,0.1,1.4,0.4,2.1s0.6,1.2,1,1.6s1,0.8,1.6,1.1c0.6,0.3,1.3,0.4,2.1,0.4
			c0.8,0,1.5-0.1,2.1-0.4c0.6-0.3,1.2-0.6,1.6-1.1s0.8-1,1-1.6S370.9,20.7,370.9,19.9z"/>
		<path class="st0" d="M388.9,27.2L388.9,27.2c-0.4,0.2-0.9,0.3-1.5,0.5c-0.3,0-0.6,0.1-0.9,0.1c-0.3,0-0.6,0.1-0.8,0.1
			c-1.1,0-2.1-0.2-3-0.6c-0.9-0.4-1.7-0.9-2.4-1.6c-0.7-0.7-1.2-1.5-1.6-2.5c-0.4-1-0.6-2-0.6-3.1c0-1.2,0.2-2.4,0.6-3.4
			c0.4-1,1-1.9,1.8-2.6s1.7-1.3,2.7-1.7c1-0.4,2.2-0.6,3.4-0.6c1.2,0,2.3,0.2,3.4,0.6s2,1,2.7,1.7c0.8,0.7,1.3,1.6,1.8,2.6
			c0.4,1,0.6,2.1,0.6,3.3c0,1.4-0.2,2.6-0.7,3.7c-0.4,1.1-1,2.2-1.7,3.4l-6.5,10.2h-4L388.9,27.2z M391.8,19.9c0-0.7-0.1-1.4-0.4-2
			c-0.2-0.6-0.6-1.2-1.1-1.7c-0.5-0.5-1-0.9-1.6-1.1c-0.6-0.3-1.3-0.4-2.1-0.4c-0.8,0-1.5,0.1-2.1,0.4c-0.6,0.3-1.2,0.6-1.6,1.1
			c-0.5,0.5-0.8,1-1,1.7c-0.2,0.7-0.4,1.4-0.4,2.1c0,0.7,0.1,1.4,0.4,2.1s0.6,1.2,1,1.6c0.4,0.5,1,0.8,1.6,1.1
			c0.6,0.3,1.3,0.4,2.1,0.4c0.8,0,1.5-0.1,2.1-0.4c0.6-0.3,1.2-0.6,1.6-1.1s0.8-1,1.1-1.6C391.6,21.4,391.8,20.7,391.8,19.9z"/>
		<path class="st0" d="M409.7,27.2L409.7,27.2c-0.4,0.2-0.9,0.3-1.5,0.5c-0.3,0-0.6,0.1-0.9,0.1c-0.3,0-0.6,0.1-0.8,0.1
			c-1.1,0-2.1-0.2-3-0.6c-0.9-0.4-1.7-0.9-2.4-1.6c-0.7-0.7-1.2-1.5-1.6-2.5c-0.4-1-0.6-2-0.6-3.1c0-1.2,0.2-2.4,0.6-3.4
			c0.4-1,1-1.9,1.8-2.6s1.7-1.3,2.7-1.7c1-0.4,2.2-0.6,3.4-0.6s2.3,0.2,3.4,0.6s2,1,2.7,1.7c0.8,0.7,1.4,1.6,1.8,2.6
			s0.6,2.1,0.6,3.3c0,1.4-0.2,2.6-0.7,3.7c-0.4,1.1-1,2.2-1.7,3.4l-6.5,10.2h-4L409.7,27.2z M412.6,19.9c0-0.7-0.1-1.4-0.4-2
			c-0.2-0.6-0.6-1.2-1-1.7c-0.5-0.5-1-0.9-1.6-1.1c-0.6-0.3-1.3-0.4-2.1-0.4c-0.8,0-1.5,0.1-2.1,0.4c-0.6,0.3-1.2,0.6-1.6,1.1
			s-0.8,1-1,1.7c-0.2,0.7-0.4,1.4-0.4,2.1c0,0.7,0.1,1.4,0.4,2.1s0.6,1.2,1,1.6s1,0.8,1.6,1.1c0.6,0.3,1.3,0.4,2.1,0.4
			c0.8,0,1.5-0.1,2.1-0.4c0.6-0.3,1.2-0.6,1.6-1.1s0.8-1,1-1.6S412.6,20.7,412.6,19.9z"/>
	</g>
</g>
</svg>
