<svg version="1.2" xmlns="http://www.w3.org/2000/svg" viewBox="0 0 1572 271" width="1572" height="271">
	<title>download (5)-svg</title>
	<style>
		.s0 { fill: #fa5b35 } 
		.s1 { fill: #ffffff } 
	</style>
	<path id="Layer" fill-rule="evenodd" class="s0" d="m127.6 0.1c70 0 126.7 56.6 126.7 126.4 0 69.8-56.7 126.4-126.7 126.4-69.9 0-126.6-56.6-126.6-126.4-0.1-16.6 3.1-33.1 9.4-48.5 6.4-15.4 15.7-29.4 27.5-41.1 11.8-11.8 25.8-21.1 41.2-27.4 15.4-6.3 31.9-9.5 48.5-9.4zm-63.1 73.7v20.9h126.3v-21c0 0-126.3 0-126.3 0.1zm126.3 105.4v-63.3h-126.3v63.4h20.9v-24c0-6.8 1.7-10.6 4.1-13.3 1.5-1.6 3.3-2.9 5.3-3.8 2-0.9 4.2-1.3 6.4-1.3 2.2 0 4.4 0.4 6.4 1.3 2 0.9 3.8 2.2 5.3 3.8 2.5 2.7 4.1 6.5 4.1 13.3v24h21.3v-24c0-6.8 1.6-10.6 4.1-13.3 1.4-1.6 3.2-2.9 5.3-3.8 2-0.9 4.2-1.4 6.4-1.4 2.2 0 4.4 0.5 6.4 1.4 2 0.9 3.8 2.2 5.3 3.8 2.4 2.7 4.1 6.5 4.1 13.3v24c0 0 20.9 0 20.9-0.1z"/>
	<path id="Layer" fill-rule="evenodd" class="s1" d="m335.9 72.8c0 23 32.9 27.6 57.5 41.8 15.4 8.8 28 23 28 47 0 34.5-28.2 56.1-59.4 56.1-31.3 0-53.7-15-62.5-24.6l12.3-26h1.1q4.6 4.6 10.1 8.3 5.4 3.6 11.4 6.2 6 2.5 12.4 3.8 6.4 1.3 13 1.4c13.4 0 27.9-7.9 27.9-23.5 0-23.2-32.9-27.9-57.5-42.1-15.4-8.8-28-23-28-47 0.1-34.5 28.5-56.1 60.3-56.1 5.4 0 10.8 0.6 16.1 1.6 5.3 1 10.5 2.5 15.5 4.5 5.1 2 9.9 4.4 14.5 7.3 4.5 2.9 8.8 6.2 12.8 9.9l-12.4 25.9h-1c-10.7-9.5-24.1-18.3-42.8-18.3-14.8 0-29.3 7.9-29.3 23.8zm90.4 31.4h32.3l19.2 55.5h1.1l27.1-77.3h21.9l28.5 78.2h1.1l27.3-78.2h30.7l-46.8 131.2h-21.4l-30.1-82.6h-1.1l-29 82.6h-21.9c0 0-38.9-109.4-38.9-109.4zm202.6-76.5h32.6v31.4h-32.6c0 0 0-31.4 0-31.4zm0.6 54.7h31.5v131.2h-31.5zm104.9 135.3q-6.8 0-13.5-1.2-6.7-1.2-13-3.7-6.3-2.4-12.1-6-5.8-3.6-10.7-8.2l8.7-23.5h1.1c9.9 8.7 22.5 15.6 37 15.6 10.9 0 18.1-4.7 18.1-12.9 0-8.5-9.1-11.7-20.3-15.3-18.1-5.7-41.9-14.5-41.9-41.8 0-25.2 19.7-42.4 47.9-42.4q6 0.1 11.8 1.1 5.8 1.1 11.4 3 5.6 2 10.8 4.9 5.2 2.9 9.8 6.6l-8.7 23.8h-1.1c-9.3-7.4-21.4-12.3-31.5-12.3-12.3 0-19.4 4.6-19.4 12.8 0 8.5 9 11.8 20.2 15.3 18.1 5.8 41.9 14.5 41.9 41.8 0 25.2-19.7 42.4-46.5 42.4zm112.5 0q-6.8 0-13.5-1.2-6.7-1.2-13-3.7-6.3-2.4-12.1-6-5.7-3.6-10.7-8.2l8.8-23.5h1c9.9 8.7 22.5 15.6 37 15.6 11 0 18.1-4.7 18.1-12.9 0-8.5-9-11.7-20.3-15.3-18-5.7-41.9-14.5-41.9-41.8 0-25.2 19.8-42.4 48-42.4q5.9 0.1 11.7 1.1 5.9 1.1 11.5 3 5.6 2 10.8 4.9 5.1 2.9 9.8 6.6l-8.8 23.8h-1.1c-9.3-7.4-21.3-12.3-31.5-12.3-12.3 0-19.4 4.6-19.4 12.8 0 8.5 9 11.8 20.2 15.3 18.1 5.8 41.9 14.5 41.9 41.8 0 25.2-19.7 42.4-46.5 42.4zm191.4-135.3v188.6h-31.5v-67c-9.5 8.7-21.9 13.6-34.8 13.7-37.2 0-61-28.7-61-68.3 0-37.2 25.4-71.1 64.3-71.1 12.1 0.2 23.8 4.4 33.2 12h1v-7.9zm-31.5 34.2q-2.7-2.4-5.9-4.2-3.1-1.8-6.5-3-3.4-1.2-6.9-1.8-3.6-0.6-7.2-0.6c-22.5 0-37 17.5-37 42.1 0 22.1 12.6 39.9 35.1 39.9q4 0 7.9-0.8 3.9-0.7 7.6-2.3 3.7-1.6 6.9-3.9 3.3-2.4 6-5.3zm89.6 44.3c0 11.5 1.9 16.4 5.2 20.5 2.2 2.6 5 4.7 8.1 6.1 3.1 1.4 6.5 2.1 10 2.1 3.4 0 6.8-0.7 9.9-2.1 3.1-1.4 5.9-3.5 8.1-6.1 3.3-4.1 5.2-9 5.2-20.5v-78.4h31.5v75.1c0 21.3-5.7 34.7-15.6 44.3q-4 3.9-8.7 7-4.7 3-9.9 5-5.3 2.1-10.8 3-5.5 1-11.1 0.9-5.3 0.1-10.6-0.9-5.2-1-10.1-2.9-4.9-2-9.4-4.9-4.5-2.9-8.2-6.6c-9.6-9.6-15.1-23.3-15.1-44.9v-75.1h31.5c0 0 0 78.4 0 78.4zm168.1 56.9c-37.8 0-68.4-31.2-68.4-69.7 0-38.6 30.6-69.7 68.4-69.7 37.9 0 68.5 31.1 68.5 69.7 0 38.5-30.6 69.7-68.5 69.7zm36.2-69.7c0-22.7-16.2-41-36.2-41-20 0-36.1 18.3-36.1 41 0 22.6 16.1 41 36.1 41 20 0 36.2-18.4 36.2-41zm139.1 39.9v24.3q-3.4 1.4-6.9 2.4-3.4 1.1-7 1.8-3.5 0.6-7.1 1-3.6 0.3-7.3 0.3c-13.9 0-24.3-4.1-31.4-11.2-7.7-7.7-11.5-18.9-11.5-38.9v-57.9h-30.2v-27.3h30.2v-43.8h31.4v43.7h39.8v27.4h-39.8v62c0 6.9 1.4 10.7 3.6 13.2 3.8 4.3 10.1 5.4 17 5.4q2.3 0 4.5-0.2 2.3-0.1 4.6-0.4 2.3-0.3 4.5-0.8 2.2-0.4 4.5-1c0 0 1 0 1.1 0zm77.2 29.8c-38.4 0-67.1-27.1-67.1-68.4 0-37.7 23-71 63.8-71 34.8 0 58 27.6 58 65.6v10.3h-89c0.9 20.5 15.1 35.9 35.9 35.9 13.4 0 25.8-5.5 37-14.8h1.1l11.7 21.9c-12.3 13.1-30.6 20.5-51.4 20.5zm23.3-88.1c-0.1-3.3-0.9-6.6-2.2-9.6-1.4-3-3.3-5.8-5.7-8.1-2.4-2.3-5.3-4-8.4-5.2-3.1-1.2-6.4-1.8-9.8-1.7-15.9 0-26.5 10.7-29.8 24.6 0 0 55.8 0 55.9 0z"/>
</svg>