<?xml version="1.0" encoding="UTF-8"?>
<svg id="Layer_1" xmlns="http://www.w3.org/2000/svg" version="1.1" viewBox="0 0 204 70">
  <!-- Generator: Adobe Illustrator 29.2.1, SVG Export Plug-In . SVG Version: 2.1.0 Build 116)  -->
  <defs>
    <style>
      .st0 {
        fill: #f04;
      }

      .st1 {
        fill: #ffffff;
      }

      .st2 {
        fill: #28f981;
      }
    </style>
  </defs>
  <path class="st0" d="M22.46,40.044h-6.524c-.792,0-1.524-.422-1.92-1.108l-3.749-6.493c-.396-.686-.396-1.531,0-2.217l3.749-6.493c.396-.686,1.128-1.108,1.92-1.108h6.521l5.181-8.973c-.111-.008-.22-.022-.332-.022h-15.242c-1.61,0-3.097.859-3.902,2.253L.54,29.081c-.805,1.394-.805,3.112,0,4.506l7.621,13.2c.805,1.394,2.293,2.253,3.902,2.253h15.242c.113,0,.224-.014.335-.022l-5.181-8.973Z"/>
  <path class="st2" d="M38.828,29.081l-7.621-13.2c-.057-.098-.124-.187-.187-.28l-5.181,8.973,3.262,5.651c.396.686.396,1.531,0,2.217l-3.261,5.648,5.181,8.973c.062-.092.129-.18.185-.277l7.621-13.2c.805-1.394.805-3.112,0-4.506Z"/>
  <g>
    <path class="st1" d="M60.069,42.126h-5.115v-18.326h-6.897v-4.338h18.94v4.338h-6.928v18.326Z"/>
    <path class="st1" d="M75.48,42.126h-5.115v-22.664h5.115v22.664Z"/>
    <path class="st1" d="M91.377,42.483c-3.412,0-6.244-1.117-8.5-3.352-2.255-2.233-3.382-5.034-3.382-8.402,0-3.281,1.149-6.038,3.447-8.271,2.299-2.235,5.175-3.352,8.63-3.352,3.367,0,6.345,1.263,8.935,3.789l-2.978,3.659c-1.813-1.986-3.777-2.978-5.892-2.978-1.923,0-3.551.652-4.889,1.959-1.338,1.305-2.007,3.015-2.007,5.13,0,.908.143,1.786.428,2.64.286.852.717,1.619,1.295,2.298.578.681,1.298,1.22,2.162,1.62.863.398,1.866.598,3.012.598,2.029,0,3.993-.895,5.892-2.686l3.01,3.269c-2.827,2.719-5.881,4.081-9.161,4.081Z"/>
    <path class="st1" d="M125.211,42.126h-6.12l-6.54-9.292-3.237,3.594v5.698h-5.115v-22.664h5.115v10.554l9.389-10.554h5.959l-8.549,9.422,9.098,13.242Z"/>
    <path class="st1" d="M154.091,42.126h-4.597v-15.314l-6.443,13.015h-3.302l-6.475-13.015v15.314h-4.597v-22.664h5.698l7.058,13.923,6.993-13.923h5.666v22.664Z"/>
    <path class="st1" d="M164.84,42.126h-5.115v-22.664h5.115v22.664Z"/>
    <path class="st1" d="M185.301,42.126h-14.827v-22.664h5.115v18.196h9.712v4.468Z"/>
    <path class="st1" d="M203.789,42.126h-14.827v-22.664h5.115v18.196h9.712v4.468Z"/>
  </g>
  <g>
    <path class="st1" d="M107.209,56.309c-1.126,0-2.073-.367-2.841-1.099-.768-.733-1.153-1.648-1.153-2.746s.381-2.009,1.142-2.735c.761-.726,1.712-1.089,2.852-1.089,1.147,0,2.1.367,2.857,1.099s1.137,1.641,1.137,2.725c0,1.098-.381,2.013-1.142,2.746-.761.733-1.712,1.099-2.852,1.099ZM107.23,54.843c.273,0,.542-.049.807-.146.266-.097.507-.244.725-.441.218-.197.392-.444.523-.744.131-.299.196-.649.196-1.049,0-.503-.106-.928-.319-1.275-.227-.365-.511-.636-.852-.815-.342-.179-.702-.268-1.081-.268-.595,0-1.126.22-1.593.659-.467.439-.701,1.006-.701,1.7,0,.701.23,1.273.69,1.716.46.443.995.664,1.604.664Z"/>
    <path class="st1" d="M119.573,56.192h-1.53l-3.601-4.78v4.78h-1.604v-7.436h1.53l3.612,4.801v-4.801h1.593v7.436Z"/>
    <path class="st1" d="M126.605,56.192h-4.865v-7.436h1.678v5.97h3.187v1.466Z"/>
    <path class="st1" d="M129.813,56.192h-1.678v-7.436h1.678v7.436Z"/>
    <path class="st1" d="M138.726,56.192h-1.53l-3.601-4.78v4.78h-1.604v-7.436h1.529l3.612,4.801v-4.801h1.593v7.436Z"/>
    <path class="st1" d="M146.671,56.192h-5.778v-7.436h5.662v1.392h-3.983v1.614h3.58v1.392h-3.58v1.646h4.1v1.392Z"/>
    <path class="st1" d="M155.445,56.192h-1.679v-6.012h-2.263v-1.423h6.214v1.423h-2.273v6.012Z"/>
    <path class="st1" d="M165.622,56.192h-1.901l-1.179-2.125h-1.71v2.125h-1.678v-7.436h3.229c.566,0,1.081.086,1.543.258.462.172.833.452,1.113.842.262.379.393.873.393,1.482,0,1.14-.464,1.94-1.392,2.401l1.583,2.454ZM162.382,52.666c.97,0,1.455-.425,1.455-1.275,0-.829-.485-1.243-1.455-1.243h-1.551v2.518h1.551Z"/>
    <path class="st1" d="M174.661,56.192h-1.795l-.584-1.445h-3.442l-.584,1.445h-1.731l3.229-7.436h1.731l3.176,7.436ZM171.74,53.399l-1.169-2.889-1.179,2.889h2.348Z"/>
    <path class="st1" d="M179.059,56.192h-3.091v-7.436h3.155c1.147,0,2.086.345,2.815,1.036s1.094,1.585,1.094,2.682c0,1.091-.368,1.983-1.105,2.677-.737.694-1.693,1.041-2.868,1.041ZM179.165,54.78c.266,0,.526-.043.781-.128.255-.085.486-.22.693-.404s.373-.421.497-.712c.124-.29.186-.641.186-1.052,0-.708-.22-1.271-.659-1.689-.439-.418-.963-.627-1.572-.627h-1.445v4.61h1.519Z"/>
    <path class="st1" d="M186.346,56.192h-1.678v-7.436h1.678v7.436Z"/>
    <path class="st1" d="M195.258,56.192h-1.53l-3.601-4.78v4.78h-1.604v-7.436h1.529l3.612,4.801v-4.801h1.593v7.436Z"/>
    <path class="st1" d="M200.856,56.309c-1.133,0-2.077-.364-2.831-1.092-.754-.728-1.132-1.627-1.132-2.694,0-1.082.388-1.98,1.163-2.694.776-.714,1.74-1.071,2.895-1.071,1.112,0,2.107.361,2.985,1.083l-.945,1.2c-.637-.552-1.317-.828-2.039-.828-.694,0-1.257.221-1.689.662-.432.442-.648.991-.648,1.648,0,.477.108.889.324,1.237.216.348.503.616.86.803.358.187.745.281,1.163.281.446,0,.931-.134,1.455-.402v-1.175h-1.561v-1.275h3.017v3.353c-.885.644-1.891.965-3.017.965Z"/>
  </g>
</svg>