<?xml version="1.0" encoding="UTF-8"?>
<svg id="Layer_1" xmlns="http://www.w3.org/2000/svg" version="1.1" viewBox="0 0 204 70">
  <!-- Generator: Adobe Illustrator 29.2.1, SVG Export Plug-In . SVG Version: 2.1.0 Build 116)  -->
  <defs>
    <style>
      .st0 {
        fill: #fff;
      }

      .st0, .st1 {
        fill-rule: evenodd;
      }

      .st1 {
        fill: #00a7e1;
      }
    </style>
  </defs>
  <rect y="15.156" width="204" height="39.689"/>
  <path class="st0" d="M187.827,38.12c5.421-1.558,6.898-3.283,6.898-8.046,0-3.53-1.561-6.98-8.212-6.98-6.241,0-7.966,2.791-8.212,6.98,0,.494.329.821.822.821h3.038c.574,0,.821-.245.903-.821.247-2.299,1.641-2.874,3.448-2.874,1.969,0,3.531.658,3.531,2.874,0,3.039-1.149,3.284-5.995,4.763-5.091,1.477-6.568,3.776-6.568,7.554v3.284c0,.493.247.821.821.821h14.78c.493,0,.821-.246.821-.821v-2.463c0-.575-.328-.821-.821-.821h-10.92c0-2.217,1.15-2.875,5.665-4.271"/>
  <path class="st0" d="M171.719,42.39v-18.312c0-.574-.41-.822-.985-.656l-7.226,2.71c-.411.163-.657.492-.657.903v2.873c0,.577.41.821.985.659l3.285-1.254v13.077h-4.27c-.575,0-.822.329-.822.821v2.463c0,.493.247.821.822.821h11.496c.492,0,.821-.246.821-.821v-2.463c0-.574-.329-.821-.821-.821h-2.628Z"/>
  <path class="st0" d="M153.557,38.12c5.42-1.558,6.899-3.283,6.899-8.046,0-3.53-1.561-6.98-8.212-6.98-6.24,0-7.966,2.791-8.212,6.98,0,.494.329.821.822.821h3.038c.574,0,.822-.245.903-.821.248-2.299,1.643-2.874,3.449-2.874,1.972,0,3.532.658,3.532,2.874,0,3.039-1.149,3.284-5.995,4.763-5.09,1.477-6.569,3.776-6.569,7.554v3.284c0,.493.247.821.821.821h14.781c.493,0,.821-.246.821-.821v-2.463c0-.575-.328-.821-.821-.821h-10.921c0-2.217,1.15-2.875,5.665-4.271"/>
  <path class="st0" d="M106.874,24.325v9.197l.291,4.601-8.01-14.045c-.246-.409-.492-.575-.986-.575h-3.12c-.575,0-.822.329-.822.822v21.35c0,.493.247.821.822.821h2.956c.493,0,.82-.327.82-.821v-9.197l-.291-4.601,8.009,14.045c.248.41.494.574.986.574h3.12c.493,0,.822-.246.822-.821v-21.35c0-.574-.329-.822-.822-.822h-2.955c-.575,0-.822.248-.822.822"/>
  <path class="st0" d="M89.794,45.675v-21.35c0-.575-.329-.822-.822-.822h-2.956c-.575,0-.822.329-.822.822v21.35c0,.493.247.821.822.821h2.956c.493,0,.822-.328.822-.821"/>
  <path class="st1" d="M53.5,28.87l3.202,7.115c.165.493.492.658.903.658h3.039c.657,0,.902-.411.657-.986l-5.174-11.497c-.164-.492-.493-.657-.903-.657h-3.448c-.411,0-.739.165-.904.657l-5.173,11.497c-.246.575,0,.986.657.986h3.038c.411,0,.739-.165.904-.658l3.203-7.115h-.001Z"/>
  <path class="st0" d="M35.105,33.686h-3.202v-6.077h3.202c2.792,0,3.943.823,3.943,3.04s-1.15,3.038-3.943,3.038h0ZM39.813,37.099c3.294-1.217,3.915-3.858,3.915-6.451,0-3.531-1.149-7.145-8.622-7.145h-6.978c-.576,0-.823.329-.823.822v21.35c0,.493.247.821.823.821h2.955c.493,0,.821-.328.821-.821v-7.884h3.435l3.381,8.048c.164.492.493.656.904.656h3.037c.658,0,.903-.411.658-.985l-3.505-8.411h0Z"/>
  <path class="st0" d="M23.857,23.503h-14.78c-.576,0-.822.247-.822.822v2.463c0,.492.329.821.822.821h5.091v18.066c0,.493.246.821.821.821h2.957c.493,0,.821-.328.821-.821v-18.066h5.091c.492,0,.821-.329.821-.821v-2.463c0-.575-.328-.822-.821-.822"/>
  <path class="st0" d="M131.919,34.178h-6.98c-.573,0-.821.247-.821.822v2.464c0,.491.248.821.821.821h3.121v.82c0,3.038-1.152,3.696-3.942,3.696s-3.942-.659-3.942-3.696v-8.211c0-3.039,1.15-3.695,3.942-3.695,2.545,0,3.694.575,3.942,2.874,0,.576.245.822.82.822h3.039c.493,0,.821-.328.821-.822-.164-4.188-1.642-6.979-8.621-6.979-7.473,0-8.622,3.201-8.622,7.555v8.702c0,4.354,1.149,7.556,8.622,7.556s8.621-3.202,8.621-7.556v-4.351c0-.575-.328-.822-.821-.822"/>
  <path class="st0" d="M76.41,38.694c0,3.039-1.15,3.696-3.942,3.696h-3.203v-14.782h3.203c2.792,0,3.942.658,3.942,3.696v7.39ZM72.468,23.503h-6.98c-.575,0-.821.329-.821.822v21.35c0,.493.246.821.821.821h6.98c7.472,0,8.622-3.202,8.622-7.554v-7.884c0-4.352-1.149-7.555-8.622-7.555h0Z"/>
</svg>