<svg xmlns="http://www.w3.org/2000/svg" viewBox="0 0 211 19" fill="none"><path fill="#fff" fill-rule="evenodd" d="M210.521 9.082v5.707h-.002l-.006.01a.562.562 0 0 1-.412.552l-7.823 2.01a1.179 1.179 0 0 1-.706-.03l-3.412-1.21a1.18 1.18 0 0 0-.706-.03l-7.515 1.944c-.283.072-.569-.117-.639-.421a.713.713 0 0 1-.014-.132v-5.707c0-.265.171-.493.412-.553l7.764-2.01c.232-.06.476-.052.706.03l3.418 1.204c.23.079.474.09.706.03l7.577-1.947c.283-.072.571.114.638.42a.638.638 0 0 1 .014.133Zm-.005-8.514v5.717a.562.562 0 0 1-.412.552l-7.817 2.008a1.179 1.179 0 0 1-.706-.03l-3.419-1.202a1.18 1.18 0 0 0-.706-.03l-7.514 1.944c-.283.072-.569-.117-.639-.42a.714.714 0 0 1-.014-.133V3.258c0-.264.171-.493.412-.55l7.764-2.01c.232-.06.476-.051.706.03l3.418 1.205c.23.078.474.09.706.03l7.568-1.948c.283-.072.572.115.639.421a.714.714 0 0 1 .014.132ZM170.004 16.64c1.195.705 2.589 1.057 4.181 1.057 1.357 0 2.56-.264 3.608-.793 1.049-.528 1.886-1.261 2.509-2.2.624-.946.99-2.028 1.1-3.246h-3.895a3.645 3.645 0 0 1-.583 1.54c-.3.433-.689.767-1.166 1.002-.469.234-1.001.352-1.595.352-.807 0-1.504-.198-2.091-.594-.579-.404-1.023-.968-1.331-1.695-.308-.733-.462-1.588-.462-2.563 0-.895.154-1.713.462-2.454.315-.74.763-1.328 1.342-1.76.587-.433 1.276-.65 2.069-.65.594 0 1.118.114 1.573.341.462.228.836.55 1.122.969.294.418.503.917.627 1.496h3.884c-.176-1.232-.586-2.31-1.232-3.235a6.5 6.5 0 0 0-2.52-2.145c-1.026-.514-2.196-.77-3.509-.77-1.578 0-2.957.352-4.137 1.056a7.1 7.1 0 0 0-2.729 2.927c-.638 1.24-.957 2.648-.957 4.225 0 1.57.322 2.978.968 4.225a7.142 7.142 0 0 0 2.762 2.915ZM13.782 1.56v15.867H17.7v-5.953h1.232l3.191 5.953h4.357l-3.564-6.349a4.37 4.37 0 0 0 1.639-.99 4.328 4.328 0 0 0 1.023-1.573 5.491 5.491 0 0 0 .352-1.992c0-1.005-.212-1.878-.638-2.619-.425-.748-1.045-1.324-1.86-1.727-.806-.41-1.767-.616-2.882-.616h-6.767Zm7.614 6.537c-.418.322-.931.484-1.54.484h-2.157V4.608h2.102c.403 0 .77.066 1.1.198.33.124.598.333.803.627.213.293.32.682.32 1.166 0 .668-.21 1.166-.628 1.497ZM59.55 1.56v15.866h10.585V14.18h-6.712v-3.367h5.766V7.942h-5.766V4.806h6.712V1.56H59.55ZM27.022 17.426l5.48-15.866h4.83l5.48 15.866h-4.193l-.935-3.092H32.15l-.936 3.092h-4.192Zm5.975-5.997h3.85l-1.254-4.07a69.17 69.17 0 0 1-.627-2.256h-.088c-.22.814-.433 1.566-.638 2.255l-1.243 4.071Zm10.956-9.87v15.867h5.59c1.715 0 3.182-.334 4.4-1.001 1.218-.668 2.138-1.596 2.762-2.784.623-1.188.935-2.564.935-4.126 0-1.562-.312-2.941-.935-4.137-.624-1.203-1.544-2.138-2.762-2.806-1.218-.675-2.684-1.012-4.4-1.012h-5.59Zm7.8 12.148c-.63.389-1.378.583-2.244.583h-1.738V4.696h1.727c.866 0 1.614.201 2.245.605.638.396 1.126.957 1.463 1.683.345.726.517 1.57.517 2.53 0 .955-.169 1.794-.506 2.52a3.832 3.832 0 0 1-1.463 1.673Zm26.328 3.725V1.566h6.766c1.115 0 2.076.205 2.883.616.814.403 1.434.98 1.86 1.727.425.741.638 1.614.638 2.619 0 .719-.118 1.383-.352 1.991a4.328 4.328 0 0 1-1.024 1.574c-.454.44-1 .77-1.64.99l3.566 6.349H86.42l-3.191-5.953h-1.232v5.953H78.08Zm6.073-8.846c.609 0 1.122-.162 1.54-.485.419-.33.628-.829.628-1.496 0-.484-.107-.873-.32-1.166a1.69 1.69 0 0 0-.803-.627 2.938 2.938 0 0 0-1.1-.199h-2.101v3.972h2.156Zm8.152-7.02v15.866h10.585v-3.246h-6.712v-3.367h5.766V7.947h-5.766V4.812h6.712V1.566H92.306Zm12.228 15.866V1.566h6.481c1.232 0 2.281.209 3.147.627.873.41 1.533.997 1.98 1.76.455.756.682 1.65.682 2.685 0 1.027-.227 1.925-.682 2.696-.447.77-1.107 1.368-1.98 1.793-.873.418-1.922.627-3.147.627h-2.597v5.678h-3.884Zm6.118-8.692c.484 0 .898-.077 1.243-.232a1.82 1.82 0 0 0 .814-.704c.198-.315.297-.704.297-1.166 0-.47-.095-.855-.286-1.155a1.634 1.634 0 0 0-.814-.671c-.352-.147-.77-.22-1.254-.22h-2.234V8.74h2.234Zm10.679 8.197c.982.498 2.189.748 3.619.748 1.438 0 2.645-.25 3.62-.748.976-.5 1.706-1.207 2.19-2.124.491-.917.737-2.002.737-3.257v-9.99h-3.917v9.737c0 1.05-.216 1.83-.649 2.344-.433.506-1.093.759-1.981.759-.902 0-1.569-.253-2.002-.76-.433-.513-.649-1.294-.649-2.343V1.566h-3.917v9.99c0 1.247.246 2.333.737 3.257.491.917 1.229 1.625 2.212 2.124Zm12.629.49V1.56h7.195c.932 0 1.743.18 2.432.54.697.351 1.229.835 1.595 1.452a3.88 3.88 0 0 1 .562 2.057c0 .499-.085.961-.253 1.387a3.388 3.388 0 0 1-.727 1.11 3.541 3.541 0 0 1-1.1.76v.022a4.081 4.081 0 0 1 1.529.88c.426.382.749.833.969 1.354.22.513.33 1.074.33 1.683 0 .866-.198 1.65-.594 2.355a4.29 4.29 0 0 1-1.673 1.661c-.726.403-1.577.605-2.552.605h-7.713Zm6.436-2.95c.433 0 .811-.077 1.134-.23.33-.155.583-.382.759-.683.183-.308.275-.678.275-1.111 0-.41-.092-.76-.275-1.045a1.652 1.652 0 0 0-.759-.65c-.323-.154-.701-.23-1.134-.23h-2.563v3.95h2.563Zm-.341-6.502c.404 0 .752-.07 1.045-.21.294-.139.518-.34.672-.604.161-.265.242-.584.242-.958s-.085-.69-.253-.946a1.433 1.433 0 0 0-.694-.583 2.44 2.44 0 0 0-1.012-.198h-2.222v3.499h2.222Zm8.594-6.41v15.867h10.123v-3.29h-6.206V1.566h-3.917Zm11.832 15.878V1.577h3.917v15.866h-3.917ZM4.302 17.426V4.828H0V1.56h12.488v3.268H8.186v12.598H4.302Z" clip-rule="evenodd"></path></svg>
