<svg version="1.2" xmlns="http://www.w3.org/2000/svg" viewBox="0 0 1551 408" width="1551" height="408">
	<title>XM_logo_black_2021-svg</title>
	<style>
		.s0 { fill: #ffffff } 
		.s1 { fill: #ff0000 } 
	</style>
	<path id="Layer" fill-rule="evenodd" class="s0" d="m867.3 90.3l-96.5 90.1-87.5-180.4h142.3zm401.7 131.9l-86.7 104.2-28.5-100.1-32.5 181.7h-238.9l-50.2-108.4-90.9 108.4h-138.8l348.1-408h254.3zm-196.9-196.1l-146.8 169.3 84.7 180.1zm350.2-26h128l-72 408h-117.6l34.2-193.5-88.5 137.9h-116.6z"/>
	<path id="Layer" class="s1" d="m183.8 15q-1 7.1-1.7 14.2-0.7 7.2-1 14.3-0.3 7.2-0.3 14.4 0 7.2 0.3 14.3c2.8 26.9 19.5 40.8 41.6 49.4q2.9 1.4 6 2.4 3 1 6.2 1.6 3.2 0.6 6.5 0.7 3.2 0.1 6.4-0.2 1.3-0.5 2.5-1 1.2-0.6 2.4-1.2 1.2-0.7 2.3-1.5 1.1-0.8 2.1-1.6 3.1-2.1 6.4-3.7 3.4-1.7 6.9-3 3.5-1.3 7.1-2.2 3.6-0.8 7.3-1.3 5.6-0.4 11.3-0.3 5.6 0.2 11.3 0.9 5.6 0.7 11.1 1.9 5.5 1.3 10.9 3.1 4.8 1.1 9.5 2.6 4.8 1.4 9.4 3.1 4.6 1.8 9.1 3.8 4.6 2 9 4.2 1.8 1.2 3.5 2.7 1.7 1.4 3.2 3 1.5 1.6 2.8 3.4 1.3 1.9 2.4 3.8c5.1 8.6 7.1 23.2 18.7 25.7q0.6-4.7 0.9-9.4 0.4-4.7 0.6-9.4 0.1-4.8 0-9.5 0-4.7-0.3-9.4 0.3-4.4 0.7-8.8 0.4-4.3 1-8.7 0.6-4.3 1.4-8.6 0.8-4.3 1.7-8.6 1.3-6 2.6-11.9 1.4-5.9 3-11.8 1.5-5.9 3.2-11.8 1.7-5.8 3.6-11.6c0.7-2.4 2.9-14.4 7.4-12.8 2.1 0.8 1.7 5.7 1.5 8.3 0 10.2-1.1 17.3-1.8 27.2q-0.9 9.1-1.3 18.3-0.3 9.1 0 18.2 0.3 9.2 1.2 18.3 0.9 9.1 2.4 18.1 1.1 4.3 2 8.7 0.8 4.4 1.3 8.8 0.5 4.4 0.7 8.8 0.2 4.5 0 8.9c0 3.3-1.9 7.2-2.6 10.8-0.7 3.7 0 5.5-0.7 7.9q-0.7 1.6-1.5 3.2-0.7 1.5-1.6 3-0.8 1.5-1.8 3-0.9 1.4-2 2.8c-0.6 1-1.9 3.3-3.3 6-1.5 2.8-3.5 3.5-3.4 6q0.8 2 2 3.8 1.1 1.8 2.6 3.4 1.6 1.6 3.3 2.8 1.8 1.2 3.8 2.1c16.8 4.7 35.3 7.2 45.3 17.2q2.4 2.4 4.5 5.1 2 2.8 3.5 5.8 1.5 3.1 2.4 6.3 0.9 3.3 1.2 6.7 0.1 3.2-0.2 6.3-0.3 3.1-1 6.2-0.7 3.1-1.8 6-1.1 3-2.6 5.8c-2.5 5.4-4.7 18.8-8.7 21.3-4 2.5-7.7 0.7-11.2 2.7q-0.6 1.6-1.1 3.4-0.6 1.7-1 3.4-0.5 1.7-0.9 3.5-0.4 1.8-0.7 3.5c-2.9 4-7 6.6-10.2 10.2 0.9 8.9-4.6 11.1-12 11.7-21.8 17.8-65.3 6-83.8-6.1-9.2 6.6-19.4 12.1-18.4 28.8q2.8 1.9 5.7 3.6 2.8 1.8 5.8 3.4 3 1.6 6 3 3 1.5 6.1 2.7c12.5 4.2 27.9 2 36 9.3l1.8 2.1h62.7l178-206.1-97.2-200.4h-347.2c-0.8 5.3-0.8 10.2-0.8 15z"/>
	<path id="Layer" class="s1" d="m20.4 404.8q4.7-4.3 9.9-8.2 5.1-3.9 10.5-7.2 5.5-3.4 11.3-6.3 5.7-2.8 11.7-5.1 4.6-1.7 9.1-3.6 4.5-2 8.8-4.2 4.3-2.3 8.5-4.8 4.2-2.5 8.2-5.3 1.3-1.4 2.8-2.6 1.5-1.2 3.1-2.2 1.6-1 3.3-1.8 1.8-0.8 3.6-1.3 3.4-0.1 6.9 0.2 3.4 0.2 6.8 0.8 3.4 0.6 6.7 1.4 3.3 0.9 6.5 2.1c4.2 0.7 8.5 0.9 12.7 0.6 4.2-0.4 8.4-1.3 12.4-2.8 4-1.4 7.8-3.4 11.2-5.8 3.5-2.4 6.7-5.3 9.4-8.5q2.2-1.9 4.3-3.9 2.1-2.1 3.9-4.4 1.8-2.2 3.4-4.7 1.6-2.4 3-5 1-4 1.6-8 0.6-4 0.9-8.1 0.3-4.1 0.2-8.2 0-4.1-0.5-8.1c0-23.4 8.8-39.8 9-61.2q-0.4-4.2-0.6-8.3-0.3-4.2-0.4-8.3-0.2-4.2-0.2-8.3 0-4.2 0.1-8.4-4.7-1.9-9.2-4.3-4.5-2.4-8.8-5.1-4.3-2.8-8.3-5.9-4.1-3.1-7.8-6.6c-2.9-3-5.4-6.3-7.6-9.8-2.2-3.5-4-7.2-5.4-11.1-1.4-3.9-2.4-7.9-3-12-0.6-4.1-0.7-8.3-0.4-12.4q-3.1-4.6-5.6-9.6-2.4-5-4-10.3-1.7-5.4-2.6-10.9-0.8-5.4-0.9-11 0.3-5.8 1-11.6 0.8-5.8 1.9-11.5 1.2-5.7 2.8-11.3 1.6-5.6 3.6-11.1c3.9-13.3 7.7-26.7 11.8-40.2h-78.1l-87.9 406.3h18.6z"/>
</svg>