<?xml version="1.0" encoding="UTF-8"?>
<svg id="Layer_1" data-name="Layer 1" xmlns="http://www.w3.org/2000/svg" version="1.1" viewBox="0 0 1250 500">
  <defs>
    <style>
      .cls-1 {
        fill: #fe0103;
        fill-rule: evenodd;
      }

      .cls-1, .cls-2 {
        stroke-width: 0px;
      }

      .cls-2 {
        fill: #fff;
      }
    </style>
  </defs>
  <rect class="cls-2" x="15.6" y="16.5" width="466.8" height="466.8"/>
  <path class="cls-1" d="M2.3,499.9h496.7V0H-1v500h3.3ZM338.9,354.4c-2.1-2.1-4.1-3.7-6.6-5.8-23.2-21.1-47.7-40.2-73.8-57.2-24,14.5-48.9,27.8-74.2,39.8l-155-31.1c30.3-7.9,60.1-17.4,89.1-29.4,19.5-7.9,38.1-16.6,56.8-26.1-11.6-5.8-23.2-10.8-35.2-15.3-29-11.6-58.9-21.1-89.1-29.4l155-31.1c17.4,8.3,34.4,17,51.4,26.1,19.1-13.7,36.9-28.2,54.3-43.5,2.1-2.1,4.1-3.7,6.6-5.8l130.6-24.9c-33.6,45.2-73.4,86.2-117.7,121.1,53.1,38.1,99.9,84.6,139.3,137.2l-130.6-24.5h-.8Z"/>
  <g>
    <path class="cls-2" d="M685,257l-85.9-112.7h63.5l56,73.5,54.4-73.5h62.3l-86.4,113,88.2,115.4h-63.5l-57.9-75.7-54.1,75.7h-62.2l85.7-115.8Z"/>
    <path class="cls-2" d="M952.7,372.7c-43.5,0-73.6-25.7-73.6-76.2v-101.5h-32.7v-50.7h32.7v-41.7l54-16.7v58.4h49.4v50.7h-49.4v99.6c0,17.3,9,27.4,22.4,27.4h27v50.7h-29.8,0Z"/>
    <path class="cls-2" d="M1133.7,377.1c-31.6,0-55.8-13.8-72.5-35.3v30.9h-51.7V52.2h54v120.4c16.7-19.7,40.9-32.6,71.8-32.6,63.2,0,113,53.5,113,120.2s-49.6,117-114.6,117h0ZM1192.8,258.5c0-38.6-27.1-65.7-65.7-65.7s-65.7,27.1-65.7,65.7,27.1,65.7,65.7,65.7,65.7-27.1,65.7-65.7Z"/>
  </g>
</svg>