<svg xmlns="http://www.w3.org/2000/svg" viewBox="0 0 120 120" fill="none">
  <rect width="120" height="120" rx="24" fill="#131722"/>
  <rect x="2" y="2" width="116" height="116" rx="22" stroke="white" stroke-opacity="0.1" stroke-width="2"/>
  <!-- Ascending chart line (TradingView signature) -->
  <path d="M22 82L42 62L56 72L78 42L98 28" stroke="#2962FF" stroke-width="5" stroke-linecap="round" stroke-linejoin="round" fill="none"/>
  <!-- Glow effect -->
  <path d="M22 82L42 62L56 72L78 42L98 28" stroke="#2962FF" stroke-width="12" stroke-linecap="round" stroke-linejoin="round" fill="none" opacity="0.15"/>
  <!-- Dot at end -->
  <circle cx="98" cy="28" r="6" fill="#2962FF"/>
  <circle cx="98" cy="28" r="3" fill="white"/>
  <!-- Grid lines -->
  <line x1="22" y1="50" x2="98" y2="50" stroke="white" stroke-opacity="0.08" stroke-width="1"/>
  <line x1="22" y1="66" x2="98" y2="66" stroke="white" stroke-opacity="0.08" stroke-width="1"/>
  <line x1="22" y1="82" x2="98" y2="82" stroke="white" stroke-opacity="0.08" stroke-width="1"/>
  <!-- Candlestick accents -->
  <rect x="32" y="68" width="4" height="10" rx="1" fill="#26A69A" opacity="0.5"/>
  <rect x="46" y="58" width="4" height="8" rx="1" fill="#EF5350" opacity="0.5"/>
  <rect x="64" y="48" width="4" height="12" rx="1" fill="#26A69A" opacity="0.5"/>
  <rect x="86" y="34" width="4" height="10" rx="1" fill="#26A69A" opacity="0.5"/>
</svg>